<?xml version="1.0" encoding="utf-8" standalone="no"?>
<!DOCTYPE svg PUBLIC "-//W3C//DTD SVG 1.1//EN"
  "http://www.w3.org/Graphics/SVG/1.1/DTD/svg11.dtd">
<!-- Created with matplotlib (https://matplotlib.org/) -->
<svg height="432pt" version="1.1" viewBox="0 0 504 432" width="504pt" xmlns="http://www.w3.org/2000/svg" xmlns:xlink="http://www.w3.org/1999/xlink">
 <defs>
  <style type="text/css">
*{stroke-linecap:butt;stroke-linejoin:round;white-space:pre;}
  </style>
 </defs>
 <g id="figure_1">
  <g id="patch_1">
   <path d="M 0 432 
L 504 432 
L 504 0 
L 0 0 
z
" style="fill:#ffffff;"/>
  </g>
  <g id="axes_1">
   <g id="patch_2">
    <path d="M 47.78774 190.076401 
L 451.79976 190.076401 
L 451.79976 3.00024 
L 47.78774 3.00024 
z
" style="fill:#ffffff;"/>
   </g>
   <g id="matplotlib.axis_1">
    <g id="xtick_1">
     <g id="line2d_1">
      <defs>
       <path d="M 0 0 
L 0 3.5 
" id="m9d44e65d0a" style="stroke:#000000;stroke-width:0.8;"/>
      </defs>
      <g>
       <use style="stroke:#000000;stroke-width:0.8;" x="66.151923" xlink:href="#m9d44e65d0a" y="190.076401"/>
      </g>
     </g>
    </g>
    <g id="xtick_2">
     <g id="line2d_2">
      <g>
       <use style="stroke:#000000;stroke-width:0.8;" x="116.464752" xlink:href="#m9d44e65d0a" y="190.076401"/>
      </g>
     </g>
    </g>
    <g id="xtick_3">
     <g id="line2d_3">
      <g>
       <use style="stroke:#000000;stroke-width:0.8;" x="166.777582" xlink:href="#m9d44e65d0a" y="190.076401"/>
      </g>
     </g>
    </g>
    <g id="xtick_4">
     <g id="line2d_4">
      <g>
       <use style="stroke:#000000;stroke-width:0.8;" x="217.090411" xlink:href="#m9d44e65d0a" y="190.076401"/>
      </g>
     </g>
    </g>
    <g id="xtick_5">
     <g id="line2d_5">
      <g>
       <use style="stroke:#000000;stroke-width:0.8;" x="267.40324" xlink:href="#m9d44e65d0a" y="190.076401"/>
      </g>
     </g>
    </g>
    <g id="xtick_6">
     <g id="line2d_6">
      <g>
       <use style="stroke:#000000;stroke-width:0.8;" x="317.71607" xlink:href="#m9d44e65d0a" y="190.076401"/>
      </g>
     </g>
    </g>
    <g id="xtick_7">
     <g id="line2d_7">
      <g>
       <use style="stroke:#000000;stroke-width:0.8;" x="368.028899" xlink:href="#m9d44e65d0a" y="190.076401"/>
      </g>
     </g>
    </g>
    <g id="xtick_8">
     <g id="line2d_8">
      <g>
       <use style="stroke:#000000;stroke-width:0.8;" x="418.341728" xlink:href="#m9d44e65d0a" y="190.076401"/>
      </g>
     </g>
    </g>
   </g>
   <g id="matplotlib.axis_2">
    <g id="ytick_1">
     <g id="line2d_9">
      <defs>
       <path d="M 0 0 
L -3.5 0 
" id="m16c1c6485d" style="stroke:#000000;stroke-width:0.8;"/>
      </defs>
      <g>
       <use style="stroke:#000000;stroke-width:0.8;" x="47.78774" xlink:href="#m16c1c6485d" y="187.000128"/>
      </g>
     </g>
     <g id="text_1">
      <!-- 0 -->
      <defs>
       <path d="M 31.78125 66.40625 
Q 24.171875 66.40625 20.328125 58.90625 
Q 16.5 51.421875 16.5 36.375 
Q 16.5 21.390625 20.328125 13.890625 
Q 24.171875 6.390625 31.78125 6.390625 
Q 39.453125 6.390625 43.28125 13.890625 
Q 47.125 21.390625 47.125 36.375 
Q 47.125 51.421875 43.28125 58.90625 
Q 39.453125 66.40625 31.78125 66.40625 
z
M 31.78125 74.21875 
Q 44.046875 74.21875 50.515625 64.515625 
Q 56.984375 54.828125 56.984375 36.375 
Q 56.984375 17.96875 50.515625 8.265625 
Q 44.046875 -1.421875 31.78125 -1.421875 
Q 19.53125 -1.421875 13.0625 8.265625 
Q 6.59375 17.96875 6.59375 36.375 
Q 6.59375 54.828125 13.0625 64.515625 
Q 19.53125 74.21875 31.78125 74.21875 
z
" id="DejaVuSans-48"/>
      </defs>
      <g transform="translate(34.42524 190.799346)scale(0.1 -0.1)">
       <use xlink:href="#DejaVuSans-48"/>
      </g>
     </g>
    </g>
    <g id="ytick_2">
     <g id="line2d_10">
      <g>
       <use style="stroke:#000000;stroke-width:0.8;" x="47.78774" xlink:href="#m16c1c6485d" y="147.227099"/>
      </g>
     </g>
     <g id="text_2">
      <!-- 50 -->
      <defs>
       <path d="M 10.796875 72.90625 
L 49.515625 72.90625 
L 49.515625 64.59375 
L 19.828125 64.59375 
L 19.828125 46.734375 
Q 21.96875 47.46875 24.109375 47.828125 
Q 26.265625 48.1875 28.421875 48.1875 
Q 40.625 48.1875 47.75 41.5 
Q 54.890625 34.8125 54.890625 23.390625 
Q 54.890625 11.625 47.5625 5.09375 
Q 40.234375 -1.421875 26.90625 -1.421875 
Q 22.3125 -1.421875 17.546875 -0.640625 
Q 12.796875 0.140625 7.71875 1.703125 
L 7.71875 11.625 
Q 12.109375 9.234375 16.796875 8.0625 
Q 21.484375 6.890625 26.703125 6.890625 
Q 35.15625 6.890625 40.078125 11.328125 
Q 45.015625 15.765625 45.015625 23.390625 
Q 45.015625 31 40.078125 35.4375 
Q 35.15625 39.890625 26.703125 39.890625 
Q 22.75 39.890625 18.8125 39.015625 
Q 14.890625 38.140625 10.796875 36.28125 
z
" id="DejaVuSans-53"/>
      </defs>
      <g transform="translate(28.06274 151.026317)scale(0.1 -0.1)">
       <use xlink:href="#DejaVuSans-53"/>
       <use x="63.623047" xlink:href="#DejaVuSans-48"/>
      </g>
     </g>
    </g>
    <g id="ytick_3">
     <g id="line2d_11">
      <g>
       <use style="stroke:#000000;stroke-width:0.8;" x="47.78774" xlink:href="#m16c1c6485d" y="107.45407"/>
      </g>
     </g>
     <g id="text_3">
      <!-- 100 -->
      <defs>
       <path d="M 12.40625 8.296875 
L 28.515625 8.296875 
L 28.515625 63.921875 
L 10.984375 60.40625 
L 10.984375 69.390625 
L 28.421875 72.90625 
L 38.28125 72.90625 
L 38.28125 8.296875 
L 54.390625 8.296875 
L 54.390625 0 
L 12.40625 0 
z
" id="DejaVuSans-49"/>
      </defs>
      <g transform="translate(21.70024 111.253289)scale(0.1 -0.1)">
       <use xlink:href="#DejaVuSans-49"/>
       <use x="63.623047" xlink:href="#DejaVuSans-48"/>
       <use x="127.246094" xlink:href="#DejaVuSans-48"/>
      </g>
     </g>
    </g>
    <g id="ytick_4">
     <g id="line2d_12">
      <g>
       <use style="stroke:#000000;stroke-width:0.8;" x="47.78774" xlink:href="#m16c1c6485d" y="67.681041"/>
      </g>
     </g>
     <g id="text_4">
      <!-- 150 -->
      <g transform="translate(21.70024 71.48026)scale(0.1 -0.1)">
       <use xlink:href="#DejaVuSans-49"/>
       <use x="63.623047" xlink:href="#DejaVuSans-53"/>
       <use x="127.246094" xlink:href="#DejaVuSans-48"/>
      </g>
     </g>
    </g>
    <g id="ytick_5">
     <g id="line2d_13">
      <g>
       <use style="stroke:#000000;stroke-width:0.8;" x="47.78774" xlink:href="#m16c1c6485d" y="27.908012"/>
      </g>
     </g>
     <g id="text_5">
      <!-- 200 -->
      <defs>
       <path d="M 19.1875 8.296875 
L 53.609375 8.296875 
L 53.609375 0 
L 7.328125 0 
L 7.328125 8.296875 
Q 12.9375 14.109375 22.625 23.890625 
Q 32.328125 33.6875 34.8125 36.53125 
Q 39.546875 41.84375 41.421875 45.53125 
Q 43.3125 49.21875 43.3125 52.78125 
Q 43.3125 58.59375 39.234375 62.25 
Q 35.15625 65.921875 28.609375 65.921875 
Q 23.96875 65.921875 18.8125 64.3125 
Q 13.671875 62.703125 7.8125 59.421875 
L 7.8125 69.390625 
Q 13.765625 71.78125 18.9375 73 
Q 24.125 74.21875 28.421875 74.21875 
Q 39.75 74.21875 46.484375 68.546875 
Q 53.21875 62.890625 53.21875 53.421875 
Q 53.21875 48.921875 51.53125 44.890625 
Q 49.859375 40.875 45.40625 35.40625 
Q 44.1875 33.984375 37.640625 27.21875 
Q 31.109375 20.453125 19.1875 8.296875 
z
" id="DejaVuSans-50"/>
      </defs>
      <g transform="translate(21.70024 31.707231)scale(0.1 -0.1)">
       <use xlink:href="#DejaVuSans-50"/>
       <use x="63.623047" xlink:href="#DejaVuSans-48"/>
       <use x="127.246094" xlink:href="#DejaVuSans-48"/>
      </g>
     </g>
    </g>
    <g id="text_6">
     <!-- Cladocera (m$^{-3}$) -->
     <defs>
      <path d="M 64.40625 67.28125 
L 64.40625 56.890625 
Q 59.421875 61.53125 53.78125 63.8125 
Q 48.140625 66.109375 41.796875 66.109375 
Q 29.296875 66.109375 22.65625 58.46875 
Q 16.015625 50.828125 16.015625 36.375 
Q 16.015625 21.96875 22.65625 14.328125 
Q 29.296875 6.6875 41.796875 6.6875 
Q 48.140625 6.6875 53.78125 8.984375 
Q 59.421875 11.28125 64.40625 15.921875 
L 64.40625 5.609375 
Q 59.234375 2.09375 53.4375 0.328125 
Q 47.65625 -1.421875 41.21875 -1.421875 
Q 24.65625 -1.421875 15.125 8.703125 
Q 5.609375 18.84375 5.609375 36.375 
Q 5.609375 53.953125 15.125 64.078125 
Q 24.65625 74.21875 41.21875 74.21875 
Q 47.75 74.21875 53.53125 72.484375 
Q 59.328125 70.75 64.40625 67.28125 
z
" id="DejaVuSans-67"/>
      <path d="M 9.421875 75.984375 
L 18.40625 75.984375 
L 18.40625 0 
L 9.421875 0 
z
" id="DejaVuSans-108"/>
      <path d="M 34.28125 27.484375 
Q 23.390625 27.484375 19.1875 25 
Q 14.984375 22.515625 14.984375 16.5 
Q 14.984375 11.71875 18.140625 8.90625 
Q 21.296875 6.109375 26.703125 6.109375 
Q 34.1875 6.109375 38.703125 11.40625 
Q 43.21875 16.703125 43.21875 25.484375 
L 43.21875 27.484375 
z
M 52.203125 31.203125 
L 52.203125 0 
L 43.21875 0 
L 43.21875 8.296875 
Q 40.140625 3.328125 35.546875 0.953125 
Q 30.953125 -1.421875 24.3125 -1.421875 
Q 15.921875 -1.421875 10.953125 3.296875 
Q 6 8.015625 6 15.921875 
Q 6 25.140625 12.171875 29.828125 
Q 18.359375 34.515625 30.609375 34.515625 
L 43.21875 34.515625 
L 43.21875 35.40625 
Q 43.21875 41.609375 39.140625 45 
Q 35.0625 48.390625 27.6875 48.390625 
Q 23 48.390625 18.546875 47.265625 
Q 14.109375 46.140625 10.015625 43.890625 
L 10.015625 52.203125 
Q 14.9375 54.109375 19.578125 55.046875 
Q 24.21875 56 28.609375 56 
Q 40.484375 56 46.34375 49.84375 
Q 52.203125 43.703125 52.203125 31.203125 
z
" id="DejaVuSans-97"/>
      <path d="M 45.40625 46.390625 
L 45.40625 75.984375 
L 54.390625 75.984375 
L 54.390625 0 
L 45.40625 0 
L 45.40625 8.203125 
Q 42.578125 3.328125 38.25 0.953125 
Q 33.9375 -1.421875 27.875 -1.421875 
Q 17.96875 -1.421875 11.734375 6.484375 
Q 5.515625 14.40625 5.515625 27.296875 
Q 5.515625 40.1875 11.734375 48.09375 
Q 17.96875 56 27.875 56 
Q 33.9375 56 38.25 53.625 
Q 42.578125 51.265625 45.40625 46.390625 
z
M 14.796875 27.296875 
Q 14.796875 17.390625 18.875 11.75 
Q 22.953125 6.109375 30.078125 6.109375 
Q 37.203125 6.109375 41.296875 11.75 
Q 45.40625 17.390625 45.40625 27.296875 
Q 45.40625 37.203125 41.296875 42.84375 
Q 37.203125 48.484375 30.078125 48.484375 
Q 22.953125 48.484375 18.875 42.84375 
Q 14.796875 37.203125 14.796875 27.296875 
z
" id="DejaVuSans-100"/>
      <path d="M 30.609375 48.390625 
Q 23.390625 48.390625 19.1875 42.75 
Q 14.984375 37.109375 14.984375 27.296875 
Q 14.984375 17.484375 19.15625 11.84375 
Q 23.34375 6.203125 30.609375 6.203125 
Q 37.796875 6.203125 41.984375 11.859375 
Q 46.1875 17.53125 46.1875 27.296875 
Q 46.1875 37.015625 41.984375 42.703125 
Q 37.796875 48.390625 30.609375 48.390625 
z
M 30.609375 56 
Q 42.328125 56 49.015625 48.375 
Q 55.71875 40.765625 55.71875 27.296875 
Q 55.71875 13.875 49.015625 6.21875 
Q 42.328125 -1.421875 30.609375 -1.421875 
Q 18.84375 -1.421875 12.171875 6.21875 
Q 5.515625 13.875 5.515625 27.296875 
Q 5.515625 40.765625 12.171875 48.375 
Q 18.84375 56 30.609375 56 
z
" id="DejaVuSans-111"/>
      <path d="M 48.78125 52.59375 
L 48.78125 44.1875 
Q 44.96875 46.296875 41.140625 47.34375 
Q 37.3125 48.390625 33.40625 48.390625 
Q 24.65625 48.390625 19.8125 42.84375 
Q 14.984375 37.3125 14.984375 27.296875 
Q 14.984375 17.28125 19.8125 11.734375 
Q 24.65625 6.203125 33.40625 6.203125 
Q 37.3125 6.203125 41.140625 7.25 
Q 44.96875 8.296875 48.78125 10.40625 
L 48.78125 2.09375 
Q 45.015625 0.34375 40.984375 -0.53125 
Q 36.96875 -1.421875 32.421875 -1.421875 
Q 20.0625 -1.421875 12.78125 6.34375 
Q 5.515625 14.109375 5.515625 27.296875 
Q 5.515625 40.671875 12.859375 48.328125 
Q 20.21875 56 33.015625 56 
Q 37.15625 56 41.109375 55.140625 
Q 45.0625 54.296875 48.78125 52.59375 
z
" id="DejaVuSans-99"/>
      <path d="M 56.203125 29.59375 
L 56.203125 25.203125 
L 14.890625 25.203125 
Q 15.484375 15.921875 20.484375 11.0625 
Q 25.484375 6.203125 34.421875 6.203125 
Q 39.59375 6.203125 44.453125 7.46875 
Q 49.3125 8.734375 54.109375 11.28125 
L 54.109375 2.78125 
Q 49.265625 0.734375 44.1875 -0.34375 
Q 39.109375 -1.421875 33.890625 -1.421875 
Q 20.796875 -1.421875 13.15625 6.1875 
Q 5.515625 13.8125 5.515625 26.8125 
Q 5.515625 40.234375 12.765625 48.109375 
Q 20.015625 56 32.328125 56 
Q 43.359375 56 49.78125 48.890625 
Q 56.203125 41.796875 56.203125 29.59375 
z
M 47.21875 32.234375 
Q 47.125 39.59375 43.09375 43.984375 
Q 39.0625 48.390625 32.421875 48.390625 
Q 24.90625 48.390625 20.390625 44.140625 
Q 15.875 39.890625 15.1875 32.171875 
z
" id="DejaVuSans-101"/>
      <path d="M 41.109375 46.296875 
Q 39.59375 47.171875 37.8125 47.578125 
Q 36.03125 48 33.890625 48 
Q 26.265625 48 22.1875 43.046875 
Q 18.109375 38.09375 18.109375 28.8125 
L 18.109375 0 
L 9.078125 0 
L 9.078125 54.6875 
L 18.109375 54.6875 
L 18.109375 46.1875 
Q 20.953125 51.171875 25.484375 53.578125 
Q 30.03125 56 36.53125 56 
Q 37.453125 56 38.578125 55.875 
Q 39.703125 55.765625 41.0625 55.515625 
z
" id="DejaVuSans-114"/>
      <path id="DejaVuSans-32"/>
      <path d="M 31 75.875 
Q 24.46875 64.65625 21.28125 53.65625 
Q 18.109375 42.671875 18.109375 31.390625 
Q 18.109375 20.125 21.3125 9.0625 
Q 24.515625 -2 31 -13.1875 
L 23.1875 -13.1875 
Q 15.875 -1.703125 12.234375 9.375 
Q 8.59375 20.453125 8.59375 31.390625 
Q 8.59375 42.28125 12.203125 53.3125 
Q 15.828125 64.359375 23.1875 75.875 
z
" id="DejaVuSans-40"/>
      <path d="M 52 44.1875 
Q 55.375 50.25 60.0625 53.125 
Q 64.75 56 71.09375 56 
Q 79.640625 56 84.28125 50.015625 
Q 88.921875 44.046875 88.921875 33.015625 
L 88.921875 0 
L 79.890625 0 
L 79.890625 32.71875 
Q 79.890625 40.578125 77.09375 44.375 
Q 74.3125 48.1875 68.609375 48.1875 
Q 61.625 48.1875 57.5625 43.546875 
Q 53.515625 38.921875 53.515625 30.90625 
L 53.515625 0 
L 44.484375 0 
L 44.484375 32.71875 
Q 44.484375 40.625 41.703125 44.40625 
Q 38.921875 48.1875 33.109375 48.1875 
Q 26.21875 48.1875 22.15625 43.53125 
Q 18.109375 38.875 18.109375 30.90625 
L 18.109375 0 
L 9.078125 0 
L 9.078125 54.6875 
L 18.109375 54.6875 
L 18.109375 46.1875 
Q 21.1875 51.21875 25.484375 53.609375 
Q 29.78125 56 35.6875 56 
Q 41.65625 56 45.828125 52.96875 
Q 50 49.953125 52 44.1875 
z
" id="DejaVuSans-109"/>
      <path d="M 10.59375 35.5 
L 73.1875 35.5 
L 73.1875 27.203125 
L 10.59375 27.203125 
z
" id="DejaVuSans-8722"/>
      <path d="M 40.578125 39.3125 
Q 47.65625 37.796875 51.625 33 
Q 55.609375 28.21875 55.609375 21.1875 
Q 55.609375 10.40625 48.1875 4.484375 
Q 40.765625 -1.421875 27.09375 -1.421875 
Q 22.515625 -1.421875 17.65625 -0.515625 
Q 12.796875 0.390625 7.625 2.203125 
L 7.625 11.71875 
Q 11.71875 9.328125 16.59375 8.109375 
Q 21.484375 6.890625 26.8125 6.890625 
Q 36.078125 6.890625 40.9375 10.546875 
Q 45.796875 14.203125 45.796875 21.1875 
Q 45.796875 27.640625 41.28125 31.265625 
Q 36.765625 34.90625 28.71875 34.90625 
L 20.21875 34.90625 
L 20.21875 43.015625 
L 29.109375 43.015625 
Q 36.375 43.015625 40.234375 45.921875 
Q 44.09375 48.828125 44.09375 54.296875 
Q 44.09375 59.90625 40.109375 62.90625 
Q 36.140625 65.921875 28.71875 65.921875 
Q 24.65625 65.921875 20.015625 65.03125 
Q 15.375 64.15625 9.8125 62.3125 
L 9.8125 71.09375 
Q 15.4375 72.65625 20.34375 73.4375 
Q 25.25 74.21875 29.59375 74.21875 
Q 40.828125 74.21875 47.359375 69.109375 
Q 53.90625 64.015625 53.90625 55.328125 
Q 53.90625 49.265625 50.4375 45.09375 
Q 46.96875 40.921875 40.578125 39.3125 
z
" id="DejaVuSans-51"/>
      <path d="M 8.015625 75.875 
L 15.828125 75.875 
Q 23.140625 64.359375 26.78125 53.3125 
Q 30.421875 42.28125 30.421875 31.390625 
Q 30.421875 20.453125 26.78125 9.375 
Q 23.140625 -1.703125 15.828125 -13.1875 
L 8.015625 -13.1875 
Q 14.5 -2 17.703125 9.0625 
Q 20.90625 20.125 20.90625 31.390625 
Q 20.90625 42.671875 17.703125 53.65625 
Q 14.5 64.65625 8.015625 75.875 
z
" id="DejaVuSans-41"/>
     </defs>
     <g style="fill:#008000;" transform="translate(14.788678 153.72832)rotate(-90)scale(0.14 -0.14)">
      <use transform="translate(0 0.765625)" xlink:href="#DejaVuSans-67"/>
      <use transform="translate(69.824219 0.765625)" xlink:href="#DejaVuSans-108"/>
      <use transform="translate(97.607422 0.765625)" xlink:href="#DejaVuSans-97"/>
      <use transform="translate(158.886719 0.765625)" xlink:href="#DejaVuSans-100"/>
      <use transform="translate(222.363281 0.765625)" xlink:href="#DejaVuSans-111"/>
      <use transform="translate(283.544922 0.765625)" xlink:href="#DejaVuSans-99"/>
      <use transform="translate(338.525391 0.765625)" xlink:href="#DejaVuSans-101"/>
      <use transform="translate(400.048828 0.765625)" xlink:href="#DejaVuSans-114"/>
      <use transform="translate(441.162109 0.765625)" xlink:href="#DejaVuSans-97"/>
      <use transform="translate(502.441406 0.765625)" xlink:href="#DejaVuSans-32"/>
      <use transform="translate(534.228516 0.765625)" xlink:href="#DejaVuSans-40"/>
      <use transform="translate(573.242188 0.765625)" xlink:href="#DejaVuSans-109"/>
      <use transform="translate(671.611328 39.046875)scale(0.7)" xlink:href="#DejaVuSans-8722"/>
      <use transform="translate(730.263672 39.046875)scale(0.7)" xlink:href="#DejaVuSans-51"/>
      <use transform="translate(777.53418 0.765625)" xlink:href="#DejaVuSans-41"/>
     </g>
    </g>
   </g>
   <g id="line2d_14">
    <path clip-path="url(#p6607d165cc)" d="M 67.158179 181.572939 
L 76.214489 180.316256 
L 84.264541 178.97574 
L 91.308337 177.601603 
L 98.352134 176.011983 
L 105.39593 174.177385 
L 111.433469 172.385277 
L 117.471009 170.36692 
L 123.508548 168.098195 
L 129.546088 165.553264 
L 134.577371 163.201704 
L 139.608654 160.622519 
L 144.639937 157.798291 
L 149.67122 154.711023 
L 154.702502 151.34228 
L 159.733785 147.673354 
L 164.765068 143.685497 
L 169.796351 139.360194 
L 174.827634 134.679518 
L 179.858917 129.626563 
L 184.8902 124.185979 
L 189.921483 118.344629 
L 194.952766 112.092403 
L 199.984049 105.423214 
L 205.015332 98.336248 
L 210.046615 90.837529 
L 215.077898 82.941922 
L 220.109181 74.675764 
L 226.14672 64.326834 
L 234.196773 49.99286 
L 246.271852 28.393034 
L 250.296878 21.655519 
L 253.315648 17.017891 
L 255.328161 14.263798 
L 257.340674 12.000662 
L 258.346931 11.503702 
L 259.353188 12.372243 
L 261.365701 14.758494 
L 263.378214 17.577105 
L 266.396984 22.27345 
L 270.42201 29.05468 
L 276.45955 39.77404 
L 290.547142 64.994432 
L 296.584681 75.316178 
L 302.622221 85.159492 
L 307.653504 92.947646 
L 312.684787 100.333789 
L 317.71607 107.305727 
L 322.747353 113.859503 
L 327.778636 119.997528 
L 332.809918 125.727111 
L 337.841201 131.059289 
L 342.872484 136.007885 
L 347.903767 140.588736 
L 352.93505 144.819081 
L 357.966333 148.717048 
L 362.997616 152.301247 
L 368.028899 155.590442 
L 373.060182 158.603284 
L 378.091465 161.358105 
L 383.122748 163.872752 
L 388.154031 166.164467 
L 394.19157 168.643495 
L 400.22911 170.852409 
L 406.266649 172.816656 
L 412.304189 174.559955 
L 419.347985 176.343778 
L 426.391781 177.888678 
L 432.429321 179.044703 
L 432.429321 179.044703 
" style="fill:none;stroke:#008000;stroke-linecap:square;stroke-width:1.5;"/>
   </g>
   <g id="line2d_15">
    <defs>
     <path d="M 0 3 
C 0.795609 3 1.55874 2.683901 2.12132 2.12132 
C 2.683901 1.55874 3 0.795609 3 0 
C 3 -0.795609 2.683901 -1.55874 2.12132 -2.12132 
C 1.55874 -2.683901 0.795609 -3 0 -3 
C -0.795609 -3 -1.55874 -2.683901 -2.12132 -2.12132 
C -2.683901 -1.55874 -3 -0.795609 -3 0 
C -3 0.795609 -2.683901 1.55874 -2.12132 2.12132 
C -1.55874 2.683901 -0.795609 3 0 3 
z
" id="mab3e3f1eb7" style="stroke:#008000;"/>
    </defs>
    <g clip-path="url(#p6607d165cc)">
     <use style="fill:#008000;stroke:#008000;" x="81.245772" xlink:href="#mab3e3f1eb7" y="180.636443"/>
     <use style="fill:#008000;stroke:#008000;" x="111.433469" xlink:href="#mab3e3f1eb7" y="174.272758"/>
     <use style="fill:#008000;stroke:#008000;" x="141.621167" xlink:href="#mab3e3f1eb7" y="161.545389"/>
     <use style="fill:#008000;stroke:#008000;" x="171.808864" xlink:href="#mab3e3f1eb7" y="125.749663"/>
     <use style="fill:#008000;stroke:#008000;" x="201.996562" xlink:href="#mab3e3f1eb7" y="95.522161"/>
     <use style="fill:#008000;stroke:#008000;" x="232.18426" xlink:href="#mab3e3f1eb7" y="58.135514"/>
     <use style="fill:#008000;stroke:#008000;" x="262.371957" xlink:href="#mab3e3f1eb7" y="15.976103"/>
     <use style="fill:#008000;stroke:#008000;" x="292.559655" xlink:href="#mab3e3f1eb7" y="75.635647"/>
     <use style="fill:#008000;stroke:#008000;" x="322.747353" xlink:href="#mab3e3f1eb7" y="122.567821"/>
     <use style="fill:#008000;stroke:#008000;" x="352.93505" xlink:href="#mab3e3f1eb7" y="141.658875"/>
     <use style="fill:#008000;stroke:#008000;" x="383.122748" xlink:href="#mab3e3f1eb7" y="176.65914"/>
     <use style="fill:#008000;stroke:#008000;" x="413.310446" xlink:href="#mab3e3f1eb7" y="177.454601"/>
    </g>
   </g>
   <g id="patch_3">
    <path d="M 47.78774 190.076401 
L 47.78774 3.00024 
" style="fill:none;stroke:#000000;stroke-linecap:square;stroke-linejoin:miter;stroke-width:0.8;"/>
   </g>
   <g id="patch_4">
    <path d="M 451.79976 190.076401 
L 451.79976 3.00024 
" style="fill:none;stroke:#000000;stroke-linecap:square;stroke-linejoin:miter;stroke-width:0.8;"/>
   </g>
   <g id="patch_5">
    <path d="M 47.78774 190.076401 
L 451.79976 190.076401 
" style="fill:none;stroke:#000000;stroke-linecap:square;stroke-linejoin:miter;stroke-width:0.8;"/>
   </g>
   <g id="patch_6">
    <path d="M 47.78774 3.00024 
L 451.79976 3.00024 
" style="fill:none;stroke:#000000;stroke-linecap:square;stroke-linejoin:miter;stroke-width:0.8;"/>
   </g>
  </g>
  <g id="axes_2">
   <g id="patch_7">
    <path d="M 47.78774 394.77226 
L 451.79976 394.77226 
L 451.79976 207.696099 
L 47.78774 207.696099 
z
" style="fill:#ffffff;"/>
   </g>
   <g id="matplotlib.axis_3">
    <g id="xtick_9">
     <g id="line2d_16">
      <g>
       <use style="stroke:#000000;stroke-width:0.8;" x="66.151923" xlink:href="#m9d44e65d0a" y="394.77226"/>
      </g>
     </g>
     <g id="text_7">
      <!-- 0 -->
      <g transform="translate(62.970673 409.370698)scale(0.1 -0.1)">
       <use xlink:href="#DejaVuSans-48"/>
      </g>
     </g>
    </g>
    <g id="xtick_10">
     <g id="line2d_17">
      <g>
       <use style="stroke:#000000;stroke-width:0.8;" x="116.464752" xlink:href="#m9d44e65d0a" y="394.77226"/>
      </g>
     </g>
     <g id="text_8">
      <!-- 50 -->
      <g transform="translate(110.102252 409.370698)scale(0.1 -0.1)">
       <use xlink:href="#DejaVuSans-53"/>
       <use x="63.623047" xlink:href="#DejaVuSans-48"/>
      </g>
     </g>
    </g>
    <g id="xtick_11">
     <g id="line2d_18">
      <g>
       <use style="stroke:#000000;stroke-width:0.8;" x="166.777582" xlink:href="#m9d44e65d0a" y="394.77226"/>
      </g>
     </g>
     <g id="text_9">
      <!-- 100 -->
      <g transform="translate(157.233832 409.370698)scale(0.1 -0.1)">
       <use xlink:href="#DejaVuSans-49"/>
       <use x="63.623047" xlink:href="#DejaVuSans-48"/>
       <use x="127.246094" xlink:href="#DejaVuSans-48"/>
      </g>
     </g>
    </g>
    <g id="xtick_12">
     <g id="line2d_19">
      <g>
       <use style="stroke:#000000;stroke-width:0.8;" x="217.090411" xlink:href="#m9d44e65d0a" y="394.77226"/>
      </g>
     </g>
     <g id="text_10">
      <!-- 150 -->
      <g transform="translate(207.546661 409.370698)scale(0.1 -0.1)">
       <use xlink:href="#DejaVuSans-49"/>
       <use x="63.623047" xlink:href="#DejaVuSans-53"/>
       <use x="127.246094" xlink:href="#DejaVuSans-48"/>
      </g>
     </g>
    </g>
    <g id="xtick_13">
     <g id="line2d_20">
      <g>
       <use style="stroke:#000000;stroke-width:0.8;" x="267.40324" xlink:href="#m9d44e65d0a" y="394.77226"/>
      </g>
     </g>
     <g id="text_11">
      <!-- 200 -->
      <g transform="translate(257.85949 409.370698)scale(0.1 -0.1)">
       <use xlink:href="#DejaVuSans-50"/>
       <use x="63.623047" xlink:href="#DejaVuSans-48"/>
       <use x="127.246094" xlink:href="#DejaVuSans-48"/>
      </g>
     </g>
    </g>
    <g id="xtick_14">
     <g id="line2d_21">
      <g>
       <use style="stroke:#000000;stroke-width:0.8;" x="317.71607" xlink:href="#m9d44e65d0a" y="394.77226"/>
      </g>
     </g>
     <g id="text_12">
      <!-- 250 -->
      <g transform="translate(308.17232 409.370698)scale(0.1 -0.1)">
       <use xlink:href="#DejaVuSans-50"/>
       <use x="63.623047" xlink:href="#DejaVuSans-53"/>
       <use x="127.246094" xlink:href="#DejaVuSans-48"/>
      </g>
     </g>
    </g>
    <g id="xtick_15">
     <g id="line2d_22">
      <g>
       <use style="stroke:#000000;stroke-width:0.8;" x="368.028899" xlink:href="#m9d44e65d0a" y="394.77226"/>
      </g>
     </g>
     <g id="text_13">
      <!-- 300 -->
      <g transform="translate(358.485149 409.370698)scale(0.1 -0.1)">
       <use xlink:href="#DejaVuSans-51"/>
       <use x="63.623047" xlink:href="#DejaVuSans-48"/>
       <use x="127.246094" xlink:href="#DejaVuSans-48"/>
      </g>
     </g>
    </g>
    <g id="xtick_16">
     <g id="line2d_23">
      <g>
       <use style="stroke:#000000;stroke-width:0.8;" x="418.341728" xlink:href="#m9d44e65d0a" y="394.77226"/>
      </g>
     </g>
     <g id="text_14">
      <!-- 350 -->
      <g transform="translate(408.797978 409.370698)scale(0.1 -0.1)">
       <use xlink:href="#DejaVuSans-51"/>
       <use x="63.623047" xlink:href="#DejaVuSans-53"/>
       <use x="127.246094" xlink:href="#DejaVuSans-48"/>
      </g>
     </g>
    </g>
    <g id="text_15">
     <!-- Day of year -->
     <defs>
      <path d="M 19.671875 64.796875 
L 19.671875 8.109375 
L 31.59375 8.109375 
Q 46.6875 8.109375 53.6875 14.9375 
Q 60.6875 21.78125 60.6875 36.53125 
Q 60.6875 51.171875 53.6875 57.984375 
Q 46.6875 64.796875 31.59375 64.796875 
z
M 9.8125 72.90625 
L 30.078125 72.90625 
Q 51.265625 72.90625 61.171875 64.09375 
Q 71.09375 55.28125 71.09375 36.53125 
Q 71.09375 17.671875 61.125 8.828125 
Q 51.171875 0 30.078125 0 
L 9.8125 0 
z
" id="DejaVuSans-68"/>
      <path d="M 32.171875 -5.078125 
Q 28.375 -14.84375 24.75 -17.8125 
Q 21.140625 -20.796875 15.09375 -20.796875 
L 7.90625 -20.796875 
L 7.90625 -13.28125 
L 13.1875 -13.28125 
Q 16.890625 -13.28125 18.9375 -11.515625 
Q 21 -9.765625 23.484375 -3.21875 
L 25.09375 0.875 
L 2.984375 54.6875 
L 12.5 54.6875 
L 29.59375 11.921875 
L 46.6875 54.6875 
L 56.203125 54.6875 
z
" id="DejaVuSans-121"/>
      <path d="M 37.109375 75.984375 
L 37.109375 68.5 
L 28.515625 68.5 
Q 23.6875 68.5 21.796875 66.546875 
Q 19.921875 64.59375 19.921875 59.515625 
L 19.921875 54.6875 
L 34.71875 54.6875 
L 34.71875 47.703125 
L 19.921875 47.703125 
L 19.921875 0 
L 10.890625 0 
L 10.890625 47.703125 
L 2.296875 47.703125 
L 2.296875 54.6875 
L 10.890625 54.6875 
L 10.890625 58.5 
Q 10.890625 67.625 15.140625 71.796875 
Q 19.390625 75.984375 28.609375 75.984375 
z
" id="DejaVuSans-102"/>
     </defs>
     <g transform="translate(209.156563 426.088197)scale(0.14 -0.14)">
      <use xlink:href="#DejaVuSans-68"/>
      <use x="77.001953" xlink:href="#DejaVuSans-97"/>
      <use x="138.28125" xlink:href="#DejaVuSans-121"/>
      <use x="197.460938" xlink:href="#DejaVuSans-32"/>
      <use x="229.248047" xlink:href="#DejaVuSans-111"/>
      <use x="290.429688" xlink:href="#DejaVuSans-102"/>
      <use x="325.634766" xlink:href="#DejaVuSans-32"/>
      <use x="357.421875" xlink:href="#DejaVuSans-121"/>
      <use x="416.601562" xlink:href="#DejaVuSans-101"/>
      <use x="478.125" xlink:href="#DejaVuSans-97"/>
      <use x="539.404297" xlink:href="#DejaVuSans-114"/>
     </g>
    </g>
   </g>
   <g id="matplotlib.axis_4">
    <g id="ytick_6">
     <g id="line2d_24">
      <g>
       <use style="stroke:#000000;stroke-width:0.8;" x="47.78774" xlink:href="#m16c1c6485d" y="394.77226"/>
      </g>
     </g>
     <g id="text_16">
      <!-- 0.0 -->
      <defs>
       <path d="M 10.6875 12.40625 
L 21 12.40625 
L 21 0 
L 10.6875 0 
z
" id="DejaVuSans-46"/>
      </defs>
      <g transform="translate(24.884615 398.571479)scale(0.1 -0.1)">
       <use xlink:href="#DejaVuSans-48"/>
       <use x="63.623047" xlink:href="#DejaVuSans-46"/>
       <use x="95.410156" xlink:href="#DejaVuSans-48"/>
      </g>
     </g>
    </g>
    <g id="ytick_7">
     <g id="line2d_25">
      <g>
       <use style="stroke:#000000;stroke-width:0.8;" x="47.78774" xlink:href="#m16c1c6485d" y="363.5929"/>
      </g>
     </g>
     <g id="text_17">
      <!-- 0.1 -->
      <g transform="translate(24.884615 367.392119)scale(0.1 -0.1)">
       <use xlink:href="#DejaVuSans-48"/>
       <use x="63.623047" xlink:href="#DejaVuSans-46"/>
       <use x="95.410156" xlink:href="#DejaVuSans-49"/>
      </g>
     </g>
    </g>
    <g id="ytick_8">
     <g id="line2d_26">
      <g>
       <use style="stroke:#000000;stroke-width:0.8;" x="47.78774" xlink:href="#m16c1c6485d" y="332.41354"/>
      </g>
     </g>
     <g id="text_18">
      <!-- 0.2 -->
      <g transform="translate(24.884615 336.212759)scale(0.1 -0.1)">
       <use xlink:href="#DejaVuSans-48"/>
       <use x="63.623047" xlink:href="#DejaVuSans-46"/>
       <use x="95.410156" xlink:href="#DejaVuSans-50"/>
      </g>
     </g>
    </g>
    <g id="ytick_9">
     <g id="line2d_27">
      <g>
       <use style="stroke:#000000;stroke-width:0.8;" x="47.78774" xlink:href="#m16c1c6485d" y="301.23418"/>
      </g>
     </g>
     <g id="text_19">
      <!-- 0.3 -->
      <g transform="translate(24.884615 305.033398)scale(0.1 -0.1)">
       <use xlink:href="#DejaVuSans-48"/>
       <use x="63.623047" xlink:href="#DejaVuSans-46"/>
       <use x="95.410156" xlink:href="#DejaVuSans-51"/>
      </g>
     </g>
    </g>
    <g id="ytick_10">
     <g id="line2d_28">
      <g>
       <use style="stroke:#000000;stroke-width:0.8;" x="47.78774" xlink:href="#m16c1c6485d" y="270.05482"/>
      </g>
     </g>
     <g id="text_20">
      <!-- 0.4 -->
      <defs>
       <path d="M 37.796875 64.3125 
L 12.890625 25.390625 
L 37.796875 25.390625 
z
M 35.203125 72.90625 
L 47.609375 72.90625 
L 47.609375 25.390625 
L 58.015625 25.390625 
L 58.015625 17.1875 
L 47.609375 17.1875 
L 47.609375 0 
L 37.796875 0 
L 37.796875 17.1875 
L 4.890625 17.1875 
L 4.890625 26.703125 
z
" id="DejaVuSans-52"/>
      </defs>
      <g transform="translate(24.884615 273.854038)scale(0.1 -0.1)">
       <use xlink:href="#DejaVuSans-48"/>
       <use x="63.623047" xlink:href="#DejaVuSans-46"/>
       <use x="95.410156" xlink:href="#DejaVuSans-52"/>
      </g>
     </g>
    </g>
    <g id="ytick_11">
     <g id="line2d_29">
      <g>
       <use style="stroke:#000000;stroke-width:0.8;" x="47.78774" xlink:href="#m16c1c6485d" y="238.875459"/>
      </g>
     </g>
     <g id="text_21">
      <!-- 0.5 -->
      <g transform="translate(24.884615 242.674678)scale(0.1 -0.1)">
       <use xlink:href="#DejaVuSans-48"/>
       <use x="63.623047" xlink:href="#DejaVuSans-46"/>
       <use x="95.410156" xlink:href="#DejaVuSans-53"/>
      </g>
     </g>
    </g>
    <g id="ytick_12">
     <g id="line2d_30">
      <g>
       <use style="stroke:#000000;stroke-width:0.8;" x="47.78774" xlink:href="#m16c1c6485d" y="207.696099"/>
      </g>
     </g>
     <g id="text_22">
      <!-- 0.6 -->
      <defs>
       <path d="M 33.015625 40.375 
Q 26.375 40.375 22.484375 35.828125 
Q 18.609375 31.296875 18.609375 23.390625 
Q 18.609375 15.53125 22.484375 10.953125 
Q 26.375 6.390625 33.015625 6.390625 
Q 39.65625 6.390625 43.53125 10.953125 
Q 47.40625 15.53125 47.40625 23.390625 
Q 47.40625 31.296875 43.53125 35.828125 
Q 39.65625 40.375 33.015625 40.375 
z
M 52.59375 71.296875 
L 52.59375 62.3125 
Q 48.875 64.0625 45.09375 64.984375 
Q 41.3125 65.921875 37.59375 65.921875 
Q 27.828125 65.921875 22.671875 59.328125 
Q 17.53125 52.734375 16.796875 39.40625 
Q 19.671875 43.65625 24.015625 45.921875 
Q 28.375 48.1875 33.59375 48.1875 
Q 44.578125 48.1875 50.953125 41.515625 
Q 57.328125 34.859375 57.328125 23.390625 
Q 57.328125 12.15625 50.6875 5.359375 
Q 44.046875 -1.421875 33.015625 -1.421875 
Q 20.359375 -1.421875 13.671875 8.265625 
Q 6.984375 17.96875 6.984375 36.375 
Q 6.984375 53.65625 15.1875 63.9375 
Q 23.390625 74.21875 37.203125 74.21875 
Q 40.921875 74.21875 44.703125 73.484375 
Q 48.484375 72.75 52.59375 71.296875 
z
" id="DejaVuSans-54"/>
      </defs>
      <g transform="translate(24.884615 211.495318)scale(0.1 -0.1)">
       <use xlink:href="#DejaVuSans-48"/>
       <use x="63.623047" xlink:href="#DejaVuSans-46"/>
       <use x="95.410156" xlink:href="#DejaVuSans-54"/>
      </g>
     </g>
    </g>
    <g id="text_23">
     <!-- Specific mass budget -->
     <defs>
      <path d="M 53.515625 70.515625 
L 53.515625 60.890625 
Q 47.90625 63.578125 42.921875 64.890625 
Q 37.9375 66.21875 33.296875 66.21875 
Q 25.25 66.21875 20.875 63.09375 
Q 16.5 59.96875 16.5 54.203125 
Q 16.5 49.359375 19.40625 46.890625 
Q 22.3125 44.4375 30.421875 42.921875 
L 36.375 41.703125 
Q 47.40625 39.59375 52.65625 34.296875 
Q 57.90625 29 57.90625 20.125 
Q 57.90625 9.515625 50.796875 4.046875 
Q 43.703125 -1.421875 29.984375 -1.421875 
Q 24.8125 -1.421875 18.96875 -0.25 
Q 13.140625 0.921875 6.890625 3.21875 
L 6.890625 13.375 
Q 12.890625 10.015625 18.65625 8.296875 
Q 24.421875 6.59375 29.984375 6.59375 
Q 38.421875 6.59375 43.015625 9.90625 
Q 47.609375 13.234375 47.609375 19.390625 
Q 47.609375 24.75 44.3125 27.78125 
Q 41.015625 30.8125 33.5 32.328125 
L 27.484375 33.5 
Q 16.453125 35.6875 11.515625 40.375 
Q 6.59375 45.0625 6.59375 53.421875 
Q 6.59375 63.09375 13.40625 68.65625 
Q 20.21875 74.21875 32.171875 74.21875 
Q 37.3125 74.21875 42.625 73.28125 
Q 47.953125 72.359375 53.515625 70.515625 
z
" id="DejaVuSans-83"/>
      <path d="M 18.109375 8.203125 
L 18.109375 -20.796875 
L 9.078125 -20.796875 
L 9.078125 54.6875 
L 18.109375 54.6875 
L 18.109375 46.390625 
Q 20.953125 51.265625 25.265625 53.625 
Q 29.59375 56 35.59375 56 
Q 45.5625 56 51.78125 48.09375 
Q 58.015625 40.1875 58.015625 27.296875 
Q 58.015625 14.40625 51.78125 6.484375 
Q 45.5625 -1.421875 35.59375 -1.421875 
Q 29.59375 -1.421875 25.265625 0.953125 
Q 20.953125 3.328125 18.109375 8.203125 
z
M 48.6875 27.296875 
Q 48.6875 37.203125 44.609375 42.84375 
Q 40.53125 48.484375 33.40625 48.484375 
Q 26.265625 48.484375 22.1875 42.84375 
Q 18.109375 37.203125 18.109375 27.296875 
Q 18.109375 17.390625 22.1875 11.75 
Q 26.265625 6.109375 33.40625 6.109375 
Q 40.53125 6.109375 44.609375 11.75 
Q 48.6875 17.390625 48.6875 27.296875 
z
" id="DejaVuSans-112"/>
      <path d="M 9.421875 54.6875 
L 18.40625 54.6875 
L 18.40625 0 
L 9.421875 0 
z
M 9.421875 75.984375 
L 18.40625 75.984375 
L 18.40625 64.59375 
L 9.421875 64.59375 
z
" id="DejaVuSans-105"/>
      <path d="M 44.28125 53.078125 
L 44.28125 44.578125 
Q 40.484375 46.53125 36.375 47.5 
Q 32.28125 48.484375 27.875 48.484375 
Q 21.1875 48.484375 17.84375 46.4375 
Q 14.5 44.390625 14.5 40.28125 
Q 14.5 37.15625 16.890625 35.375 
Q 19.28125 33.59375 26.515625 31.984375 
L 29.59375 31.296875 
Q 39.15625 29.25 43.1875 25.515625 
Q 47.21875 21.78125 47.21875 15.09375 
Q 47.21875 7.46875 41.1875 3.015625 
Q 35.15625 -1.421875 24.609375 -1.421875 
Q 20.21875 -1.421875 15.453125 -0.5625 
Q 10.6875 0.296875 5.421875 2 
L 5.421875 11.28125 
Q 10.40625 8.6875 15.234375 7.390625 
Q 20.0625 6.109375 24.8125 6.109375 
Q 31.15625 6.109375 34.5625 8.28125 
Q 37.984375 10.453125 37.984375 14.40625 
Q 37.984375 18.0625 35.515625 20.015625 
Q 33.0625 21.96875 24.703125 23.78125 
L 21.578125 24.515625 
Q 13.234375 26.265625 9.515625 29.90625 
Q 5.8125 33.546875 5.8125 39.890625 
Q 5.8125 47.609375 11.28125 51.796875 
Q 16.75 56 26.8125 56 
Q 31.78125 56 36.171875 55.265625 
Q 40.578125 54.546875 44.28125 53.078125 
z
" id="DejaVuSans-115"/>
      <path d="M 48.6875 27.296875 
Q 48.6875 37.203125 44.609375 42.84375 
Q 40.53125 48.484375 33.40625 48.484375 
Q 26.265625 48.484375 22.1875 42.84375 
Q 18.109375 37.203125 18.109375 27.296875 
Q 18.109375 17.390625 22.1875 11.75 
Q 26.265625 6.109375 33.40625 6.109375 
Q 40.53125 6.109375 44.609375 11.75 
Q 48.6875 17.390625 48.6875 27.296875 
z
M 18.109375 46.390625 
Q 20.953125 51.265625 25.265625 53.625 
Q 29.59375 56 35.59375 56 
Q 45.5625 56 51.78125 48.09375 
Q 58.015625 40.1875 58.015625 27.296875 
Q 58.015625 14.40625 51.78125 6.484375 
Q 45.5625 -1.421875 35.59375 -1.421875 
Q 29.59375 -1.421875 25.265625 0.953125 
Q 20.953125 3.328125 18.109375 8.203125 
L 18.109375 0 
L 9.078125 0 
L 9.078125 75.984375 
L 18.109375 75.984375 
z
" id="DejaVuSans-98"/>
      <path d="M 8.5 21.578125 
L 8.5 54.6875 
L 17.484375 54.6875 
L 17.484375 21.921875 
Q 17.484375 14.15625 20.5 10.265625 
Q 23.53125 6.390625 29.59375 6.390625 
Q 36.859375 6.390625 41.078125 11.03125 
Q 45.3125 15.671875 45.3125 23.6875 
L 45.3125 54.6875 
L 54.296875 54.6875 
L 54.296875 0 
L 45.3125 0 
L 45.3125 8.40625 
Q 42.046875 3.421875 37.71875 1 
Q 33.40625 -1.421875 27.6875 -1.421875 
Q 18.265625 -1.421875 13.375 4.4375 
Q 8.5 10.296875 8.5 21.578125 
z
M 31.109375 56 
z
" id="DejaVuSans-117"/>
      <path d="M 45.40625 27.984375 
Q 45.40625 37.75 41.375 43.109375 
Q 37.359375 48.484375 30.078125 48.484375 
Q 22.859375 48.484375 18.828125 43.109375 
Q 14.796875 37.75 14.796875 27.984375 
Q 14.796875 18.265625 18.828125 12.890625 
Q 22.859375 7.515625 30.078125 7.515625 
Q 37.359375 7.515625 41.375 12.890625 
Q 45.40625 18.265625 45.40625 27.984375 
z
M 54.390625 6.78125 
Q 54.390625 -7.171875 48.1875 -13.984375 
Q 42 -20.796875 29.203125 -20.796875 
Q 24.46875 -20.796875 20.265625 -20.09375 
Q 16.0625 -19.390625 12.109375 -17.921875 
L 12.109375 -9.1875 
Q 16.0625 -11.328125 19.921875 -12.34375 
Q 23.78125 -13.375 27.78125 -13.375 
Q 36.625 -13.375 41.015625 -8.765625 
Q 45.40625 -4.15625 45.40625 5.171875 
L 45.40625 9.625 
Q 42.625 4.78125 38.28125 2.390625 
Q 33.9375 0 27.875 0 
Q 17.828125 0 11.671875 7.65625 
Q 5.515625 15.328125 5.515625 27.984375 
Q 5.515625 40.671875 11.671875 48.328125 
Q 17.828125 56 27.875 56 
Q 33.9375 56 38.28125 53.609375 
Q 42.625 51.21875 45.40625 46.390625 
L 45.40625 54.6875 
L 54.390625 54.6875 
z
" id="DejaVuSans-103"/>
      <path d="M 18.3125 70.21875 
L 18.3125 54.6875 
L 36.8125 54.6875 
L 36.8125 47.703125 
L 18.3125 47.703125 
L 18.3125 18.015625 
Q 18.3125 11.328125 20.140625 9.421875 
Q 21.96875 7.515625 27.59375 7.515625 
L 36.8125 7.515625 
L 36.8125 0 
L 27.59375 0 
Q 17.1875 0 13.234375 3.875 
Q 9.28125 7.765625 9.28125 18.015625 
L 9.28125 47.703125 
L 2.6875 47.703125 
L 2.6875 54.6875 
L 9.28125 54.6875 
L 9.28125 70.21875 
z
" id="DejaVuSans-116"/>
     </defs>
     <g transform="translate(17.973052 376.150586)rotate(-90)scale(0.14 -0.14)">
      <use xlink:href="#DejaVuSans-83"/>
      <use x="63.476562" xlink:href="#DejaVuSans-112"/>
      <use x="126.953125" xlink:href="#DejaVuSans-101"/>
      <use x="188.476562" xlink:href="#DejaVuSans-99"/>
      <use x="243.457031" xlink:href="#DejaVuSans-105"/>
      <use x="271.240234" xlink:href="#DejaVuSans-102"/>
      <use x="306.445312" xlink:href="#DejaVuSans-105"/>
      <use x="334.228516" xlink:href="#DejaVuSans-99"/>
      <use x="389.208984" xlink:href="#DejaVuSans-32"/>
      <use x="420.996094" xlink:href="#DejaVuSans-109"/>
      <use x="518.408203" xlink:href="#DejaVuSans-97"/>
      <use x="579.6875" xlink:href="#DejaVuSans-115"/>
      <use x="631.787109" xlink:href="#DejaVuSans-115"/>
      <use x="683.886719" xlink:href="#DejaVuSans-32"/>
      <use x="715.673828" xlink:href="#DejaVuSans-98"/>
      <use x="779.150391" xlink:href="#DejaVuSans-117"/>
      <use x="842.529297" xlink:href="#DejaVuSans-100"/>
      <use x="906.005859" xlink:href="#DejaVuSans-103"/>
      <use x="969.482422" xlink:href="#DejaVuSans-101"/>
      <use x="1031.005859" xlink:href="#DejaVuSans-116"/>
     </g>
    </g>
   </g>
   <g id="line2d_31">
    <path clip-path="url(#p7fccd0968a)" d="M 66.151923 348.854935 
L 68.164436 349.10885 
L 77.220745 350.437182 
L 85.270798 351.337544 
L 93.320851 352.023321 
L 102.37716 352.575314 
L 112.439726 352.949201 
L 122.502292 353.086674 
L 131.558601 352.999322 
L 140.61491 352.683395 
L 148.664963 352.17506 
L 155.708759 351.522006 
L 162.752555 350.641071 
L 168.790095 349.679413 
L 174.827634 348.503815 
L 180.865174 347.092116 
L 186.902713 345.424705 
L 192.940253 343.482934 
L 197.971536 341.645137 
L 203.002819 339.602848 
L 208.034102 337.354836 
L 214.071641 334.390676 
L 220.109181 331.152338 
L 226.14672 327.670128 
L 233.190516 323.362632 
L 245.265595 315.663986 
L 254.321905 309.992575 
L 260.359444 306.454805 
L 265.390727 303.746265 
L 270.42201 301.318118 
L 274.447036 299.61336 
L 278.472063 298.143771 
L 282.497089 296.927228 
L 286.522115 295.977221 
L 290.547142 295.301079 
L 294.572168 294.901067 
L 298.597195 294.774304 
L 302.622221 294.913527 
L 306.647247 295.306595 
L 310.672274 295.93955 
L 314.6973 296.794888 
L 318.722326 297.854665 
L 323.753609 299.437086 
L 328.784892 301.271467 
L 333.816175 303.324451 
L 339.853715 306.032626 
L 346.897511 309.469726 
L 354.947563 313.688185 
L 364.003873 318.697989 
L 388.154031 332.256558 
L 394.19157 335.342786 
L 399.222853 337.709932 
L 404.254136 339.847426 
L 409.285419 341.727193 
L 414.316702 343.337681 
L 419.347985 344.696632 
L 425.385525 346.083505 
L 433.435577 347.729797 
L 433.435577 347.729797 
" style="fill:none;stroke:#1f77b4;stroke-linecap:square;stroke-width:1.5;"/>
   </g>
   <g id="line2d_32">
    <path clip-path="url(#p7fccd0968a)" d="M 66.151923 406.813227 
L 68.164436 406.337885 
L 74.201975 404.709668 
L 89.295824 400.43228 
L 97.345877 398.005259 
L 115.458496 391.884256 
L 120.489778 390.007513 
L 125.521061 388.015672 
L 130.552344 385.983155 
L 146.65245 378.619245 
L 149.67122 377.114569 
L 163.758812 369.436391 
L 169.796351 365.798865 
L 174.827634 362.627984 
L 180.865174 358.672889 
L 187.90897 353.804222 
L 199.984049 344.895431 
L 203.002819 342.53589 
L 215.077898 333.151925 
L 217.090411 331.508004 
L 227.152977 323.7368 
L 235.203029 317.9045 
L 243.253082 312.731154 
L 249.290622 309.739372 
L 252.309391 308.571857 
L 253.315648 308.250203 
L 256.334418 307.84624 
L 257.340674 307.936742 
L 258.346931 308.407826 
L 259.353188 309.713654 
L 261.365701 312.982642 
L 268.409497 326.10217 
L 275.453293 339.783481 
L 281.490833 351.14448 
L 288.534629 363.587965 
L 295.578425 374.680605 
L 299.603451 380.432756 
L 302.622221 384.412697 
L 305.640991 388.10854 
L 309.666017 392.681741 
L 312.684787 395.736186 
L 316.709813 399.477955 
L 321.741096 403.583866 
L 325.766122 406.358531 
L 330.797405 409.334671 
L 334.822432 411.275797 
L 339.853715 413.277048 
L 343.878741 414.50059 
L 348.910024 415.685264 
L 353.941307 416.425742 
L 358.97259 416.819435 
L 364.003873 416.908165 
L 369.035156 416.686121 
L 373.060182 416.35304 
L 379.097722 415.563541 
L 383.122748 414.91838 
L 387.147774 414.235373 
L 404.254136 410.999529 
L 413.310446 409.559407 
L 423.373011 408.229462 
L 430.416808 407.243646 
L 432.429321 406.858887 
L 433.435577 406.831329 
L 433.435577 406.831329 
" style="fill:none;stroke:#ff7f0e;stroke-linecap:square;stroke-width:1.5;"/>
   </g>
   <g id="line2d_33">
    <path clip-path="url(#p7fccd0968a)" d="M 66.151923 291.308129 
L 69.170692 290.865579 
L 72.189462 290.312667 
L 74.201975 289.980755 
L 80.239515 288.543697 
L 83.258285 287.659622 
L 85.270798 287.106924 
L 94.327107 284.012059 
L 96.33962 283.237352 
L 98.352134 282.462579 
L 102.37716 280.802435 
L 104.389673 280.027442 
L 120.489778 272.830814 
L 122.502292 271.834187 
L 127.533575 269.507544 
L 129.546088 268.51043 
L 132.564858 267.069626 
L 134.577371 266.072104 
L 137.59614 264.63064 
L 139.608654 263.632652 
L 142.627423 262.190266 
L 145.646193 260.634831 
L 149.67122 258.744216 
L 151.683733 257.743295 
L 154.702502 256.296642 
L 156.715016 255.295033 
L 160.740042 253.401378 
L 162.752555 252.398847 
L 167.783838 250.056732 
L 169.796351 249.05299 
L 184.8902 242.230175 
L 189.921483 240.097689 
L 191.933996 239.309106 
L 194.952766 238.069728 
L 199.984049 236.259816 
L 201.996562 235.468563 
L 209.040358 233.193242 
L 211.052871 232.621096 
L 213.065385 232.048463 
L 224.134207 229.610675 
L 229.16549 228.89151 
L 234.196773 228.392388 
L 243.253082 228.291273 
L 255.328161 229.502809 
L 264.384471 231.530287 
L 267.40324 232.336507 
L 284.509602 238.285923 
L 288.534629 239.99036 
L 290.547142 240.78563 
L 304.634734 247.004263 
L 313.691043 251.171142 
L 315.703557 252.181797 
L 320.734839 254.540371 
L 322.747353 255.54934 
L 326.772379 257.455285 
L 328.784892 258.462892 
L 332.809918 260.366206 
L 334.822432 261.372541 
L 338.847458 263.271679 
L 340.859971 264.27528 
L 344.884998 266.170963 
L 346.897511 267.173494 
L 350.922537 269.067143 
L 352.93505 270.068708 
L 359.978846 273.295833 
L 361.99136 274.296138 
L 377.085208 280.852394 
L 379.097722 281.629984 
L 382.116491 282.851262 
L 386.141518 284.294974 
L 388.154031 285.070784 
L 397.21034 287.952863 
L 402.241623 289.17303 
L 404.254136 289.727074 
L 408.279163 290.503964 
L 412.304189 291.05987 
L 414.316702 291.39283 
L 418.341728 291.727609 
L 428.404294 291.736046 
L 433.435577 291.298537 
L 433.435577 291.298537 
" style="fill:none;stroke:#8c564b;stroke-dasharray:2,2;stroke-dashoffset:0;stroke-width:2;"/>
   </g>
   <g id="line2d_34">
    <path clip-path="url(#p7fccd0968a)" d="M 66.151923 360.895902 
L 71.183206 360.349567 
L 80.239515 359.067899 
L 92.314594 356.729028 
L 105.39593 353.327257 
L 113.445982 350.802112 
L 119.483522 348.678103 
L 124.514805 346.759189 
L 136.589884 341.422033 
L 140.61491 339.45015 
L 149.67122 334.436982 
L 158.727529 328.667157 
L 162.752555 325.872138 
L 166.777582 322.896507 
L 170.802608 319.729319 
L 174.827634 316.359539 
L 179.858917 311.921534 
L 184.8902 307.134949 
L 190.92774 301.035122 
L 198.977792 292.12406 
L 203.002819 287.366478 
L 210.046615 278.733046 
L 224.134207 260.128623 
L 229.16549 253.321765 
L 237.215543 242.535673 
L 243.253082 234.911822 
L 249.290622 228.074898 
L 252.309391 225.024244 
L 253.315648 224.083559 
L 256.334418 221.858046 
L 257.340674 221.354653 
L 258.346931 221.239222 
L 259.353188 221.966119 
L 261.365701 224.103888 
L 267.40324 232.081957 
L 275.453293 244.233962 
L 291.553398 268.915387 
L 295.578425 274.752631 
L 300.609708 281.830284 
L 305.640991 288.522149 
L 311.67853 296.108669 
L 317.71607 303.123946 
L 319.728583 305.384745 
L 325.766122 311.728467 
L 331.803662 317.543161 
L 337.841201 322.856056 
L 344.884998 328.436447 
L 346.897511 329.947189 
L 353.941307 334.800317 
L 360.985103 339.151902 
L 366.016386 341.912363 
L 372.053925 344.954449 
L 377.085208 347.237883 
L 388.154031 351.52332 
L 394.19157 353.455068 
L 405.260393 356.299535 
L 418.341728 358.548114 
L 428.404294 359.521826 
L 433.435577 359.788866 
L 433.435577 359.788866 
" style="fill:none;stroke:#8c564b;stroke-linecap:square;stroke-width:2;"/>
   </g>
   <g id="patch_8">
    <path d="M 47.78774 394.77226 
L 47.78774 207.696099 
" style="fill:none;stroke:#000000;stroke-linecap:square;stroke-linejoin:miter;stroke-width:0.8;"/>
   </g>
   <g id="patch_9">
    <path d="M 451.79976 394.77226 
L 451.79976 207.696099 
" style="fill:none;stroke:#000000;stroke-linecap:square;stroke-linejoin:miter;stroke-width:0.8;"/>
   </g>
   <g id="patch_10">
    <path d="M 47.78774 394.77226 
L 451.79976 394.77226 
" style="fill:none;stroke:#000000;stroke-linecap:square;stroke-linejoin:miter;stroke-width:0.8;"/>
   </g>
   <g id="patch_11">
    <path d="M 47.78774 207.696099 
L 451.79976 207.696099 
" style="fill:none;stroke:#000000;stroke-linecap:square;stroke-linejoin:miter;stroke-width:0.8;"/>
   </g>
  </g>
  <g id="axes_3">
   <g id="patch_12">
    <path clip-path="url(#p7fccd0968a)" d="M 224.737961 48011.874847 
L 225.542966 48011.874847 
L 225.542966 336.376916 
L 224.737961 336.376916 
z
" style="fill:#b3b3b3;"/>
   </g>
   <g id="patch_13">
    <path clip-path="url(#p7fccd0968a)" d="M 225.744218 48011.874847 
L 226.549223 48011.874847 
L 226.549223 48011.874847 
L 225.744218 48011.874847 
z
" style="fill:#b3b3b3;"/>
   </g>
   <g id="patch_14">
    <path clip-path="url(#p7fccd0968a)" d="M 226.750474 48011.874847 
L 227.555479 48011.874847 
L 227.555479 48011.874847 
L 226.750474 48011.874847 
z
" style="fill:#b3b3b3;"/>
   </g>
   <g id="patch_15">
    <path clip-path="url(#p7fccd0968a)" d="M 227.756731 48011.874847 
L 228.561736 48011.874847 
L 228.561736 48011.874847 
L 227.756731 48011.874847 
z
" style="fill:#b3b3b3;"/>
   </g>
   <g id="patch_16">
    <path clip-path="url(#p7fccd0968a)" d="M 228.762987 48011.874847 
L 229.567993 48011.874847 
L 229.567993 48011.874847 
L 228.762987 48011.874847 
z
" style="fill:#b3b3b3;"/>
   </g>
   <g id="patch_17">
    <path clip-path="url(#p7fccd0968a)" d="M 229.769244 48011.874847 
L 230.574249 48011.874847 
L 230.574249 48011.874847 
L 229.769244 48011.874847 
z
" style="fill:#b3b3b3;"/>
   </g>
   <g id="patch_18">
    <path clip-path="url(#p7fccd0968a)" d="M 230.7755 48011.874847 
L 231.580506 48011.874847 
L 231.580506 48011.874847 
L 230.7755 48011.874847 
z
" style="fill:#b3b3b3;"/>
   </g>
   <g id="patch_19">
    <path clip-path="url(#p7fccd0968a)" d="M 231.781757 48011.874847 
L 232.586762 48011.874847 
L 232.586762 369.723968 
L 231.781757 369.723968 
z
" style="fill:#b3b3b3;"/>
   </g>
   <g id="patch_20">
    <path clip-path="url(#p7fccd0968a)" d="M 232.788014 48011.874847 
L 233.593019 48011.874847 
L 233.593019 48011.874847 
L 232.788014 48011.874847 
z
" style="fill:#b3b3b3;"/>
   </g>
   <g id="patch_21">
    <path clip-path="url(#p7fccd0968a)" d="M 233.79427 48011.874847 
L 234.599276 48011.874847 
L 234.599276 48011.874847 
L 233.79427 48011.874847 
z
" style="fill:#b3b3b3;"/>
   </g>
   <g id="patch_22">
    <path clip-path="url(#p7fccd0968a)" d="M 234.800527 48011.874847 
L 235.605532 48011.874847 
L 235.605532 325.382464 
L 234.800527 325.382464 
z
" style="fill:#b3b3b3;"/>
   </g>
   <g id="patch_23">
    <path clip-path="url(#p7fccd0968a)" d="M 235.806783 48011.874847 
L 236.611789 48011.874847 
L 236.611789 259.082096 
L 235.806783 259.082096 
z
" style="fill:#b3b3b3;"/>
   </g>
   <g id="patch_24">
    <path clip-path="url(#p7fccd0968a)" d="M 236.81304 48011.874847 
L 237.618045 48011.874847 
L 237.618045 361.322857 
L 236.81304 361.322857 
z
" style="fill:#b3b3b3;"/>
   </g>
   <g id="patch_25">
    <path clip-path="url(#p7fccd0968a)" d="M 237.819297 48011.874847 
L 238.624302 48011.874847 
L 238.624302 302.823697 
L 237.819297 302.823697 
z
" style="fill:#b3b3b3;"/>
   </g>
   <g id="patch_26">
    <path clip-path="url(#p7fccd0968a)" d="M 238.825553 48011.874847 
L 239.630558 48011.874847 
L 239.630558 289.95011 
L 238.825553 289.95011 
z
" style="fill:#b3b3b3;"/>
   </g>
   <g id="patch_27">
    <path clip-path="url(#p7fccd0968a)" d="M 239.83181 48011.874847 
L 240.636815 48011.874847 
L 240.636815 270.017009 
L 239.83181 270.017009 
z
" style="fill:#b3b3b3;"/>
   </g>
   <g id="patch_28">
    <path clip-path="url(#p7fccd0968a)" d="M 240.838066 48011.874847 
L 241.643072 48011.874847 
L 241.643072 280.96939 
L 240.838066 280.96939 
z
" style="fill:#b3b3b3;"/>
   </g>
   <g id="patch_29">
    <path clip-path="url(#p7fccd0968a)" d="M 241.844323 48011.874847 
L 242.649328 48011.874847 
L 242.649328 225.036425 
L 241.844323 225.036425 
z
" style="fill:#b3b3b3;"/>
   </g>
   <g id="patch_30">
    <path clip-path="url(#p7fccd0968a)" d="M 242.85058 48011.874847 
L 243.655585 48011.874847 
L 243.655585 261.448126 
L 242.85058 261.448126 
z
" style="fill:#b3b3b3;"/>
   </g>
   <g id="patch_31">
    <path clip-path="url(#p7fccd0968a)" d="M 243.856836 48011.874847 
L 244.661841 48011.874847 
L 244.661841 221.916034 
L 243.856836 221.916034 
z
" style="fill:#b3b3b3;"/>
   </g>
   <g id="patch_32">
    <path clip-path="url(#p7fccd0968a)" d="M 244.863093 48011.874847 
L 245.668098 48011.874847 
L 245.668098 241.837445 
L 244.863093 241.837445 
z
" style="fill:#b3b3b3;"/>
   </g>
   <g id="patch_33">
    <path clip-path="url(#p7fccd0968a)" d="M 245.869349 48011.874847 
L 246.674355 48011.874847 
L 246.674355 252.991393 
L 245.869349 252.991393 
z
" style="fill:#b3b3b3;"/>
   </g>
   <g id="patch_34">
    <path clip-path="url(#p7fccd0968a)" d="M 246.875606 48011.874847 
L 247.680611 48011.874847 
L 247.680611 258.446023 
L 246.875606 258.446023 
z
" style="fill:#b3b3b3;"/>
   </g>
   <g id="patch_35">
    <path clip-path="url(#p7fccd0968a)" d="M 247.881862 48011.874847 
L 248.686868 48011.874847 
L 248.686868 277.673619 
L 247.881862 277.673619 
z
" style="fill:#b3b3b3;"/>
   </g>
   <g id="patch_36">
    <path clip-path="url(#p7fccd0968a)" d="M 248.888119 48011.874847 
L 249.693124 48011.874847 
L 249.693124 269.150985 
L 248.888119 269.150985 
z
" style="fill:#b3b3b3;"/>
   </g>
   <g id="patch_37">
    <path clip-path="url(#p7fccd0968a)" d="M 249.894376 48011.874847 
L 250.699381 48011.874847 
L 250.699381 230.989102 
L 249.894376 230.989102 
z
" style="fill:#b3b3b3;"/>
   </g>
   <g id="patch_38">
    <path clip-path="url(#p7fccd0968a)" d="M 250.900632 48011.874847 
L 251.705638 48011.874847 
L 251.705638 262.681635 
L 250.900632 262.681635 
z
" style="fill:#b3b3b3;"/>
   </g>
   <g id="patch_39">
    <path clip-path="url(#p7fccd0968a)" d="M 251.906889 48011.874847 
L 252.711894 48011.874847 
L 252.711894 229.608311 
L 251.906889 229.608311 
z
" style="fill:#b3b3b3;"/>
   </g>
   <g id="patch_40">
    <path clip-path="url(#p7fccd0968a)" d="M 252.913145 48011.874847 
L 253.718151 48011.874847 
L 253.718151 274.830855 
L 252.913145 274.830855 
z
" style="fill:#b3b3b3;"/>
   </g>
   <g id="patch_41">
    <path clip-path="url(#p7fccd0968a)" d="M 253.919402 48011.874847 
L 254.724407 48011.874847 
L 254.724407 274.048887 
L 253.919402 274.048887 
z
" style="fill:#b3b3b3;"/>
   </g>
   <g id="patch_42">
    <path clip-path="url(#p7fccd0968a)" d="M 254.925659 48011.874847 
L 255.730664 48011.874847 
L 255.730664 216.199561 
L 254.925659 216.199561 
z
" style="fill:#b3b3b3;"/>
   </g>
   <g id="patch_43">
    <path clip-path="url(#p7fccd0968a)" d="M 255.931915 48011.874847 
L 256.73692 48011.874847 
L 256.73692 260.074389 
L 255.931915 260.074389 
z
" style="fill:#b3b3b3;"/>
   </g>
   <g id="patch_44">
    <path clip-path="url(#p7fccd0968a)" d="M 256.938172 48011.874847 
L 257.743177 48011.874847 
L 257.743177 251.664593 
L 256.938172 251.664593 
z
" style="fill:#b3b3b3;"/>
   </g>
   <g id="patch_45">
    <path clip-path="url(#p7fccd0968a)" d="M 257.944428 48011.874847 
L 258.749434 48011.874847 
L 258.749434 310.126157 
L 257.944428 310.126157 
z
" style="fill:#b3b3b3;"/>
   </g>
   <g id="patch_46">
    <path clip-path="url(#p7fccd0968a)" d="M 258.950685 48011.874847 
L 259.75569 48011.874847 
L 259.75569 247.212034 
L 258.950685 247.212034 
z
" style="fill:#b3b3b3;"/>
   </g>
   <g id="patch_47">
    <path clip-path="url(#p7fccd0968a)" d="M 259.956942 48011.874847 
L 260.761947 48011.874847 
L 260.761947 260.8985 
L 259.956942 260.8985 
z
" style="fill:#b3b3b3;"/>
   </g>
   <g id="patch_48">
    <path clip-path="url(#p7fccd0968a)" d="M 260.963198 48011.874847 
L 261.768203 48011.874847 
L 261.768203 261.226523 
L 260.963198 261.226523 
z
" style="fill:#b3b3b3;"/>
   </g>
   <g id="patch_49">
    <path clip-path="url(#p7fccd0968a)" d="M 261.969455 48011.874847 
L 262.77446 48011.874847 
L 262.77446 384.085761 
L 261.969455 384.085761 
z
" style="fill:#b3b3b3;"/>
   </g>
   <g id="patch_50">
    <path clip-path="url(#p7fccd0968a)" d="M 262.975711 48011.874847 
L 263.780717 48011.874847 
L 263.780717 292.906639 
L 262.975711 292.906639 
z
" style="fill:#b3b3b3;"/>
   </g>
   <g id="patch_51">
    <path clip-path="url(#p7fccd0968a)" d="M 263.981968 48011.874847 
L 264.786973 48011.874847 
L 264.786973 350.73871 
L 263.981968 350.73871 
z
" style="fill:#b3b3b3;"/>
   </g>
   <g id="patch_52">
    <path clip-path="url(#p7fccd0968a)" d="M 264.988224 48011.874847 
L 265.79323 48011.874847 
L 265.79323 338.559953 
L 264.988224 338.559953 
z
" style="fill:#b3b3b3;"/>
   </g>
   <g id="patch_53">
    <path clip-path="url(#p7fccd0968a)" d="M 265.994481 48011.874847 
L 266.799486 48011.874847 
L 266.799486 361.322857 
L 265.994481 361.322857 
z
" style="fill:#b3b3b3;"/>
   </g>
   <g id="patch_54">
    <path clip-path="url(#p7fccd0968a)" d="M 267.000738 48011.874847 
L 267.805743 48011.874847 
L 267.805743 309.836366 
L 267.000738 309.836366 
z
" style="fill:#b3b3b3;"/>
   </g>
   <g id="patch_55">
    <path clip-path="url(#p7fccd0968a)" d="M 268.006994 48011.874847 
L 268.812 48011.874847 
L 268.812 332.59927 
L 268.006994 332.59927 
z
" style="fill:#b3b3b3;"/>
   </g>
   <g id="patch_56">
    <path clip-path="url(#p7fccd0968a)" d="M 269.013251 48011.874847 
L 269.818256 48011.874847 
L 269.818256 290.851108 
L 269.013251 290.851108 
z
" style="fill:#b3b3b3;"/>
   </g>
   <g id="patch_57">
    <path clip-path="url(#p7fccd0968a)" d="M 270.019507 48011.874847 
L 270.824513 48011.874847 
L 270.824513 48011.874847 
L 270.019507 48011.874847 
z
" style="fill:#b3b3b3;"/>
   </g>
   <g id="patch_58">
    <path clip-path="url(#p7fccd0968a)" d="M 271.025764 48011.874847 
L 271.830769 48011.874847 
L 271.830769 328.678235 
L 271.025764 328.678235 
z
" style="fill:#b3b3b3;"/>
   </g>
   <g id="patch_59">
    <path clip-path="url(#p7fccd0968a)" d="M 272.032021 48011.874847 
L 272.837026 48011.874847 
L 272.837026 48011.874847 
L 272.032021 48011.874847 
z
" style="fill:#b3b3b3;"/>
   </g>
   <g id="patch_60">
    <path clip-path="url(#p7fccd0968a)" d="M 273.038277 48011.874847 
L 273.843282 48011.874847 
L 273.843282 48011.874847 
L 273.038277 48011.874847 
z
" style="fill:#b3b3b3;"/>
   </g>
   <g id="patch_61">
    <path clip-path="url(#p7fccd0968a)" d="M 274.044534 48011.874847 
L 274.849539 48011.874847 
L 274.849539 288.359584 
L 274.044534 288.359584 
z
" style="fill:#b3b3b3;"/>
   </g>
   <g id="patch_62">
    <path clip-path="url(#p7fccd0968a)" d="M 275.05079 48011.874847 
L 275.855796 48011.874847 
L 275.855796 48011.874847 
L 275.05079 48011.874847 
z
" style="fill:#b3b3b3;"/>
   </g>
   <g id="patch_63">
    <path clip-path="url(#p7fccd0968a)" d="M 276.057047 48011.874847 
L 276.862052 48011.874847 
L 276.862052 48011.874847 
L 276.057047 48011.874847 
z
" style="fill:#b3b3b3;"/>
   </g>
   <g id="patch_64">
    <path clip-path="url(#p7fccd0968a)" d="M 277.063304 48011.874847 
L 277.868309 48011.874847 
L 277.868309 352.921747 
L 277.063304 352.921747 
z
" style="fill:#b3b3b3;"/>
   </g>
   <g id="patch_65">
    <path clip-path="url(#p7fccd0968a)" d="M 278.06956 48011.874847 
L 278.874565 48011.874847 
L 278.874565 48011.874847 
L 278.06956 48011.874847 
z
" style="fill:#b3b3b3;"/>
   </g>
   <g id="patch_66">
    <path clip-path="url(#p7fccd0968a)" d="M 279.075817 48011.874847 
L 279.880822 48011.874847 
L 279.880822 346.961064 
L 279.075817 346.961064 
z
" style="fill:#b3b3b3;"/>
   </g>
   <g id="patch_67">
    <path clip-path="url(#p7fccd0968a)" d="M 280.082073 48011.874847 
L 280.887079 48011.874847 
L 280.887079 337.439697 
L 280.082073 337.439697 
z
" style="fill:#b3b3b3;"/>
   </g>
   <g id="patch_68">
    <path clip-path="url(#p7fccd0968a)" d="M 281.08833 48011.874847 
L 281.893335 48011.874847 
L 281.893335 348.763912 
L 281.08833 348.763912 
z
" style="fill:#b3b3b3;"/>
   </g>
   <g id="patch_69">
    <path clip-path="url(#p7fccd0968a)" d="M 282.094586 48011.874847 
L 282.899592 48011.874847 
L 282.899592 358.128903 
L 282.094586 358.128903 
z
" style="fill:#b3b3b3;"/>
   </g>
   <g id="patch_70">
    <path clip-path="url(#p7fccd0968a)" d="M 283.100843 48011.874847 
L 283.905848 48011.874847 
L 283.905848 324.781852 
L 283.100843 324.781852 
z
" style="fill:#b3b3b3;"/>
   </g>
   <g id="matplotlib.axis_5">
    <g id="ytick_13">
     <g id="line2d_35">
      <defs>
       <path d="M 0 0 
L 3.5 0 
" id="mf5b67b4275" style="stroke:#000000;stroke-width:0.8;"/>
      </defs>
      <g>
       <use style="stroke:#000000;stroke-width:0.8;" x="451.79976" xlink:href="#mf5b67b4275" y="350.73871"/>
      </g>
     </g>
     <g id="text_24">
      <!-- $\mathdefault{10^{-1}}$ -->
      <g transform="translate(458.79976 354.537928)scale(0.1 -0.1)">
       <use transform="translate(0 0.684375)" xlink:href="#DejaVuSans-49"/>
       <use transform="translate(63.623047 0.684375)" xlink:href="#DejaVuSans-48"/>
       <use transform="translate(128.203125 38.965625)scale(0.7)" xlink:href="#DejaVuSans-8722"/>
       <use transform="translate(186.855469 38.965625)scale(0.7)" xlink:href="#DejaVuSans-49"/>
      </g>
     </g>
    </g>
    <g id="ytick_14">
     <g id="line2d_36">
      <g>
       <use style="stroke:#000000;stroke-width:0.8;" x="451.79976" xlink:href="#mf5b67b4275" y="303.029865"/>
      </g>
     </g>
     <g id="text_25">
      <!-- $\mathdefault{10^{0}}$ -->
      <g transform="translate(458.79976 306.829083)scale(0.1 -0.1)">
       <use transform="translate(0 0.765625)" xlink:href="#DejaVuSans-49"/>
       <use transform="translate(63.623047 0.765625)" xlink:href="#DejaVuSans-48"/>
       <use transform="translate(128.203125 39.046875)scale(0.7)" xlink:href="#DejaVuSans-48"/>
      </g>
     </g>
    </g>
    <g id="ytick_15">
     <g id="line2d_37">
      <g>
       <use style="stroke:#000000;stroke-width:0.8;" x="451.79976" xlink:href="#mf5b67b4275" y="255.32102"/>
      </g>
     </g>
     <g id="text_26">
      <!-- $\mathdefault{10^{1}}$ -->
      <g transform="translate(458.79976 259.120238)scale(0.1 -0.1)">
       <use transform="translate(0 0.684375)" xlink:href="#DejaVuSans-49"/>
       <use transform="translate(63.623047 0.684375)" xlink:href="#DejaVuSans-48"/>
       <use transform="translate(128.203125 38.965625)scale(0.7)" xlink:href="#DejaVuSans-49"/>
      </g>
     </g>
    </g>
    <g id="ytick_16">
     <g id="line2d_38">
      <defs>
       <path d="M 0 0 
L 2 0 
" id="ma56a5daaaa" style="stroke:#000000;stroke-width:0.6;"/>
      </defs>
      <g>
       <use style="stroke:#000000;stroke-width:0.6;" x="451.79976" xlink:href="#ma56a5daaaa" y="384.085761"/>
      </g>
     </g>
    </g>
    <g id="ytick_17">
     <g id="line2d_39">
      <g>
       <use style="stroke:#000000;stroke-width:0.6;" x="451.79976" xlink:href="#ma56a5daaaa" y="375.684651"/>
      </g>
     </g>
    </g>
    <g id="ytick_18">
     <g id="line2d_40">
      <g>
       <use style="stroke:#000000;stroke-width:0.6;" x="451.79976" xlink:href="#ma56a5daaaa" y="369.723968"/>
      </g>
     </g>
    </g>
    <g id="ytick_19">
     <g id="line2d_41">
      <g>
       <use style="stroke:#000000;stroke-width:0.6;" x="451.79976" xlink:href="#ma56a5daaaa" y="365.100503"/>
      </g>
     </g>
    </g>
    <g id="ytick_20">
     <g id="line2d_42">
      <g>
       <use style="stroke:#000000;stroke-width:0.6;" x="451.79976" xlink:href="#ma56a5daaaa" y="361.322857"/>
      </g>
     </g>
    </g>
    <g id="ytick_21">
     <g id="line2d_43">
      <g>
       <use style="stroke:#000000;stroke-width:0.6;" x="451.79976" xlink:href="#ma56a5daaaa" y="358.128903"/>
      </g>
     </g>
    </g>
    <g id="ytick_22">
     <g id="line2d_44">
      <g>
       <use style="stroke:#000000;stroke-width:0.6;" x="451.79976" xlink:href="#ma56a5daaaa" y="355.362174"/>
      </g>
     </g>
    </g>
    <g id="ytick_23">
     <g id="line2d_45">
      <g>
       <use style="stroke:#000000;stroke-width:0.6;" x="451.79976" xlink:href="#ma56a5daaaa" y="352.921747"/>
      </g>
     </g>
    </g>
    <g id="ytick_24">
     <g id="line2d_46">
      <g>
       <use style="stroke:#000000;stroke-width:0.6;" x="451.79976" xlink:href="#ma56a5daaaa" y="336.376916"/>
      </g>
     </g>
    </g>
    <g id="ytick_25">
     <g id="line2d_47">
      <g>
       <use style="stroke:#000000;stroke-width:0.6;" x="451.79976" xlink:href="#ma56a5daaaa" y="327.975806"/>
      </g>
     </g>
    </g>
    <g id="ytick_26">
     <g id="line2d_48">
      <g>
       <use style="stroke:#000000;stroke-width:0.6;" x="451.79976" xlink:href="#ma56a5daaaa" y="322.015123"/>
      </g>
     </g>
    </g>
    <g id="ytick_27">
     <g id="line2d_49">
      <g>
       <use style="stroke:#000000;stroke-width:0.6;" x="451.79976" xlink:href="#ma56a5daaaa" y="317.391658"/>
      </g>
     </g>
    </g>
    <g id="ytick_28">
     <g id="line2d_50">
      <g>
       <use style="stroke:#000000;stroke-width:0.6;" x="451.79976" xlink:href="#ma56a5daaaa" y="313.614012"/>
      </g>
     </g>
    </g>
    <g id="ytick_29">
     <g id="line2d_51">
      <g>
       <use style="stroke:#000000;stroke-width:0.6;" x="451.79976" xlink:href="#ma56a5daaaa" y="310.420058"/>
      </g>
     </g>
    </g>
    <g id="ytick_30">
     <g id="line2d_52">
      <g>
       <use style="stroke:#000000;stroke-width:0.6;" x="451.79976" xlink:href="#ma56a5daaaa" y="307.653329"/>
      </g>
     </g>
    </g>
    <g id="ytick_31">
     <g id="line2d_53">
      <g>
       <use style="stroke:#000000;stroke-width:0.6;" x="451.79976" xlink:href="#ma56a5daaaa" y="305.212902"/>
      </g>
     </g>
    </g>
    <g id="ytick_32">
     <g id="line2d_54">
      <g>
       <use style="stroke:#000000;stroke-width:0.6;" x="451.79976" xlink:href="#ma56a5daaaa" y="288.668071"/>
      </g>
     </g>
    </g>
    <g id="ytick_33">
     <g id="line2d_55">
      <g>
       <use style="stroke:#000000;stroke-width:0.6;" x="451.79976" xlink:href="#ma56a5daaaa" y="280.266961"/>
      </g>
     </g>
    </g>
    <g id="ytick_34">
     <g id="line2d_56">
      <g>
       <use style="stroke:#000000;stroke-width:0.6;" x="451.79976" xlink:href="#ma56a5daaaa" y="274.306278"/>
      </g>
     </g>
    </g>
    <g id="ytick_35">
     <g id="line2d_57">
      <g>
       <use style="stroke:#000000;stroke-width:0.6;" x="451.79976" xlink:href="#ma56a5daaaa" y="269.682813"/>
      </g>
     </g>
    </g>
    <g id="ytick_36">
     <g id="line2d_58">
      <g>
       <use style="stroke:#000000;stroke-width:0.6;" x="451.79976" xlink:href="#ma56a5daaaa" y="265.905167"/>
      </g>
     </g>
    </g>
    <g id="ytick_37">
     <g id="line2d_59">
      <g>
       <use style="stroke:#000000;stroke-width:0.6;" x="451.79976" xlink:href="#ma56a5daaaa" y="262.711213"/>
      </g>
     </g>
    </g>
    <g id="ytick_38">
     <g id="line2d_60">
      <g>
       <use style="stroke:#000000;stroke-width:0.6;" x="451.79976" xlink:href="#ma56a5daaaa" y="259.944484"/>
      </g>
     </g>
    </g>
    <g id="ytick_39">
     <g id="line2d_61">
      <g>
       <use style="stroke:#000000;stroke-width:0.6;" x="451.79976" xlink:href="#ma56a5daaaa" y="257.504057"/>
      </g>
     </g>
    </g>
    <g id="ytick_40">
     <g id="line2d_62">
      <g>
       <use style="stroke:#000000;stroke-width:0.6;" x="451.79976" xlink:href="#ma56a5daaaa" y="240.959226"/>
      </g>
     </g>
    </g>
    <g id="ytick_41">
     <g id="line2d_63">
      <g>
       <use style="stroke:#000000;stroke-width:0.6;" x="451.79976" xlink:href="#ma56a5daaaa" y="232.558116"/>
      </g>
     </g>
    </g>
    <g id="ytick_42">
     <g id="line2d_64">
      <g>
       <use style="stroke:#000000;stroke-width:0.6;" x="451.79976" xlink:href="#ma56a5daaaa" y="226.597433"/>
      </g>
     </g>
    </g>
    <g id="ytick_43">
     <g id="line2d_65">
      <g>
       <use style="stroke:#000000;stroke-width:0.6;" x="451.79976" xlink:href="#ma56a5daaaa" y="221.973968"/>
      </g>
     </g>
    </g>
    <g id="ytick_44">
     <g id="line2d_66">
      <g>
       <use style="stroke:#000000;stroke-width:0.6;" x="451.79976" xlink:href="#ma56a5daaaa" y="218.196322"/>
      </g>
     </g>
    </g>
    <g id="ytick_45">
     <g id="line2d_67">
      <g>
       <use style="stroke:#000000;stroke-width:0.6;" x="451.79976" xlink:href="#ma56a5daaaa" y="215.002368"/>
      </g>
     </g>
    </g>
    <g id="ytick_46">
     <g id="line2d_68">
      <g>
       <use style="stroke:#000000;stroke-width:0.6;" x="451.79976" xlink:href="#ma56a5daaaa" y="212.235639"/>
      </g>
     </g>
    </g>
    <g id="ytick_47">
     <g id="line2d_69">
      <g>
       <use style="stroke:#000000;stroke-width:0.6;" x="451.79976" xlink:href="#ma56a5daaaa" y="209.795212"/>
      </g>
     </g>
    </g>
    <g id="text_27">
     <!-- Larvae from field (m$^{-3}$) -->
     <defs>
      <path d="M 9.8125 72.90625 
L 19.671875 72.90625 
L 19.671875 8.296875 
L 55.171875 8.296875 
L 55.171875 0 
L 9.8125 0 
z
" id="DejaVuSans-76"/>
      <path d="M 2.984375 54.6875 
L 12.5 54.6875 
L 29.59375 8.796875 
L 46.6875 54.6875 
L 56.203125 54.6875 
L 35.6875 0 
L 23.484375 0 
z
" id="DejaVuSans-118"/>
     </defs>
     <g style="fill:#808080;" transform="translate(498.088198 383.06418)rotate(-90)scale(0.14 -0.14)">
      <use transform="translate(0 0.765625)" xlink:href="#DejaVuSans-76"/>
      <use transform="translate(55.712891 0.765625)" xlink:href="#DejaVuSans-97"/>
      <use transform="translate(116.992188 0.765625)" xlink:href="#DejaVuSans-114"/>
      <use transform="translate(158.105469 0.765625)" xlink:href="#DejaVuSans-118"/>
      <use transform="translate(217.285156 0.765625)" xlink:href="#DejaVuSans-97"/>
      <use transform="translate(278.564453 0.765625)" xlink:href="#DejaVuSans-101"/>
      <use transform="translate(340.087891 0.765625)" xlink:href="#DejaVuSans-32"/>
      <use transform="translate(371.875 0.765625)" xlink:href="#DejaVuSans-102"/>
      <use transform="translate(407.080078 0.765625)" xlink:href="#DejaVuSans-114"/>
      <use transform="translate(448.193359 0.765625)" xlink:href="#DejaVuSans-111"/>
      <use transform="translate(509.375 0.765625)" xlink:href="#DejaVuSans-109"/>
      <use transform="translate(606.787109 0.765625)" xlink:href="#DejaVuSans-32"/>
      <use transform="translate(638.574219 0.765625)" xlink:href="#DejaVuSans-102"/>
      <use transform="translate(673.779297 0.765625)" xlink:href="#DejaVuSans-105"/>
      <use transform="translate(701.5625 0.765625)" xlink:href="#DejaVuSans-101"/>
      <use transform="translate(763.085938 0.765625)" xlink:href="#DejaVuSans-108"/>
      <use transform="translate(790.869141 0.765625)" xlink:href="#DejaVuSans-100"/>
      <use transform="translate(854.345703 0.765625)" xlink:href="#DejaVuSans-32"/>
      <use transform="translate(886.132812 0.765625)" xlink:href="#DejaVuSans-40"/>
      <use transform="translate(925.146484 0.765625)" xlink:href="#DejaVuSans-109"/>
      <use transform="translate(1023.515625 39.046875)scale(0.7)" xlink:href="#DejaVuSans-8722"/>
      <use transform="translate(1082.167969 39.046875)scale(0.7)" xlink:href="#DejaVuSans-51"/>
      <use transform="translate(1129.438477 0.765625)" xlink:href="#DejaVuSans-41"/>
     </g>
    </g>
   </g>
   <g id="patch_71">
    <path d="M 47.78774 394.77226 
L 47.78774 207.696099 
" style="fill:none;stroke:#000000;stroke-linecap:square;stroke-linejoin:miter;stroke-width:0.8;"/>
   </g>
   <g id="patch_72">
    <path d="M 451.79976 394.77226 
L 451.79976 207.696099 
" style="fill:none;stroke:#000000;stroke-linecap:square;stroke-linejoin:miter;stroke-width:0.8;"/>
   </g>
   <g id="patch_73">
    <path d="M 47.78774 394.77226 
L 451.79976 394.77226 
" style="fill:none;stroke:#000000;stroke-linecap:square;stroke-linejoin:miter;stroke-width:0.8;"/>
   </g>
   <g id="patch_74">
    <path d="M 47.78774 207.696099 
L 451.79976 207.696099 
" style="fill:none;stroke:#000000;stroke-linecap:square;stroke-linejoin:miter;stroke-width:0.8;"/>
   </g>
  </g>
  <g id="axes_4">
   <g id="matplotlib.axis_6">
    <g id="ytick_48">
     <g id="line2d_70">
      <g>
       <use style="stroke:#000000;stroke-width:0.8;" x="451.79976" xlink:href="#mf5b67b4275" y="173.069477"/>
      </g>
     </g>
     <g id="text_28">
      <!-- 10 -->
      <g transform="translate(458.79976 176.868696)scale(0.1 -0.1)">
       <use xlink:href="#DejaVuSans-49"/>
       <use x="63.623047" xlink:href="#DejaVuSans-48"/>
      </g>
     </g>
    </g>
    <g id="ytick_49">
     <g id="line2d_71">
      <g>
       <use style="stroke:#000000;stroke-width:0.8;" x="451.79976" xlink:href="#mf5b67b4275" y="156.062553"/>
      </g>
     </g>
     <g id="text_29">
      <!-- 12 -->
      <g transform="translate(458.79976 159.861772)scale(0.1 -0.1)">
       <use xlink:href="#DejaVuSans-49"/>
       <use x="63.623047" xlink:href="#DejaVuSans-50"/>
      </g>
     </g>
    </g>
    <g id="ytick_50">
     <g id="line2d_72">
      <g>
       <use style="stroke:#000000;stroke-width:0.8;" x="451.79976" xlink:href="#mf5b67b4275" y="139.05563"/>
      </g>
     </g>
     <g id="text_30">
      <!-- 14 -->
      <g transform="translate(458.79976 142.854848)scale(0.1 -0.1)">
       <use xlink:href="#DejaVuSans-49"/>
       <use x="63.623047" xlink:href="#DejaVuSans-52"/>
      </g>
     </g>
    </g>
    <g id="ytick_51">
     <g id="line2d_73">
      <g>
       <use style="stroke:#000000;stroke-width:0.8;" x="451.79976" xlink:href="#mf5b67b4275" y="105.041782"/>
      </g>
     </g>
     <g id="text_31">
      <!-- 18 -->
      <defs>
       <path d="M 31.78125 34.625 
Q 24.75 34.625 20.71875 30.859375 
Q 16.703125 27.09375 16.703125 20.515625 
Q 16.703125 13.921875 20.71875 10.15625 
Q 24.75 6.390625 31.78125 6.390625 
Q 38.8125 6.390625 42.859375 10.171875 
Q 46.921875 13.96875 46.921875 20.515625 
Q 46.921875 27.09375 42.890625 30.859375 
Q 38.875 34.625 31.78125 34.625 
z
M 21.921875 38.8125 
Q 15.578125 40.375 12.03125 44.71875 
Q 8.5 49.078125 8.5 55.328125 
Q 8.5 64.0625 14.71875 69.140625 
Q 20.953125 74.21875 31.78125 74.21875 
Q 42.671875 74.21875 48.875 69.140625 
Q 55.078125 64.0625 55.078125 55.328125 
Q 55.078125 49.078125 51.53125 44.71875 
Q 48 40.375 41.703125 38.8125 
Q 48.828125 37.15625 52.796875 32.3125 
Q 56.78125 27.484375 56.78125 20.515625 
Q 56.78125 9.90625 50.3125 4.234375 
Q 43.84375 -1.421875 31.78125 -1.421875 
Q 19.734375 -1.421875 13.25 4.234375 
Q 6.78125 9.90625 6.78125 20.515625 
Q 6.78125 27.484375 10.78125 32.3125 
Q 14.796875 37.15625 21.921875 38.8125 
z
M 18.3125 54.390625 
Q 18.3125 48.734375 21.84375 45.5625 
Q 25.390625 42.390625 31.78125 42.390625 
Q 38.140625 42.390625 41.71875 45.5625 
Q 45.3125 48.734375 45.3125 54.390625 
Q 45.3125 60.0625 41.71875 63.234375 
Q 38.140625 66.40625 31.78125 66.40625 
Q 25.390625 66.40625 21.84375 63.234375 
Q 18.3125 60.0625 18.3125 54.390625 
z
" id="DejaVuSans-56"/>
      </defs>
      <g transform="translate(458.79976 108.841001)scale(0.1 -0.1)">
       <use xlink:href="#DejaVuSans-49"/>
       <use x="63.623047" xlink:href="#DejaVuSans-56"/>
      </g>
     </g>
    </g>
    <g id="ytick_52">
     <g id="line2d_74">
      <g>
       <use style="stroke:#000000;stroke-width:0.8;" x="451.79976" xlink:href="#mf5b67b4275" y="88.034858"/>
      </g>
     </g>
     <g id="text_32">
      <!-- 20 -->
      <g transform="translate(458.79976 91.834077)scale(0.1 -0.1)">
       <use xlink:href="#DejaVuSans-50"/>
       <use x="63.623047" xlink:href="#DejaVuSans-48"/>
      </g>
     </g>
    </g>
    <g id="ytick_53">
     <g id="line2d_75">
      <g>
       <use style="stroke:#000000;stroke-width:0.8;" x="451.79976" xlink:href="#mf5b67b4275" y="71.027935"/>
      </g>
     </g>
     <g id="text_33">
      <!-- 22 -->
      <g transform="translate(458.79976 74.827154)scale(0.1 -0.1)">
       <use xlink:href="#DejaVuSans-50"/>
       <use x="63.623047" xlink:href="#DejaVuSans-50"/>
      </g>
     </g>
    </g>
    <g id="ytick_54">
     <g id="line2d_76">
      <g>
       <use style="stroke:#000000;stroke-width:0.8;" x="451.79976" xlink:href="#mf5b67b4275" y="54.021011"/>
      </g>
     </g>
     <g id="text_34">
      <!-- 24 -->
      <g transform="translate(458.79976 57.82023)scale(0.1 -0.1)">
       <use xlink:href="#DejaVuSans-50"/>
       <use x="63.623047" xlink:href="#DejaVuSans-52"/>
      </g>
     </g>
    </g>
    <g id="ytick_55">
     <g id="line2d_77">
      <g>
       <use style="stroke:#000000;stroke-width:0.8;" x="451.79976" xlink:href="#mf5b67b4275" y="37.014087"/>
      </g>
     </g>
     <g id="text_35">
      <!-- 26 -->
      <g transform="translate(458.79976 40.813306)scale(0.1 -0.1)">
       <use xlink:href="#DejaVuSans-50"/>
       <use x="63.623047" xlink:href="#DejaVuSans-54"/>
      </g>
     </g>
    </g>
    <g id="ytick_56">
     <g id="line2d_78">
      <g>
       <use style="stroke:#000000;stroke-width:0.8;" x="451.79976" xlink:href="#mf5b67b4275" y="20.007164"/>
      </g>
     </g>
     <g id="text_36">
      <!-- 28 -->
      <g transform="translate(458.79976 23.806382)scale(0.1 -0.1)">
       <use xlink:href="#DejaVuSans-50"/>
       <use x="63.623047" xlink:href="#DejaVuSans-56"/>
      </g>
     </g>
    </g>
    <g id="text_37">
     <!-- Daylength       Temperature     -->
     <defs>
      <path d="M 54.890625 33.015625 
L 54.890625 0 
L 45.90625 0 
L 45.90625 32.71875 
Q 45.90625 40.484375 42.875 44.328125 
Q 39.84375 48.1875 33.796875 48.1875 
Q 26.515625 48.1875 22.3125 43.546875 
Q 18.109375 38.921875 18.109375 30.90625 
L 18.109375 0 
L 9.078125 0 
L 9.078125 54.6875 
L 18.109375 54.6875 
L 18.109375 46.1875 
Q 21.34375 51.125 25.703125 53.5625 
Q 30.078125 56 35.796875 56 
Q 45.21875 56 50.046875 50.171875 
Q 54.890625 44.34375 54.890625 33.015625 
z
" id="DejaVuSans-110"/>
      <path d="M 54.890625 33.015625 
L 54.890625 0 
L 45.90625 0 
L 45.90625 32.71875 
Q 45.90625 40.484375 42.875 44.328125 
Q 39.84375 48.1875 33.796875 48.1875 
Q 26.515625 48.1875 22.3125 43.546875 
Q 18.109375 38.921875 18.109375 30.90625 
L 18.109375 0 
L 9.078125 0 
L 9.078125 75.984375 
L 18.109375 75.984375 
L 18.109375 46.1875 
Q 21.34375 51.125 25.703125 53.5625 
Q 30.078125 56 35.796875 56 
Q 45.21875 56 50.046875 50.171875 
Q 54.890625 44.34375 54.890625 33.015625 
z
" id="DejaVuSans-104"/>
      <path d="M -0.296875 72.90625 
L 61.375 72.90625 
L 61.375 64.59375 
L 35.5 64.59375 
L 35.5 0 
L 25.59375 0 
L 25.59375 64.59375 
L -0.296875 64.59375 
z
" id="DejaVuSans-84"/>
     </defs>
     <g transform="translate(484.642885 187.627695)rotate(-90)scale(0.12 -0.12)">
      <use xlink:href="#DejaVuSans-68"/>
      <use x="77.001953" xlink:href="#DejaVuSans-97"/>
      <use x="138.28125" xlink:href="#DejaVuSans-121"/>
      <use x="197.460938" xlink:href="#DejaVuSans-108"/>
      <use x="225.244141" xlink:href="#DejaVuSans-101"/>
      <use x="286.767578" xlink:href="#DejaVuSans-110"/>
      <use x="350.146484" xlink:href="#DejaVuSans-103"/>
      <use x="413.623047" xlink:href="#DejaVuSans-116"/>
      <use x="452.832031" xlink:href="#DejaVuSans-104"/>
      <use x="516.210938" xlink:href="#DejaVuSans-32"/>
      <use x="547.998047" xlink:href="#DejaVuSans-32"/>
      <use x="579.785156" xlink:href="#DejaVuSans-32"/>
      <use x="611.572266" xlink:href="#DejaVuSans-32"/>
      <use x="643.359375" xlink:href="#DejaVuSans-32"/>
      <use x="675.146484" xlink:href="#DejaVuSans-32"/>
      <use x="706.933594" xlink:href="#DejaVuSans-32"/>
      <use x="738.720703" xlink:href="#DejaVuSans-84"/>
      <use x="799.539062" xlink:href="#DejaVuSans-101"/>
      <use x="861.0625" xlink:href="#DejaVuSans-109"/>
      <use x="958.474609" xlink:href="#DejaVuSans-112"/>
      <use x="1021.951172" xlink:href="#DejaVuSans-101"/>
      <use x="1083.474609" xlink:href="#DejaVuSans-114"/>
      <use x="1124.587891" xlink:href="#DejaVuSans-97"/>
      <use x="1185.867188" xlink:href="#DejaVuSans-116"/>
      <use x="1225.076172" xlink:href="#DejaVuSans-117"/>
      <use x="1288.455078" xlink:href="#DejaVuSans-114"/>
      <use x="1329.537109" xlink:href="#DejaVuSans-101"/>
      <use x="1391.060547" xlink:href="#DejaVuSans-32"/>
      <use x="1422.847656" xlink:href="#DejaVuSans-32"/>
      <use x="1454.634766" xlink:href="#DejaVuSans-32"/>
      <use x="1486.421875" xlink:href="#DejaVuSans-32"/>
     </g>
    </g>
   </g>
   <g id="line2d_79">
    <path clip-path="url(#p6607d165cc)" d="M 67.158179 127.150783 
L 75.208232 130.473086 
L 80.239515 132.211193 
L 85.270798 133.714605 
L 90.302081 134.996927 
L 95.333364 136.074316 
L 101.370903 137.113439 
L 107.408443 137.893206 
L 113.445982 138.424673 
L 119.483522 138.709539 
L 125.521061 138.740151 
L 130.552344 138.559878 
L 135.583627 138.178072 
L 140.61491 137.576027 
L 145.646193 136.734184 
L 150.677476 135.628734 
L 154.702502 134.538591 
L 158.727529 133.254568 
L 162.752555 131.763061 
L 166.777582 130.056416 
L 170.802608 128.124429 
L 174.827634 125.961149 
L 178.852661 123.562322 
L 182.877687 120.927099 
L 186.902713 118.057181 
L 190.92774 114.955968 
L 195.959023 110.769714 
L 200.990305 106.262029 
L 206.021588 101.466076 
L 212.059128 95.390353 
L 219.102924 87.971933 
L 243.253082 62.176681 
L 248.284365 57.217462 
L 253.315648 52.557565 
L 257.340674 49.086452 
L 261.365701 45.874695 
L 265.390727 42.946102 
L 269.415753 40.322784 
L 273.44078 38.021748 
L 276.45955 36.515785 
L 279.478319 35.202 
L 282.497089 34.083794 
L 285.515859 33.162019 
L 288.534629 32.436674 
L 291.553398 31.906908 
L 294.572168 31.569321 
L 297.590938 31.422211 
L 300.609708 31.459626 
L 303.628477 31.677315 
L 306.647247 32.068474 
L 310.672274 32.851643 
L 314.6973 33.917977 
L 318.722326 35.25217 
L 322.747353 36.837215 
L 326.772379 38.659507 
L 330.797405 40.70544 
L 334.822432 42.962259 
L 339.853715 46.066873 
L 344.884998 49.470809 
L 349.91628 53.163012 
L 354.947563 57.134979 
L 359.978846 61.378206 
L 365.010129 65.879939 
L 371.047669 71.595116 
L 378.091465 78.624077 
L 389.160287 90.084193 
L 397.21034 98.272176 
L 402.241623 103.091088 
L 406.266649 106.684651 
L 410.291676 109.989947 
L 414.316702 112.975512 
L 418.341728 115.640497 
L 422.366755 118.03082 
L 432.429321 123.742595 
L 432.429321 123.742595 
" style="fill:none;stroke:#ff0000;stroke-linecap:square;stroke-width:1.5;"/>
   </g>
   <g id="line2d_80">
    <path clip-path="url(#p6607d165cc)" d="M 67.158179 178.256589 
L 70.176949 177.831416 
L 73.195719 177.491277 
L 80.239515 176.215758 
L 83.258285 175.535481 
L 85.270798 175.110308 
L 94.327107 172.729338 
L 96.33962 172.134096 
L 98.352134 171.538854 
L 102.37716 170.263335 
L 104.389673 169.668092 
L 120.489778 164.140842 
L 122.502292 163.37553 
L 127.533575 161.589803 
L 129.546088 160.824492 
L 132.564858 159.719042 
L 134.577371 158.95373 
L 137.59614 157.84828 
L 139.608654 157.082969 
L 142.627423 155.977519 
L 145.646193 154.787034 
L 149.67122 153.341445 
L 151.683733 152.576134 
L 154.702502 151.470684 
L 156.715016 150.705372 
L 160.740042 149.259784 
L 162.752555 148.494472 
L 167.783838 146.708745 
L 169.796351 145.943434 
L 192.940253 138.205283 
L 196.965279 137.099833 
L 198.977792 136.504591 
L 212.059128 133.273275 
L 224.134207 131.317479 
L 235.203029 130.467133 
L 245.265595 130.552168 
L 255.328161 131.487549 
L 267.40324 133.613414 
L 284.509602 138.035214 
L 288.534629 139.310733 
L 290.547142 139.905976 
L 317.71607 149.174749 
L 319.728583 149.940061 
L 323.753609 151.385649 
L 325.766122 152.150961 
L 329.791149 153.596549 
L 331.803662 154.361861 
L 335.828688 155.807449 
L 337.841201 156.572761 
L 341.866228 158.018349 
L 343.878741 158.783661 
L 347.903767 160.22925 
L 349.91628 160.994561 
L 354.947563 162.780288 
L 356.960077 163.5456 
L 380.103978 171.28375 
L 383.122748 172.134096 
L 385.135261 172.729338 
L 399.222853 176.215758 
L 410.291676 178.001485 
L 420.354242 178.766796 
L 428.404294 178.681762 
L 432.429321 178.426658 
L 432.429321 178.426658 
" style="fill:none;stroke:#bfbf00;stroke-dasharray:5.55,2.4;stroke-dashoffset:0;stroke-width:1.5;"/>
   </g>
   <g id="patch_75">
    <path d="M 47.78774 190.076401 
L 47.78774 3.00024 
" style="fill:none;stroke:#000000;stroke-linecap:square;stroke-linejoin:miter;stroke-width:0.8;"/>
   </g>
   <g id="patch_76">
    <path d="M 451.79976 190.076401 
L 451.79976 3.00024 
" style="fill:none;stroke:#000000;stroke-linecap:square;stroke-linejoin:miter;stroke-width:0.8;"/>
   </g>
   <g id="patch_77">
    <path d="M 47.78774 190.076401 
L 451.79976 190.076401 
" style="fill:none;stroke:#000000;stroke-linecap:square;stroke-linejoin:miter;stroke-width:0.8;"/>
   </g>
   <g id="patch_78">
    <path d="M 47.78774 3.00024 
L 451.79976 3.00024 
" style="fill:none;stroke:#000000;stroke-linecap:square;stroke-linejoin:miter;stroke-width:0.8;"/>
   </g>
  </g>
 </g>
 <defs>
  <clipPath id="p6607d165cc">
   <rect height="187.076161" width="404.01202" x="47.78774" y="3.00024"/>
  </clipPath>
  <clipPath id="p7fccd0968a">
   <rect height="187.076161" width="404.01202" x="47.78774" y="207.696099"/>
  </clipPath>
 </defs>
</svg>
