<?xml version="1.0" encoding="utf-8" standalone="no"?>
<!DOCTYPE svg PUBLIC "-//W3C//DTD SVG 1.1//EN"
  "http://www.w3.org/Graphics/SVG/1.1/DTD/svg11.dtd">
<!-- Created with matplotlib (https://matplotlib.org/) -->
<svg height="360pt" version="1.1" viewBox="0 0 720 360" width="720pt" xmlns="http://www.w3.org/2000/svg" xmlns:xlink="http://www.w3.org/1999/xlink">
 <defs>
  <style type="text/css">
*{stroke-linecap:butt;stroke-linejoin:round;white-space:pre;}
  </style>
 </defs>
 <g id="figure_1">
  <g id="patch_1">
   <path d="M 0 360 
L 720 360 
L 720 0 
L 0 0 
z
" style="fill:#ffffff;"/>
  </g>
  <g id="axes_1">
   <g id="patch_2">
    <path d="M 90 315 
L 648 315 
L 648 43.2 
L 90 43.2 
z
" style="fill:#ffffff;"/>
   </g>
   <g id="patch_3">
    <path clip-path="url(#p41ecd79a33)" d="M 128.552727 69497.136516 
L 132.610909 69497.136516 
L 132.610909 230.158327 
L 128.552727 230.158327 
z
" style="fill:#d3d3d3;"/>
   </g>
   <g id="patch_4">
    <path clip-path="url(#p41ecd79a33)" d="M 133.625455 69497.136516 
L 137.683636 69497.136516 
L 137.683636 69497.136516 
L 133.625455 69497.136516 
z
" style="fill:#d3d3d3;"/>
   </g>
   <g id="patch_5">
    <path clip-path="url(#p41ecd79a33)" d="M 138.698182 69497.136516 
L 142.756364 69497.136516 
L 142.756364 69497.136516 
L 138.698182 69497.136516 
z
" style="fill:#d3d3d3;"/>
   </g>
   <g id="patch_6">
    <path clip-path="url(#p41ecd79a33)" d="M 143.770909 69497.136516 
L 147.829091 69497.136516 
L 147.829091 69497.136516 
L 143.770909 69497.136516 
z
" style="fill:#d3d3d3;"/>
   </g>
   <g id="patch_7">
    <path clip-path="url(#p41ecd79a33)" d="M 148.843636 69497.136516 
L 152.901818 69497.136516 
L 152.901818 69497.136516 
L 148.843636 69497.136516 
z
" style="fill:#d3d3d3;"/>
   </g>
   <g id="patch_8">
    <path clip-path="url(#p41ecd79a33)" d="M 153.916364 69497.136516 
L 157.974545 69497.136516 
L 157.974545 69497.136516 
L 153.916364 69497.136516 
z
" style="fill:#d3d3d3;"/>
   </g>
   <g id="patch_9">
    <path clip-path="url(#p41ecd79a33)" d="M 158.989091 69497.136516 
L 163.047273 69497.136516 
L 163.047273 69497.136516 
L 158.989091 69497.136516 
z
" style="fill:#d3d3d3;"/>
   </g>
   <g id="patch_10">
    <path clip-path="url(#p41ecd79a33)" d="M 164.061818 69497.136516 
L 168.12 69497.136516 
L 168.12 278.607732 
L 164.061818 278.607732 
z
" style="fill:#d3d3d3;"/>
   </g>
   <g id="patch_11">
    <path clip-path="url(#p41ecd79a33)" d="M 169.134545 69497.136516 
L 173.192727 69497.136516 
L 173.192727 69497.136516 
L 169.134545 69497.136516 
z
" style="fill:#d3d3d3;"/>
   </g>
   <g id="patch_12">
    <path clip-path="url(#p41ecd79a33)" d="M 174.207273 69497.136516 
L 178.265455 69497.136516 
L 178.265455 69497.136516 
L 174.207273 69497.136516 
z
" style="fill:#d3d3d3;"/>
   </g>
   <g id="patch_13">
    <path clip-path="url(#p41ecd79a33)" d="M 179.28 69497.136516 
L 183.338182 69497.136516 
L 183.338182 214.184661 
L 179.28 214.184661 
z
" style="fill:#d3d3d3;"/>
   </g>
   <g id="patch_14">
    <path clip-path="url(#p41ecd79a33)" d="M 184.352727 69497.136516 
L 188.410909 69497.136516 
L 188.410909 117.857904 
L 184.352727 117.857904 
z
" style="fill:#d3d3d3;"/>
   </g>
   <g id="patch_15">
    <path clip-path="url(#p41ecd79a33)" d="M 189.425455 69497.136516 
L 193.483636 69497.136516 
L 193.483636 266.401891 
L 189.425455 266.401891 
z
" style="fill:#d3d3d3;"/>
   </g>
   <g id="patch_16">
    <path clip-path="url(#p41ecd79a33)" d="M 194.498182 69497.136516 
L 198.556364 69497.136516 
L 198.556364 181.409384 
L 194.498182 181.409384 
z
" style="fill:#d3d3d3;"/>
   </g>
   <g id="patch_17">
    <path clip-path="url(#p41ecd79a33)" d="M 199.570909 69497.136516 
L 203.629091 69497.136516 
L 203.629091 162.705554 
L 199.570909 162.705554 
z
" style="fill:#d3d3d3;"/>
   </g>
   <g id="patch_18">
    <path clip-path="url(#p41ecd79a33)" d="M 204.643636 69497.136516 
L 208.701818 69497.136516 
L 208.701818 133.745065 
L 204.643636 133.745065 
z
" style="fill:#d3d3d3;"/>
   </g>
   <g id="patch_19">
    <path clip-path="url(#p41ecd79a33)" d="M 209.716364 69497.136516 
L 213.774545 69497.136516 
L 213.774545 149.657607 
L 209.716364 149.657607 
z
" style="fill:#d3d3d3;"/>
   </g>
   <g id="patch_20">
    <path clip-path="url(#p41ecd79a33)" d="M 214.789091 69497.136516 
L 218.847273 69497.136516 
L 218.847273 68.393485 
L 214.789091 68.393485 
z
" style="fill:#d3d3d3;"/>
   </g>
   <g id="patch_21">
    <path clip-path="url(#p41ecd79a33)" d="M 219.861818 69497.136516 
L 223.92 69497.136516 
L 223.92 121.295471 
L 219.861818 121.295471 
z
" style="fill:#d3d3d3;"/>
   </g>
   <g id="patch_22">
    <path clip-path="url(#p41ecd79a33)" d="M 224.934545 69497.136516 
L 228.992727 69497.136516 
L 228.992727 63.859918 
L 224.934545 63.859918 
z
" style="fill:#d3d3d3;"/>
   </g>
   <g id="patch_23">
    <path clip-path="url(#p41ecd79a33)" d="M 230.007273 69497.136516 
L 234.065455 69497.136516 
L 234.065455 92.803422 
L 230.007273 92.803422 
z
" style="fill:#d3d3d3;"/>
   </g>
   <g id="patch_24">
    <path clip-path="url(#p41ecd79a33)" d="M 235.08 69497.136516 
L 239.138182 69497.136516 
L 239.138182 109.008816 
L 235.08 109.008816 
z
" style="fill:#d3d3d3;"/>
   </g>
   <g id="patch_25">
    <path clip-path="url(#p41ecd79a33)" d="M 240.152727 69497.136516 
L 244.210909 69497.136516 
L 244.210909 116.933762 
L 240.152727 116.933762 
z
" style="fill:#d3d3d3;"/>
   </g>
   <g id="patch_26">
    <path clip-path="url(#p41ecd79a33)" d="M 245.225455 69497.136516 
L 249.283636 69497.136516 
L 249.283636 144.869234 
L 245.225455 144.869234 
z
" style="fill:#d3d3d3;"/>
   </g>
   <g id="patch_27">
    <path clip-path="url(#p41ecd79a33)" d="M 250.298182 69497.136516 
L 254.356364 69497.136516 
L 254.356364 132.486833 
L 250.298182 132.486833 
z
" style="fill:#d3d3d3;"/>
   </g>
   <g id="patch_28">
    <path clip-path="url(#p41ecd79a33)" d="M 255.370909 69497.136516 
L 259.429091 69497.136516 
L 259.429091 77.042036 
L 255.370909 77.042036 
z
" style="fill:#d3d3d3;"/>
   </g>
   <g id="patch_29">
    <path clip-path="url(#p41ecd79a33)" d="M 260.443636 69497.136516 
L 264.501818 69497.136516 
L 264.501818 123.087616 
L 260.443636 123.087616 
z
" style="fill:#d3d3d3;"/>
   </g>
   <g id="patch_30">
    <path clip-path="url(#p41ecd79a33)" d="M 265.516364 69497.136516 
L 269.574545 69497.136516 
L 269.574545 75.035906 
L 265.516364 75.035906 
z
" style="fill:#d3d3d3;"/>
   </g>
   <g id="patch_31">
    <path clip-path="url(#p41ecd79a33)" d="M 270.589091 69497.136516 
L 274.647273 69497.136516 
L 274.647273 140.739026 
L 270.589091 140.739026 
z
" style="fill:#d3d3d3;"/>
   </g>
   <g id="patch_32">
    <path clip-path="url(#p41ecd79a33)" d="M 275.661818 69497.136516 
L 279.72 69497.136516 
L 279.72 139.602918 
L 275.661818 139.602918 
z
" style="fill:#d3d3d3;"/>
   </g>
   <g id="patch_33">
    <path clip-path="url(#p41ecd79a33)" d="M 280.734545 69497.136516 
L 284.792727 69497.136516 
L 284.792727 55.554545 
L 280.734545 55.554545 
z
" style="fill:#d3d3d3;"/>
   </g>
   <g id="patch_34">
    <path clip-path="url(#p41ecd79a33)" d="M 285.807273 69497.136516 
L 289.865455 69497.136516 
L 289.865455 119.29959 
L 285.807273 119.29959 
z
" style="fill:#d3d3d3;"/>
   </g>
   <g id="patch_35">
    <path clip-path="url(#p41ecd79a33)" d="M 290.88 69497.136516 
L 294.938182 69497.136516 
L 294.938182 107.081129 
L 290.88 107.081129 
z
" style="fill:#d3d3d3;"/>
   </g>
   <g id="patch_36">
    <path clip-path="url(#p41ecd79a33)" d="M 295.952727 69497.136516 
L 300.010909 69497.136516 
L 300.010909 192.019013 
L 295.952727 192.019013 
z
" style="fill:#d3d3d3;"/>
   </g>
   <g id="patch_37">
    <path clip-path="url(#p41ecd79a33)" d="M 301.025455 69497.136516 
L 305.083636 69497.136516 
L 305.083636 100.612078 
L 301.025455 100.612078 
z
" style="fill:#d3d3d3;"/>
   </g>
   <g id="patch_38">
    <path clip-path="url(#p41ecd79a33)" d="M 306.098182 69497.136516 
L 310.156364 69497.136516 
L 310.156364 120.496928 
L 306.098182 120.496928 
z
" style="fill:#d3d3d3;"/>
   </g>
   <g id="patch_39">
    <path clip-path="url(#p41ecd79a33)" d="M 311.170909 69497.136516 
L 315.229091 69497.136516 
L 315.229091 120.973508 
L 311.170909 120.973508 
z
" style="fill:#d3d3d3;"/>
   </g>
   <g id="patch_40">
    <path clip-path="url(#p41ecd79a33)" d="M 316.243636 69497.136516 
L 320.301818 69497.136516 
L 320.301818 299.473755 
L 316.243636 299.473755 
z
" style="fill:#d3d3d3;"/>
   </g>
   <g id="patch_41">
    <path clip-path="url(#p41ecd79a33)" d="M 321.316364 69497.136516 
L 325.374545 69497.136516 
L 325.374545 167.001048 
L 321.316364 167.001048 
z
" style="fill:#d3d3d3;"/>
   </g>
   <g id="patch_42">
    <path clip-path="url(#p41ecd79a33)" d="M 326.389091 69497.136516 
L 330.447273 69497.136516 
L 330.447273 251.02435 
L 326.389091 251.02435 
z
" style="fill:#d3d3d3;"/>
   </g>
   <g id="patch_43">
    <path clip-path="url(#p41ecd79a33)" d="M 331.461818 69497.136516 
L 335.52 69497.136516 
L 335.52 233.330027 
L 331.461818 233.330027 
z
" style="fill:#d3d3d3;"/>
   </g>
   <g id="patch_44">
    <path clip-path="url(#p41ecd79a33)" d="M 336.534545 69497.136516 
L 340.592727 69497.136516 
L 340.592727 266.401891 
L 336.534545 266.401891 
z
" style="fill:#d3d3d3;"/>
   </g>
   <g id="patch_45">
    <path clip-path="url(#p41ecd79a33)" d="M 341.607273 69497.136516 
L 345.665455 69497.136516 
L 345.665455 191.597981 
L 341.607273 191.597981 
z
" style="fill:#d3d3d3;"/>
   </g>
   <g id="patch_46">
    <path clip-path="url(#p41ecd79a33)" d="M 346.68 69497.136516 
L 350.738182 69497.136516 
L 350.738182 224.669845 
L 346.68 224.669845 
z
" style="fill:#d3d3d3;"/>
   </g>
   <g id="patch_47">
    <path clip-path="url(#p41ecd79a33)" d="M 351.752727 69497.136516 
L 355.810909 69497.136516 
L 355.810909 164.014599 
L 351.752727 164.014599 
z
" style="fill:#d3d3d3;"/>
   </g>
   <g id="patch_48">
    <path clip-path="url(#p41ecd79a33)" d="M 356.825455 69497.136516 
L 360.883636 69497.136516 
L 360.883636 69497.136516 
L 356.825455 69497.136516 
z
" style="fill:#d3d3d3;"/>
   </g>
   <g id="patch_49">
    <path clip-path="url(#p41ecd79a33)" d="M 361.898182 69497.136516 
L 365.956364 69497.136516 
L 365.956364 218.973035 
L 361.898182 218.973035 
z
" style="fill:#d3d3d3;"/>
   </g>
   <g id="patch_50">
    <path clip-path="url(#p41ecd79a33)" d="M 366.970909 69497.136516 
L 371.029091 69497.136516 
L 371.029091 69497.136516 
L 366.970909 69497.136516 
z
" style="fill:#d3d3d3;"/>
   </g>
   <g id="patch_51">
    <path clip-path="url(#p41ecd79a33)" d="M 372.043636 69497.136516 
L 376.101818 69497.136516 
L 376.101818 69497.136516 
L 372.043636 69497.136516 
z
" style="fill:#d3d3d3;"/>
   </g>
   <g id="patch_52">
    <path clip-path="url(#p41ecd79a33)" d="M 377.116364 69497.136516 
L 381.174545 69497.136516 
L 381.174545 160.394703 
L 377.116364 160.394703 
z
" style="fill:#d3d3d3;"/>
   </g>
   <g id="patch_53">
    <path clip-path="url(#p41ecd79a33)" d="M 382.189091 69497.136516 
L 386.247273 69497.136516 
L 386.247273 69497.136516 
L 382.189091 69497.136516 
z
" style="fill:#d3d3d3;"/>
   </g>
   <g id="patch_54">
    <path clip-path="url(#p41ecd79a33)" d="M 387.261818 69497.136516 
L 391.32 69497.136516 
L 391.32 69497.136516 
L 387.261818 69497.136516 
z
" style="fill:#d3d3d3;"/>
   </g>
   <g id="patch_55">
    <path clip-path="url(#p41ecd79a33)" d="M 392.334545 69497.136516 
L 396.392727 69497.136516 
L 396.392727 254.19605 
L 392.334545 254.19605 
z
" style="fill:#d3d3d3;"/>
   </g>
   <g id="patch_56">
    <path clip-path="url(#p41ecd79a33)" d="M 397.407273 69497.136516 
L 401.465455 69497.136516 
L 401.465455 69497.136516 
L 397.407273 69497.136516 
z
" style="fill:#d3d3d3;"/>
   </g>
   <g id="patch_57">
    <path clip-path="url(#p41ecd79a33)" d="M 402.48 69497.136516 
L 406.538182 69497.136516 
L 406.538182 245.535868 
L 402.48 245.535868 
z
" style="fill:#d3d3d3;"/>
   </g>
   <g id="patch_58">
    <path clip-path="url(#p41ecd79a33)" d="M 407.552727 69497.136516 
L 411.610909 69497.136516 
L 411.610909 231.702425 
L 407.552727 231.702425 
z
" style="fill:#d3d3d3;"/>
   </g>
   <g id="patch_59">
    <path clip-path="url(#p41ecd79a33)" d="M 412.625455 69497.136516 
L 416.683636 69497.136516 
L 416.683636 248.155198 
L 412.625455 248.155198 
z
" style="fill:#d3d3d3;"/>
   </g>
   <g id="patch_60">
    <path clip-path="url(#p41ecd79a33)" d="M 417.698182 69497.136516 
L 421.756364 69497.136516 
L 421.756364 261.761445 
L 417.698182 261.761445 
z
" style="fill:#d3d3d3;"/>
   </g>
   <g id="patch_61">
    <path clip-path="url(#p41ecd79a33)" d="M 422.770909 69497.136516 
L 426.829091 69497.136516 
L 426.829091 213.312041 
L 422.770909 213.312041 
z
" style="fill:#d3d3d3;"/>
   </g>
   <g id="matplotlib.axis_1">
    <g id="xtick_1">
     <g id="line2d_1">
      <defs>
       <path d="M 0 0 
L 0 3.5 
" id="mf203e92eb0" style="stroke:#000000;stroke-width:0.8;"/>
      </defs>
      <g>
       <use style="stroke:#000000;stroke-width:0.8;" x="140.727273" xlink:href="#mf203e92eb0" y="315"/>
      </g>
     </g>
     <g id="text_1">
      <!-- 160 -->
      <defs>
       <path d="M 12.40625 8.296875 
L 28.515625 8.296875 
L 28.515625 63.921875 
L 10.984375 60.40625 
L 10.984375 69.390625 
L 28.421875 72.90625 
L 38.28125 72.90625 
L 38.28125 8.296875 
L 54.390625 8.296875 
L 54.390625 0 
L 12.40625 0 
z
" id="DejaVuSans-49"/>
       <path d="M 33.015625 40.375 
Q 26.375 40.375 22.484375 35.828125 
Q 18.609375 31.296875 18.609375 23.390625 
Q 18.609375 15.53125 22.484375 10.953125 
Q 26.375 6.390625 33.015625 6.390625 
Q 39.65625 6.390625 43.53125 10.953125 
Q 47.40625 15.53125 47.40625 23.390625 
Q 47.40625 31.296875 43.53125 35.828125 
Q 39.65625 40.375 33.015625 40.375 
z
M 52.59375 71.296875 
L 52.59375 62.3125 
Q 48.875 64.0625 45.09375 64.984375 
Q 41.3125 65.921875 37.59375 65.921875 
Q 27.828125 65.921875 22.671875 59.328125 
Q 17.53125 52.734375 16.796875 39.40625 
Q 19.671875 43.65625 24.015625 45.921875 
Q 28.375 48.1875 33.59375 48.1875 
Q 44.578125 48.1875 50.953125 41.515625 
Q 57.328125 34.859375 57.328125 23.390625 
Q 57.328125 12.15625 50.6875 5.359375 
Q 44.046875 -1.421875 33.015625 -1.421875 
Q 20.359375 -1.421875 13.671875 8.265625 
Q 6.984375 17.96875 6.984375 36.375 
Q 6.984375 53.65625 15.1875 63.9375 
Q 23.390625 74.21875 37.203125 74.21875 
Q 40.921875 74.21875 44.703125 73.484375 
Q 48.484375 72.75 52.59375 71.296875 
z
" id="DejaVuSans-54"/>
       <path d="M 31.78125 66.40625 
Q 24.171875 66.40625 20.328125 58.90625 
Q 16.5 51.421875 16.5 36.375 
Q 16.5 21.390625 20.328125 13.890625 
Q 24.171875 6.390625 31.78125 6.390625 
Q 39.453125 6.390625 43.28125 13.890625 
Q 47.125 21.390625 47.125 36.375 
Q 47.125 51.421875 43.28125 58.90625 
Q 39.453125 66.40625 31.78125 66.40625 
z
M 31.78125 74.21875 
Q 44.046875 74.21875 50.515625 64.515625 
Q 56.984375 54.828125 56.984375 36.375 
Q 56.984375 17.96875 50.515625 8.265625 
Q 44.046875 -1.421875 31.78125 -1.421875 
Q 19.53125 -1.421875 13.0625 8.265625 
Q 6.59375 17.96875 6.59375 36.375 
Q 6.59375 54.828125 13.0625 64.515625 
Q 19.53125 74.21875 31.78125 74.21875 
z
" id="DejaVuSans-48"/>
      </defs>
      <g transform="translate(127.366023 332.637812)scale(0.14 -0.14)">
       <use xlink:href="#DejaVuSans-49"/>
       <use x="63.623047" xlink:href="#DejaVuSans-54"/>
       <use x="127.246094" xlink:href="#DejaVuSans-48"/>
      </g>
     </g>
    </g>
    <g id="xtick_2">
     <g id="line2d_2">
      <g>
       <use style="stroke:#000000;stroke-width:0.8;" x="242.181818" xlink:href="#mf203e92eb0" y="315"/>
      </g>
     </g>
     <g id="text_2">
      <!-- 180 -->
      <defs>
       <path d="M 31.78125 34.625 
Q 24.75 34.625 20.71875 30.859375 
Q 16.703125 27.09375 16.703125 20.515625 
Q 16.703125 13.921875 20.71875 10.15625 
Q 24.75 6.390625 31.78125 6.390625 
Q 38.8125 6.390625 42.859375 10.171875 
Q 46.921875 13.96875 46.921875 20.515625 
Q 46.921875 27.09375 42.890625 30.859375 
Q 38.875 34.625 31.78125 34.625 
z
M 21.921875 38.8125 
Q 15.578125 40.375 12.03125 44.71875 
Q 8.5 49.078125 8.5 55.328125 
Q 8.5 64.0625 14.71875 69.140625 
Q 20.953125 74.21875 31.78125 74.21875 
Q 42.671875 74.21875 48.875 69.140625 
Q 55.078125 64.0625 55.078125 55.328125 
Q 55.078125 49.078125 51.53125 44.71875 
Q 48 40.375 41.703125 38.8125 
Q 48.828125 37.15625 52.796875 32.3125 
Q 56.78125 27.484375 56.78125 20.515625 
Q 56.78125 9.90625 50.3125 4.234375 
Q 43.84375 -1.421875 31.78125 -1.421875 
Q 19.734375 -1.421875 13.25 4.234375 
Q 6.78125 9.90625 6.78125 20.515625 
Q 6.78125 27.484375 10.78125 32.3125 
Q 14.796875 37.15625 21.921875 38.8125 
z
M 18.3125 54.390625 
Q 18.3125 48.734375 21.84375 45.5625 
Q 25.390625 42.390625 31.78125 42.390625 
Q 38.140625 42.390625 41.71875 45.5625 
Q 45.3125 48.734375 45.3125 54.390625 
Q 45.3125 60.0625 41.71875 63.234375 
Q 38.140625 66.40625 31.78125 66.40625 
Q 25.390625 66.40625 21.84375 63.234375 
Q 18.3125 60.0625 18.3125 54.390625 
z
" id="DejaVuSans-56"/>
      </defs>
      <g transform="translate(228.820568 332.637812)scale(0.14 -0.14)">
       <use xlink:href="#DejaVuSans-49"/>
       <use x="63.623047" xlink:href="#DejaVuSans-56"/>
       <use x="127.246094" xlink:href="#DejaVuSans-48"/>
      </g>
     </g>
    </g>
    <g id="xtick_3">
     <g id="line2d_3">
      <g>
       <use style="stroke:#000000;stroke-width:0.8;" x="343.636364" xlink:href="#mf203e92eb0" y="315"/>
      </g>
     </g>
     <g id="text_3">
      <!-- 200 -->
      <defs>
       <path d="M 19.1875 8.296875 
L 53.609375 8.296875 
L 53.609375 0 
L 7.328125 0 
L 7.328125 8.296875 
Q 12.9375 14.109375 22.625 23.890625 
Q 32.328125 33.6875 34.8125 36.53125 
Q 39.546875 41.84375 41.421875 45.53125 
Q 43.3125 49.21875 43.3125 52.78125 
Q 43.3125 58.59375 39.234375 62.25 
Q 35.15625 65.921875 28.609375 65.921875 
Q 23.96875 65.921875 18.8125 64.3125 
Q 13.671875 62.703125 7.8125 59.421875 
L 7.8125 69.390625 
Q 13.765625 71.78125 18.9375 73 
Q 24.125 74.21875 28.421875 74.21875 
Q 39.75 74.21875 46.484375 68.546875 
Q 53.21875 62.890625 53.21875 53.421875 
Q 53.21875 48.921875 51.53125 44.890625 
Q 49.859375 40.875 45.40625 35.40625 
Q 44.1875 33.984375 37.640625 27.21875 
Q 31.109375 20.453125 19.1875 8.296875 
z
" id="DejaVuSans-50"/>
      </defs>
      <g transform="translate(330.275114 332.637812)scale(0.14 -0.14)">
       <use xlink:href="#DejaVuSans-50"/>
       <use x="63.623047" xlink:href="#DejaVuSans-48"/>
       <use x="127.246094" xlink:href="#DejaVuSans-48"/>
      </g>
     </g>
    </g>
    <g id="xtick_4">
     <g id="line2d_4">
      <g>
       <use style="stroke:#000000;stroke-width:0.8;" x="445.090909" xlink:href="#mf203e92eb0" y="315"/>
      </g>
     </g>
     <g id="text_4">
      <!-- 220 -->
      <g transform="translate(431.729659 332.637812)scale(0.14 -0.14)">
       <use xlink:href="#DejaVuSans-50"/>
       <use x="63.623047" xlink:href="#DejaVuSans-50"/>
       <use x="127.246094" xlink:href="#DejaVuSans-48"/>
      </g>
     </g>
    </g>
    <g id="xtick_5">
     <g id="line2d_5">
      <g>
       <use style="stroke:#000000;stroke-width:0.8;" x="546.545455" xlink:href="#mf203e92eb0" y="315"/>
      </g>
     </g>
     <g id="text_5">
      <!-- 240 -->
      <defs>
       <path d="M 37.796875 64.3125 
L 12.890625 25.390625 
L 37.796875 25.390625 
z
M 35.203125 72.90625 
L 47.609375 72.90625 
L 47.609375 25.390625 
L 58.015625 25.390625 
L 58.015625 17.1875 
L 47.609375 17.1875 
L 47.609375 0 
L 37.796875 0 
L 37.796875 17.1875 
L 4.890625 17.1875 
L 4.890625 26.703125 
z
" id="DejaVuSans-52"/>
      </defs>
      <g transform="translate(533.184205 332.637812)scale(0.14 -0.14)">
       <use xlink:href="#DejaVuSans-50"/>
       <use x="63.623047" xlink:href="#DejaVuSans-52"/>
       <use x="127.246094" xlink:href="#DejaVuSans-48"/>
      </g>
     </g>
    </g>
    <g id="xtick_6">
     <g id="line2d_6">
      <g>
       <use style="stroke:#000000;stroke-width:0.8;" x="648" xlink:href="#mf203e92eb0" y="315"/>
      </g>
     </g>
     <g id="text_6">
      <!-- 260 -->
      <g transform="translate(634.63875 332.637812)scale(0.14 -0.14)">
       <use xlink:href="#DejaVuSans-50"/>
       <use x="63.623047" xlink:href="#DejaVuSans-54"/>
       <use x="127.246094" xlink:href="#DejaVuSans-48"/>
      </g>
     </g>
    </g>
    <g id="text_7">
     <!-- Day of the year -->
     <defs>
      <path d="M 19.671875 64.796875 
L 19.671875 8.109375 
L 31.59375 8.109375 
Q 46.6875 8.109375 53.6875 14.9375 
Q 60.6875 21.78125 60.6875 36.53125 
Q 60.6875 51.171875 53.6875 57.984375 
Q 46.6875 64.796875 31.59375 64.796875 
z
M 9.8125 72.90625 
L 30.078125 72.90625 
Q 51.265625 72.90625 61.171875 64.09375 
Q 71.09375 55.28125 71.09375 36.53125 
Q 71.09375 17.671875 61.125 8.828125 
Q 51.171875 0 30.078125 0 
L 9.8125 0 
z
" id="DejaVuSans-68"/>
      <path d="M 34.28125 27.484375 
Q 23.390625 27.484375 19.1875 25 
Q 14.984375 22.515625 14.984375 16.5 
Q 14.984375 11.71875 18.140625 8.90625 
Q 21.296875 6.109375 26.703125 6.109375 
Q 34.1875 6.109375 38.703125 11.40625 
Q 43.21875 16.703125 43.21875 25.484375 
L 43.21875 27.484375 
z
M 52.203125 31.203125 
L 52.203125 0 
L 43.21875 0 
L 43.21875 8.296875 
Q 40.140625 3.328125 35.546875 0.953125 
Q 30.953125 -1.421875 24.3125 -1.421875 
Q 15.921875 -1.421875 10.953125 3.296875 
Q 6 8.015625 6 15.921875 
Q 6 25.140625 12.171875 29.828125 
Q 18.359375 34.515625 30.609375 34.515625 
L 43.21875 34.515625 
L 43.21875 35.40625 
Q 43.21875 41.609375 39.140625 45 
Q 35.0625 48.390625 27.6875 48.390625 
Q 23 48.390625 18.546875 47.265625 
Q 14.109375 46.140625 10.015625 43.890625 
L 10.015625 52.203125 
Q 14.9375 54.109375 19.578125 55.046875 
Q 24.21875 56 28.609375 56 
Q 40.484375 56 46.34375 49.84375 
Q 52.203125 43.703125 52.203125 31.203125 
z
" id="DejaVuSans-97"/>
      <path d="M 32.171875 -5.078125 
Q 28.375 -14.84375 24.75 -17.8125 
Q 21.140625 -20.796875 15.09375 -20.796875 
L 7.90625 -20.796875 
L 7.90625 -13.28125 
L 13.1875 -13.28125 
Q 16.890625 -13.28125 18.9375 -11.515625 
Q 21 -9.765625 23.484375 -3.21875 
L 25.09375 0.875 
L 2.984375 54.6875 
L 12.5 54.6875 
L 29.59375 11.921875 
L 46.6875 54.6875 
L 56.203125 54.6875 
z
" id="DejaVuSans-121"/>
      <path id="DejaVuSans-32"/>
      <path d="M 30.609375 48.390625 
Q 23.390625 48.390625 19.1875 42.75 
Q 14.984375 37.109375 14.984375 27.296875 
Q 14.984375 17.484375 19.15625 11.84375 
Q 23.34375 6.203125 30.609375 6.203125 
Q 37.796875 6.203125 41.984375 11.859375 
Q 46.1875 17.53125 46.1875 27.296875 
Q 46.1875 37.015625 41.984375 42.703125 
Q 37.796875 48.390625 30.609375 48.390625 
z
M 30.609375 56 
Q 42.328125 56 49.015625 48.375 
Q 55.71875 40.765625 55.71875 27.296875 
Q 55.71875 13.875 49.015625 6.21875 
Q 42.328125 -1.421875 30.609375 -1.421875 
Q 18.84375 -1.421875 12.171875 6.21875 
Q 5.515625 13.875 5.515625 27.296875 
Q 5.515625 40.765625 12.171875 48.375 
Q 18.84375 56 30.609375 56 
z
" id="DejaVuSans-111"/>
      <path d="M 37.109375 75.984375 
L 37.109375 68.5 
L 28.515625 68.5 
Q 23.6875 68.5 21.796875 66.546875 
Q 19.921875 64.59375 19.921875 59.515625 
L 19.921875 54.6875 
L 34.71875 54.6875 
L 34.71875 47.703125 
L 19.921875 47.703125 
L 19.921875 0 
L 10.890625 0 
L 10.890625 47.703125 
L 2.296875 47.703125 
L 2.296875 54.6875 
L 10.890625 54.6875 
L 10.890625 58.5 
Q 10.890625 67.625 15.140625 71.796875 
Q 19.390625 75.984375 28.609375 75.984375 
z
" id="DejaVuSans-102"/>
      <path d="M 18.3125 70.21875 
L 18.3125 54.6875 
L 36.8125 54.6875 
L 36.8125 47.703125 
L 18.3125 47.703125 
L 18.3125 18.015625 
Q 18.3125 11.328125 20.140625 9.421875 
Q 21.96875 7.515625 27.59375 7.515625 
L 36.8125 7.515625 
L 36.8125 0 
L 27.59375 0 
Q 17.1875 0 13.234375 3.875 
Q 9.28125 7.765625 9.28125 18.015625 
L 9.28125 47.703125 
L 2.6875 47.703125 
L 2.6875 54.6875 
L 9.28125 54.6875 
L 9.28125 70.21875 
z
" id="DejaVuSans-116"/>
      <path d="M 54.890625 33.015625 
L 54.890625 0 
L 45.90625 0 
L 45.90625 32.71875 
Q 45.90625 40.484375 42.875 44.328125 
Q 39.84375 48.1875 33.796875 48.1875 
Q 26.515625 48.1875 22.3125 43.546875 
Q 18.109375 38.921875 18.109375 30.90625 
L 18.109375 0 
L 9.078125 0 
L 9.078125 75.984375 
L 18.109375 75.984375 
L 18.109375 46.1875 
Q 21.34375 51.125 25.703125 53.5625 
Q 30.078125 56 35.796875 56 
Q 45.21875 56 50.046875 50.171875 
Q 54.890625 44.34375 54.890625 33.015625 
z
" id="DejaVuSans-104"/>
      <path d="M 56.203125 29.59375 
L 56.203125 25.203125 
L 14.890625 25.203125 
Q 15.484375 15.921875 20.484375 11.0625 
Q 25.484375 6.203125 34.421875 6.203125 
Q 39.59375 6.203125 44.453125 7.46875 
Q 49.3125 8.734375 54.109375 11.28125 
L 54.109375 2.78125 
Q 49.265625 0.734375 44.1875 -0.34375 
Q 39.109375 -1.421875 33.890625 -1.421875 
Q 20.796875 -1.421875 13.15625 6.1875 
Q 5.515625 13.8125 5.515625 26.8125 
Q 5.515625 40.234375 12.765625 48.109375 
Q 20.015625 56 32.328125 56 
Q 43.359375 56 49.78125 48.890625 
Q 56.203125 41.796875 56.203125 29.59375 
z
M 47.21875 32.234375 
Q 47.125 39.59375 43.09375 43.984375 
Q 39.0625 48.390625 32.421875 48.390625 
Q 24.90625 48.390625 20.390625 44.140625 
Q 15.875 39.890625 15.1875 32.171875 
z
" id="DejaVuSans-101"/>
      <path d="M 41.109375 46.296875 
Q 39.59375 47.171875 37.8125 47.578125 
Q 36.03125 48 33.890625 48 
Q 26.265625 48 22.1875 43.046875 
Q 18.109375 38.09375 18.109375 28.8125 
L 18.109375 0 
L 9.078125 0 
L 9.078125 54.6875 
L 18.109375 54.6875 
L 18.109375 46.1875 
Q 20.953125 51.171875 25.484375 53.578125 
Q 30.03125 56 36.53125 56 
Q 37.453125 56 38.578125 55.875 
Q 39.703125 55.765625 41.0625 55.515625 
z
" id="DejaVuSans-114"/>
     </defs>
     <g transform="translate(306.88625 351.706875)scale(0.16 -0.16)">
      <use xlink:href="#DejaVuSans-68"/>
      <use x="77.001953" xlink:href="#DejaVuSans-97"/>
      <use x="138.28125" xlink:href="#DejaVuSans-121"/>
      <use x="197.460938" xlink:href="#DejaVuSans-32"/>
      <use x="229.248047" xlink:href="#DejaVuSans-111"/>
      <use x="290.429688" xlink:href="#DejaVuSans-102"/>
      <use x="325.634766" xlink:href="#DejaVuSans-32"/>
      <use x="357.421875" xlink:href="#DejaVuSans-116"/>
      <use x="396.630859" xlink:href="#DejaVuSans-104"/>
      <use x="460.009766" xlink:href="#DejaVuSans-101"/>
      <use x="521.533203" xlink:href="#DejaVuSans-32"/>
      <use x="553.320312" xlink:href="#DejaVuSans-121"/>
      <use x="612.5" xlink:href="#DejaVuSans-101"/>
      <use x="674.023438" xlink:href="#DejaVuSans-97"/>
      <use x="735.302734" xlink:href="#DejaVuSans-114"/>
     </g>
    </g>
   </g>
   <g id="matplotlib.axis_2">
    <g id="ytick_1">
     <g id="line2d_7">
      <defs>
       <path d="M 0 0 
L -3.5 0 
" id="m2f198eb73f" style="stroke:#000000;stroke-width:0.8;"/>
      </defs>
      <g>
       <use style="stroke:#000000;stroke-width:0.8;" x="90" xlink:href="#m2f198eb73f" y="251.02435"/>
      </g>
     </g>
     <g id="text_8">
      <!-- $\mathdefault{10^{-1}}$ -->
      <defs>
       <path d="M 10.59375 35.5 
L 73.1875 35.5 
L 73.1875 27.203125 
L 10.59375 27.203125 
z
" id="DejaVuSans-8722"/>
      </defs>
      <g transform="translate(50.1 256.343256)scale(0.14 -0.14)">
       <use transform="translate(0 0.684375)" xlink:href="#DejaVuSans-49"/>
       <use transform="translate(63.623047 0.684375)" xlink:href="#DejaVuSans-48"/>
       <use transform="translate(128.203125 38.965625)scale(0.7)" xlink:href="#DejaVuSans-8722"/>
       <use transform="translate(186.855469 38.965625)scale(0.7)" xlink:href="#DejaVuSans-49"/>
      </g>
     </g>
    </g>
    <g id="ytick_2">
     <g id="line2d_8">
      <g>
       <use style="stroke:#000000;stroke-width:0.8;" x="90" xlink:href="#m2f198eb73f" y="181.708922"/>
      </g>
     </g>
     <g id="text_9">
      <!-- $\mathdefault{10^{0}}$ -->
      <g transform="translate(58.36 187.027828)scale(0.14 -0.14)">
       <use transform="translate(0 0.765625)" xlink:href="#DejaVuSans-49"/>
       <use transform="translate(63.623047 0.765625)" xlink:href="#DejaVuSans-48"/>
       <use transform="translate(128.203125 39.046875)scale(0.7)" xlink:href="#DejaVuSans-48"/>
      </g>
     </g>
    </g>
    <g id="ytick_3">
     <g id="line2d_9">
      <g>
       <use style="stroke:#000000;stroke-width:0.8;" x="90" xlink:href="#m2f198eb73f" y="112.393495"/>
      </g>
     </g>
     <g id="text_10">
      <!-- $\mathdefault{10^{1}}$ -->
      <g transform="translate(58.36 117.712401)scale(0.14 -0.14)">
       <use transform="translate(0 0.684375)" xlink:href="#DejaVuSans-49"/>
       <use transform="translate(63.623047 0.684375)" xlink:href="#DejaVuSans-48"/>
       <use transform="translate(128.203125 38.965625)scale(0.7)" xlink:href="#DejaVuSans-49"/>
      </g>
     </g>
    </g>
    <g id="ytick_4">
     <g id="line2d_10">
      <defs>
       <path d="M 0 0 
L -2 0 
" id="m0dd93d61cd" style="stroke:#000000;stroke-width:0.6;"/>
      </defs>
      <g>
       <use style="stroke:#000000;stroke-width:0.6;" x="90" xlink:href="#m0dd93d61cd" y="299.473755"/>
      </g>
     </g>
    </g>
    <g id="ytick_5">
     <g id="line2d_11">
      <g>
       <use style="stroke:#000000;stroke-width:0.6;" x="90" xlink:href="#m0dd93d61cd" y="287.267914"/>
      </g>
     </g>
    </g>
    <g id="ytick_6">
     <g id="line2d_12">
      <g>
       <use style="stroke:#000000;stroke-width:0.6;" x="90" xlink:href="#m0dd93d61cd" y="278.607732"/>
      </g>
     </g>
    </g>
    <g id="ytick_7">
     <g id="line2d_13">
      <g>
       <use style="stroke:#000000;stroke-width:0.6;" x="90" xlink:href="#m0dd93d61cd" y="271.890373"/>
      </g>
     </g>
    </g>
    <g id="ytick_8">
     <g id="line2d_14">
      <g>
       <use style="stroke:#000000;stroke-width:0.6;" x="90" xlink:href="#m0dd93d61cd" y="266.401891"/>
      </g>
     </g>
    </g>
    <g id="ytick_9">
     <g id="line2d_15">
      <g>
       <use style="stroke:#000000;stroke-width:0.6;" x="90" xlink:href="#m0dd93d61cd" y="261.761445"/>
      </g>
     </g>
    </g>
    <g id="ytick_10">
     <g id="line2d_16">
      <g>
       <use style="stroke:#000000;stroke-width:0.6;" x="90" xlink:href="#m0dd93d61cd" y="257.741709"/>
      </g>
     </g>
    </g>
    <g id="ytick_11">
     <g id="line2d_17">
      <g>
       <use style="stroke:#000000;stroke-width:0.6;" x="90" xlink:href="#m0dd93d61cd" y="254.19605"/>
      </g>
     </g>
    </g>
    <g id="ytick_12">
     <g id="line2d_18">
      <g>
       <use style="stroke:#000000;stroke-width:0.6;" x="90" xlink:href="#m0dd93d61cd" y="230.158327"/>
      </g>
     </g>
    </g>
    <g id="ytick_13">
     <g id="line2d_19">
      <g>
       <use style="stroke:#000000;stroke-width:0.6;" x="90" xlink:href="#m0dd93d61cd" y="217.952486"/>
      </g>
     </g>
    </g>
    <g id="ytick_14">
     <g id="line2d_20">
      <g>
       <use style="stroke:#000000;stroke-width:0.6;" x="90" xlink:href="#m0dd93d61cd" y="209.292304"/>
      </g>
     </g>
    </g>
    <g id="ytick_15">
     <g id="line2d_21">
      <g>
       <use style="stroke:#000000;stroke-width:0.6;" x="90" xlink:href="#m0dd93d61cd" y="202.574945"/>
      </g>
     </g>
    </g>
    <g id="ytick_16">
     <g id="line2d_22">
      <g>
       <use style="stroke:#000000;stroke-width:0.6;" x="90" xlink:href="#m0dd93d61cd" y="197.086463"/>
      </g>
     </g>
    </g>
    <g id="ytick_17">
     <g id="line2d_23">
      <g>
       <use style="stroke:#000000;stroke-width:0.6;" x="90" xlink:href="#m0dd93d61cd" y="192.446018"/>
      </g>
     </g>
    </g>
    <g id="ytick_18">
     <g id="line2d_24">
      <g>
       <use style="stroke:#000000;stroke-width:0.6;" x="90" xlink:href="#m0dd93d61cd" y="188.426281"/>
      </g>
     </g>
    </g>
    <g id="ytick_19">
     <g id="line2d_25">
      <g>
       <use style="stroke:#000000;stroke-width:0.6;" x="90" xlink:href="#m0dd93d61cd" y="184.880622"/>
      </g>
     </g>
    </g>
    <g id="ytick_20">
     <g id="line2d_26">
      <g>
       <use style="stroke:#000000;stroke-width:0.6;" x="90" xlink:href="#m0dd93d61cd" y="160.842899"/>
      </g>
     </g>
    </g>
    <g id="ytick_21">
     <g id="line2d_27">
      <g>
       <use style="stroke:#000000;stroke-width:0.6;" x="90" xlink:href="#m0dd93d61cd" y="148.637058"/>
      </g>
     </g>
    </g>
    <g id="ytick_22">
     <g id="line2d_28">
      <g>
       <use style="stroke:#000000;stroke-width:0.6;" x="90" xlink:href="#m0dd93d61cd" y="139.976876"/>
      </g>
     </g>
    </g>
    <g id="ytick_23">
     <g id="line2d_29">
      <g>
       <use style="stroke:#000000;stroke-width:0.6;" x="90" xlink:href="#m0dd93d61cd" y="133.259517"/>
      </g>
     </g>
    </g>
    <g id="ytick_24">
     <g id="line2d_30">
      <g>
       <use style="stroke:#000000;stroke-width:0.6;" x="90" xlink:href="#m0dd93d61cd" y="127.771036"/>
      </g>
     </g>
    </g>
    <g id="ytick_25">
     <g id="line2d_31">
      <g>
       <use style="stroke:#000000;stroke-width:0.6;" x="90" xlink:href="#m0dd93d61cd" y="123.13059"/>
      </g>
     </g>
    </g>
    <g id="ytick_26">
     <g id="line2d_32">
      <g>
       <use style="stroke:#000000;stroke-width:0.6;" x="90" xlink:href="#m0dd93d61cd" y="119.110854"/>
      </g>
     </g>
    </g>
    <g id="ytick_27">
     <g id="line2d_33">
      <g>
       <use style="stroke:#000000;stroke-width:0.6;" x="90" xlink:href="#m0dd93d61cd" y="115.565195"/>
      </g>
     </g>
    </g>
    <g id="ytick_28">
     <g id="line2d_34">
      <g>
       <use style="stroke:#000000;stroke-width:0.6;" x="90" xlink:href="#m0dd93d61cd" y="91.527472"/>
      </g>
     </g>
    </g>
    <g id="ytick_29">
     <g id="line2d_35">
      <g>
       <use style="stroke:#000000;stroke-width:0.6;" x="90" xlink:href="#m0dd93d61cd" y="79.321631"/>
      </g>
     </g>
    </g>
    <g id="ytick_30">
     <g id="line2d_36">
      <g>
       <use style="stroke:#000000;stroke-width:0.6;" x="90" xlink:href="#m0dd93d61cd" y="70.661449"/>
      </g>
     </g>
    </g>
    <g id="ytick_31">
     <g id="line2d_37">
      <g>
       <use style="stroke:#000000;stroke-width:0.6;" x="90" xlink:href="#m0dd93d61cd" y="63.94409"/>
      </g>
     </g>
    </g>
    <g id="ytick_32">
     <g id="line2d_38">
      <g>
       <use style="stroke:#000000;stroke-width:0.6;" x="90" xlink:href="#m0dd93d61cd" y="58.455608"/>
      </g>
     </g>
    </g>
    <g id="ytick_33">
     <g id="line2d_39">
      <g>
       <use style="stroke:#000000;stroke-width:0.6;" x="90" xlink:href="#m0dd93d61cd" y="53.815163"/>
      </g>
     </g>
    </g>
    <g id="ytick_34">
     <g id="line2d_40">
      <g>
       <use style="stroke:#000000;stroke-width:0.6;" x="90" xlink:href="#m0dd93d61cd" y="49.795426"/>
      </g>
     </g>
    </g>
    <g id="ytick_35">
     <g id="line2d_41">
      <g>
       <use style="stroke:#000000;stroke-width:0.6;" x="90" xlink:href="#m0dd93d61cd" y="46.249767"/>
      </g>
     </g>
    </g>
    <g id="text_11">
     <!-- Larval density field (m-$^3$) -->
     <defs>
      <path d="M 9.8125 72.90625 
L 19.671875 72.90625 
L 19.671875 8.296875 
L 55.171875 8.296875 
L 55.171875 0 
L 9.8125 0 
z
" id="DejaVuSans-76"/>
      <path d="M 2.984375 54.6875 
L 12.5 54.6875 
L 29.59375 8.796875 
L 46.6875 54.6875 
L 56.203125 54.6875 
L 35.6875 0 
L 23.484375 0 
z
" id="DejaVuSans-118"/>
      <path d="M 9.421875 75.984375 
L 18.40625 75.984375 
L 18.40625 0 
L 9.421875 0 
z
" id="DejaVuSans-108"/>
      <path d="M 45.40625 46.390625 
L 45.40625 75.984375 
L 54.390625 75.984375 
L 54.390625 0 
L 45.40625 0 
L 45.40625 8.203125 
Q 42.578125 3.328125 38.25 0.953125 
Q 33.9375 -1.421875 27.875 -1.421875 
Q 17.96875 -1.421875 11.734375 6.484375 
Q 5.515625 14.40625 5.515625 27.296875 
Q 5.515625 40.1875 11.734375 48.09375 
Q 17.96875 56 27.875 56 
Q 33.9375 56 38.25 53.625 
Q 42.578125 51.265625 45.40625 46.390625 
z
M 14.796875 27.296875 
Q 14.796875 17.390625 18.875 11.75 
Q 22.953125 6.109375 30.078125 6.109375 
Q 37.203125 6.109375 41.296875 11.75 
Q 45.40625 17.390625 45.40625 27.296875 
Q 45.40625 37.203125 41.296875 42.84375 
Q 37.203125 48.484375 30.078125 48.484375 
Q 22.953125 48.484375 18.875 42.84375 
Q 14.796875 37.203125 14.796875 27.296875 
z
" id="DejaVuSans-100"/>
      <path d="M 54.890625 33.015625 
L 54.890625 0 
L 45.90625 0 
L 45.90625 32.71875 
Q 45.90625 40.484375 42.875 44.328125 
Q 39.84375 48.1875 33.796875 48.1875 
Q 26.515625 48.1875 22.3125 43.546875 
Q 18.109375 38.921875 18.109375 30.90625 
L 18.109375 0 
L 9.078125 0 
L 9.078125 54.6875 
L 18.109375 54.6875 
L 18.109375 46.1875 
Q 21.34375 51.125 25.703125 53.5625 
Q 30.078125 56 35.796875 56 
Q 45.21875 56 50.046875 50.171875 
Q 54.890625 44.34375 54.890625 33.015625 
z
" id="DejaVuSans-110"/>
      <path d="M 44.28125 53.078125 
L 44.28125 44.578125 
Q 40.484375 46.53125 36.375 47.5 
Q 32.28125 48.484375 27.875 48.484375 
Q 21.1875 48.484375 17.84375 46.4375 
Q 14.5 44.390625 14.5 40.28125 
Q 14.5 37.15625 16.890625 35.375 
Q 19.28125 33.59375 26.515625 31.984375 
L 29.59375 31.296875 
Q 39.15625 29.25 43.1875 25.515625 
Q 47.21875 21.78125 47.21875 15.09375 
Q 47.21875 7.46875 41.1875 3.015625 
Q 35.15625 -1.421875 24.609375 -1.421875 
Q 20.21875 -1.421875 15.453125 -0.5625 
Q 10.6875 0.296875 5.421875 2 
L 5.421875 11.28125 
Q 10.40625 8.6875 15.234375 7.390625 
Q 20.0625 6.109375 24.8125 6.109375 
Q 31.15625 6.109375 34.5625 8.28125 
Q 37.984375 10.453125 37.984375 14.40625 
Q 37.984375 18.0625 35.515625 20.015625 
Q 33.0625 21.96875 24.703125 23.78125 
L 21.578125 24.515625 
Q 13.234375 26.265625 9.515625 29.90625 
Q 5.8125 33.546875 5.8125 39.890625 
Q 5.8125 47.609375 11.28125 51.796875 
Q 16.75 56 26.8125 56 
Q 31.78125 56 36.171875 55.265625 
Q 40.578125 54.546875 44.28125 53.078125 
z
" id="DejaVuSans-115"/>
      <path d="M 9.421875 54.6875 
L 18.40625 54.6875 
L 18.40625 0 
L 9.421875 0 
z
M 9.421875 75.984375 
L 18.40625 75.984375 
L 18.40625 64.59375 
L 9.421875 64.59375 
z
" id="DejaVuSans-105"/>
      <path d="M 31 75.875 
Q 24.46875 64.65625 21.28125 53.65625 
Q 18.109375 42.671875 18.109375 31.390625 
Q 18.109375 20.125 21.3125 9.0625 
Q 24.515625 -2 31 -13.1875 
L 23.1875 -13.1875 
Q 15.875 -1.703125 12.234375 9.375 
Q 8.59375 20.453125 8.59375 31.390625 
Q 8.59375 42.28125 12.203125 53.3125 
Q 15.828125 64.359375 23.1875 75.875 
z
" id="DejaVuSans-40"/>
      <path d="M 52 44.1875 
Q 55.375 50.25 60.0625 53.125 
Q 64.75 56 71.09375 56 
Q 79.640625 56 84.28125 50.015625 
Q 88.921875 44.046875 88.921875 33.015625 
L 88.921875 0 
L 79.890625 0 
L 79.890625 32.71875 
Q 79.890625 40.578125 77.09375 44.375 
Q 74.3125 48.1875 68.609375 48.1875 
Q 61.625 48.1875 57.5625 43.546875 
Q 53.515625 38.921875 53.515625 30.90625 
L 53.515625 0 
L 44.484375 0 
L 44.484375 32.71875 
Q 44.484375 40.625 41.703125 44.40625 
Q 38.921875 48.1875 33.109375 48.1875 
Q 26.21875 48.1875 22.15625 43.53125 
Q 18.109375 38.875 18.109375 30.90625 
L 18.109375 0 
L 9.078125 0 
L 9.078125 54.6875 
L 18.109375 54.6875 
L 18.109375 46.1875 
Q 21.1875 51.21875 25.484375 53.609375 
Q 29.78125 56 35.6875 56 
Q 41.65625 56 45.828125 52.96875 
Q 50 49.953125 52 44.1875 
z
" id="DejaVuSans-109"/>
      <path d="M 4.890625 31.390625 
L 31.203125 31.390625 
L 31.203125 23.390625 
L 4.890625 23.390625 
z
" id="DejaVuSans-45"/>
      <path d="M 40.578125 39.3125 
Q 47.65625 37.796875 51.625 33 
Q 55.609375 28.21875 55.609375 21.1875 
Q 55.609375 10.40625 48.1875 4.484375 
Q 40.765625 -1.421875 27.09375 -1.421875 
Q 22.515625 -1.421875 17.65625 -0.515625 
Q 12.796875 0.390625 7.625 2.203125 
L 7.625 11.71875 
Q 11.71875 9.328125 16.59375 8.109375 
Q 21.484375 6.890625 26.8125 6.890625 
Q 36.078125 6.890625 40.9375 10.546875 
Q 45.796875 14.203125 45.796875 21.1875 
Q 45.796875 27.640625 41.28125 31.265625 
Q 36.765625 34.90625 28.71875 34.90625 
L 20.21875 34.90625 
L 20.21875 43.015625 
L 29.109375 43.015625 
Q 36.375 43.015625 40.234375 45.921875 
Q 44.09375 48.828125 44.09375 54.296875 
Q 44.09375 59.90625 40.109375 62.90625 
Q 36.140625 65.921875 28.71875 65.921875 
Q 24.65625 65.921875 20.015625 65.03125 
Q 15.375 64.15625 9.8125 62.3125 
L 9.8125 71.09375 
Q 15.4375 72.65625 20.34375 73.4375 
Q 25.25 74.21875 29.59375 74.21875 
Q 40.828125 74.21875 47.359375 69.109375 
Q 53.90625 64.015625 53.90625 55.328125 
Q 53.90625 49.265625 50.4375 45.09375 
Q 46.96875 40.921875 40.578125 39.3125 
z
" id="DejaVuSans-51"/>
      <path d="M 8.015625 75.875 
L 15.828125 75.875 
Q 23.140625 64.359375 26.78125 53.3125 
Q 30.421875 42.28125 30.421875 31.390625 
Q 30.421875 20.453125 26.78125 9.375 
Q 23.140625 -1.703125 15.828125 -13.1875 
L 8.015625 -13.1875 
Q 14.5 -2 17.703125 9.0625 
Q 20.90625 20.125 20.90625 31.390625 
Q 20.90625 42.671875 17.703125 53.65625 
Q 14.5 64.65625 8.015625 75.875 
z
" id="DejaVuSans-41"/>
     </defs>
     <g style="fill:#808080;" transform="translate(42.74 278.62)rotate(-90)scale(0.16 -0.16)">
      <use transform="translate(0 0.765625)" xlink:href="#DejaVuSans-76"/>
      <use transform="translate(55.712891 0.765625)" xlink:href="#DejaVuSans-97"/>
      <use transform="translate(116.992188 0.765625)" xlink:href="#DejaVuSans-114"/>
      <use transform="translate(158.105469 0.765625)" xlink:href="#DejaVuSans-118"/>
      <use transform="translate(217.285156 0.765625)" xlink:href="#DejaVuSans-97"/>
      <use transform="translate(278.564453 0.765625)" xlink:href="#DejaVuSans-108"/>
      <use transform="translate(306.347656 0.765625)" xlink:href="#DejaVuSans-32"/>
      <use transform="translate(338.134766 0.765625)" xlink:href="#DejaVuSans-100"/>
      <use transform="translate(401.611328 0.765625)" xlink:href="#DejaVuSans-101"/>
      <use transform="translate(463.134766 0.765625)" xlink:href="#DejaVuSans-110"/>
      <use transform="translate(526.513672 0.765625)" xlink:href="#DejaVuSans-115"/>
      <use transform="translate(578.613281 0.765625)" xlink:href="#DejaVuSans-105"/>
      <use transform="translate(606.396484 0.765625)" xlink:href="#DejaVuSans-116"/>
      <use transform="translate(645.605469 0.765625)" xlink:href="#DejaVuSans-121"/>
      <use transform="translate(704.785156 0.765625)" xlink:href="#DejaVuSans-32"/>
      <use transform="translate(736.572266 0.765625)" xlink:href="#DejaVuSans-102"/>
      <use transform="translate(771.777344 0.765625)" xlink:href="#DejaVuSans-105"/>
      <use transform="translate(799.560547 0.765625)" xlink:href="#DejaVuSans-101"/>
      <use transform="translate(861.083984 0.765625)" xlink:href="#DejaVuSans-108"/>
      <use transform="translate(888.867188 0.765625)" xlink:href="#DejaVuSans-100"/>
      <use transform="translate(952.34375 0.765625)" xlink:href="#DejaVuSans-32"/>
      <use transform="translate(984.130859 0.765625)" xlink:href="#DejaVuSans-40"/>
      <use transform="translate(1023.144531 0.765625)" xlink:href="#DejaVuSans-109"/>
      <use transform="translate(1120.541016 0.765625)" xlink:href="#DejaVuSans-45"/>
      <use transform="translate(1157.582031 39.046875)scale(0.7)" xlink:href="#DejaVuSans-51"/>
      <use transform="translate(1204.852539 0.765625)" xlink:href="#DejaVuSans-41"/>
     </g>
    </g>
   </g>
   <g id="patch_62">
    <path d="M 90 315 
L 90 43.2 
" style="fill:none;stroke:#000000;stroke-linecap:square;stroke-linejoin:miter;stroke-width:0.8;"/>
   </g>
   <g id="patch_63">
    <path d="M 648 315 
L 648 43.2 
" style="fill:none;stroke:#000000;stroke-linecap:square;stroke-linejoin:miter;stroke-width:0.8;"/>
   </g>
   <g id="patch_64">
    <path d="M 90 315 
L 648 315 
" style="fill:none;stroke:#000000;stroke-linecap:square;stroke-linejoin:miter;stroke-width:0.8;"/>
   </g>
   <g id="patch_65">
    <path d="M 90 43.2 
L 648 43.2 
" style="fill:none;stroke:#000000;stroke-linecap:square;stroke-linejoin:miter;stroke-width:0.8;"/>
   </g>
  </g>
  <g id="axes_2">
   <g id="matplotlib.axis_3">
    <g id="ytick_36">
     <g id="line2d_42">
      <defs>
       <path d="M 0 0 
L 3.5 0 
" id="m7836af8b9d" style="stroke:#000000;stroke-width:0.8;"/>
      </defs>
      <g>
       <use style="stroke:#000000;stroke-width:0.8;" x="648" xlink:href="#m7836af8b9d" y="315"/>
      </g>
     </g>
     <g id="text_12">
      <!-- $\mathdefault{10^{-9}}$ -->
      <defs>
       <path d="M 10.984375 1.515625 
L 10.984375 10.5 
Q 14.703125 8.734375 18.5 7.8125 
Q 22.3125 6.890625 25.984375 6.890625 
Q 35.75 6.890625 40.890625 13.453125 
Q 46.046875 20.015625 46.78125 33.40625 
Q 43.953125 29.203125 39.59375 26.953125 
Q 35.25 24.703125 29.984375 24.703125 
Q 19.046875 24.703125 12.671875 31.3125 
Q 6.296875 37.9375 6.296875 49.421875 
Q 6.296875 60.640625 12.9375 67.421875 
Q 19.578125 74.21875 30.609375 74.21875 
Q 43.265625 74.21875 49.921875 64.515625 
Q 56.59375 54.828125 56.59375 36.375 
Q 56.59375 19.140625 48.40625 8.859375 
Q 40.234375 -1.421875 26.421875 -1.421875 
Q 22.703125 -1.421875 18.890625 -0.6875 
Q 15.09375 0.046875 10.984375 1.515625 
z
M 30.609375 32.421875 
Q 37.25 32.421875 41.125 36.953125 
Q 45.015625 41.5 45.015625 49.421875 
Q 45.015625 57.28125 41.125 61.84375 
Q 37.25 66.40625 30.609375 66.40625 
Q 23.96875 66.40625 20.09375 61.84375 
Q 16.21875 57.28125 16.21875 49.421875 
Q 16.21875 41.5 20.09375 36.953125 
Q 23.96875 32.421875 30.609375 32.421875 
z
" id="DejaVuSans-57"/>
      </defs>
      <g transform="translate(655 320.318906)scale(0.14 -0.14)">
       <use transform="translate(0 0.765625)" xlink:href="#DejaVuSans-49"/>
       <use transform="translate(63.623047 0.765625)" xlink:href="#DejaVuSans-48"/>
       <use transform="translate(128.203125 39.046875)scale(0.7)" xlink:href="#DejaVuSans-8722"/>
       <use transform="translate(186.855469 39.046875)scale(0.7)" xlink:href="#DejaVuSans-57"/>
      </g>
     </g>
    </g>
    <g id="ytick_37">
     <g id="line2d_43">
      <g>
       <use style="stroke:#000000;stroke-width:0.8;" x="648" xlink:href="#m7836af8b9d" y="260.64"/>
      </g>
     </g>
     <g id="text_13">
      <!-- $\mathdefault{10^{-8}}$ -->
      <g transform="translate(655 265.958906)scale(0.14 -0.14)">
       <use transform="translate(0 0.765625)" xlink:href="#DejaVuSans-49"/>
       <use transform="translate(63.623047 0.765625)" xlink:href="#DejaVuSans-48"/>
       <use transform="translate(128.203125 39.046875)scale(0.7)" xlink:href="#DejaVuSans-8722"/>
       <use transform="translate(186.855469 39.046875)scale(0.7)" xlink:href="#DejaVuSans-56"/>
      </g>
     </g>
    </g>
    <g id="ytick_38">
     <g id="line2d_44">
      <g>
       <use style="stroke:#000000;stroke-width:0.8;" x="648" xlink:href="#m7836af8b9d" y="206.28"/>
      </g>
     </g>
     <g id="text_14">
      <!-- $\mathdefault{10^{-7}}$ -->
      <defs>
       <path d="M 8.203125 72.90625 
L 55.078125 72.90625 
L 55.078125 68.703125 
L 28.609375 0 
L 18.3125 0 
L 43.21875 64.59375 
L 8.203125 64.59375 
z
" id="DejaVuSans-55"/>
      </defs>
      <g transform="translate(655 211.598906)scale(0.14 -0.14)">
       <use transform="translate(0 0.684375)" xlink:href="#DejaVuSans-49"/>
       <use transform="translate(63.623047 0.684375)" xlink:href="#DejaVuSans-48"/>
       <use transform="translate(128.203125 38.965625)scale(0.7)" xlink:href="#DejaVuSans-8722"/>
       <use transform="translate(186.855469 38.965625)scale(0.7)" xlink:href="#DejaVuSans-55"/>
      </g>
     </g>
    </g>
    <g id="ytick_39">
     <g id="line2d_45">
      <g>
       <use style="stroke:#000000;stroke-width:0.8;" x="648" xlink:href="#m7836af8b9d" y="151.92"/>
      </g>
     </g>
     <g id="text_15">
      <!-- $\mathdefault{10^{-6}}$ -->
      <g transform="translate(655 157.238906)scale(0.14 -0.14)">
       <use transform="translate(0 0.765625)" xlink:href="#DejaVuSans-49"/>
       <use transform="translate(63.623047 0.765625)" xlink:href="#DejaVuSans-48"/>
       <use transform="translate(128.203125 39.046875)scale(0.7)" xlink:href="#DejaVuSans-8722"/>
       <use transform="translate(186.855469 39.046875)scale(0.7)" xlink:href="#DejaVuSans-54"/>
      </g>
     </g>
    </g>
    <g id="ytick_40">
     <g id="line2d_46">
      <g>
       <use style="stroke:#000000;stroke-width:0.8;" x="648" xlink:href="#m7836af8b9d" y="97.56"/>
      </g>
     </g>
     <g id="text_16">
      <!-- $\mathdefault{10^{-5}}$ -->
      <defs>
       <path d="M 10.796875 72.90625 
L 49.515625 72.90625 
L 49.515625 64.59375 
L 19.828125 64.59375 
L 19.828125 46.734375 
Q 21.96875 47.46875 24.109375 47.828125 
Q 26.265625 48.1875 28.421875 48.1875 
Q 40.625 48.1875 47.75 41.5 
Q 54.890625 34.8125 54.890625 23.390625 
Q 54.890625 11.625 47.5625 5.09375 
Q 40.234375 -1.421875 26.90625 -1.421875 
Q 22.3125 -1.421875 17.546875 -0.640625 
Q 12.796875 0.140625 7.71875 1.703125 
L 7.71875 11.625 
Q 12.109375 9.234375 16.796875 8.0625 
Q 21.484375 6.890625 26.703125 6.890625 
Q 35.15625 6.890625 40.078125 11.328125 
Q 45.015625 15.765625 45.015625 23.390625 
Q 45.015625 31 40.078125 35.4375 
Q 35.15625 39.890625 26.703125 39.890625 
Q 22.75 39.890625 18.8125 39.015625 
Q 14.890625 38.140625 10.796875 36.28125 
z
" id="DejaVuSans-53"/>
      </defs>
      <g transform="translate(655 102.878906)scale(0.14 -0.14)">
       <use transform="translate(0 0.684375)" xlink:href="#DejaVuSans-49"/>
       <use transform="translate(63.623047 0.684375)" xlink:href="#DejaVuSans-48"/>
       <use transform="translate(128.203125 38.965625)scale(0.7)" xlink:href="#DejaVuSans-8722"/>
       <use transform="translate(186.855469 38.965625)scale(0.7)" xlink:href="#DejaVuSans-53"/>
      </g>
     </g>
    </g>
    <g id="ytick_41">
     <g id="line2d_47">
      <g>
       <use style="stroke:#000000;stroke-width:0.8;" x="648" xlink:href="#m7836af8b9d" y="43.2"/>
      </g>
     </g>
     <g id="text_17">
      <!-- $\mathdefault{10^{-4}}$ -->
      <g transform="translate(655 48.518906)scale(0.14 -0.14)">
       <use transform="translate(0 0.684375)" xlink:href="#DejaVuSans-49"/>
       <use transform="translate(63.623047 0.684375)" xlink:href="#DejaVuSans-48"/>
       <use transform="translate(128.203125 38.965625)scale(0.7)" xlink:href="#DejaVuSans-8722"/>
       <use transform="translate(186.855469 38.965625)scale(0.7)" xlink:href="#DejaVuSans-52"/>
      </g>
     </g>
    </g>
    <g id="ytick_42">
     <g id="line2d_48">
      <defs>
       <path d="M 0 0 
L 2 0 
" id="m7c551d17d5" style="stroke:#000000;stroke-width:0.6;"/>
      </defs>
      <g>
       <use style="stroke:#000000;stroke-width:0.6;" x="648" xlink:href="#m7c551d17d5" y="298.636009"/>
      </g>
     </g>
    </g>
    <g id="ytick_43">
     <g id="line2d_49">
      <g>
       <use style="stroke:#000000;stroke-width:0.6;" x="648" xlink:href="#m7c551d17d5" y="289.063689"/>
      </g>
     </g>
    </g>
    <g id="ytick_44">
     <g id="line2d_50">
      <g>
       <use style="stroke:#000000;stroke-width:0.6;" x="648" xlink:href="#m7c551d17d5" y="282.272019"/>
      </g>
     </g>
    </g>
    <g id="ytick_45">
     <g id="line2d_51">
      <g>
       <use style="stroke:#000000;stroke-width:0.6;" x="648" xlink:href="#m7c551d17d5" y="277.003991"/>
      </g>
     </g>
    </g>
    <g id="ytick_46">
     <g id="line2d_52">
      <g>
       <use style="stroke:#000000;stroke-width:0.6;" x="648" xlink:href="#m7c551d17d5" y="272.699698"/>
      </g>
     </g>
    </g>
    <g id="ytick_47">
     <g id="line2d_53">
      <g>
       <use style="stroke:#000000;stroke-width:0.6;" x="648" xlink:href="#m7c551d17d5" y="269.060471"/>
      </g>
     </g>
    </g>
    <g id="ytick_48">
     <g id="line2d_54">
      <g>
       <use style="stroke:#000000;stroke-width:0.6;" x="648" xlink:href="#m7c551d17d5" y="265.908028"/>
      </g>
     </g>
    </g>
    <g id="ytick_49">
     <g id="line2d_55">
      <g>
       <use style="stroke:#000000;stroke-width:0.6;" x="648" xlink:href="#m7c551d17d5" y="263.127377"/>
      </g>
     </g>
    </g>
    <g id="ytick_50">
     <g id="line2d_56">
      <g>
       <use style="stroke:#000000;stroke-width:0.6;" x="648" xlink:href="#m7c551d17d5" y="244.276009"/>
      </g>
     </g>
    </g>
    <g id="ytick_51">
     <g id="line2d_57">
      <g>
       <use style="stroke:#000000;stroke-width:0.6;" x="648" xlink:href="#m7c551d17d5" y="234.703689"/>
      </g>
     </g>
    </g>
    <g id="ytick_52">
     <g id="line2d_58">
      <g>
       <use style="stroke:#000000;stroke-width:0.6;" x="648" xlink:href="#m7c551d17d5" y="227.912019"/>
      </g>
     </g>
    </g>
    <g id="ytick_53">
     <g id="line2d_59">
      <g>
       <use style="stroke:#000000;stroke-width:0.6;" x="648" xlink:href="#m7c551d17d5" y="222.643991"/>
      </g>
     </g>
    </g>
    <g id="ytick_54">
     <g id="line2d_60">
      <g>
       <use style="stroke:#000000;stroke-width:0.6;" x="648" xlink:href="#m7c551d17d5" y="218.339698"/>
      </g>
     </g>
    </g>
    <g id="ytick_55">
     <g id="line2d_61">
      <g>
       <use style="stroke:#000000;stroke-width:0.6;" x="648" xlink:href="#m7c551d17d5" y="214.700471"/>
      </g>
     </g>
    </g>
    <g id="ytick_56">
     <g id="line2d_62">
      <g>
       <use style="stroke:#000000;stroke-width:0.6;" x="648" xlink:href="#m7c551d17d5" y="211.548028"/>
      </g>
     </g>
    </g>
    <g id="ytick_57">
     <g id="line2d_63">
      <g>
       <use style="stroke:#000000;stroke-width:0.6;" x="648" xlink:href="#m7c551d17d5" y="208.767377"/>
      </g>
     </g>
    </g>
    <g id="ytick_58">
     <g id="line2d_64">
      <g>
       <use style="stroke:#000000;stroke-width:0.6;" x="648" xlink:href="#m7c551d17d5" y="189.916009"/>
      </g>
     </g>
    </g>
    <g id="ytick_59">
     <g id="line2d_65">
      <g>
       <use style="stroke:#000000;stroke-width:0.6;" x="648" xlink:href="#m7c551d17d5" y="180.343689"/>
      </g>
     </g>
    </g>
    <g id="ytick_60">
     <g id="line2d_66">
      <g>
       <use style="stroke:#000000;stroke-width:0.6;" x="648" xlink:href="#m7c551d17d5" y="173.552019"/>
      </g>
     </g>
    </g>
    <g id="ytick_61">
     <g id="line2d_67">
      <g>
       <use style="stroke:#000000;stroke-width:0.6;" x="648" xlink:href="#m7c551d17d5" y="168.283991"/>
      </g>
     </g>
    </g>
    <g id="ytick_62">
     <g id="line2d_68">
      <g>
       <use style="stroke:#000000;stroke-width:0.6;" x="648" xlink:href="#m7c551d17d5" y="163.979698"/>
      </g>
     </g>
    </g>
    <g id="ytick_63">
     <g id="line2d_69">
      <g>
       <use style="stroke:#000000;stroke-width:0.6;" x="648" xlink:href="#m7c551d17d5" y="160.340471"/>
      </g>
     </g>
    </g>
    <g id="ytick_64">
     <g id="line2d_70">
      <g>
       <use style="stroke:#000000;stroke-width:0.6;" x="648" xlink:href="#m7c551d17d5" y="157.188028"/>
      </g>
     </g>
    </g>
    <g id="ytick_65">
     <g id="line2d_71">
      <g>
       <use style="stroke:#000000;stroke-width:0.6;" x="648" xlink:href="#m7c551d17d5" y="154.407377"/>
      </g>
     </g>
    </g>
    <g id="ytick_66">
     <g id="line2d_72">
      <g>
       <use style="stroke:#000000;stroke-width:0.6;" x="648" xlink:href="#m7c551d17d5" y="135.556009"/>
      </g>
     </g>
    </g>
    <g id="ytick_67">
     <g id="line2d_73">
      <g>
       <use style="stroke:#000000;stroke-width:0.6;" x="648" xlink:href="#m7c551d17d5" y="125.983689"/>
      </g>
     </g>
    </g>
    <g id="ytick_68">
     <g id="line2d_74">
      <g>
       <use style="stroke:#000000;stroke-width:0.6;" x="648" xlink:href="#m7c551d17d5" y="119.192019"/>
      </g>
     </g>
    </g>
    <g id="ytick_69">
     <g id="line2d_75">
      <g>
       <use style="stroke:#000000;stroke-width:0.6;" x="648" xlink:href="#m7c551d17d5" y="113.923991"/>
      </g>
     </g>
    </g>
    <g id="ytick_70">
     <g id="line2d_76">
      <g>
       <use style="stroke:#000000;stroke-width:0.6;" x="648" xlink:href="#m7c551d17d5" y="109.619698"/>
      </g>
     </g>
    </g>
    <g id="ytick_71">
     <g id="line2d_77">
      <g>
       <use style="stroke:#000000;stroke-width:0.6;" x="648" xlink:href="#m7c551d17d5" y="105.980471"/>
      </g>
     </g>
    </g>
    <g id="ytick_72">
     <g id="line2d_78">
      <g>
       <use style="stroke:#000000;stroke-width:0.6;" x="648" xlink:href="#m7c551d17d5" y="102.828028"/>
      </g>
     </g>
    </g>
    <g id="ytick_73">
     <g id="line2d_79">
      <g>
       <use style="stroke:#000000;stroke-width:0.6;" x="648" xlink:href="#m7c551d17d5" y="100.047377"/>
      </g>
     </g>
    </g>
    <g id="ytick_74">
     <g id="line2d_80">
      <g>
       <use style="stroke:#000000;stroke-width:0.6;" x="648" xlink:href="#m7c551d17d5" y="81.196009"/>
      </g>
     </g>
    </g>
    <g id="ytick_75">
     <g id="line2d_81">
      <g>
       <use style="stroke:#000000;stroke-width:0.6;" x="648" xlink:href="#m7c551d17d5" y="71.623689"/>
      </g>
     </g>
    </g>
    <g id="ytick_76">
     <g id="line2d_82">
      <g>
       <use style="stroke:#000000;stroke-width:0.6;" x="648" xlink:href="#m7c551d17d5" y="64.832019"/>
      </g>
     </g>
    </g>
    <g id="ytick_77">
     <g id="line2d_83">
      <g>
       <use style="stroke:#000000;stroke-width:0.6;" x="648" xlink:href="#m7c551d17d5" y="59.563991"/>
      </g>
     </g>
    </g>
    <g id="ytick_78">
     <g id="line2d_84">
      <g>
       <use style="stroke:#000000;stroke-width:0.6;" x="648" xlink:href="#m7c551d17d5" y="55.259698"/>
      </g>
     </g>
    </g>
    <g id="ytick_79">
     <g id="line2d_85">
      <g>
       <use style="stroke:#000000;stroke-width:0.6;" x="648" xlink:href="#m7c551d17d5" y="51.620471"/>
      </g>
     </g>
    </g>
    <g id="ytick_80">
     <g id="line2d_86">
      <g>
       <use style="stroke:#000000;stroke-width:0.6;" x="648" xlink:href="#m7c551d17d5" y="48.468028"/>
      </g>
     </g>
    </g>
    <g id="ytick_81">
     <g id="line2d_87">
      <g>
       <use style="stroke:#000000;stroke-width:0.6;" x="648" xlink:href="#m7c551d17d5" y="45.687377"/>
      </g>
     </g>
    </g>
    <g id="text_18">
     <!-- Egg fitness -->
     <defs>
      <path d="M 9.8125 72.90625 
L 55.90625 72.90625 
L 55.90625 64.59375 
L 19.671875 64.59375 
L 19.671875 43.015625 
L 54.390625 43.015625 
L 54.390625 34.71875 
L 19.671875 34.71875 
L 19.671875 8.296875 
L 56.78125 8.296875 
L 56.78125 0 
L 9.8125 0 
z
" id="DejaVuSans-69"/>
      <path d="M 45.40625 27.984375 
Q 45.40625 37.75 41.375 43.109375 
Q 37.359375 48.484375 30.078125 48.484375 
Q 22.859375 48.484375 18.828125 43.109375 
Q 14.796875 37.75 14.796875 27.984375 
Q 14.796875 18.265625 18.828125 12.890625 
Q 22.859375 7.515625 30.078125 7.515625 
Q 37.359375 7.515625 41.375 12.890625 
Q 45.40625 18.265625 45.40625 27.984375 
z
M 54.390625 6.78125 
Q 54.390625 -7.171875 48.1875 -13.984375 
Q 42 -20.796875 29.203125 -20.796875 
Q 24.46875 -20.796875 20.265625 -20.09375 
Q 16.0625 -19.390625 12.109375 -17.921875 
L 12.109375 -9.1875 
Q 16.0625 -11.328125 19.921875 -12.34375 
Q 23.78125 -13.375 27.78125 -13.375 
Q 36.625 -13.375 41.015625 -8.765625 
Q 45.40625 -4.15625 45.40625 5.171875 
L 45.40625 9.625 
Q 42.625 4.78125 38.28125 2.390625 
Q 33.9375 0 27.875 0 
Q 17.828125 0 11.671875 7.65625 
Q 5.515625 15.328125 5.515625 27.984375 
Q 5.515625 40.671875 11.671875 48.328125 
Q 17.828125 56 27.875 56 
Q 33.9375 56 38.28125 53.609375 
Q 42.625 51.21875 45.40625 46.390625 
L 45.40625 54.6875 
L 54.390625 54.6875 
z
" id="DejaVuSans-103"/>
     </defs>
     <g style="fill:#274858;" transform="translate(704.0575 223.3575)rotate(-90)scale(0.16 -0.16)">
      <use xlink:href="#DejaVuSans-69"/>
      <use x="63.183594" xlink:href="#DejaVuSans-103"/>
      <use x="126.660156" xlink:href="#DejaVuSans-103"/>
      <use x="190.136719" xlink:href="#DejaVuSans-32"/>
      <use x="221.923828" xlink:href="#DejaVuSans-102"/>
      <use x="257.128906" xlink:href="#DejaVuSans-105"/>
      <use x="284.912109" xlink:href="#DejaVuSans-116"/>
      <use x="324.121094" xlink:href="#DejaVuSans-110"/>
      <use x="387.5" xlink:href="#DejaVuSans-101"/>
      <use x="449.023438" xlink:href="#DejaVuSans-115"/>
      <use x="501.123047" xlink:href="#DejaVuSans-115"/>
     </g>
    </g>
   </g>
   <g id="line2d_88">
    <path clip-path="url(#p41ecd79a33)" d="M 99.373941 361 
L 100.145455 358.302721 
L 105.218182 342.905231 
L 110.290909 329.753324 
L 115.363636 318.151559 
L 125.509091 297.207319 
L 130.581818 288.151156 
L 135.654545 279.769356 
L 145.8 265.82016 
L 150.872727 261.443148 
L 155.945455 260.480652 
L 161.018182 258.431662 
L 166.090909 258.571766 
L 171.163636 259.497132 
L 176.236364 261.187403 
L 181.309091 262.632924 
L 186.381818 264.379702 
L 191.454545 268.120291 
L 196.527273 266.576878 
L 201.6 270.035954 
L 206.672727 273.24541 
L 211.745455 277.927029 
L 216.818182 281.234405 
L 221.890909 285.517865 
L 232.036364 295.982153 
L 237.109091 301.797166 
L 242.181818 309.244039 
L 247.254545 315.934652 
L 252.327273 324.161376 
L 257.4 331.710309 
L 262.472727 339.624601 
L 267.545455 349.05713 
L 274.398198 361 
L 274.398198 361 
" style="fill:none;stroke:#1f77b4;stroke-linecap:square;stroke-width:1.5;"/>
   </g>
   <g id="line2d_89">
    <path clip-path="url(#p41ecd79a33)" d="M 98.055826 361 
L 100.145455 353.263703 
L 105.218182 337.609317 
L 110.290909 322.740829 
L 120.436364 298.746733 
L 130.581818 276.934439 
L 140.727273 257.615792 
L 145.8 249.16842 
L 150.872727 242.539091 
L 155.945455 238.61767 
L 161.018182 231.132904 
L 166.090909 224.681861 
L 171.163636 218.61584 
L 176.236364 213.015449 
L 181.309091 207.770549 
L 186.381818 202.832456 
L 191.454545 199.434704 
L 196.527273 197.891291 
L 201.6 194.848643 
L 206.672727 191.018264 
L 211.745455 188.6407 
L 216.818182 185.439839 
L 221.890909 182.620562 
L 232.036364 179.743932 
L 237.109091 177.938964 
L 247.254545 177.354094 
L 252.327273 178.310787 
L 257.4 179.133328 
L 262.472727 180.889291 
L 267.545455 183.050561 
L 272.618182 185.021136 
L 277.690909 186.277716 
L 282.763636 188.432618 
L 292.909091 193.403874 
L 297.981818 195.089963 
L 303.054545 198.702364 
L 308.127273 201.405082 
L 313.2 203.355978 
L 318.272727 206.207277 
L 323.345455 207.978049 
L 328.418182 211.32887 
L 333.490909 213.882642 
L 343.636364 221.280447 
L 348.709091 221.855571 
L 353.781818 225.661272 
L 358.854545 228.535536 
L 363.927273 232.415795 
L 369 235.37369 
L 374.072727 239.31539 
L 379.145455 239.860855 
L 384.218182 243.765644 
L 389.290909 246.7866 
L 394.363636 250.676697 
L 399.436364 253.670963 
L 404.509091 257.585628 
L 409.581818 260.527713 
L 414.654545 264.39659 
L 419.727273 264.60271 
L 424.8 267.458887 
L 429.872727 271.179506 
L 434.945455 273.918822 
L 440.018182 277.517071 
L 450.163636 282.807292 
L 455.236364 285.374972 
L 460.309091 288.819525 
L 470.454545 293.675169 
L 475.527273 296.862256 
L 485.672727 301.304873 
L 495.818182 305.464792 
L 500.890909 308.260573 
L 511.036364 312.030344 
L 521.181818 315.497248 
L 531.327273 318.733384 
L 536.4 321.110432 
L 551.618182 325.375369 
L 556.690909 327.608396 
L 566.836364 330.372006 
L 576.981818 334.870711 
L 587.127273 339.980387 
L 592.2 350.460947 
L 592.200993 361 
L 592.200993 361 
" style="fill:none;stroke:#ff7f0e;stroke-linecap:square;stroke-width:1.5;"/>
   </g>
   <g id="line2d_90">
    <path clip-path="url(#p41ecd79a33)" d="M 97.115574 361 
L 100.145455 349.708452 
L 105.218182 333.407359 
L 110.290909 318.382799 
L 120.436364 293.847997 
L 125.509091 282.404517 
L 130.581818 271.413738 
L 140.727273 251.356708 
L 145.8 242.416076 
L 150.872727 234.822355 
L 155.945455 230.350556 
L 161.018182 222.434853 
L 171.163636 208.122023 
L 176.236364 201.670787 
L 181.309091 195.54045 
L 186.381818 189.203674 
L 191.454545 184.844581 
L 196.527273 183.301168 
L 201.6 179.410258 
L 206.672727 174.68024 
L 211.745455 170.92158 
L 216.818182 166.846156 
L 221.890909 163.090666 
L 226.963636 160.782931 
L 232.036364 157.626574 
L 237.109091 154.8154 
L 242.181818 153.494769 
L 247.254545 151.437024 
L 252.327273 151.000822 
L 257.4 151.02219 
L 262.472727 151.247682 
L 267.545455 153.255889 
L 277.690909 154.151017 
L 282.763636 154.713201 
L 287.836364 157.046076 
L 297.981818 158.753202 
L 303.054545 160.642639 
L 308.127273 162.312053 
L 318.272727 164.572764 
L 323.345455 165.489677 
L 328.418182 167.678925 
L 333.490909 169.349312 
L 343.636364 173.296039 
L 348.709091 173.807065 
L 358.854545 178.021448 
L 363.927273 180.807508 
L 374.072727 185.274792 
L 379.145455 185.101267 
L 384.218182 188.049775 
L 394.363636 192.675344 
L 399.436364 194.923007 
L 404.509091 198.017257 
L 414.654545 202.702052 
L 419.727273 203.025982 
L 429.872727 207.649119 
L 434.945455 209.867899 
L 440.018182 212.828759 
L 450.163636 217.291346 
L 455.236364 219.514712 
L 460.309091 222.442611 
L 475.527273 228.802952 
L 480.6 231.596555 
L 490.745455 235.632013 
L 495.818182 237.612687 
L 500.890909 240.265704 
L 516.109091 245.815337 
L 521.181818 248.327874 
L 536.4 253.463939 
L 541.472727 255.802441 
L 556.690909 260.592293 
L 561.763636 262.932594 
L 576.981818 267.498063 
L 582.054545 269.850153 
L 587.127273 271.374009 
L 592.2 276.996611 
L 597.272727 278.583218 
L 602.345455 280.917091 
L 607.418182 283.392496 
L 612.490909 285.248717 
L 617.563636 287.948369 
L 622.636364 290.891016 
L 627.709091 294.867332 
L 632.781818 299.322748 
L 637.854545 305.615553 
L 637.85976 361 
L 637.85976 361 
" style="fill:none;stroke:#2ca02c;stroke-linecap:square;stroke-width:1.5;"/>
   </g>
   <g id="line2d_91">
    <path clip-path="url(#p41ecd79a33)" d="M 96.574071 361 
L 100.145455 347.947648 
L 105.218182 331.569433 
L 110.290909 316.444459 
L 115.363636 303.485347 
L 125.509091 279.569586 
L 135.654545 257.958609 
L 145.8 238.384541 
L 150.872727 230.677529 
L 155.945455 225.332865 
L 166.090909 209.408994 
L 171.163636 202.30015 
L 181.309091 188.841297 
L 186.381818 182.940435 
L 191.454545 178.097591 
L 196.527273 176.554178 
L 201.6 172.678997 
L 206.672727 167.871997 
L 211.745455 164.410681 
L 216.818182 159.523837 
L 221.890909 155.355869 
L 226.963636 152.520929 
L 232.036364 148.681311 
L 237.109091 144.466864 
L 242.181818 142.122415 
L 247.254545 138.819795 
L 252.327273 136.726974 
L 262.472727 130.85279 
L 267.545455 128.638199 
L 272.618182 126.035145 
L 282.763636 121.310657 
L 287.836364 119.865652 
L 292.909091 118.081851 
L 297.981818 116.459853 
L 303.054545 112.982745 
L 313.2 110.308423 
L 318.272727 109.193064 
L 323.345455 106.447268 
L 328.418182 105.519796 
L 338.563636 104.024575 
L 343.636364 103.45987 
L 348.709091 101.376343 
L 353.781818 100.990091 
L 363.927273 100.550114 
L 369 100.454805 
L 374.072727 100.492279 
L 379.145455 99.186795 
L 384.218182 99.821197 
L 389.290909 101.12854 
L 404.509091 103.319226 
L 414.654545 104.868861 
L 419.727273 103.881327 
L 424.8 105.301336 
L 445.090909 108.605329 
L 455.236364 110.386015 
L 460.309091 112.03137 
L 490.745455 118.107406 
L 495.818182 119.816267 
L 521.181818 125.208901 
L 526.254545 127.035761 
L 541.472727 130.482358 
L 546.545455 132.37926 
L 556.690909 134.79775 
L 566.836364 137.300237 
L 571.909091 139.300621 
L 576.981818 140.586259 
L 582.054545 141.992339 
L 587.127273 144.245106 
L 592.2 149.102432 
L 597.272727 152.937984 
L 602.345455 156.240557 
L 607.418182 160.611894 
L 612.490909 165.130109 
L 617.563636 169.195268 
L 622.636364 174.34364 
L 627.709091 179.667255 
L 632.781818 185.184062 
L 637.854545 194.343644 
L 642.927273 200.461506 
L 648 206.87776 
L 653.072727 214.458404 
L 658.145455 223.37689 
L 663.218182 234.152879 
L 663.230108 361 
L 663.230108 361 
" style="fill:none;stroke:#d62728;stroke-linecap:square;stroke-width:1.5;"/>
   </g>
   <g id="line2d_92">
    <path clip-path="url(#p41ecd79a33)" d="M 96.268374 361 
L 100.145455 346.501747 
L 105.218182 330.065746 
L 110.290909 315.22175 
L 115.363636 302.202221 
L 120.436364 289.81558 
L 125.509091 278.053756 
L 130.581818 266.761166 
L 135.654545 256.163634 
L 140.727273 245.875671 
L 145.8 235.873295 
L 150.872727 227.966499 
L 155.945455 222.453167 
L 161.018182 214.299202 
L 171.163636 199.003483 
L 181.309091 185.359401 
L 186.381818 179.397018 
L 191.454545 175.117294 
L 196.527273 173.573881 
L 201.6 169.313819 
L 206.672727 164.597896 
L 211.745455 161.226747 
L 216.818182 156.907889 
L 221.890909 152.805512 
L 226.963636 149.565698 
L 232.036364 145.808192 
L 237.109091 142.255676 
L 242.181818 139.972683 
L 247.254545 136.731359 
L 252.327273 134.222164 
L 262.472727 128.49674 
L 267.545455 126.882856 
L 277.690909 121.949613 
L 282.763636 119.666512 
L 287.836364 117.574568 
L 297.981818 113.912668 
L 303.054545 110.343166 
L 308.127273 108.756544 
L 318.272727 105.965202 
L 323.345455 102.939365 
L 333.490909 100.734575 
L 343.636364 98.864433 
L 348.709091 96.390541 
L 358.854545 94.99117 
L 369 93.867897 
L 374.072727 93.397181 
L 379.145455 90.777176 
L 384.218182 90.421083 
L 394.363636 90.085975 
L 414.654545 89.758548 
L 419.727273 87.985061 
L 434.945455 87.96872 
L 440.018182 88.130418 
L 445.090909 88.403852 
L 450.163636 89.416927 
L 455.236364 89.989699 
L 460.309091 90.803806 
L 475.527273 93.713618 
L 480.6 94.763751 
L 485.672727 96.447354 
L 500.890909 100.117724 
L 505.963636 101.453359 
L 511.036364 103.503496 
L 521.181818 106.485655 
L 526.254545 108.765053 
L 531.327273 110.437875 
L 536.4 112.228016 
L 541.472727 114.748267 
L 546.545455 116.73217 
L 551.618182 119.570822 
L 556.690909 121.825234 
L 561.763636 124.204649 
L 566.836364 127.372732 
L 571.909091 130.691644 
L 576.981818 133.449354 
L 582.054545 137.221783 
L 587.127273 140.333497 
L 592.2 147.108599 
L 597.272727 150.559871 
L 612.490909 163.561944 
L 622.636364 173.910514 
L 627.709091 179.316353 
L 632.781818 184.904384 
L 637.854545 194.153129 
L 642.927273 200.237861 
L 648 206.508145 
L 653.072727 213.693745 
L 658.145455 220.533456 
L 663.218182 228.470925 
L 668.290909 239.22176 
L 668.30236 361 
L 668.30236 361 
" style="fill:none;stroke:#9467bd;stroke-linecap:square;stroke-width:1.5;"/>
   </g>
   <g id="line2d_93">
    <path clip-path="url(#p41ecd79a33)" d="M 96.268912 361 
L 100.145455 346.505614 
L 105.218182 330.072874 
L 110.290909 315.234137 
L 115.363636 302.269287 
L 120.436364 289.847158 
L 125.509091 278.15217 
L 130.581818 266.880977 
L 135.654545 256.315617 
L 140.727273 246.059205 
L 145.8 236.535506 
L 150.872727 228.278537 
L 155.945455 223.225041 
L 161.018182 214.663307 
L 171.163636 199.219649 
L 176.236364 192.265569 
L 186.381818 178.955839 
L 191.454545 174.1869 
L 196.527273 172.643487 
L 201.6 168.254267 
L 206.672727 162.514302 
L 211.745455 158.717643 
L 221.890909 149.226141 
L 226.963636 146.421041 
L 232.036364 142.770979 
L 237.109091 139.334402 
L 242.181818 137.160501 
L 247.254545 134.033062 
L 252.327273 131.609401 
L 262.472727 126.107724 
L 267.545455 124.580683 
L 277.690909 119.810849 
L 282.763636 117.62517 
L 287.836364 112.997012 
L 297.981818 109.561446 
L 303.054545 105.50863 
L 313.2 102.634044 
L 318.272727 101.421656 
L 323.345455 98.345539 
L 328.418182 97.122203 
L 338.563636 94.995139 
L 343.636364 94.135871 
L 348.709091 91.672398 
L 358.854545 90.155703 
L 369 88.931809 
L 374.072727 88.371165 
L 379.145455 86.914932 
L 384.218182 86.509498 
L 394.363636 86.045105 
L 399.436364 86.513049 
L 414.654545 86.51461 
L 419.727273 85.387624 
L 429.872727 85.272958 
L 434.945455 86.012975 
L 445.090909 86.236551 
L 450.163636 86.413674 
L 455.236364 87.405355 
L 460.309091 87.751283 
L 470.454545 88.79589 
L 475.527273 90.31523 
L 480.6 91.127224 
L 485.672727 92.128389 
L 490.745455 94.123807 
L 495.818182 95.395417 
L 500.890909 97.706485 
L 511.036364 100.880107 
L 516.109091 103.512308 
L 521.181818 105.309609 
L 531.327273 111.014708 
L 536.4 113.104357 
L 541.472727 116.205353 
L 546.545455 118.501015 
L 551.618182 121.799047 
L 556.690909 125.268807 
L 561.763636 127.891377 
L 571.909091 135.377999 
L 576.981818 139.417799 
L 587.127273 147.925948 
L 592.2 154.205363 
L 597.272727 158.995896 
L 602.345455 163.959314 
L 607.418182 170.189302 
L 612.490909 175.540896 
L 617.563636 181.104991 
L 622.636364 187.829999 
L 627.709091 193.699482 
L 632.781818 200.758526 
L 637.854545 210.27997 
L 642.927273 217.490844 
L 642.940762 361 
L 642.940762 361 
" style="fill:none;stroke:#2171b5;stroke-dasharray:8,4;stroke-dashoffset:0;stroke-width:2;"/>
   </g>
   <g id="line2d_94">
    <path clip-path="url(#p41ecd79a33)" d="M 96.578588 361 
L 100.145455 347.961048 
L 105.218182 331.579531 
L 110.290909 316.405182 
L 115.363636 303.491718 
L 125.509091 279.518488 
L 135.654545 257.894687 
L 145.8 238.308427 
L 150.872727 230.587307 
L 155.945455 225.236141 
L 166.090909 209.291834 
L 176.236364 194.990287 
L 181.309091 188.692943 
L 186.381818 182.780399 
L 191.454545 177.977108 
L 196.527273 176.433695 
L 201.6 172.497925 
L 206.672727 167.680295 
L 211.745455 164.258369 
L 216.818182 159.370332 
L 221.890909 155.151762 
L 226.963636 152.316369 
L 232.036364 148.478821 
L 237.109091 144.319065 
L 242.181818 141.981098 
L 247.254545 138.686993 
L 252.327273 136.604863 
L 262.472727 130.7565 
L 267.545455 128.556691 
L 272.618182 125.974292 
L 277.690909 123.633441 
L 282.763636 121.513977 
L 287.836364 120.229486 
L 292.909091 118.634005 
L 297.981818 117.208113 
L 303.054545 113.995587 
L 308.127273 112.833327 
L 313.2 112.51168 
L 318.272727 111.74094 
L 323.345455 109.263304 
L 333.490909 108.317976 
L 338.563636 108.841693 
L 343.636364 108.789326 
L 348.709091 107.096322 
L 353.781818 108.137494 
L 363.927273 108.985578 
L 369 110.474583 
L 374.072727 111.328984 
L 379.145455 111.753334 
L 384.218182 113.210016 
L 394.363636 118.109726 
L 399.436364 119.746105 
L 409.581818 125.126199 
L 414.654545 127.896695 
L 419.727273 128.861094 
L 434.945455 137.854051 
L 440.018182 141.053427 
L 450.163636 149.861853 
L 455.236364 154.540234 
L 460.309091 160.547515 
L 465.381818 167.982754 
L 465.399944 361 
L 465.399944 361 
" style="fill:none;stroke:#9467bd;stroke-dasharray:4,4;stroke-dashoffset:0;stroke-width:2;"/>
   </g>
   <g id="line2d_95">
    <path clip-path="url(#p41ecd79a33)" d="M 96.91401 361 
L 100.145455 348.916833 
L 105.218182 332.540332 
L 110.290909 317.369487 
L 120.436364 292.582938 
L 125.509091 281.016897 
L 130.581818 269.788793 
L 135.654545 258.927111 
L 145.8 239.379452 
L 150.872727 231.689628 
L 155.945455 226.29077 
L 161.018182 218.37865 
L 171.163636 203.268165 
L 176.236364 196.660925 
L 186.381818 184.160205 
L 191.454545 179.968254 
L 196.527273 178.424841 
L 201.6 174.686273 
L 206.672727 170.05294 
L 211.745455 166.797793 
L 216.818182 162.021031 
L 221.890909 158.116934 
L 226.963636 155.606895 
L 232.036364 152.090594 
L 237.109091 148.806871 
L 242.181818 146.884656 
L 247.254545 143.984013 
L 252.327273 142.455521 
L 257.4 140.779109 
L 262.472727 138.536318 
L 267.545455 137.527508 
L 272.618182 135.653498 
L 277.690909 133.943035 
L 287.836364 132.494413 
L 292.909091 131.474905 
L 297.981818 131.433275 
L 303.054545 128.808483 
L 308.127273 129.155507 
L 313.2 128.772546 
L 318.272727 129.576054 
L 323.345455 127.743184 
L 328.418182 128.814782 
L 333.490909 130.159345 
L 338.563636 131.662118 
L 343.636364 133.344096 
L 348.709091 134.510796 
L 353.781818 136.726453 
L 358.854545 140.122975 
L 363.927273 145.074025 
L 369 155.146862 
L 369.019327 361 
L 369.019327 361 
" style="fill:none;stroke:#8c564b;stroke-dasharray:4,4;stroke-dashoffset:0;stroke-width:2;"/>
   </g>
   <g id="line2d_96">
    <path clip-path="url(#p41ecd79a33)" d="M 97.927944 361 
L 100.145455 352.762072 
L 105.218182 336.578525 
L 110.290909 322.140808 
L 115.363636 309.483348 
L 120.436364 297.443209 
L 125.509091 286.245172 
L 130.581818 275.430887 
L 135.654545 265.532022 
L 145.8 247.271889 
L 150.872727 240.414724 
L 155.945455 236.332733 
L 161.018182 228.746538 
L 166.090909 222.086469 
L 171.163636 215.908651 
L 176.236364 210.131052 
L 181.309091 204.655026 
L 186.381818 199.649431 
L 191.454545 196.069558 
L 196.527273 194.526145 
L 201.6 191.35183 
L 206.672727 187.496195 
L 211.745455 185.05871 
L 216.818182 181.92474 
L 221.890909 179.86274 
L 232.036364 177.464655 
L 237.109091 175.862026 
L 242.181818 176.773164 
L 247.254545 177.14207 
L 252.327273 179.508796 
L 257.4 182.151415 
L 262.472727 185.081045 
L 267.545455 190.401507 
L 272.618182 195.107976 
L 277.690909 202.421794 
L 282.763636 215.417219 
L 282.77732 361 
L 282.77732 361 
" style="fill:none;stroke:#8c564b;stroke-dasharray:2,2;stroke-dashoffset:0;stroke-width:2;"/>
   </g>
   <g id="patch_66">
    <path d="M 90 315 
L 90 43.2 
" style="fill:none;stroke:#000000;stroke-linecap:square;stroke-linejoin:miter;stroke-width:0.8;"/>
   </g>
   <g id="patch_67">
    <path d="M 648 315 
L 648 43.2 
" style="fill:none;stroke:#000000;stroke-linecap:square;stroke-linejoin:miter;stroke-width:0.8;"/>
   </g>
   <g id="patch_68">
    <path d="M 90 315 
L 648 315 
" style="fill:none;stroke:#000000;stroke-linecap:square;stroke-linejoin:miter;stroke-width:0.8;"/>
   </g>
   <g id="patch_69">
    <path d="M 90 43.2 
L 648 43.2 
" style="fill:none;stroke:#000000;stroke-linecap:square;stroke-linejoin:miter;stroke-width:0.8;"/>
   </g>
   <g id="legend_1">
    <g id="line2d_97">
     <path d="M 99 56.298437 
L 119 56.298437 
" style="fill:none;stroke:#1f77b4;stroke-linecap:square;stroke-width:1.5;"/>
    </g>
    <g id="line2d_98"/>
    <g id="text_19">
     <!-- 300_30 -->
     <defs>
      <path d="M 50.984375 -16.609375 
L 50.984375 -23.578125 
L -0.984375 -23.578125 
L -0.984375 -16.609375 
z
" id="DejaVuSans-95"/>
     </defs>
     <g transform="translate(127 59.798437)scale(0.1 -0.1)">
      <use xlink:href="#DejaVuSans-51"/>
      <use x="63.623047" xlink:href="#DejaVuSans-48"/>
      <use x="127.246094" xlink:href="#DejaVuSans-48"/>
      <use x="190.869141" xlink:href="#DejaVuSans-95"/>
      <use x="240.869141" xlink:href="#DejaVuSans-51"/>
      <use x="304.492188" xlink:href="#DejaVuSans-48"/>
     </g>
    </g>
    <g id="line2d_99">
     <path d="M 99 71.254687 
L 119 71.254687 
" style="fill:none;stroke:#ff7f0e;stroke-linecap:square;stroke-width:1.5;"/>
    </g>
    <g id="line2d_100"/>
    <g id="text_20">
     <!-- 400_20 -->
     <g transform="translate(127 74.754687)scale(0.1 -0.1)">
      <use xlink:href="#DejaVuSans-52"/>
      <use x="63.623047" xlink:href="#DejaVuSans-48"/>
      <use x="127.246094" xlink:href="#DejaVuSans-48"/>
      <use x="190.869141" xlink:href="#DejaVuSans-95"/>
      <use x="240.869141" xlink:href="#DejaVuSans-50"/>
      <use x="304.492188" xlink:href="#DejaVuSans-48"/>
     </g>
    </g>
    <g id="line2d_101">
     <path d="M 99 86.210938 
L 119 86.210938 
" style="fill:none;stroke:#2ca02c;stroke-linecap:square;stroke-width:1.5;"/>
    </g>
    <g id="line2d_102"/>
    <g id="text_21">
     <!-- 400_30 -->
     <g transform="translate(127 89.710938)scale(0.1 -0.1)">
      <use xlink:href="#DejaVuSans-52"/>
      <use x="63.623047" xlink:href="#DejaVuSans-48"/>
      <use x="127.246094" xlink:href="#DejaVuSans-48"/>
      <use x="190.869141" xlink:href="#DejaVuSans-95"/>
      <use x="240.869141" xlink:href="#DejaVuSans-51"/>
      <use x="304.492188" xlink:href="#DejaVuSans-48"/>
     </g>
    </g>
    <g id="line2d_103">
     <path d="M 99 101.167187 
L 119 101.167187 
" style="fill:none;stroke:#d62728;stroke-linecap:square;stroke-width:1.5;"/>
    </g>
    <g id="line2d_104"/>
    <g id="text_22">
     <!-- 500_30 -->
     <g transform="translate(127 104.667187)scale(0.1 -0.1)">
      <use xlink:href="#DejaVuSans-53"/>
      <use x="63.623047" xlink:href="#DejaVuSans-48"/>
      <use x="127.246094" xlink:href="#DejaVuSans-48"/>
      <use x="190.869141" xlink:href="#DejaVuSans-95"/>
      <use x="240.869141" xlink:href="#DejaVuSans-51"/>
      <use x="304.492188" xlink:href="#DejaVuSans-48"/>
     </g>
    </g>
    <g id="line2d_105">
     <path d="M 99 116.123437 
L 119 116.123437 
" style="fill:none;stroke:#9467bd;stroke-linecap:square;stroke-width:1.5;"/>
    </g>
    <g id="line2d_106"/>
    <g id="text_23">
     <!-- 500_60 -->
     <g transform="translate(127 119.623437)scale(0.1 -0.1)">
      <use xlink:href="#DejaVuSans-53"/>
      <use x="63.623047" xlink:href="#DejaVuSans-48"/>
      <use x="127.246094" xlink:href="#DejaVuSans-48"/>
      <use x="190.869141" xlink:href="#DejaVuSans-95"/>
      <use x="240.869141" xlink:href="#DejaVuSans-54"/>
      <use x="304.492188" xlink:href="#DejaVuSans-48"/>
     </g>
    </g>
    <g id="line2d_107">
     <path d="M 99 131.079687 
L 119 131.079687 
" style="fill:none;stroke:#2171b5;stroke-dasharray:8,4;stroke-dashoffset:0;stroke-width:2;"/>
    </g>
    <g id="line2d_108"/>
    <g id="text_24">
     <!-- n600_C02 -->
     <defs>
      <path d="M 64.40625 67.28125 
L 64.40625 56.890625 
Q 59.421875 61.53125 53.78125 63.8125 
Q 48.140625 66.109375 41.796875 66.109375 
Q 29.296875 66.109375 22.65625 58.46875 
Q 16.015625 50.828125 16.015625 36.375 
Q 16.015625 21.96875 22.65625 14.328125 
Q 29.296875 6.6875 41.796875 6.6875 
Q 48.140625 6.6875 53.78125 8.984375 
Q 59.421875 11.28125 64.40625 15.921875 
L 64.40625 5.609375 
Q 59.234375 2.09375 53.4375 0.328125 
Q 47.65625 -1.421875 41.21875 -1.421875 
Q 24.65625 -1.421875 15.125 8.703125 
Q 5.609375 18.84375 5.609375 36.375 
Q 5.609375 53.953125 15.125 64.078125 
Q 24.65625 74.21875 41.21875 74.21875 
Q 47.75 74.21875 53.53125 72.484375 
Q 59.328125 70.75 64.40625 67.28125 
z
" id="DejaVuSans-67"/>
     </defs>
     <g transform="translate(127 134.579687)scale(0.1 -0.1)">
      <use xlink:href="#DejaVuSans-110"/>
      <use x="63.378906" xlink:href="#DejaVuSans-54"/>
      <use x="127.001953" xlink:href="#DejaVuSans-48"/>
      <use x="190.625" xlink:href="#DejaVuSans-48"/>
      <use x="254.248047" xlink:href="#DejaVuSans-95"/>
      <use x="304.248047" xlink:href="#DejaVuSans-67"/>
      <use x="374.072266" xlink:href="#DejaVuSans-48"/>
      <use x="437.695312" xlink:href="#DejaVuSans-50"/>
     </g>
    </g>
    <g id="line2d_109">
     <path d="M 99 146.035937 
L 119 146.035937 
" style="fill:none;stroke:#9467bd;stroke-dasharray:4,4;stroke-dashoffset:0;stroke-width:2;"/>
    </g>
    <g id="line2d_110"/>
    <g id="text_25">
     <!-- n500_C015 -->
     <g transform="translate(127 149.535937)scale(0.1 -0.1)">
      <use xlink:href="#DejaVuSans-110"/>
      <use x="63.378906" xlink:href="#DejaVuSans-53"/>
      <use x="127.001953" xlink:href="#DejaVuSans-48"/>
      <use x="190.625" xlink:href="#DejaVuSans-48"/>
      <use x="254.248047" xlink:href="#DejaVuSans-95"/>
      <use x="304.248047" xlink:href="#DejaVuSans-67"/>
      <use x="374.072266" xlink:href="#DejaVuSans-48"/>
      <use x="437.695312" xlink:href="#DejaVuSans-49"/>
      <use x="501.318359" xlink:href="#DejaVuSans-53"/>
     </g>
    </g>
    <g id="line2d_111">
     <path d="M 99 160.992187 
L 119 160.992187 
" style="fill:none;stroke:#8c564b;stroke-dasharray:4,4;stroke-dashoffset:0;stroke-width:2;"/>
    </g>
    <g id="line2d_112"/>
    <g id="text_26">
     <!-- n500_C010 -->
     <g transform="translate(127 164.492187)scale(0.1 -0.1)">
      <use xlink:href="#DejaVuSans-110"/>
      <use x="63.378906" xlink:href="#DejaVuSans-53"/>
      <use x="127.001953" xlink:href="#DejaVuSans-48"/>
      <use x="190.625" xlink:href="#DejaVuSans-48"/>
      <use x="254.248047" xlink:href="#DejaVuSans-95"/>
      <use x="304.248047" xlink:href="#DejaVuSans-67"/>
      <use x="374.072266" xlink:href="#DejaVuSans-48"/>
      <use x="437.695312" xlink:href="#DejaVuSans-49"/>
      <use x="501.318359" xlink:href="#DejaVuSans-48"/>
     </g>
    </g>
    <g id="line2d_113">
     <path d="M 99 175.948437 
L 119 175.948437 
" style="fill:none;stroke:#8c564b;stroke-dasharray:2,2;stroke-dashoffset:0;stroke-width:2;"/>
    </g>
    <g id="line2d_114"/>
    <g id="text_27">
     <!-- n400_C010 -->
     <g transform="translate(127 179.448437)scale(0.1 -0.1)">
      <use xlink:href="#DejaVuSans-110"/>
      <use x="63.378906" xlink:href="#DejaVuSans-52"/>
      <use x="127.001953" xlink:href="#DejaVuSans-48"/>
      <use x="190.625" xlink:href="#DejaVuSans-48"/>
      <use x="254.248047" xlink:href="#DejaVuSans-95"/>
      <use x="304.248047" xlink:href="#DejaVuSans-67"/>
      <use x="374.072266" xlink:href="#DejaVuSans-48"/>
      <use x="437.695312" xlink:href="#DejaVuSans-49"/>
      <use x="501.318359" xlink:href="#DejaVuSans-48"/>
     </g>
    </g>
   </g>
  </g>
 </g>
 <defs>
  <clipPath id="p41ecd79a33">
   <rect height="271.8" width="558" x="90" y="43.2"/>
  </clipPath>
 </defs>
</svg>
