<?xml version="1.0" encoding="utf-8" standalone="no"?>
<!DOCTYPE svg PUBLIC "-//W3C//DTD SVG 1.1//EN"
  "http://www.w3.org/Graphics/SVG/1.1/DTD/svg11.dtd">
<!-- Created with matplotlib (https://matplotlib.org/) -->
<svg height="360pt" version="1.1" viewBox="0 0 720 360" width="720pt" xmlns="http://www.w3.org/2000/svg" xmlns:xlink="http://www.w3.org/1999/xlink">
 <defs>
  <style type="text/css">
*{stroke-linecap:butt;stroke-linejoin:round;white-space:pre;}
  </style>
 </defs>
 <g id="figure_1">
  <g id="patch_1">
   <path d="M 0 360 
L 720 360 
L 720 0 
L 0 0 
z
" style="fill:#ffffff;"/>
  </g>
  <g id="axes_1">
   <g id="patch_2">
    <path d="M 90 315 
L 648 315 
L 648 43.2 
L 90 43.2 
z
" style="fill:#ffffff;"/>
   </g>
   <g id="matplotlib.axis_1">
    <g id="xtick_1">
     <g id="line2d_1">
      <defs>
       <path d="M 0 0 
L 0 3.5 
" id="m05867333cb" style="stroke:#000000;stroke-width:0.8;"/>
      </defs>
      <g>
       <use style="stroke:#000000;stroke-width:0.8;" x="140.727273" xlink:href="#m05867333cb" y="315"/>
      </g>
     </g>
     <g id="text_1">
      <!-- 160 -->
      <defs>
       <path d="M 12.40625 8.296875 
L 28.515625 8.296875 
L 28.515625 63.921875 
L 10.984375 60.40625 
L 10.984375 69.390625 
L 28.421875 72.90625 
L 38.28125 72.90625 
L 38.28125 8.296875 
L 54.390625 8.296875 
L 54.390625 0 
L 12.40625 0 
z
" id="DejaVuSans-49"/>
       <path d="M 33.015625 40.375 
Q 26.375 40.375 22.484375 35.828125 
Q 18.609375 31.296875 18.609375 23.390625 
Q 18.609375 15.53125 22.484375 10.953125 
Q 26.375 6.390625 33.015625 6.390625 
Q 39.65625 6.390625 43.53125 10.953125 
Q 47.40625 15.53125 47.40625 23.390625 
Q 47.40625 31.296875 43.53125 35.828125 
Q 39.65625 40.375 33.015625 40.375 
z
M 52.59375 71.296875 
L 52.59375 62.3125 
Q 48.875 64.0625 45.09375 64.984375 
Q 41.3125 65.921875 37.59375 65.921875 
Q 27.828125 65.921875 22.671875 59.328125 
Q 17.53125 52.734375 16.796875 39.40625 
Q 19.671875 43.65625 24.015625 45.921875 
Q 28.375 48.1875 33.59375 48.1875 
Q 44.578125 48.1875 50.953125 41.515625 
Q 57.328125 34.859375 57.328125 23.390625 
Q 57.328125 12.15625 50.6875 5.359375 
Q 44.046875 -1.421875 33.015625 -1.421875 
Q 20.359375 -1.421875 13.671875 8.265625 
Q 6.984375 17.96875 6.984375 36.375 
Q 6.984375 53.65625 15.1875 63.9375 
Q 23.390625 74.21875 37.203125 74.21875 
Q 40.921875 74.21875 44.703125 73.484375 
Q 48.484375 72.75 52.59375 71.296875 
z
" id="DejaVuSans-54"/>
       <path d="M 31.78125 66.40625 
Q 24.171875 66.40625 20.328125 58.90625 
Q 16.5 51.421875 16.5 36.375 
Q 16.5 21.390625 20.328125 13.890625 
Q 24.171875 6.390625 31.78125 6.390625 
Q 39.453125 6.390625 43.28125 13.890625 
Q 47.125 21.390625 47.125 36.375 
Q 47.125 51.421875 43.28125 58.90625 
Q 39.453125 66.40625 31.78125 66.40625 
z
M 31.78125 74.21875 
Q 44.046875 74.21875 50.515625 64.515625 
Q 56.984375 54.828125 56.984375 36.375 
Q 56.984375 17.96875 50.515625 8.265625 
Q 44.046875 -1.421875 31.78125 -1.421875 
Q 19.53125 -1.421875 13.0625 8.265625 
Q 6.59375 17.96875 6.59375 36.375 
Q 6.59375 54.828125 13.0625 64.515625 
Q 19.53125 74.21875 31.78125 74.21875 
z
" id="DejaVuSans-48"/>
      </defs>
      <g transform="translate(131.183523 329.598437)scale(0.1 -0.1)">
       <use xlink:href="#DejaVuSans-49"/>
       <use x="63.623047" xlink:href="#DejaVuSans-54"/>
       <use x="127.246094" xlink:href="#DejaVuSans-48"/>
      </g>
     </g>
    </g>
    <g id="xtick_2">
     <g id="line2d_2">
      <g>
       <use style="stroke:#000000;stroke-width:0.8;" x="242.181818" xlink:href="#m05867333cb" y="315"/>
      </g>
     </g>
     <g id="text_2">
      <!-- 180 -->
      <defs>
       <path d="M 31.78125 34.625 
Q 24.75 34.625 20.71875 30.859375 
Q 16.703125 27.09375 16.703125 20.515625 
Q 16.703125 13.921875 20.71875 10.15625 
Q 24.75 6.390625 31.78125 6.390625 
Q 38.8125 6.390625 42.859375 10.171875 
Q 46.921875 13.96875 46.921875 20.515625 
Q 46.921875 27.09375 42.890625 30.859375 
Q 38.875 34.625 31.78125 34.625 
z
M 21.921875 38.8125 
Q 15.578125 40.375 12.03125 44.71875 
Q 8.5 49.078125 8.5 55.328125 
Q 8.5 64.0625 14.71875 69.140625 
Q 20.953125 74.21875 31.78125 74.21875 
Q 42.671875 74.21875 48.875 69.140625 
Q 55.078125 64.0625 55.078125 55.328125 
Q 55.078125 49.078125 51.53125 44.71875 
Q 48 40.375 41.703125 38.8125 
Q 48.828125 37.15625 52.796875 32.3125 
Q 56.78125 27.484375 56.78125 20.515625 
Q 56.78125 9.90625 50.3125 4.234375 
Q 43.84375 -1.421875 31.78125 -1.421875 
Q 19.734375 -1.421875 13.25 4.234375 
Q 6.78125 9.90625 6.78125 20.515625 
Q 6.78125 27.484375 10.78125 32.3125 
Q 14.796875 37.15625 21.921875 38.8125 
z
M 18.3125 54.390625 
Q 18.3125 48.734375 21.84375 45.5625 
Q 25.390625 42.390625 31.78125 42.390625 
Q 38.140625 42.390625 41.71875 45.5625 
Q 45.3125 48.734375 45.3125 54.390625 
Q 45.3125 60.0625 41.71875 63.234375 
Q 38.140625 66.40625 31.78125 66.40625 
Q 25.390625 66.40625 21.84375 63.234375 
Q 18.3125 60.0625 18.3125 54.390625 
z
" id="DejaVuSans-56"/>
      </defs>
      <g transform="translate(232.638068 329.598437)scale(0.1 -0.1)">
       <use xlink:href="#DejaVuSans-49"/>
       <use x="63.623047" xlink:href="#DejaVuSans-56"/>
       <use x="127.246094" xlink:href="#DejaVuSans-48"/>
      </g>
     </g>
    </g>
    <g id="xtick_3">
     <g id="line2d_3">
      <g>
       <use style="stroke:#000000;stroke-width:0.8;" x="343.636364" xlink:href="#m05867333cb" y="315"/>
      </g>
     </g>
     <g id="text_3">
      <!-- 200 -->
      <defs>
       <path d="M 19.1875 8.296875 
L 53.609375 8.296875 
L 53.609375 0 
L 7.328125 0 
L 7.328125 8.296875 
Q 12.9375 14.109375 22.625 23.890625 
Q 32.328125 33.6875 34.8125 36.53125 
Q 39.546875 41.84375 41.421875 45.53125 
Q 43.3125 49.21875 43.3125 52.78125 
Q 43.3125 58.59375 39.234375 62.25 
Q 35.15625 65.921875 28.609375 65.921875 
Q 23.96875 65.921875 18.8125 64.3125 
Q 13.671875 62.703125 7.8125 59.421875 
L 7.8125 69.390625 
Q 13.765625 71.78125 18.9375 73 
Q 24.125 74.21875 28.421875 74.21875 
Q 39.75 74.21875 46.484375 68.546875 
Q 53.21875 62.890625 53.21875 53.421875 
Q 53.21875 48.921875 51.53125 44.890625 
Q 49.859375 40.875 45.40625 35.40625 
Q 44.1875 33.984375 37.640625 27.21875 
Q 31.109375 20.453125 19.1875 8.296875 
z
" id="DejaVuSans-50"/>
      </defs>
      <g transform="translate(334.092614 329.598437)scale(0.1 -0.1)">
       <use xlink:href="#DejaVuSans-50"/>
       <use x="63.623047" xlink:href="#DejaVuSans-48"/>
       <use x="127.246094" xlink:href="#DejaVuSans-48"/>
      </g>
     </g>
    </g>
    <g id="xtick_4">
     <g id="line2d_4">
      <g>
       <use style="stroke:#000000;stroke-width:0.8;" x="445.090909" xlink:href="#m05867333cb" y="315"/>
      </g>
     </g>
     <g id="text_4">
      <!-- 220 -->
      <g transform="translate(435.547159 329.598437)scale(0.1 -0.1)">
       <use xlink:href="#DejaVuSans-50"/>
       <use x="63.623047" xlink:href="#DejaVuSans-50"/>
       <use x="127.246094" xlink:href="#DejaVuSans-48"/>
      </g>
     </g>
    </g>
    <g id="xtick_5">
     <g id="line2d_5">
      <g>
       <use style="stroke:#000000;stroke-width:0.8;" x="546.545455" xlink:href="#m05867333cb" y="315"/>
      </g>
     </g>
     <g id="text_5">
      <!-- 240 -->
      <defs>
       <path d="M 37.796875 64.3125 
L 12.890625 25.390625 
L 37.796875 25.390625 
z
M 35.203125 72.90625 
L 47.609375 72.90625 
L 47.609375 25.390625 
L 58.015625 25.390625 
L 58.015625 17.1875 
L 47.609375 17.1875 
L 47.609375 0 
L 37.796875 0 
L 37.796875 17.1875 
L 4.890625 17.1875 
L 4.890625 26.703125 
z
" id="DejaVuSans-52"/>
      </defs>
      <g transform="translate(537.001705 329.598437)scale(0.1 -0.1)">
       <use xlink:href="#DejaVuSans-50"/>
       <use x="63.623047" xlink:href="#DejaVuSans-52"/>
       <use x="127.246094" xlink:href="#DejaVuSans-48"/>
      </g>
     </g>
    </g>
    <g id="xtick_6">
     <g id="line2d_6">
      <g>
       <use style="stroke:#000000;stroke-width:0.8;" x="648" xlink:href="#m05867333cb" y="315"/>
      </g>
     </g>
     <g id="text_6">
      <!-- 260 -->
      <g transform="translate(638.45625 329.598437)scale(0.1 -0.1)">
       <use xlink:href="#DejaVuSans-50"/>
       <use x="63.623047" xlink:href="#DejaVuSans-54"/>
       <use x="127.246094" xlink:href="#DejaVuSans-48"/>
      </g>
     </g>
    </g>
   </g>
   <g id="matplotlib.axis_2">
    <g id="ytick_1">
     <g id="line2d_7">
      <defs>
       <path d="M 0 0 
L -3.5 0 
" id="m4c2106b8dd" style="stroke:#000000;stroke-width:0.8;"/>
      </defs>
      <g>
       <use style="stroke:#000000;stroke-width:0.8;" x="90" xlink:href="#m4c2106b8dd" y="315"/>
      </g>
     </g>
     <g id="text_7">
      <!-- 0.0 -->
      <defs>
       <path d="M 10.6875 12.40625 
L 21 12.40625 
L 21 0 
L 10.6875 0 
z
" id="DejaVuSans-46"/>
      </defs>
      <g transform="translate(67.096875 318.799219)scale(0.1 -0.1)">
       <use xlink:href="#DejaVuSans-48"/>
       <use x="63.623047" xlink:href="#DejaVuSans-46"/>
       <use x="95.410156" xlink:href="#DejaVuSans-48"/>
      </g>
     </g>
    </g>
    <g id="ytick_2">
     <g id="line2d_8">
      <g>
       <use style="stroke:#000000;stroke-width:0.8;" x="90" xlink:href="#m4c2106b8dd" y="263.228571"/>
      </g>
     </g>
     <g id="text_8">
      <!-- 0.2 -->
      <g transform="translate(67.096875 267.02779)scale(0.1 -0.1)">
       <use xlink:href="#DejaVuSans-48"/>
       <use x="63.623047" xlink:href="#DejaVuSans-46"/>
       <use x="95.410156" xlink:href="#DejaVuSans-50"/>
      </g>
     </g>
    </g>
    <g id="ytick_3">
     <g id="line2d_9">
      <g>
       <use style="stroke:#000000;stroke-width:0.8;" x="90" xlink:href="#m4c2106b8dd" y="211.457143"/>
      </g>
     </g>
     <g id="text_9">
      <!-- 0.4 -->
      <g transform="translate(67.096875 215.256362)scale(0.1 -0.1)">
       <use xlink:href="#DejaVuSans-48"/>
       <use x="63.623047" xlink:href="#DejaVuSans-46"/>
       <use x="95.410156" xlink:href="#DejaVuSans-52"/>
      </g>
     </g>
    </g>
    <g id="ytick_4">
     <g id="line2d_10">
      <g>
       <use style="stroke:#000000;stroke-width:0.8;" x="90" xlink:href="#m4c2106b8dd" y="159.685714"/>
      </g>
     </g>
     <g id="text_10">
      <!-- 0.6 -->
      <g transform="translate(67.096875 163.484933)scale(0.1 -0.1)">
       <use xlink:href="#DejaVuSans-48"/>
       <use x="63.623047" xlink:href="#DejaVuSans-46"/>
       <use x="95.410156" xlink:href="#DejaVuSans-54"/>
      </g>
     </g>
    </g>
    <g id="ytick_5">
     <g id="line2d_11">
      <g>
       <use style="stroke:#000000;stroke-width:0.8;" x="90" xlink:href="#m4c2106b8dd" y="107.914286"/>
      </g>
     </g>
     <g id="text_11">
      <!-- 0.8 -->
      <g transform="translate(67.096875 111.713504)scale(0.1 -0.1)">
       <use xlink:href="#DejaVuSans-48"/>
       <use x="63.623047" xlink:href="#DejaVuSans-46"/>
       <use x="95.410156" xlink:href="#DejaVuSans-56"/>
      </g>
     </g>
    </g>
    <g id="ytick_6">
     <g id="line2d_12">
      <g>
       <use style="stroke:#000000;stroke-width:0.8;" x="90" xlink:href="#m4c2106b8dd" y="56.142857"/>
      </g>
     </g>
     <g id="text_12">
      <!-- 1.0 -->
      <g transform="translate(67.096875 59.942076)scale(0.1 -0.1)">
       <use xlink:href="#DejaVuSans-49"/>
       <use x="63.623047" xlink:href="#DejaVuSans-46"/>
       <use x="95.410156" xlink:href="#DejaVuSans-48"/>
      </g>
     </g>
    </g>
    <g id="text_13">
     <!-- Relative egg fitness -->
     <defs>
      <path d="M 44.390625 34.1875 
Q 47.5625 33.109375 50.5625 29.59375 
Q 53.5625 26.078125 56.59375 19.921875 
L 66.609375 0 
L 56 0 
L 46.6875 18.703125 
Q 43.0625 26.03125 39.671875 28.421875 
Q 36.28125 30.8125 30.421875 30.8125 
L 19.671875 30.8125 
L 19.671875 0 
L 9.8125 0 
L 9.8125 72.90625 
L 32.078125 72.90625 
Q 44.578125 72.90625 50.734375 67.671875 
Q 56.890625 62.453125 56.890625 51.90625 
Q 56.890625 45.015625 53.6875 40.46875 
Q 50.484375 35.9375 44.390625 34.1875 
z
M 19.671875 64.796875 
L 19.671875 38.921875 
L 32.078125 38.921875 
Q 39.203125 38.921875 42.84375 42.21875 
Q 46.484375 45.515625 46.484375 51.90625 
Q 46.484375 58.296875 42.84375 61.546875 
Q 39.203125 64.796875 32.078125 64.796875 
z
" id="DejaVuSans-82"/>
      <path d="M 56.203125 29.59375 
L 56.203125 25.203125 
L 14.890625 25.203125 
Q 15.484375 15.921875 20.484375 11.0625 
Q 25.484375 6.203125 34.421875 6.203125 
Q 39.59375 6.203125 44.453125 7.46875 
Q 49.3125 8.734375 54.109375 11.28125 
L 54.109375 2.78125 
Q 49.265625 0.734375 44.1875 -0.34375 
Q 39.109375 -1.421875 33.890625 -1.421875 
Q 20.796875 -1.421875 13.15625 6.1875 
Q 5.515625 13.8125 5.515625 26.8125 
Q 5.515625 40.234375 12.765625 48.109375 
Q 20.015625 56 32.328125 56 
Q 43.359375 56 49.78125 48.890625 
Q 56.203125 41.796875 56.203125 29.59375 
z
M 47.21875 32.234375 
Q 47.125 39.59375 43.09375 43.984375 
Q 39.0625 48.390625 32.421875 48.390625 
Q 24.90625 48.390625 20.390625 44.140625 
Q 15.875 39.890625 15.1875 32.171875 
z
" id="DejaVuSans-101"/>
      <path d="M 9.421875 75.984375 
L 18.40625 75.984375 
L 18.40625 0 
L 9.421875 0 
z
" id="DejaVuSans-108"/>
      <path d="M 34.28125 27.484375 
Q 23.390625 27.484375 19.1875 25 
Q 14.984375 22.515625 14.984375 16.5 
Q 14.984375 11.71875 18.140625 8.90625 
Q 21.296875 6.109375 26.703125 6.109375 
Q 34.1875 6.109375 38.703125 11.40625 
Q 43.21875 16.703125 43.21875 25.484375 
L 43.21875 27.484375 
z
M 52.203125 31.203125 
L 52.203125 0 
L 43.21875 0 
L 43.21875 8.296875 
Q 40.140625 3.328125 35.546875 0.953125 
Q 30.953125 -1.421875 24.3125 -1.421875 
Q 15.921875 -1.421875 10.953125 3.296875 
Q 6 8.015625 6 15.921875 
Q 6 25.140625 12.171875 29.828125 
Q 18.359375 34.515625 30.609375 34.515625 
L 43.21875 34.515625 
L 43.21875 35.40625 
Q 43.21875 41.609375 39.140625 45 
Q 35.0625 48.390625 27.6875 48.390625 
Q 23 48.390625 18.546875 47.265625 
Q 14.109375 46.140625 10.015625 43.890625 
L 10.015625 52.203125 
Q 14.9375 54.109375 19.578125 55.046875 
Q 24.21875 56 28.609375 56 
Q 40.484375 56 46.34375 49.84375 
Q 52.203125 43.703125 52.203125 31.203125 
z
" id="DejaVuSans-97"/>
      <path d="M 18.3125 70.21875 
L 18.3125 54.6875 
L 36.8125 54.6875 
L 36.8125 47.703125 
L 18.3125 47.703125 
L 18.3125 18.015625 
Q 18.3125 11.328125 20.140625 9.421875 
Q 21.96875 7.515625 27.59375 7.515625 
L 36.8125 7.515625 
L 36.8125 0 
L 27.59375 0 
Q 17.1875 0 13.234375 3.875 
Q 9.28125 7.765625 9.28125 18.015625 
L 9.28125 47.703125 
L 2.6875 47.703125 
L 2.6875 54.6875 
L 9.28125 54.6875 
L 9.28125 70.21875 
z
" id="DejaVuSans-116"/>
      <path d="M 9.421875 54.6875 
L 18.40625 54.6875 
L 18.40625 0 
L 9.421875 0 
z
M 9.421875 75.984375 
L 18.40625 75.984375 
L 18.40625 64.59375 
L 9.421875 64.59375 
z
" id="DejaVuSans-105"/>
      <path d="M 2.984375 54.6875 
L 12.5 54.6875 
L 29.59375 8.796875 
L 46.6875 54.6875 
L 56.203125 54.6875 
L 35.6875 0 
L 23.484375 0 
z
" id="DejaVuSans-118"/>
      <path id="DejaVuSans-32"/>
      <path d="M 45.40625 27.984375 
Q 45.40625 37.75 41.375 43.109375 
Q 37.359375 48.484375 30.078125 48.484375 
Q 22.859375 48.484375 18.828125 43.109375 
Q 14.796875 37.75 14.796875 27.984375 
Q 14.796875 18.265625 18.828125 12.890625 
Q 22.859375 7.515625 30.078125 7.515625 
Q 37.359375 7.515625 41.375 12.890625 
Q 45.40625 18.265625 45.40625 27.984375 
z
M 54.390625 6.78125 
Q 54.390625 -7.171875 48.1875 -13.984375 
Q 42 -20.796875 29.203125 -20.796875 
Q 24.46875 -20.796875 20.265625 -20.09375 
Q 16.0625 -19.390625 12.109375 -17.921875 
L 12.109375 -9.1875 
Q 16.0625 -11.328125 19.921875 -12.34375 
Q 23.78125 -13.375 27.78125 -13.375 
Q 36.625 -13.375 41.015625 -8.765625 
Q 45.40625 -4.15625 45.40625 5.171875 
L 45.40625 9.625 
Q 42.625 4.78125 38.28125 2.390625 
Q 33.9375 0 27.875 0 
Q 17.828125 0 11.671875 7.65625 
Q 5.515625 15.328125 5.515625 27.984375 
Q 5.515625 40.671875 11.671875 48.328125 
Q 17.828125 56 27.875 56 
Q 33.9375 56 38.28125 53.609375 
Q 42.625 51.21875 45.40625 46.390625 
L 45.40625 54.6875 
L 54.390625 54.6875 
z
" id="DejaVuSans-103"/>
      <path d="M 37.109375 75.984375 
L 37.109375 68.5 
L 28.515625 68.5 
Q 23.6875 68.5 21.796875 66.546875 
Q 19.921875 64.59375 19.921875 59.515625 
L 19.921875 54.6875 
L 34.71875 54.6875 
L 34.71875 47.703125 
L 19.921875 47.703125 
L 19.921875 0 
L 10.890625 0 
L 10.890625 47.703125 
L 2.296875 47.703125 
L 2.296875 54.6875 
L 10.890625 54.6875 
L 10.890625 58.5 
Q 10.890625 67.625 15.140625 71.796875 
Q 19.390625 75.984375 28.609375 75.984375 
z
" id="DejaVuSans-102"/>
      <path d="M 54.890625 33.015625 
L 54.890625 0 
L 45.90625 0 
L 45.90625 32.71875 
Q 45.90625 40.484375 42.875 44.328125 
Q 39.84375 48.1875 33.796875 48.1875 
Q 26.515625 48.1875 22.3125 43.546875 
Q 18.109375 38.921875 18.109375 30.90625 
L 18.109375 0 
L 9.078125 0 
L 9.078125 54.6875 
L 18.109375 54.6875 
L 18.109375 46.1875 
Q 21.34375 51.125 25.703125 53.5625 
Q 30.078125 56 35.796875 56 
Q 45.21875 56 50.046875 50.171875 
Q 54.890625 44.34375 54.890625 33.015625 
z
" id="DejaVuSans-110"/>
      <path d="M 44.28125 53.078125 
L 44.28125 44.578125 
Q 40.484375 46.53125 36.375 47.5 
Q 32.28125 48.484375 27.875 48.484375 
Q 21.1875 48.484375 17.84375 46.4375 
Q 14.5 44.390625 14.5 40.28125 
Q 14.5 37.15625 16.890625 35.375 
Q 19.28125 33.59375 26.515625 31.984375 
L 29.59375 31.296875 
Q 39.15625 29.25 43.1875 25.515625 
Q 47.21875 21.78125 47.21875 15.09375 
Q 47.21875 7.46875 41.1875 3.015625 
Q 35.15625 -1.421875 24.609375 -1.421875 
Q 20.21875 -1.421875 15.453125 -0.5625 
Q 10.6875 0.296875 5.421875 2 
L 5.421875 11.28125 
Q 10.40625 8.6875 15.234375 7.390625 
Q 20.0625 6.109375 24.8125 6.109375 
Q 31.15625 6.109375 34.5625 8.28125 
Q 37.984375 10.453125 37.984375 14.40625 
Q 37.984375 18.0625 35.515625 20.015625 
Q 33.0625 21.96875 24.703125 23.78125 
L 21.578125 24.515625 
Q 13.234375 26.265625 9.515625 29.90625 
Q 5.8125 33.546875 5.8125 39.890625 
Q 5.8125 47.609375 11.28125 51.796875 
Q 16.75 56 26.8125 56 
Q 31.78125 56 36.171875 55.265625 
Q 40.578125 54.546875 44.28125 53.078125 
z
" id="DejaVuSans-115"/>
     </defs>
     <g style="fill:#2171b5;" transform="translate(60.185312 248.474375)rotate(-90)scale(0.14 -0.14)">
      <use xlink:href="#DejaVuSans-82"/>
      <use x="69.419922" xlink:href="#DejaVuSans-101"/>
      <use x="130.943359" xlink:href="#DejaVuSans-108"/>
      <use x="158.726562" xlink:href="#DejaVuSans-97"/>
      <use x="220.005859" xlink:href="#DejaVuSans-116"/>
      <use x="259.214844" xlink:href="#DejaVuSans-105"/>
      <use x="286.998047" xlink:href="#DejaVuSans-118"/>
      <use x="346.177734" xlink:href="#DejaVuSans-101"/>
      <use x="407.701172" xlink:href="#DejaVuSans-32"/>
      <use x="439.488281" xlink:href="#DejaVuSans-101"/>
      <use x="501.011719" xlink:href="#DejaVuSans-103"/>
      <use x="564.488281" xlink:href="#DejaVuSans-103"/>
      <use x="627.964844" xlink:href="#DejaVuSans-32"/>
      <use x="659.751953" xlink:href="#DejaVuSans-102"/>
      <use x="694.957031" xlink:href="#DejaVuSans-105"/>
      <use x="722.740234" xlink:href="#DejaVuSans-116"/>
      <use x="761.949219" xlink:href="#DejaVuSans-110"/>
      <use x="825.328125" xlink:href="#DejaVuSans-101"/>
      <use x="886.851562" xlink:href="#DejaVuSans-115"/>
      <use x="938.951172" xlink:href="#DejaVuSans-115"/>
     </g>
    </g>
   </g>
   <g id="line2d_13">
    <path clip-path="url(#pe2d591a4de)" d="M -1 315 
L 161.018182 314.891195 
L 176.236364 314.649934 
L 186.381818 314.310626 
L 191.454545 314.063989 
L 196.527273 314.000752 
L 206.672727 313.234618 
L 211.745455 312.71286 
L 216.818182 312.047471 
L 221.890909 311.23263 
L 226.963636 310.287983 
L 232.036364 309.1242 
L 237.109091 307.758792 
L 242.181818 306.210351 
L 247.254545 304.357759 
L 252.327273 302.288964 
L 257.4 299.883597 
L 262.472727 297.157204 
L 267.545455 294.183327 
L 272.618182 290.763289 
L 277.690909 287.021285 
L 282.763636 282.900055 
L 287.836364 278.520936 
L 292.909091 273.621967 
L 297.981818 268.412114 
L 303.054545 262.976571 
L 308.127273 257.011448 
L 313.2 250.669748 
L 323.345455 237.244094 
L 333.490909 222.355888 
L 338.563636 214.578651 
L 343.636364 206.563094 
L 348.709091 198.784689 
L 374.072727 157.02058 
L 389.290909 132.772554 
L 394.363636 124.757347 
L 399.436364 117.321511 
L 404.509091 110.131752 
L 409.581818 103.227109 
L 414.654545 96.638135 
L 419.727273 90.530192 
L 429.872727 79.633117 
L 440.018182 70.455102 
L 445.090909 66.815695 
L 450.163636 63.664829 
L 455.236364 61.019379 
L 460.309091 58.885531 
L 465.381818 57.276978 
L 475.527273 56.142857 
L 485.672727 57.107717 
L 490.745455 58.619144 
L 495.818182 60.631774 
L 500.890909 63.122773 
L 505.963636 66.092209 
L 516.109091 73.862893 
L 521.181818 78.128249 
L 526.254545 83.263066 
L 531.327273 88.747181 
L 536.4 94.559446 
L 541.472727 100.664468 
L 546.545455 107.047519 
L 551.618182 113.676467 
L 566.836364 135.458083 
L 571.909091 143.093392 
L 576.981818 151.126989 
L 582.054545 158.852552 
L 592.2 174.82445 
L 607.418182 198.527805 
L 617.563636 213.847453 
L 627.709091 228.473949 
L 637.854545 242.522164 
L 648 255.230816 
L 658.145455 266.777618 
L 663.218182 272.092155 
L 668.290909 277.24473 
L 673.363636 281.85512 
L 678.436364 286.201528 
L 683.509091 290.148416 
L 688.581818 293.799923 
L 693.654545 297.096986 
L 698.727273 300.159161 
L 703.8 302.808539 
L 708.872727 305.158027 
L 713.945455 307.204724 
L 721 309.597814 
L 721 309.597814 
" style="fill:none;stroke:#add8e6;stroke-linecap:square;stroke-width:1.5;"/>
   </g>
   <g id="line2d_14">
    <path clip-path="url(#pe2d591a4de)" d="M -1 315 
L 125.509091 314.926738 
L 140.727273 314.71473 
L 155.945455 314.24957 
L 166.090909 313.506177 
L 171.163636 312.925514 
L 176.236364 312.214924 
L 181.309091 311.312073 
L 191.454545 309.010232 
L 196.527273 308.605561 
L 201.6 307.29902 
L 206.672727 305.179407 
L 211.745455 303.465983 
L 216.818182 300.939039 
L 221.890909 297.7581 
L 226.963636 295.582764 
L 232.036364 292.33616 
L 237.109091 288.78485 
L 242.181818 286.256267 
L 247.254545 282.184791 
L 252.327273 278.63693 
L 257.4 274.053047 
L 262.472727 269.094076 
L 267.545455 266.026629 
L 272.618182 260.700133 
L 277.690909 255.061581 
L 282.763636 249.247425 
L 287.836364 235.007032 
L 297.981818 222.476499 
L 303.054545 205.148201 
L 313.2 190.924019 
L 318.272727 184.38572 
L 323.345455 166.208359 
L 328.418182 158.294994 
L 333.490909 150.768511 
L 338.563636 143.520549 
L 343.636364 137.164248 
L 348.709091 117.604691 
L 353.781818 110.954304 
L 358.854545 104.506944 
L 363.927273 98.67782 
L 374.072727 87.979062 
L 379.145455 73.534774 
L 384.218182 69.35218 
L 389.290909 66.603895 
L 394.363636 64.472254 
L 399.436364 69.389125 
L 404.509091 69.348193 
L 409.581818 69.439542 
L 414.654545 69.405362 
L 419.727273 57.397085 
L 424.8 57.350412 
L 429.872727 56.142857 
L 434.945455 64.131067 
L 440.018182 64.817267 
L 445.090909 66.495636 
L 450.163636 68.353094 
L 455.236364 78.49908 
L 460.309091 81.93922 
L 465.381818 86.847673 
L 470.454545 92.026775 
L 475.527273 105.924509 
L 480.6 112.993298 
L 485.672727 121.380774 
L 490.745455 137.073349 
L 495.818182 146.403474 
L 500.890909 162.125697 
L 505.963636 172.015483 
L 511.036364 181.354935 
L 516.109091 195.455041 
L 521.181818 204.21822 
L 526.254545 216.776632 
L 531.327273 228.000244 
L 536.4 235.369929 
L 541.472727 245.171687 
L 546.545455 251.642091 
L 551.618182 259.90266 
L 556.690909 267.433483 
L 561.763636 272.434586 
L 566.836364 278.590427 
L 571.909091 284.001986 
L 576.981818 288.877292 
L 582.054545 293.142488 
L 587.127273 296.78189 
L 592.2 301.036704 
L 597.272727 303.601128 
L 607.418182 307.90505 
L 612.490909 309.344096 
L 622.636364 311.639273 
L 632.781818 313.056424 
L 637.854545 313.701487 
L 642.927273 314.043256 
L 648 315 
L 721 315 
L 721 315 
" style="fill:none;stroke:#2171b5;stroke-dasharray:12,4;stroke-dashoffset:0;stroke-width:2;"/>
   </g>
   <g id="line2d_15">
    <path clip-path="url(#pe2d591a4de)" d="M -1 315 
L 120.436364 314.895464 
L 130.581818 314.725085 
L 140.727273 314.342062 
L 155.945455 313.263102 
L 161.018182 312.563802 
L 166.090909 311.587412 
L 171.163636 310.386064 
L 176.236364 308.745777 
L 181.309091 306.833827 
L 191.454545 302.142819 
L 196.527273 301.274183 
L 201.6 298.784134 
L 206.672727 295.11321 
L 211.745455 292.01132 
L 216.818182 286.722971 
L 221.890909 281.190552 
L 226.963636 276.876073 
L 232.036364 270.146876 
L 237.109091 261.504769 
L 242.181818 255.935842 
L 247.254545 247.091837 
L 252.327273 240.83063 
L 257.4 230.85131 
L 262.472727 219.981018 
L 267.545455 210.701566 
L 282.763636 174.448752 
L 287.836364 166.589696 
L 292.909091 156.213224 
L 297.981818 146.327276 
L 303.054545 121.739946 
L 308.127273 111.987445 
L 313.2 109.202599 
L 318.272727 102.373042 
L 323.345455 78.845287 
L 328.418182 73.755344 
L 333.490909 69.197246 
L 338.563636 74.590003 
L 343.636364 74.056146 
L 348.709091 56.142857 
L 353.781818 67.310914 
L 358.854545 71.172798 
L 363.927273 76.050778 
L 369 90.6562 
L 374.072727 98.630215 
L 379.145455 102.484639 
L 384.218182 115.200969 
L 389.290909 134.797859 
L 394.363636 152.647531 
L 399.436364 163.519661 
L 404.509091 179.680377 
L 409.581818 194.389615 
L 414.654545 207.74464 
L 419.727273 212.03775 
L 424.8 224.229745 
L 429.872727 234.883372 
L 434.945455 244.653145 
L 440.018182 253.568752 
L 445.090909 263.925655 
L 450.163636 272.699003 
L 465.381818 295.366366 
L 470.454545 315 
L 721 315 
L 721 315 
" style="fill:none;stroke:#9467bd;stroke-dasharray:8,4;stroke-dashoffset:0;stroke-width:2;"/>
   </g>
   <g id="line2d_16">
    <path clip-path="url(#pe2d591a4de)" d="M -1 315 
L 95.072727 314.935113 
L 105.218182 314.713886 
L 110.290909 314.472608 
L 115.363636 314.098474 
L 120.436364 313.4987 
L 125.509091 312.587512 
L 130.581818 311.185801 
L 135.654545 309.199015 
L 140.727273 306.451869 
L 145.8 302.427753 
L 150.872727 298.190434 
L 155.945455 295.01757 
L 161.018182 287.444833 
L 166.090909 278.464011 
L 171.163636 267.535679 
L 176.236364 254.375065 
L 181.309091 238.548223 
L 186.381818 220.491709 
L 191.454545 205.017188 
L 196.527273 197.58671 
L 201.6 180.689002 
L 206.672727 156.86086 
L 211.745455 139.660784 
L 216.818182 114.769061 
L 221.890909 96.493938 
L 226.963636 84.961952 
L 232.036364 73.132019 
L 237.109091 56.142857 
L 242.181818 65.942882 
L 247.254545 69.804434 
L 262.472727 139.826589 
L 267.545455 175.172171 
L 272.618182 200.445022 
L 277.690909 230.96313 
L 282.763636 266.537302 
L 287.836364 315 
L 721 315 
L 721 315 
" style="fill:none;stroke:#8c564b;stroke-dasharray:4,4;stroke-dashoffset:0;stroke-width:2;"/>
   </g>
   <g id="line2d_17">
    <path clip-path="url(#pe2d591a4de)" d="M -1 315 
L 74.781818 314.916399 
L 79.854545 314.730494 
L 84.927273 314.205453 
L 90 312.992887 
L 95.072727 310.57863 
L 100.145455 305.662983 
L 105.218182 298.083294 
L 110.290909 286.8092 
L 115.363636 270.492219 
L 120.436364 249.410764 
L 125.509091 220.595522 
L 130.581818 184.838097 
L 135.654545 147.045024 
L 140.727273 106.60829 
L 145.8 70.202481 
L 150.872727 56.142857 
L 155.945455 81.196445 
L 161.018182 93.170547 
L 166.090909 142.21776 
L 171.163636 200.942709 
L 176.236364 315 
L 721 315 
L 721 315 
" style="fill:none;stroke:#e377c2;stroke-dasharray:3,6;stroke-dashoffset:0;stroke-width:3;"/>
   </g>
   <g id="line2d_18">
    <path clip-path="url(#pe2d591a4de)" d="M -1 315 
L 110.290909 314.915915 
L 120.436364 314.759736 
L 130.581818 314.369034 
L 135.654545 314.000423 
L 140.727273 313.491796 
L 150.872727 311.831353 
L 155.945455 311.01718 
L 161.018182 309.431464 
L 166.090909 307.343527 
L 171.163636 304.438838 
L 176.236364 301.028028 
L 181.309091 296.818561 
L 186.381818 291.274278 
L 191.454545 286.664292 
L 196.527273 284.749922 
L 201.6 279.559425 
L 206.672727 271.874417 
L 211.745455 265.498737 
L 221.890909 243.499627 
L 226.963636 235.478844 
L 232.036364 222.707134 
L 237.109091 208.934264 
L 242.181818 199.936934 
L 247.254545 184.894449 
L 252.327273 176.192232 
L 257.4 165.977158 
L 262.472727 151.125655 
L 267.545455 143.971337 
L 277.690909 115.928799 
L 282.763636 109.494782 
L 287.836364 103.331073 
L 292.909091 93.990032 
L 297.981818 93.599969 
L 303.054545 67.563913 
L 308.127273 71.174445 
L 313.2 67.186976 
L 318.272727 75.479385 
L 323.345455 56.142857 
L 328.418182 67.62992 
L 333.490909 81.324735 
L 338.563636 95.73571 
L 343.636364 110.813774 
L 348.709091 120.659206 
L 353.781818 138.068557 
L 358.854545 161.777336 
L 363.927273 190.764966 
L 369 233.914088 
L 374.072727 315 
L 721 315 
L 721 315 
" style="fill:none;stroke:#e377c2;stroke-dasharray:6,6;stroke-dashoffset:0;stroke-width:3;"/>
   </g>
   <g id="patch_3">
    <path d="M 90 315 
L 90 43.2 
" style="fill:none;stroke:#000000;stroke-linecap:square;stroke-linejoin:miter;stroke-width:0.8;"/>
   </g>
   <g id="patch_4">
    <path d="M 648 315 
L 648 43.2 
" style="fill:none;stroke:#000000;stroke-linecap:square;stroke-linejoin:miter;stroke-width:0.8;"/>
   </g>
   <g id="patch_5">
    <path d="M 90 315 
L 648 315 
" style="fill:none;stroke:#000000;stroke-linecap:square;stroke-linejoin:miter;stroke-width:0.8;"/>
   </g>
   <g id="patch_6">
    <path d="M 90 43.2 
L 648 43.2 
" style="fill:none;stroke:#000000;stroke-linecap:square;stroke-linejoin:miter;stroke-width:0.8;"/>
   </g>
   <g id="legend_1">
    <g id="line2d_19">
     <path d="M 100.8 12.712125 
L 124.8 12.712125 
" style="fill:none;stroke:#add8e6;stroke-linecap:square;stroke-width:1.5;"/>
    </g>
    <g id="line2d_20"/>
    <g id="text_14">
     <!-- No foodlim24h -->
     <defs>
      <path d="M 9.8125 72.90625 
L 23.09375 72.90625 
L 55.421875 11.921875 
L 55.421875 72.90625 
L 64.984375 72.90625 
L 64.984375 0 
L 51.703125 0 
L 19.390625 60.984375 
L 19.390625 0 
L 9.8125 0 
z
" id="DejaVuSans-78"/>
      <path d="M 30.609375 48.390625 
Q 23.390625 48.390625 19.1875 42.75 
Q 14.984375 37.109375 14.984375 27.296875 
Q 14.984375 17.484375 19.15625 11.84375 
Q 23.34375 6.203125 30.609375 6.203125 
Q 37.796875 6.203125 41.984375 11.859375 
Q 46.1875 17.53125 46.1875 27.296875 
Q 46.1875 37.015625 41.984375 42.703125 
Q 37.796875 48.390625 30.609375 48.390625 
z
M 30.609375 56 
Q 42.328125 56 49.015625 48.375 
Q 55.71875 40.765625 55.71875 27.296875 
Q 55.71875 13.875 49.015625 6.21875 
Q 42.328125 -1.421875 30.609375 -1.421875 
Q 18.84375 -1.421875 12.171875 6.21875 
Q 5.515625 13.875 5.515625 27.296875 
Q 5.515625 40.765625 12.171875 48.375 
Q 18.84375 56 30.609375 56 
z
" id="DejaVuSans-111"/>
      <path d="M 45.40625 46.390625 
L 45.40625 75.984375 
L 54.390625 75.984375 
L 54.390625 0 
L 45.40625 0 
L 45.40625 8.203125 
Q 42.578125 3.328125 38.25 0.953125 
Q 33.9375 -1.421875 27.875 -1.421875 
Q 17.96875 -1.421875 11.734375 6.484375 
Q 5.515625 14.40625 5.515625 27.296875 
Q 5.515625 40.1875 11.734375 48.09375 
Q 17.96875 56 27.875 56 
Q 33.9375 56 38.25 53.625 
Q 42.578125 51.265625 45.40625 46.390625 
z
M 14.796875 27.296875 
Q 14.796875 17.390625 18.875 11.75 
Q 22.953125 6.109375 30.078125 6.109375 
Q 37.203125 6.109375 41.296875 11.75 
Q 45.40625 17.390625 45.40625 27.296875 
Q 45.40625 37.203125 41.296875 42.84375 
Q 37.203125 48.484375 30.078125 48.484375 
Q 22.953125 48.484375 18.875 42.84375 
Q 14.796875 37.203125 14.796875 27.296875 
z
" id="DejaVuSans-100"/>
      <path d="M 52 44.1875 
Q 55.375 50.25 60.0625 53.125 
Q 64.75 56 71.09375 56 
Q 79.640625 56 84.28125 50.015625 
Q 88.921875 44.046875 88.921875 33.015625 
L 88.921875 0 
L 79.890625 0 
L 79.890625 32.71875 
Q 79.890625 40.578125 77.09375 44.375 
Q 74.3125 48.1875 68.609375 48.1875 
Q 61.625 48.1875 57.5625 43.546875 
Q 53.515625 38.921875 53.515625 30.90625 
L 53.515625 0 
L 44.484375 0 
L 44.484375 32.71875 
Q 44.484375 40.625 41.703125 44.40625 
Q 38.921875 48.1875 33.109375 48.1875 
Q 26.21875 48.1875 22.15625 43.53125 
Q 18.109375 38.875 18.109375 30.90625 
L 18.109375 0 
L 9.078125 0 
L 9.078125 54.6875 
L 18.109375 54.6875 
L 18.109375 46.1875 
Q 21.1875 51.21875 25.484375 53.609375 
Q 29.78125 56 35.6875 56 
Q 41.65625 56 45.828125 52.96875 
Q 50 49.953125 52 44.1875 
z
" id="DejaVuSans-109"/>
      <path d="M 54.890625 33.015625 
L 54.890625 0 
L 45.90625 0 
L 45.90625 32.71875 
Q 45.90625 40.484375 42.875 44.328125 
Q 39.84375 48.1875 33.796875 48.1875 
Q 26.515625 48.1875 22.3125 43.546875 
Q 18.109375 38.921875 18.109375 30.90625 
L 18.109375 0 
L 9.078125 0 
L 9.078125 75.984375 
L 18.109375 75.984375 
L 18.109375 46.1875 
Q 21.34375 51.125 25.703125 53.5625 
Q 30.078125 56 35.796875 56 
Q 45.21875 56 50.046875 50.171875 
Q 54.890625 44.34375 54.890625 33.015625 
z
" id="DejaVuSans-104"/>
     </defs>
     <g transform="translate(134.4 16.912125)scale(0.12 -0.12)">
      <use xlink:href="#DejaVuSans-78"/>
      <use x="74.804688" xlink:href="#DejaVuSans-111"/>
      <use x="135.986328" xlink:href="#DejaVuSans-32"/>
      <use x="167.773438" xlink:href="#DejaVuSans-102"/>
      <use x="202.978516" xlink:href="#DejaVuSans-111"/>
      <use x="264.160156" xlink:href="#DejaVuSans-111"/>
      <use x="325.341797" xlink:href="#DejaVuSans-100"/>
      <use x="388.818359" xlink:href="#DejaVuSans-108"/>
      <use x="416.601562" xlink:href="#DejaVuSans-105"/>
      <use x="444.384766" xlink:href="#DejaVuSans-109"/>
      <use x="541.796875" xlink:href="#DejaVuSans-50"/>
      <use x="605.419922" xlink:href="#DejaVuSans-52"/>
      <use x="669.042969" xlink:href="#DejaVuSans-104"/>
     </g>
    </g>
    <g id="line2d_21">
     <path d="M 100.8 30.325875 
L 124.8 30.325875 
" style="fill:none;stroke:#2171b5;stroke-dasharray:12,4;stroke-dashoffset:0;stroke-width:2;"/>
    </g>
    <g id="line2d_22"/>
    <g id="text_15">
     <!-- n600_C02 -->
     <defs>
      <path d="M 50.984375 -16.609375 
L 50.984375 -23.578125 
L -0.984375 -23.578125 
L -0.984375 -16.609375 
z
" id="DejaVuSans-95"/>
      <path d="M 64.40625 67.28125 
L 64.40625 56.890625 
Q 59.421875 61.53125 53.78125 63.8125 
Q 48.140625 66.109375 41.796875 66.109375 
Q 29.296875 66.109375 22.65625 58.46875 
Q 16.015625 50.828125 16.015625 36.375 
Q 16.015625 21.96875 22.65625 14.328125 
Q 29.296875 6.6875 41.796875 6.6875 
Q 48.140625 6.6875 53.78125 8.984375 
Q 59.421875 11.28125 64.40625 15.921875 
L 64.40625 5.609375 
Q 59.234375 2.09375 53.4375 0.328125 
Q 47.65625 -1.421875 41.21875 -1.421875 
Q 24.65625 -1.421875 15.125 8.703125 
Q 5.609375 18.84375 5.609375 36.375 
Q 5.609375 53.953125 15.125 64.078125 
Q 24.65625 74.21875 41.21875 74.21875 
Q 47.75 74.21875 53.53125 72.484375 
Q 59.328125 70.75 64.40625 67.28125 
z
" id="DejaVuSans-67"/>
     </defs>
     <g transform="translate(134.4 34.525875)scale(0.12 -0.12)">
      <use xlink:href="#DejaVuSans-110"/>
      <use x="63.378906" xlink:href="#DejaVuSans-54"/>
      <use x="127.001953" xlink:href="#DejaVuSans-48"/>
      <use x="190.625" xlink:href="#DejaVuSans-48"/>
      <use x="254.248047" xlink:href="#DejaVuSans-95"/>
      <use x="304.248047" xlink:href="#DejaVuSans-67"/>
      <use x="374.072266" xlink:href="#DejaVuSans-48"/>
      <use x="437.695312" xlink:href="#DejaVuSans-50"/>
     </g>
    </g>
    <g id="line2d_23">
     <path d="M 246.2925 12.712125 
L 270.2925 12.712125 
" style="fill:none;stroke:#9467bd;stroke-dasharray:8,4;stroke-dashoffset:0;stroke-width:2;"/>
    </g>
    <g id="line2d_24"/>
    <g id="text_16">
     <!-- n500_C015 -->
     <defs>
      <path d="M 10.796875 72.90625 
L 49.515625 72.90625 
L 49.515625 64.59375 
L 19.828125 64.59375 
L 19.828125 46.734375 
Q 21.96875 47.46875 24.109375 47.828125 
Q 26.265625 48.1875 28.421875 48.1875 
Q 40.625 48.1875 47.75 41.5 
Q 54.890625 34.8125 54.890625 23.390625 
Q 54.890625 11.625 47.5625 5.09375 
Q 40.234375 -1.421875 26.90625 -1.421875 
Q 22.3125 -1.421875 17.546875 -0.640625 
Q 12.796875 0.140625 7.71875 1.703125 
L 7.71875 11.625 
Q 12.109375 9.234375 16.796875 8.0625 
Q 21.484375 6.890625 26.703125 6.890625 
Q 35.15625 6.890625 40.078125 11.328125 
Q 45.015625 15.765625 45.015625 23.390625 
Q 45.015625 31 40.078125 35.4375 
Q 35.15625 39.890625 26.703125 39.890625 
Q 22.75 39.890625 18.8125 39.015625 
Q 14.890625 38.140625 10.796875 36.28125 
z
" id="DejaVuSans-53"/>
     </defs>
     <g transform="translate(279.8925 16.912125)scale(0.12 -0.12)">
      <use xlink:href="#DejaVuSans-110"/>
      <use x="63.378906" xlink:href="#DejaVuSans-53"/>
      <use x="127.001953" xlink:href="#DejaVuSans-48"/>
      <use x="190.625" xlink:href="#DejaVuSans-48"/>
      <use x="254.248047" xlink:href="#DejaVuSans-95"/>
      <use x="304.248047" xlink:href="#DejaVuSans-67"/>
      <use x="374.072266" xlink:href="#DejaVuSans-48"/>
      <use x="437.695312" xlink:href="#DejaVuSans-49"/>
      <use x="501.318359" xlink:href="#DejaVuSans-53"/>
     </g>
    </g>
    <g id="line2d_25">
     <path d="M 246.2925 30.659625 
L 270.2925 30.659625 
" style="fill:none;stroke:#8c564b;stroke-dasharray:4,4;stroke-dashoffset:0;stroke-width:2;"/>
    </g>
    <g id="line2d_26"/>
    <g id="text_17">
     <!-- n400_C010 -->
     <g transform="translate(279.8925 34.859625)scale(0.12 -0.12)">
      <use xlink:href="#DejaVuSans-110"/>
      <use x="63.378906" xlink:href="#DejaVuSans-52"/>
      <use x="127.001953" xlink:href="#DejaVuSans-48"/>
      <use x="190.625" xlink:href="#DejaVuSans-48"/>
      <use x="254.248047" xlink:href="#DejaVuSans-95"/>
      <use x="304.248047" xlink:href="#DejaVuSans-67"/>
      <use x="374.072266" xlink:href="#DejaVuSans-48"/>
      <use x="437.695312" xlink:href="#DejaVuSans-49"/>
      <use x="501.318359" xlink:href="#DejaVuSans-48"/>
     </g>
    </g>
    <g id="line2d_27">
     <path d="M 371.686875 12.712125 
L 395.686875 12.712125 
" style="fill:none;stroke:#e377c2;stroke-dasharray:3,6;stroke-dashoffset:0;stroke-width:3;"/>
    </g>
    <g id="line2d_28"/>
    <g id="text_18">
     <!-- n300_C010 -->
     <defs>
      <path d="M 40.578125 39.3125 
Q 47.65625 37.796875 51.625 33 
Q 55.609375 28.21875 55.609375 21.1875 
Q 55.609375 10.40625 48.1875 4.484375 
Q 40.765625 -1.421875 27.09375 -1.421875 
Q 22.515625 -1.421875 17.65625 -0.515625 
Q 12.796875 0.390625 7.625 2.203125 
L 7.625 11.71875 
Q 11.71875 9.328125 16.59375 8.109375 
Q 21.484375 6.890625 26.8125 6.890625 
Q 36.078125 6.890625 40.9375 10.546875 
Q 45.796875 14.203125 45.796875 21.1875 
Q 45.796875 27.640625 41.28125 31.265625 
Q 36.765625 34.90625 28.71875 34.90625 
L 20.21875 34.90625 
L 20.21875 43.015625 
L 29.109375 43.015625 
Q 36.375 43.015625 40.234375 45.921875 
Q 44.09375 48.828125 44.09375 54.296875 
Q 44.09375 59.90625 40.109375 62.90625 
Q 36.140625 65.921875 28.71875 65.921875 
Q 24.65625 65.921875 20.015625 65.03125 
Q 15.375 64.15625 9.8125 62.3125 
L 9.8125 71.09375 
Q 15.4375 72.65625 20.34375 73.4375 
Q 25.25 74.21875 29.59375 74.21875 
Q 40.828125 74.21875 47.359375 69.109375 
Q 53.90625 64.015625 53.90625 55.328125 
Q 53.90625 49.265625 50.4375 45.09375 
Q 46.96875 40.921875 40.578125 39.3125 
z
" id="DejaVuSans-51"/>
     </defs>
     <g transform="translate(405.286875 16.912125)scale(0.12 -0.12)">
      <use xlink:href="#DejaVuSans-110"/>
      <use x="63.378906" xlink:href="#DejaVuSans-51"/>
      <use x="127.001953" xlink:href="#DejaVuSans-48"/>
      <use x="190.625" xlink:href="#DejaVuSans-48"/>
      <use x="254.248047" xlink:href="#DejaVuSans-95"/>
      <use x="304.248047" xlink:href="#DejaVuSans-67"/>
      <use x="374.072266" xlink:href="#DejaVuSans-48"/>
      <use x="437.695312" xlink:href="#DejaVuSans-49"/>
      <use x="501.318359" xlink:href="#DejaVuSans-48"/>
     </g>
    </g>
    <g id="line2d_29">
     <path d="M 371.686875 30.659625 
L 395.686875 30.659625 
" style="fill:none;stroke:#e377c2;stroke-dasharray:6,6;stroke-dashoffset:0;stroke-width:3;"/>
    </g>
    <g id="line2d_30"/>
    <g id="text_19">
     <!-- n500_C010 -->
     <g transform="translate(405.286875 34.859625)scale(0.12 -0.12)">
      <use xlink:href="#DejaVuSans-110"/>
      <use x="63.378906" xlink:href="#DejaVuSans-53"/>
      <use x="127.001953" xlink:href="#DejaVuSans-48"/>
      <use x="190.625" xlink:href="#DejaVuSans-48"/>
      <use x="254.248047" xlink:href="#DejaVuSans-95"/>
      <use x="304.248047" xlink:href="#DejaVuSans-67"/>
      <use x="374.072266" xlink:href="#DejaVuSans-48"/>
      <use x="437.695312" xlink:href="#DejaVuSans-49"/>
      <use x="501.318359" xlink:href="#DejaVuSans-48"/>
     </g>
    </g>
   </g>
  </g>
  <g id="axes_2">
   <g id="patch_7">
    <path clip-path="url(#pe2d591a4de)" d="M 128.552727 51470.073687 
L 132.610909 51470.073687 
L 132.610909 232.857491 
L 128.552727 232.857491 
z
" style="fill:#d3d3d3;"/>
   </g>
   <g id="patch_8">
    <path clip-path="url(#pe2d591a4de)" d="M 133.625455 51470.073687 
L 137.683636 51470.073687 
L 137.683636 51470.073687 
L 133.625455 51470.073687 
z
" style="fill:#d3d3d3;"/>
   </g>
   <g id="patch_9">
    <path clip-path="url(#pe2d591a4de)" d="M 138.698182 51470.073687 
L 142.756364 51470.073687 
L 142.756364 51470.073687 
L 138.698182 51470.073687 
z
" style="fill:#d3d3d3;"/>
   </g>
   <g id="patch_10">
    <path clip-path="url(#pe2d591a4de)" d="M 143.770909 51470.073687 
L 147.829091 51470.073687 
L 147.829091 51470.073687 
L 143.770909 51470.073687 
z
" style="fill:#d3d3d3;"/>
   </g>
   <g id="patch_11">
    <path clip-path="url(#pe2d591a4de)" d="M 148.843636 51470.073687 
L 152.901818 51470.073687 
L 152.901818 51470.073687 
L 148.843636 51470.073687 
z
" style="fill:#d3d3d3;"/>
   </g>
   <g id="patch_12">
    <path clip-path="url(#pe2d591a4de)" d="M 153.916364 51470.073687 
L 157.974545 51470.073687 
L 157.974545 51470.073687 
L 153.916364 51470.073687 
z
" style="fill:#d3d3d3;"/>
   </g>
   <g id="patch_13">
    <path clip-path="url(#pe2d591a4de)" d="M 158.989091 51470.073687 
L 163.047273 51470.073687 
L 163.047273 51470.073687 
L 158.989091 51470.073687 
z
" style="fill:#d3d3d3;"/>
   </g>
   <g id="patch_14">
    <path clip-path="url(#pe2d591a4de)" d="M 164.061818 51470.073687 
L 168.12 51470.073687 
L 168.12 268.695818 
L 164.061818 268.695818 
z
" style="fill:#d3d3d3;"/>
   </g>
   <g id="patch_15">
    <path clip-path="url(#pe2d591a4de)" d="M 169.134545 51470.073687 
L 173.192727 51470.073687 
L 173.192727 51470.073687 
L 169.134545 51470.073687 
z
" style="fill:#d3d3d3;"/>
   </g>
   <g id="patch_16">
    <path clip-path="url(#pe2d591a4de)" d="M 174.207273 51470.073687 
L 178.265455 51470.073687 
L 178.265455 51470.073687 
L 174.207273 51470.073687 
z
" style="fill:#d3d3d3;"/>
   </g>
   <g id="patch_17">
    <path clip-path="url(#pe2d591a4de)" d="M 179.28 51470.073687 
L 183.338182 51470.073687 
L 183.338182 221.041671 
L 179.28 221.041671 
z
" style="fill:#d3d3d3;"/>
   </g>
   <g id="patch_18">
    <path clip-path="url(#pe2d591a4de)" d="M 184.352727 51470.073687 
L 188.410909 51470.073687 
L 188.410909 149.788166 
L 184.352727 149.788166 
z
" style="fill:#d3d3d3;"/>
   </g>
   <g id="patch_19">
    <path clip-path="url(#pe2d591a4de)" d="M 189.425455 51470.073687 
L 193.483636 51470.073687 
L 193.483636 259.667081 
L 189.425455 259.667081 
z
" style="fill:#d3d3d3;"/>
   </g>
   <g id="patch_20">
    <path clip-path="url(#pe2d591a4de)" d="M 194.498182 51470.073687 
L 198.556364 51470.073687 
L 198.556364 196.797594 
L 194.498182 196.797594 
z
" style="fill:#d3d3d3;"/>
   </g>
   <g id="patch_21">
    <path clip-path="url(#pe2d591a4de)" d="M 199.570909 51470.073687 
L 203.629091 51470.073687 
L 203.629091 182.962253 
L 199.570909 182.962253 
z
" style="fill:#d3d3d3;"/>
   </g>
   <g id="patch_22">
    <path clip-path="url(#pe2d591a4de)" d="M 204.643636 51470.073687 
L 208.701818 51470.073687 
L 208.701818 161.539999 
L 204.643636 161.539999 
z
" style="fill:#d3d3d3;"/>
   </g>
   <g id="patch_23">
    <path clip-path="url(#pe2d591a4de)" d="M 209.716364 51470.073687 
L 213.774545 51470.073687 
L 213.774545 173.310606 
L 209.716364 173.310606 
z
" style="fill:#d3d3d3;"/>
   </g>
   <g id="patch_24">
    <path clip-path="url(#pe2d591a4de)" d="M 214.789091 51470.073687 
L 218.847273 51470.073687 
L 218.847273 113.199027 
L 214.789091 113.199027 
z
" style="fill:#d3d3d3;"/>
   </g>
   <g id="patch_25">
    <path clip-path="url(#pe2d591a4de)" d="M 219.861818 51470.073687 
L 223.92 51470.073687 
L 223.92 152.330957 
L 219.861818 152.330957 
z
" style="fill:#d3d3d3;"/>
   </g>
   <g id="patch_26">
    <path clip-path="url(#pe2d591a4de)" d="M 224.934545 51470.073687 
L 228.992727 51470.073687 
L 228.992727 109.84552 
L 224.934545 109.84552 
z
" style="fill:#d3d3d3;"/>
   </g>
   <g id="patch_27">
    <path clip-path="url(#pe2d591a4de)" d="M 230.007273 51470.073687 
L 234.065455 51470.073687 
L 234.065455 131.25521 
L 230.007273 131.25521 
z
" style="fill:#d3d3d3;"/>
   </g>
   <g id="patch_28">
    <path clip-path="url(#pe2d591a4de)" d="M 235.08 51470.073687 
L 239.138182 51470.073687 
L 239.138182 143.242441 
L 235.08 143.242441 
z
" style="fill:#d3d3d3;"/>
   </g>
   <g id="patch_29">
    <path clip-path="url(#pe2d591a4de)" d="M 240.152727 51470.073687 
L 244.210909 51470.073687 
L 244.210909 149.104574 
L 240.152727 149.104574 
z
" style="fill:#d3d3d3;"/>
   </g>
   <g id="patch_30">
    <path clip-path="url(#pe2d591a4de)" d="M 245.225455 51470.073687 
L 249.283636 51470.073687 
L 249.283636 169.768616 
L 245.225455 169.768616 
z
" style="fill:#d3d3d3;"/>
   </g>
   <g id="patch_31">
    <path clip-path="url(#pe2d591a4de)" d="M 250.298182 51470.073687 
L 254.356364 51470.073687 
L 254.356364 160.609277 
L 250.298182 160.609277 
z
" style="fill:#d3d3d3;"/>
   </g>
   <g id="patch_32">
    <path clip-path="url(#pe2d591a4de)" d="M 255.370909 51470.073687 
L 259.429091 51470.073687 
L 259.429091 119.596415 
L 255.370909 119.596415 
z
" style="fill:#d3d3d3;"/>
   </g>
   <g id="patch_33">
    <path clip-path="url(#pe2d591a4de)" d="M 260.443636 51470.073687 
L 264.501818 51470.073687 
L 264.501818 153.656618 
L 260.443636 153.656618 
z
" style="fill:#d3d3d3;"/>
   </g>
   <g id="patch_34">
    <path clip-path="url(#pe2d591a4de)" d="M 265.516364 51470.073687 
L 269.574545 51470.073687 
L 269.574545 118.112467 
L 265.516364 118.112467 
z
" style="fill:#d3d3d3;"/>
   </g>
   <g id="patch_35">
    <path clip-path="url(#pe2d591a4de)" d="M 270.589091 51470.073687 
L 274.647273 51470.073687 
L 274.647273 166.713476 
L 270.589091 166.713476 
z
" style="fill:#d3d3d3;"/>
   </g>
   <g id="patch_36">
    <path clip-path="url(#pe2d591a4de)" d="M 275.661818 51470.073687 
L 279.72 51470.073687 
L 279.72 165.873089 
L 275.661818 165.873089 
z
" style="fill:#d3d3d3;"/>
   </g>
   <g id="patch_37">
    <path clip-path="url(#pe2d591a4de)" d="M 280.734545 51470.073687 
L 284.792727 51470.073687 
L 284.792727 103.701984 
L 280.734545 103.701984 
z
" style="fill:#d3d3d3;"/>
   </g>
   <g id="patch_38">
    <path clip-path="url(#pe2d591a4de)" d="M 285.807273 51470.073687 
L 289.865455 51470.073687 
L 289.865455 150.854591 
L 285.807273 150.854591 
z
" style="fill:#d3d3d3;"/>
   </g>
   <g id="patch_39">
    <path clip-path="url(#pe2d591a4de)" d="M 290.88 51470.073687 
L 294.938182 51470.073687 
L 294.938182 141.816519 
L 290.88 141.816519 
z
" style="fill:#d3d3d3;"/>
   </g>
   <g id="patch_40">
    <path clip-path="url(#pe2d591a4de)" d="M 295.952727 51470.073687 
L 300.010909 51470.073687 
L 300.010909 204.645602 
L 295.952727 204.645602 
z
" style="fill:#d3d3d3;"/>
   </g>
   <g id="patch_41">
    <path clip-path="url(#pe2d591a4de)" d="M 301.025455 51470.073687 
L 305.083636 51470.073687 
L 305.083636 137.031322 
L 301.025455 137.031322 
z
" style="fill:#d3d3d3;"/>
   </g>
   <g id="patch_42">
    <path clip-path="url(#pe2d591a4de)" d="M 306.098182 51470.073687 
L 310.156364 51470.073687 
L 310.156364 151.74027 
L 306.098182 151.74027 
z
" style="fill:#d3d3d3;"/>
   </g>
   <g id="patch_43">
    <path clip-path="url(#pe2d591a4de)" d="M 311.170909 51470.073687 
L 315.229091 51470.073687 
L 315.229091 152.092798 
L 311.170909 152.092798 
z
" style="fill:#d3d3d3;"/>
   </g>
   <g id="patch_44">
    <path clip-path="url(#pe2d591a4de)" d="M 316.243636 51470.073687 
L 320.301818 51470.073687 
L 320.301818 284.130545 
L 316.243636 284.130545 
z
" style="fill:#d3d3d3;"/>
   </g>
   <g id="patch_45">
    <path clip-path="url(#pe2d591a4de)" d="M 321.316364 51470.073687 
L 325.374545 51470.073687 
L 325.374545 186.139657 
L 321.316364 186.139657 
z
" style="fill:#d3d3d3;"/>
   </g>
   <g id="patch_46">
    <path clip-path="url(#pe2d591a4de)" d="M 326.389091 51470.073687 
L 330.447273 51470.073687 
L 330.447273 248.292218 
L 326.389091 248.292218 
z
" style="fill:#d3d3d3;"/>
   </g>
   <g id="patch_47">
    <path clip-path="url(#pe2d591a4de)" d="M 331.461818 51470.073687 
L 335.52 51470.073687 
L 335.52 235.203617 
L 331.461818 235.203617 
z
" style="fill:#d3d3d3;"/>
   </g>
   <g id="patch_48">
    <path clip-path="url(#pe2d591a4de)" d="M 336.534545 51470.073687 
L 340.592727 51470.073687 
L 340.592727 259.667081 
L 336.534545 259.667081 
z
" style="fill:#d3d3d3;"/>
   </g>
   <g id="patch_49">
    <path clip-path="url(#pe2d591a4de)" d="M 341.607273 51470.073687 
L 345.665455 51470.073687 
L 345.665455 204.334162 
L 341.607273 204.334162 
z
" style="fill:#d3d3d3;"/>
   </g>
   <g id="patch_50">
    <path clip-path="url(#pe2d591a4de)" d="M 346.68 51470.073687 
L 350.738182 51470.073687 
L 350.738182 228.797626 
L 346.68 228.797626 
z
" style="fill:#d3d3d3;"/>
   </g>
   <g id="patch_51">
    <path clip-path="url(#pe2d591a4de)" d="M 351.752727 51470.073687 
L 355.810909 51470.073687 
L 355.810909 183.930562 
L 351.752727 183.930562 
z
" style="fill:#d3d3d3;"/>
   </g>
   <g id="patch_52">
    <path clip-path="url(#pe2d591a4de)" d="M 356.825455 51470.073687 
L 360.883636 51470.073687 
L 360.883636 51470.073687 
L 356.825455 51470.073687 
z
" style="fill:#d3d3d3;"/>
   </g>
   <g id="patch_53">
    <path clip-path="url(#pe2d591a4de)" d="M 361.898182 51470.073687 
L 365.956364 51470.073687 
L 365.956364 224.58366 
L 361.898182 224.58366 
z
" style="fill:#d3d3d3;"/>
   </g>
   <g id="patch_54">
    <path clip-path="url(#pe2d591a4de)" d="M 366.970909 51470.073687 
L 371.029091 51470.073687 
L 371.029091 51470.073687 
L 366.970909 51470.073687 
z
" style="fill:#d3d3d3;"/>
   </g>
   <g id="patch_55">
    <path clip-path="url(#pe2d591a4de)" d="M 372.043636 51470.073687 
L 376.101818 51470.073687 
L 376.101818 51470.073687 
L 372.043636 51470.073687 
z
" style="fill:#d3d3d3;"/>
   </g>
   <g id="patch_56">
    <path clip-path="url(#pe2d591a4de)" d="M 377.116364 51470.073687 
L 381.174545 51470.073687 
L 381.174545 181.252902 
L 377.116364 181.252902 
z
" style="fill:#d3d3d3;"/>
   </g>
   <g id="patch_57">
    <path clip-path="url(#pe2d591a4de)" d="M 382.189091 51470.073687 
L 386.247273 51470.073687 
L 386.247273 51470.073687 
L 382.189091 51470.073687 
z
" style="fill:#d3d3d3;"/>
   </g>
   <g id="patch_58">
    <path clip-path="url(#pe2d591a4de)" d="M 387.261818 51470.073687 
L 391.32 51470.073687 
L 391.32 51470.073687 
L 387.261818 51470.073687 
z
" style="fill:#d3d3d3;"/>
   </g>
   <g id="patch_59">
    <path clip-path="url(#pe2d591a4de)" d="M 392.334545 51470.073687 
L 396.392727 51470.073687 
L 396.392727 250.638344 
L 392.334545 250.638344 
z
" style="fill:#d3d3d3;"/>
   </g>
   <g id="patch_60">
    <path clip-path="url(#pe2d591a4de)" d="M 397.407273 51470.073687 
L 401.465455 51470.073687 
L 401.465455 51470.073687 
L 397.407273 51470.073687 
z
" style="fill:#d3d3d3;"/>
   </g>
   <g id="patch_61">
    <path clip-path="url(#pe2d591a4de)" d="M 402.48 51470.073687 
L 406.538182 51470.073687 
L 406.538182 244.232354 
L 402.48 244.232354 
z
" style="fill:#d3d3d3;"/>
   </g>
   <g id="patch_62">
    <path clip-path="url(#pe2d591a4de)" d="M 407.552727 51470.073687 
L 411.610909 51470.073687 
L 411.610909 233.99967 
L 407.552727 233.99967 
z
" style="fill:#d3d3d3;"/>
   </g>
   <g id="patch_63">
    <path clip-path="url(#pe2d591a4de)" d="M 412.625455 51470.073687 
L 416.683636 51470.073687 
L 416.683636 246.169889 
L 412.625455 246.169889 
z
" style="fill:#d3d3d3;"/>
   </g>
   <g id="patch_64">
    <path clip-path="url(#pe2d591a4de)" d="M 417.698182 51470.073687 
L 421.756364 51470.073687 
L 421.756364 256.234515 
L 417.698182 256.234515 
z
" style="fill:#d3d3d3;"/>
   </g>
   <g id="patch_65">
    <path clip-path="url(#pe2d591a4de)" d="M 422.770909 51470.073687 
L 426.829091 51470.073687 
L 426.829091 220.396188 
L 422.770909 220.396188 
z
" style="fill:#d3d3d3;"/>
   </g>
   <g id="matplotlib.axis_3">
    <g id="ytick_7">
     <g id="line2d_31">
      <defs>
       <path d="M 0 0 
L 3.5 0 
" id="m4bf7660748" style="stroke:#000000;stroke-width:0.8;"/>
      </defs>
      <g>
       <use style="stroke:#000000;stroke-width:0.8;" x="648" xlink:href="#m4bf7660748" y="299.565273"/>
      </g>
     </g>
     <g id="text_20">
      <!-- $\mathdefault{10^{-2}}$ -->
      <defs>
       <path d="M 10.59375 35.5 
L 73.1875 35.5 
L 73.1875 27.203125 
L 10.59375 27.203125 
z
" id="DejaVuSans-8722"/>
      </defs>
      <g transform="translate(655 303.364491)scale(0.1 -0.1)">
       <use transform="translate(0 0.765625)" xlink:href="#DejaVuSans-49"/>
       <use transform="translate(63.623047 0.765625)" xlink:href="#DejaVuSans-48"/>
       <use transform="translate(128.203125 39.046875)scale(0.7)" xlink:href="#DejaVuSans-8722"/>
       <use transform="translate(186.855469 39.046875)scale(0.7)" xlink:href="#DejaVuSans-50"/>
      </g>
     </g>
    </g>
    <g id="ytick_8">
     <g id="line2d_32">
      <g>
       <use style="stroke:#000000;stroke-width:0.8;" x="648" xlink:href="#m4bf7660748" y="248.292218"/>
      </g>
     </g>
     <g id="text_21">
      <!-- $\mathdefault{10^{-1}}$ -->
      <g transform="translate(655 252.091437)scale(0.1 -0.1)">
       <use transform="translate(0 0.684375)" xlink:href="#DejaVuSans-49"/>
       <use transform="translate(63.623047 0.684375)" xlink:href="#DejaVuSans-48"/>
       <use transform="translate(128.203125 38.965625)scale(0.7)" xlink:href="#DejaVuSans-8722"/>
       <use transform="translate(186.855469 38.965625)scale(0.7)" xlink:href="#DejaVuSans-49"/>
      </g>
     </g>
    </g>
    <g id="ytick_9">
     <g id="line2d_33">
      <g>
       <use style="stroke:#000000;stroke-width:0.8;" x="648" xlink:href="#m4bf7660748" y="197.019164"/>
      </g>
     </g>
     <g id="text_22">
      <!-- $\mathdefault{10^{0}}$ -->
      <g transform="translate(655 200.818382)scale(0.1 -0.1)">
       <use transform="translate(0 0.765625)" xlink:href="#DejaVuSans-49"/>
       <use transform="translate(63.623047 0.765625)" xlink:href="#DejaVuSans-48"/>
       <use transform="translate(128.203125 39.046875)scale(0.7)" xlink:href="#DejaVuSans-48"/>
      </g>
     </g>
    </g>
    <g id="ytick_10">
     <g id="line2d_34">
      <g>
       <use style="stroke:#000000;stroke-width:0.8;" x="648" xlink:href="#m4bf7660748" y="145.746109"/>
      </g>
     </g>
     <g id="text_23">
      <!-- $\mathdefault{10^{1}}$ -->
      <g transform="translate(655 149.545328)scale(0.1 -0.1)">
       <use transform="translate(0 0.684375)" xlink:href="#DejaVuSans-49"/>
       <use transform="translate(63.623047 0.684375)" xlink:href="#DejaVuSans-48"/>
       <use transform="translate(128.203125 38.965625)scale(0.7)" xlink:href="#DejaVuSans-49"/>
      </g>
     </g>
    </g>
    <g id="ytick_11">
     <g id="line2d_35">
      <g>
       <use style="stroke:#000000;stroke-width:0.8;" x="648" xlink:href="#m4bf7660748" y="94.473055"/>
      </g>
     </g>
     <g id="text_24">
      <!-- $\mathdefault{10^{2}}$ -->
      <g transform="translate(655 98.272273)scale(0.1 -0.1)">
       <use transform="translate(0 0.765625)" xlink:href="#DejaVuSans-49"/>
       <use transform="translate(63.623047 0.765625)" xlink:href="#DejaVuSans-48"/>
       <use transform="translate(128.203125 39.046875)scale(0.7)" xlink:href="#DejaVuSans-50"/>
      </g>
     </g>
    </g>
    <g id="ytick_12">
     <g id="line2d_36">
      <g>
       <use style="stroke:#000000;stroke-width:0.8;" x="648" xlink:href="#m4bf7660748" y="43.2"/>
      </g>
     </g>
     <g id="text_25">
      <!-- $\mathdefault{10^{3}}$ -->
      <g transform="translate(655 46.999219)scale(0.1 -0.1)">
       <use transform="translate(0 0.765625)" xlink:href="#DejaVuSans-49"/>
       <use transform="translate(63.623047 0.765625)" xlink:href="#DejaVuSans-48"/>
       <use transform="translate(128.203125 39.046875)scale(0.7)" xlink:href="#DejaVuSans-51"/>
      </g>
     </g>
    </g>
    <g id="ytick_13">
     <g id="line2d_37">
      <defs>
       <path d="M 0 0 
L 2 0 
" id="m4e87654e80" style="stroke:#000000;stroke-width:0.6;"/>
      </defs>
      <g>
       <use style="stroke:#000000;stroke-width:0.6;" x="648" xlink:href="#m4e87654e80" y="315"/>
      </g>
     </g>
    </g>
    <g id="ytick_14">
     <g id="line2d_38">
      <g>
       <use style="stroke:#000000;stroke-width:0.6;" x="648" xlink:href="#m4e87654e80" y="310.940136"/>
      </g>
     </g>
    </g>
    <g id="ytick_15">
     <g id="line2d_39">
      <g>
       <use style="stroke:#000000;stroke-width:0.6;" x="648" xlink:href="#m4e87654e80" y="307.507569"/>
      </g>
     </g>
    </g>
    <g id="ytick_16">
     <g id="line2d_40">
      <g>
       <use style="stroke:#000000;stroke-width:0.6;" x="648" xlink:href="#m4e87654e80" y="304.534145"/>
      </g>
     </g>
    </g>
    <g id="ytick_17">
     <g id="line2d_41">
      <g>
       <use style="stroke:#000000;stroke-width:0.6;" x="648" xlink:href="#m4e87654e80" y="301.911399"/>
      </g>
     </g>
    </g>
    <g id="ytick_18">
     <g id="line2d_42">
      <g>
       <use style="stroke:#000000;stroke-width:0.6;" x="648" xlink:href="#m4e87654e80" y="284.130545"/>
      </g>
     </g>
    </g>
    <g id="ytick_19">
     <g id="line2d_43">
      <g>
       <use style="stroke:#000000;stroke-width:0.6;" x="648" xlink:href="#m4e87654e80" y="275.101809"/>
      </g>
     </g>
    </g>
    <g id="ytick_20">
     <g id="line2d_44">
      <g>
       <use style="stroke:#000000;stroke-width:0.6;" x="648" xlink:href="#m4e87654e80" y="268.695818"/>
      </g>
     </g>
    </g>
    <g id="ytick_21">
     <g id="line2d_45">
      <g>
       <use style="stroke:#000000;stroke-width:0.6;" x="648" xlink:href="#m4e87654e80" y="263.726945"/>
      </g>
     </g>
    </g>
    <g id="ytick_22">
     <g id="line2d_46">
      <g>
       <use style="stroke:#000000;stroke-width:0.6;" x="648" xlink:href="#m4e87654e80" y="259.667081"/>
      </g>
     </g>
    </g>
    <g id="ytick_23">
     <g id="line2d_47">
      <g>
       <use style="stroke:#000000;stroke-width:0.6;" x="648" xlink:href="#m4e87654e80" y="256.234515"/>
      </g>
     </g>
    </g>
    <g id="ytick_24">
     <g id="line2d_48">
      <g>
       <use style="stroke:#000000;stroke-width:0.6;" x="648" xlink:href="#m4e87654e80" y="253.26109"/>
      </g>
     </g>
    </g>
    <g id="ytick_25">
     <g id="line2d_49">
      <g>
       <use style="stroke:#000000;stroke-width:0.6;" x="648" xlink:href="#m4e87654e80" y="250.638344"/>
      </g>
     </g>
    </g>
    <g id="ytick_26">
     <g id="line2d_50">
      <g>
       <use style="stroke:#000000;stroke-width:0.6;" x="648" xlink:href="#m4e87654e80" y="232.857491"/>
      </g>
     </g>
    </g>
    <g id="ytick_27">
     <g id="line2d_51">
      <g>
       <use style="stroke:#000000;stroke-width:0.6;" x="648" xlink:href="#m4e87654e80" y="223.828754"/>
      </g>
     </g>
    </g>
    <g id="ytick_28">
     <g id="line2d_52">
      <g>
       <use style="stroke:#000000;stroke-width:0.6;" x="648" xlink:href="#m4e87654e80" y="217.422763"/>
      </g>
     </g>
    </g>
    <g id="ytick_29">
     <g id="line2d_53">
      <g>
       <use style="stroke:#000000;stroke-width:0.6;" x="648" xlink:href="#m4e87654e80" y="212.453891"/>
      </g>
     </g>
    </g>
    <g id="ytick_30">
     <g id="line2d_54">
      <g>
       <use style="stroke:#000000;stroke-width:0.6;" x="648" xlink:href="#m4e87654e80" y="208.394027"/>
      </g>
     </g>
    </g>
    <g id="ytick_31">
     <g id="line2d_55">
      <g>
       <use style="stroke:#000000;stroke-width:0.6;" x="648" xlink:href="#m4e87654e80" y="204.96146"/>
      </g>
     </g>
    </g>
    <g id="ytick_32">
     <g id="line2d_56">
      <g>
       <use style="stroke:#000000;stroke-width:0.6;" x="648" xlink:href="#m4e87654e80" y="201.988036"/>
      </g>
     </g>
    </g>
    <g id="ytick_33">
     <g id="line2d_57">
      <g>
       <use style="stroke:#000000;stroke-width:0.6;" x="648" xlink:href="#m4e87654e80" y="199.36529"/>
      </g>
     </g>
    </g>
    <g id="ytick_34">
     <g id="line2d_58">
      <g>
       <use style="stroke:#000000;stroke-width:0.6;" x="648" xlink:href="#m4e87654e80" y="181.584436"/>
      </g>
     </g>
    </g>
    <g id="ytick_35">
     <g id="line2d_59">
      <g>
       <use style="stroke:#000000;stroke-width:0.6;" x="648" xlink:href="#m4e87654e80" y="172.555699"/>
      </g>
     </g>
    </g>
    <g id="ytick_36">
     <g id="line2d_60">
      <g>
       <use style="stroke:#000000;stroke-width:0.6;" x="648" xlink:href="#m4e87654e80" y="166.149709"/>
      </g>
     </g>
    </g>
    <g id="ytick_37">
     <g id="line2d_61">
      <g>
       <use style="stroke:#000000;stroke-width:0.6;" x="648" xlink:href="#m4e87654e80" y="161.180836"/>
      </g>
     </g>
    </g>
    <g id="ytick_38">
     <g id="line2d_62">
      <g>
       <use style="stroke:#000000;stroke-width:0.6;" x="648" xlink:href="#m4e87654e80" y="157.120972"/>
      </g>
     </g>
    </g>
    <g id="ytick_39">
     <g id="line2d_63">
      <g>
       <use style="stroke:#000000;stroke-width:0.6;" x="648" xlink:href="#m4e87654e80" y="153.688406"/>
      </g>
     </g>
    </g>
    <g id="ytick_40">
     <g id="line2d_64">
      <g>
       <use style="stroke:#000000;stroke-width:0.6;" x="648" xlink:href="#m4e87654e80" y="150.714981"/>
      </g>
     </g>
    </g>
    <g id="ytick_41">
     <g id="line2d_65">
      <g>
       <use style="stroke:#000000;stroke-width:0.6;" x="648" xlink:href="#m4e87654e80" y="148.092235"/>
      </g>
     </g>
    </g>
    <g id="ytick_42">
     <g id="line2d_66">
      <g>
       <use style="stroke:#000000;stroke-width:0.6;" x="648" xlink:href="#m4e87654e80" y="130.311382"/>
      </g>
     </g>
    </g>
    <g id="ytick_43">
     <g id="line2d_67">
      <g>
       <use style="stroke:#000000;stroke-width:0.6;" x="648" xlink:href="#m4e87654e80" y="121.282645"/>
      </g>
     </g>
    </g>
    <g id="ytick_44">
     <g id="line2d_68">
      <g>
       <use style="stroke:#000000;stroke-width:0.6;" x="648" xlink:href="#m4e87654e80" y="114.876654"/>
      </g>
     </g>
    </g>
    <g id="ytick_45">
     <g id="line2d_69">
      <g>
       <use style="stroke:#000000;stroke-width:0.6;" x="648" xlink:href="#m4e87654e80" y="109.907782"/>
      </g>
     </g>
    </g>
    <g id="ytick_46">
     <g id="line2d_70">
      <g>
       <use style="stroke:#000000;stroke-width:0.6;" x="648" xlink:href="#m4e87654e80" y="105.847918"/>
      </g>
     </g>
    </g>
    <g id="ytick_47">
     <g id="line2d_71">
      <g>
       <use style="stroke:#000000;stroke-width:0.6;" x="648" xlink:href="#m4e87654e80" y="102.415351"/>
      </g>
     </g>
    </g>
    <g id="ytick_48">
     <g id="line2d_72">
      <g>
       <use style="stroke:#000000;stroke-width:0.6;" x="648" xlink:href="#m4e87654e80" y="99.441927"/>
      </g>
     </g>
    </g>
    <g id="ytick_49">
     <g id="line2d_73">
      <g>
       <use style="stroke:#000000;stroke-width:0.6;" x="648" xlink:href="#m4e87654e80" y="96.819181"/>
      </g>
     </g>
    </g>
    <g id="ytick_50">
     <g id="line2d_74">
      <g>
       <use style="stroke:#000000;stroke-width:0.6;" x="648" xlink:href="#m4e87654e80" y="79.038327"/>
      </g>
     </g>
    </g>
    <g id="ytick_51">
     <g id="line2d_75">
      <g>
       <use style="stroke:#000000;stroke-width:0.6;" x="648" xlink:href="#m4e87654e80" y="70.00959"/>
      </g>
     </g>
    </g>
    <g id="ytick_52">
     <g id="line2d_76">
      <g>
       <use style="stroke:#000000;stroke-width:0.6;" x="648" xlink:href="#m4e87654e80" y="63.6036"/>
      </g>
     </g>
    </g>
    <g id="ytick_53">
     <g id="line2d_77">
      <g>
       <use style="stroke:#000000;stroke-width:0.6;" x="648" xlink:href="#m4e87654e80" y="58.634727"/>
      </g>
     </g>
    </g>
    <g id="ytick_54">
     <g id="line2d_78">
      <g>
       <use style="stroke:#000000;stroke-width:0.6;" x="648" xlink:href="#m4e87654e80" y="54.574863"/>
      </g>
     </g>
    </g>
    <g id="ytick_55">
     <g id="line2d_79">
      <g>
       <use style="stroke:#000000;stroke-width:0.6;" x="648" xlink:href="#m4e87654e80" y="51.142297"/>
      </g>
     </g>
    </g>
    <g id="ytick_56">
     <g id="line2d_80">
      <g>
       <use style="stroke:#000000;stroke-width:0.6;" x="648" xlink:href="#m4e87654e80" y="48.168872"/>
      </g>
     </g>
    </g>
    <g id="ytick_57">
     <g id="line2d_81">
      <g>
       <use style="stroke:#000000;stroke-width:0.6;" x="648" xlink:href="#m4e87654e80" y="45.546126"/>
      </g>
     </g>
    </g>
    <g id="text_26">
     <!-- Larval density field (m$^3$) -->
     <defs>
      <path d="M 9.8125 72.90625 
L 19.671875 72.90625 
L 19.671875 8.296875 
L 55.171875 8.296875 
L 55.171875 0 
L 9.8125 0 
z
" id="DejaVuSans-76"/>
      <path d="M 41.109375 46.296875 
Q 39.59375 47.171875 37.8125 47.578125 
Q 36.03125 48 33.890625 48 
Q 26.265625 48 22.1875 43.046875 
Q 18.109375 38.09375 18.109375 28.8125 
L 18.109375 0 
L 9.078125 0 
L 9.078125 54.6875 
L 18.109375 54.6875 
L 18.109375 46.1875 
Q 20.953125 51.171875 25.484375 53.578125 
Q 30.03125 56 36.53125 56 
Q 37.453125 56 38.578125 55.875 
Q 39.703125 55.765625 41.0625 55.515625 
z
" id="DejaVuSans-114"/>
      <path d="M 32.171875 -5.078125 
Q 28.375 -14.84375 24.75 -17.8125 
Q 21.140625 -20.796875 15.09375 -20.796875 
L 7.90625 -20.796875 
L 7.90625 -13.28125 
L 13.1875 -13.28125 
Q 16.890625 -13.28125 18.9375 -11.515625 
Q 21 -9.765625 23.484375 -3.21875 
L 25.09375 0.875 
L 2.984375 54.6875 
L 12.5 54.6875 
L 29.59375 11.921875 
L 46.6875 54.6875 
L 56.203125 54.6875 
z
" id="DejaVuSans-121"/>
      <path d="M 31 75.875 
Q 24.46875 64.65625 21.28125 53.65625 
Q 18.109375 42.671875 18.109375 31.390625 
Q 18.109375 20.125 21.3125 9.0625 
Q 24.515625 -2 31 -13.1875 
L 23.1875 -13.1875 
Q 15.875 -1.703125 12.234375 9.375 
Q 8.59375 20.453125 8.59375 31.390625 
Q 8.59375 42.28125 12.203125 53.3125 
Q 15.828125 64.359375 23.1875 75.875 
z
" id="DejaVuSans-40"/>
      <path d="M 8.015625 75.875 
L 15.828125 75.875 
Q 23.140625 64.359375 26.78125 53.3125 
Q 30.421875 42.28125 30.421875 31.390625 
Q 30.421875 20.453125 26.78125 9.375 
Q 23.140625 -1.703125 15.828125 -13.1875 
L 8.015625 -13.1875 
Q 14.5 -2 17.703125 9.0625 
Q 20.90625 20.125 20.90625 31.390625 
Q 20.90625 42.671875 17.703125 53.65625 
Q 14.5 64.65625 8.015625 75.875 
z
" id="DejaVuSans-41"/>
     </defs>
     <g style="fill:#808080;" transform="translate(695.24 263.66)rotate(-90)scale(0.14 -0.14)">
      <use transform="translate(0 0.765625)" xlink:href="#DejaVuSans-76"/>
      <use transform="translate(55.712891 0.765625)" xlink:href="#DejaVuSans-97"/>
      <use transform="translate(116.992188 0.765625)" xlink:href="#DejaVuSans-114"/>
      <use transform="translate(158.105469 0.765625)" xlink:href="#DejaVuSans-118"/>
      <use transform="translate(217.285156 0.765625)" xlink:href="#DejaVuSans-97"/>
      <use transform="translate(278.564453 0.765625)" xlink:href="#DejaVuSans-108"/>
      <use transform="translate(306.347656 0.765625)" xlink:href="#DejaVuSans-32"/>
      <use transform="translate(338.134766 0.765625)" xlink:href="#DejaVuSans-100"/>
      <use transform="translate(401.611328 0.765625)" xlink:href="#DejaVuSans-101"/>
      <use transform="translate(463.134766 0.765625)" xlink:href="#DejaVuSans-110"/>
      <use transform="translate(526.513672 0.765625)" xlink:href="#DejaVuSans-115"/>
      <use transform="translate(578.613281 0.765625)" xlink:href="#DejaVuSans-105"/>
      <use transform="translate(606.396484 0.765625)" xlink:href="#DejaVuSans-116"/>
      <use transform="translate(645.605469 0.765625)" xlink:href="#DejaVuSans-121"/>
      <use transform="translate(704.785156 0.765625)" xlink:href="#DejaVuSans-32"/>
      <use transform="translate(736.572266 0.765625)" xlink:href="#DejaVuSans-102"/>
      <use transform="translate(771.777344 0.765625)" xlink:href="#DejaVuSans-105"/>
      <use transform="translate(799.560547 0.765625)" xlink:href="#DejaVuSans-101"/>
      <use transform="translate(861.083984 0.765625)" xlink:href="#DejaVuSans-108"/>
      <use transform="translate(888.867188 0.765625)" xlink:href="#DejaVuSans-100"/>
      <use transform="translate(952.34375 0.765625)" xlink:href="#DejaVuSans-32"/>
      <use transform="translate(984.130859 0.765625)" xlink:href="#DejaVuSans-40"/>
      <use transform="translate(1023.144531 0.765625)" xlink:href="#DejaVuSans-109"/>
      <use transform="translate(1121.513672 39.046875)scale(0.7)" xlink:href="#DejaVuSans-51"/>
      <use transform="translate(1168.78418 0.765625)" xlink:href="#DejaVuSans-41"/>
     </g>
    </g>
   </g>
   <g id="patch_66">
    <path d="M 90 315 
L 90 43.2 
" style="fill:none;stroke:#000000;stroke-linecap:square;stroke-linejoin:miter;stroke-width:0.8;"/>
   </g>
   <g id="patch_67">
    <path d="M 648 315 
L 648 43.2 
" style="fill:none;stroke:#000000;stroke-linecap:square;stroke-linejoin:miter;stroke-width:0.8;"/>
   </g>
   <g id="patch_68">
    <path d="M 90 315 
L 648 315 
" style="fill:none;stroke:#000000;stroke-linecap:square;stroke-linejoin:miter;stroke-width:0.8;"/>
   </g>
   <g id="patch_69">
    <path d="M 90 43.2 
L 648 43.2 
" style="fill:none;stroke:#000000;stroke-linecap:square;stroke-linejoin:miter;stroke-width:0.8;"/>
   </g>
  </g>
 </g>
 <defs>
  <clipPath id="pe2d591a4de">
   <rect height="271.8" width="558" x="90" y="43.2"/>
  </clipPath>
 </defs>
</svg>
