<?xml version="1.0" encoding="utf-8" standalone="no"?>
<!DOCTYPE svg PUBLIC "-//W3C//DTD SVG 1.1//EN"
  "http://www.w3.org/Graphics/SVG/1.1/DTD/svg11.dtd">
<!-- Created with matplotlib (https://matplotlib.org/) -->
<svg height="360pt" version="1.1" viewBox="0 0 720 360" width="720pt" xmlns="http://www.w3.org/2000/svg" xmlns:xlink="http://www.w3.org/1999/xlink">
 <defs>
  <style type="text/css">
*{stroke-linecap:butt;stroke-linejoin:round;white-space:pre;}
  </style>
 </defs>
 <g id="figure_1">
  <g id="patch_1">
   <path d="M 0 360 
L 720 360 
L 720 0 
L 0 0 
z
" style="fill:#ffffff;"/>
  </g>
  <g id="axes_1">
   <g id="patch_2">
    <path d="M 90 315 
L 648 315 
L 648 43.2 
L 90 43.2 
z
" style="fill:#ffffff;"/>
   </g>
   <g id="matplotlib.axis_1">
    <g id="xtick_1">
     <g id="line2d_1">
      <defs>
       <path d="M 0 0 
L 0 3.5 
" id="m1825194056" style="stroke:#000000;stroke-width:0.8;"/>
      </defs>
      <g>
       <use style="stroke:#000000;stroke-width:0.8;" x="140.727273" xlink:href="#m1825194056" y="315"/>
      </g>
     </g>
     <g id="text_1">
      <!-- 160 -->
      <defs>
       <path d="M 12.40625 8.296875 
L 28.515625 8.296875 
L 28.515625 63.921875 
L 10.984375 60.40625 
L 10.984375 69.390625 
L 28.421875 72.90625 
L 38.28125 72.90625 
L 38.28125 8.296875 
L 54.390625 8.296875 
L 54.390625 0 
L 12.40625 0 
z
" id="DejaVuSans-49"/>
       <path d="M 33.015625 40.375 
Q 26.375 40.375 22.484375 35.828125 
Q 18.609375 31.296875 18.609375 23.390625 
Q 18.609375 15.53125 22.484375 10.953125 
Q 26.375 6.390625 33.015625 6.390625 
Q 39.65625 6.390625 43.53125 10.953125 
Q 47.40625 15.53125 47.40625 23.390625 
Q 47.40625 31.296875 43.53125 35.828125 
Q 39.65625 40.375 33.015625 40.375 
z
M 52.59375 71.296875 
L 52.59375 62.3125 
Q 48.875 64.0625 45.09375 64.984375 
Q 41.3125 65.921875 37.59375 65.921875 
Q 27.828125 65.921875 22.671875 59.328125 
Q 17.53125 52.734375 16.796875 39.40625 
Q 19.671875 43.65625 24.015625 45.921875 
Q 28.375 48.1875 33.59375 48.1875 
Q 44.578125 48.1875 50.953125 41.515625 
Q 57.328125 34.859375 57.328125 23.390625 
Q 57.328125 12.15625 50.6875 5.359375 
Q 44.046875 -1.421875 33.015625 -1.421875 
Q 20.359375 -1.421875 13.671875 8.265625 
Q 6.984375 17.96875 6.984375 36.375 
Q 6.984375 53.65625 15.1875 63.9375 
Q 23.390625 74.21875 37.203125 74.21875 
Q 40.921875 74.21875 44.703125 73.484375 
Q 48.484375 72.75 52.59375 71.296875 
z
" id="DejaVuSans-54"/>
       <path d="M 31.78125 66.40625 
Q 24.171875 66.40625 20.328125 58.90625 
Q 16.5 51.421875 16.5 36.375 
Q 16.5 21.390625 20.328125 13.890625 
Q 24.171875 6.390625 31.78125 6.390625 
Q 39.453125 6.390625 43.28125 13.890625 
Q 47.125 21.390625 47.125 36.375 
Q 47.125 51.421875 43.28125 58.90625 
Q 39.453125 66.40625 31.78125 66.40625 
z
M 31.78125 74.21875 
Q 44.046875 74.21875 50.515625 64.515625 
Q 56.984375 54.828125 56.984375 36.375 
Q 56.984375 17.96875 50.515625 8.265625 
Q 44.046875 -1.421875 31.78125 -1.421875 
Q 19.53125 -1.421875 13.0625 8.265625 
Q 6.59375 17.96875 6.59375 36.375 
Q 6.59375 54.828125 13.0625 64.515625 
Q 19.53125 74.21875 31.78125 74.21875 
z
" id="DejaVuSans-48"/>
      </defs>
      <g transform="translate(131.183523 329.598437)scale(0.1 -0.1)">
       <use xlink:href="#DejaVuSans-49"/>
       <use x="63.623047" xlink:href="#DejaVuSans-54"/>
       <use x="127.246094" xlink:href="#DejaVuSans-48"/>
      </g>
     </g>
    </g>
    <g id="xtick_2">
     <g id="line2d_2">
      <g>
       <use style="stroke:#000000;stroke-width:0.8;" x="242.181818" xlink:href="#m1825194056" y="315"/>
      </g>
     </g>
     <g id="text_2">
      <!-- 180 -->
      <defs>
       <path d="M 31.78125 34.625 
Q 24.75 34.625 20.71875 30.859375 
Q 16.703125 27.09375 16.703125 20.515625 
Q 16.703125 13.921875 20.71875 10.15625 
Q 24.75 6.390625 31.78125 6.390625 
Q 38.8125 6.390625 42.859375 10.171875 
Q 46.921875 13.96875 46.921875 20.515625 
Q 46.921875 27.09375 42.890625 30.859375 
Q 38.875 34.625 31.78125 34.625 
z
M 21.921875 38.8125 
Q 15.578125 40.375 12.03125 44.71875 
Q 8.5 49.078125 8.5 55.328125 
Q 8.5 64.0625 14.71875 69.140625 
Q 20.953125 74.21875 31.78125 74.21875 
Q 42.671875 74.21875 48.875 69.140625 
Q 55.078125 64.0625 55.078125 55.328125 
Q 55.078125 49.078125 51.53125 44.71875 
Q 48 40.375 41.703125 38.8125 
Q 48.828125 37.15625 52.796875 32.3125 
Q 56.78125 27.484375 56.78125 20.515625 
Q 56.78125 9.90625 50.3125 4.234375 
Q 43.84375 -1.421875 31.78125 -1.421875 
Q 19.734375 -1.421875 13.25 4.234375 
Q 6.78125 9.90625 6.78125 20.515625 
Q 6.78125 27.484375 10.78125 32.3125 
Q 14.796875 37.15625 21.921875 38.8125 
z
M 18.3125 54.390625 
Q 18.3125 48.734375 21.84375 45.5625 
Q 25.390625 42.390625 31.78125 42.390625 
Q 38.140625 42.390625 41.71875 45.5625 
Q 45.3125 48.734375 45.3125 54.390625 
Q 45.3125 60.0625 41.71875 63.234375 
Q 38.140625 66.40625 31.78125 66.40625 
Q 25.390625 66.40625 21.84375 63.234375 
Q 18.3125 60.0625 18.3125 54.390625 
z
" id="DejaVuSans-56"/>
      </defs>
      <g transform="translate(232.638068 329.598437)scale(0.1 -0.1)">
       <use xlink:href="#DejaVuSans-49"/>
       <use x="63.623047" xlink:href="#DejaVuSans-56"/>
       <use x="127.246094" xlink:href="#DejaVuSans-48"/>
      </g>
     </g>
    </g>
    <g id="xtick_3">
     <g id="line2d_3">
      <g>
       <use style="stroke:#000000;stroke-width:0.8;" x="343.636364" xlink:href="#m1825194056" y="315"/>
      </g>
     </g>
     <g id="text_3">
      <!-- 200 -->
      <defs>
       <path d="M 19.1875 8.296875 
L 53.609375 8.296875 
L 53.609375 0 
L 7.328125 0 
L 7.328125 8.296875 
Q 12.9375 14.109375 22.625 23.890625 
Q 32.328125 33.6875 34.8125 36.53125 
Q 39.546875 41.84375 41.421875 45.53125 
Q 43.3125 49.21875 43.3125 52.78125 
Q 43.3125 58.59375 39.234375 62.25 
Q 35.15625 65.921875 28.609375 65.921875 
Q 23.96875 65.921875 18.8125 64.3125 
Q 13.671875 62.703125 7.8125 59.421875 
L 7.8125 69.390625 
Q 13.765625 71.78125 18.9375 73 
Q 24.125 74.21875 28.421875 74.21875 
Q 39.75 74.21875 46.484375 68.546875 
Q 53.21875 62.890625 53.21875 53.421875 
Q 53.21875 48.921875 51.53125 44.890625 
Q 49.859375 40.875 45.40625 35.40625 
Q 44.1875 33.984375 37.640625 27.21875 
Q 31.109375 20.453125 19.1875 8.296875 
z
" id="DejaVuSans-50"/>
      </defs>
      <g transform="translate(334.092614 329.598437)scale(0.1 -0.1)">
       <use xlink:href="#DejaVuSans-50"/>
       <use x="63.623047" xlink:href="#DejaVuSans-48"/>
       <use x="127.246094" xlink:href="#DejaVuSans-48"/>
      </g>
     </g>
    </g>
    <g id="xtick_4">
     <g id="line2d_4">
      <g>
       <use style="stroke:#000000;stroke-width:0.8;" x="445.090909" xlink:href="#m1825194056" y="315"/>
      </g>
     </g>
     <g id="text_4">
      <!-- 220 -->
      <g transform="translate(435.547159 329.598437)scale(0.1 -0.1)">
       <use xlink:href="#DejaVuSans-50"/>
       <use x="63.623047" xlink:href="#DejaVuSans-50"/>
       <use x="127.246094" xlink:href="#DejaVuSans-48"/>
      </g>
     </g>
    </g>
    <g id="xtick_5">
     <g id="line2d_5">
      <g>
       <use style="stroke:#000000;stroke-width:0.8;" x="546.545455" xlink:href="#m1825194056" y="315"/>
      </g>
     </g>
     <g id="text_5">
      <!-- 240 -->
      <defs>
       <path d="M 37.796875 64.3125 
L 12.890625 25.390625 
L 37.796875 25.390625 
z
M 35.203125 72.90625 
L 47.609375 72.90625 
L 47.609375 25.390625 
L 58.015625 25.390625 
L 58.015625 17.1875 
L 47.609375 17.1875 
L 47.609375 0 
L 37.796875 0 
L 37.796875 17.1875 
L 4.890625 17.1875 
L 4.890625 26.703125 
z
" id="DejaVuSans-52"/>
      </defs>
      <g transform="translate(537.001705 329.598437)scale(0.1 -0.1)">
       <use xlink:href="#DejaVuSans-50"/>
       <use x="63.623047" xlink:href="#DejaVuSans-52"/>
       <use x="127.246094" xlink:href="#DejaVuSans-48"/>
      </g>
     </g>
    </g>
    <g id="xtick_6">
     <g id="line2d_6">
      <g>
       <use style="stroke:#000000;stroke-width:0.8;" x="648" xlink:href="#m1825194056" y="315"/>
      </g>
     </g>
     <g id="text_6">
      <!-- 260 -->
      <g transform="translate(638.45625 329.598437)scale(0.1 -0.1)">
       <use xlink:href="#DejaVuSans-50"/>
       <use x="63.623047" xlink:href="#DejaVuSans-54"/>
       <use x="127.246094" xlink:href="#DejaVuSans-48"/>
      </g>
     </g>
    </g>
    <g id="text_7">
     <!-- Day of year -->
     <defs>
      <path d="M 19.671875 64.796875 
L 19.671875 8.109375 
L 31.59375 8.109375 
Q 46.6875 8.109375 53.6875 14.9375 
Q 60.6875 21.78125 60.6875 36.53125 
Q 60.6875 51.171875 53.6875 57.984375 
Q 46.6875 64.796875 31.59375 64.796875 
z
M 9.8125 72.90625 
L 30.078125 72.90625 
Q 51.265625 72.90625 61.171875 64.09375 
Q 71.09375 55.28125 71.09375 36.53125 
Q 71.09375 17.671875 61.125 8.828125 
Q 51.171875 0 30.078125 0 
L 9.8125 0 
z
" id="DejaVuSans-68"/>
      <path d="M 34.28125 27.484375 
Q 23.390625 27.484375 19.1875 25 
Q 14.984375 22.515625 14.984375 16.5 
Q 14.984375 11.71875 18.140625 8.90625 
Q 21.296875 6.109375 26.703125 6.109375 
Q 34.1875 6.109375 38.703125 11.40625 
Q 43.21875 16.703125 43.21875 25.484375 
L 43.21875 27.484375 
z
M 52.203125 31.203125 
L 52.203125 0 
L 43.21875 0 
L 43.21875 8.296875 
Q 40.140625 3.328125 35.546875 0.953125 
Q 30.953125 -1.421875 24.3125 -1.421875 
Q 15.921875 -1.421875 10.953125 3.296875 
Q 6 8.015625 6 15.921875 
Q 6 25.140625 12.171875 29.828125 
Q 18.359375 34.515625 30.609375 34.515625 
L 43.21875 34.515625 
L 43.21875 35.40625 
Q 43.21875 41.609375 39.140625 45 
Q 35.0625 48.390625 27.6875 48.390625 
Q 23 48.390625 18.546875 47.265625 
Q 14.109375 46.140625 10.015625 43.890625 
L 10.015625 52.203125 
Q 14.9375 54.109375 19.578125 55.046875 
Q 24.21875 56 28.609375 56 
Q 40.484375 56 46.34375 49.84375 
Q 52.203125 43.703125 52.203125 31.203125 
z
" id="DejaVuSans-97"/>
      <path d="M 32.171875 -5.078125 
Q 28.375 -14.84375 24.75 -17.8125 
Q 21.140625 -20.796875 15.09375 -20.796875 
L 7.90625 -20.796875 
L 7.90625 -13.28125 
L 13.1875 -13.28125 
Q 16.890625 -13.28125 18.9375 -11.515625 
Q 21 -9.765625 23.484375 -3.21875 
L 25.09375 0.875 
L 2.984375 54.6875 
L 12.5 54.6875 
L 29.59375 11.921875 
L 46.6875 54.6875 
L 56.203125 54.6875 
z
" id="DejaVuSans-121"/>
      <path id="DejaVuSans-32"/>
      <path d="M 30.609375 48.390625 
Q 23.390625 48.390625 19.1875 42.75 
Q 14.984375 37.109375 14.984375 27.296875 
Q 14.984375 17.484375 19.15625 11.84375 
Q 23.34375 6.203125 30.609375 6.203125 
Q 37.796875 6.203125 41.984375 11.859375 
Q 46.1875 17.53125 46.1875 27.296875 
Q 46.1875 37.015625 41.984375 42.703125 
Q 37.796875 48.390625 30.609375 48.390625 
z
M 30.609375 56 
Q 42.328125 56 49.015625 48.375 
Q 55.71875 40.765625 55.71875 27.296875 
Q 55.71875 13.875 49.015625 6.21875 
Q 42.328125 -1.421875 30.609375 -1.421875 
Q 18.84375 -1.421875 12.171875 6.21875 
Q 5.515625 13.875 5.515625 27.296875 
Q 5.515625 40.765625 12.171875 48.375 
Q 18.84375 56 30.609375 56 
z
" id="DejaVuSans-111"/>
      <path d="M 37.109375 75.984375 
L 37.109375 68.5 
L 28.515625 68.5 
Q 23.6875 68.5 21.796875 66.546875 
Q 19.921875 64.59375 19.921875 59.515625 
L 19.921875 54.6875 
L 34.71875 54.6875 
L 34.71875 47.703125 
L 19.921875 47.703125 
L 19.921875 0 
L 10.890625 0 
L 10.890625 47.703125 
L 2.296875 47.703125 
L 2.296875 54.6875 
L 10.890625 54.6875 
L 10.890625 58.5 
Q 10.890625 67.625 15.140625 71.796875 
Q 19.390625 75.984375 28.609375 75.984375 
z
" id="DejaVuSans-102"/>
      <path d="M 56.203125 29.59375 
L 56.203125 25.203125 
L 14.890625 25.203125 
Q 15.484375 15.921875 20.484375 11.0625 
Q 25.484375 6.203125 34.421875 6.203125 
Q 39.59375 6.203125 44.453125 7.46875 
Q 49.3125 8.734375 54.109375 11.28125 
L 54.109375 2.78125 
Q 49.265625 0.734375 44.1875 -0.34375 
Q 39.109375 -1.421875 33.890625 -1.421875 
Q 20.796875 -1.421875 13.15625 6.1875 
Q 5.515625 13.8125 5.515625 26.8125 
Q 5.515625 40.234375 12.765625 48.109375 
Q 20.015625 56 32.328125 56 
Q 43.359375 56 49.78125 48.890625 
Q 56.203125 41.796875 56.203125 29.59375 
z
M 47.21875 32.234375 
Q 47.125 39.59375 43.09375 43.984375 
Q 39.0625 48.390625 32.421875 48.390625 
Q 24.90625 48.390625 20.390625 44.140625 
Q 15.875 39.890625 15.1875 32.171875 
z
" id="DejaVuSans-101"/>
      <path d="M 41.109375 46.296875 
Q 39.59375 47.171875 37.8125 47.578125 
Q 36.03125 48 33.890625 48 
Q 26.265625 48 22.1875 43.046875 
Q 18.109375 38.09375 18.109375 28.8125 
L 18.109375 0 
L 9.078125 0 
L 9.078125 54.6875 
L 18.109375 54.6875 
L 18.109375 46.1875 
Q 20.953125 51.171875 25.484375 53.578125 
Q 30.03125 56 36.53125 56 
Q 37.453125 56 38.578125 55.875 
Q 39.703125 55.765625 41.0625 55.515625 
z
" id="DejaVuSans-114"/>
     </defs>
     <g transform="translate(328.362813 346.315938)scale(0.14 -0.14)">
      <use xlink:href="#DejaVuSans-68"/>
      <use x="77.001953" xlink:href="#DejaVuSans-97"/>
      <use x="138.28125" xlink:href="#DejaVuSans-121"/>
      <use x="197.460938" xlink:href="#DejaVuSans-32"/>
      <use x="229.248047" xlink:href="#DejaVuSans-111"/>
      <use x="290.429688" xlink:href="#DejaVuSans-102"/>
      <use x="325.634766" xlink:href="#DejaVuSans-32"/>
      <use x="357.421875" xlink:href="#DejaVuSans-121"/>
      <use x="416.601562" xlink:href="#DejaVuSans-101"/>
      <use x="478.125" xlink:href="#DejaVuSans-97"/>
      <use x="539.404297" xlink:href="#DejaVuSans-114"/>
     </g>
    </g>
   </g>
   <g id="matplotlib.axis_2">
    <g id="ytick_1">
     <g id="line2d_7">
      <defs>
       <path d="M 0 0 
L -3.5 0 
" id="m5d0dec3e6c" style="stroke:#000000;stroke-width:0.8;"/>
      </defs>
      <g>
       <use style="stroke:#000000;stroke-width:0.8;" x="90" xlink:href="#m5d0dec3e6c" y="315"/>
      </g>
     </g>
     <g id="text_8">
      <!-- 0.0 -->
      <defs>
       <path d="M 10.6875 12.40625 
L 21 12.40625 
L 21 0 
L 10.6875 0 
z
" id="DejaVuSans-46"/>
      </defs>
      <g transform="translate(67.096875 318.799219)scale(0.1 -0.1)">
       <use xlink:href="#DejaVuSans-48"/>
       <use x="63.623047" xlink:href="#DejaVuSans-46"/>
       <use x="95.410156" xlink:href="#DejaVuSans-48"/>
      </g>
     </g>
    </g>
    <g id="ytick_2">
     <g id="line2d_8">
      <g>
       <use style="stroke:#000000;stroke-width:0.8;" x="90" xlink:href="#m5d0dec3e6c" y="260.64"/>
      </g>
     </g>
     <g id="text_9">
      <!-- 0.4 -->
      <g transform="translate(67.096875 264.439219)scale(0.1 -0.1)">
       <use xlink:href="#DejaVuSans-48"/>
       <use x="63.623047" xlink:href="#DejaVuSans-46"/>
       <use x="95.410156" xlink:href="#DejaVuSans-52"/>
      </g>
     </g>
    </g>
    <g id="ytick_3">
     <g id="line2d_9">
      <g>
       <use style="stroke:#000000;stroke-width:0.8;" x="90" xlink:href="#m5d0dec3e6c" y="206.28"/>
      </g>
     </g>
     <g id="text_10">
      <!-- 0.8 -->
      <g transform="translate(67.096875 210.079219)scale(0.1 -0.1)">
       <use xlink:href="#DejaVuSans-48"/>
       <use x="63.623047" xlink:href="#DejaVuSans-46"/>
       <use x="95.410156" xlink:href="#DejaVuSans-56"/>
      </g>
     </g>
    </g>
    <g id="ytick_4">
     <g id="line2d_10">
      <g>
       <use style="stroke:#000000;stroke-width:0.8;" x="90" xlink:href="#m5d0dec3e6c" y="151.92"/>
      </g>
     </g>
     <g id="text_11">
      <!-- 1.2 -->
      <g transform="translate(67.096875 155.719219)scale(0.1 -0.1)">
       <use xlink:href="#DejaVuSans-49"/>
       <use x="63.623047" xlink:href="#DejaVuSans-46"/>
       <use x="95.410156" xlink:href="#DejaVuSans-50"/>
      </g>
     </g>
    </g>
    <g id="text_12">
     <!-- Egg fitness                          -->
     <defs>
      <path d="M 9.8125 72.90625 
L 55.90625 72.90625 
L 55.90625 64.59375 
L 19.671875 64.59375 
L 19.671875 43.015625 
L 54.390625 43.015625 
L 54.390625 34.71875 
L 19.671875 34.71875 
L 19.671875 8.296875 
L 56.78125 8.296875 
L 56.78125 0 
L 9.8125 0 
z
" id="DejaVuSans-69"/>
      <path d="M 45.40625 27.984375 
Q 45.40625 37.75 41.375 43.109375 
Q 37.359375 48.484375 30.078125 48.484375 
Q 22.859375 48.484375 18.828125 43.109375 
Q 14.796875 37.75 14.796875 27.984375 
Q 14.796875 18.265625 18.828125 12.890625 
Q 22.859375 7.515625 30.078125 7.515625 
Q 37.359375 7.515625 41.375 12.890625 
Q 45.40625 18.265625 45.40625 27.984375 
z
M 54.390625 6.78125 
Q 54.390625 -7.171875 48.1875 -13.984375 
Q 42 -20.796875 29.203125 -20.796875 
Q 24.46875 -20.796875 20.265625 -20.09375 
Q 16.0625 -19.390625 12.109375 -17.921875 
L 12.109375 -9.1875 
Q 16.0625 -11.328125 19.921875 -12.34375 
Q 23.78125 -13.375 27.78125 -13.375 
Q 36.625 -13.375 41.015625 -8.765625 
Q 45.40625 -4.15625 45.40625 5.171875 
L 45.40625 9.625 
Q 42.625 4.78125 38.28125 2.390625 
Q 33.9375 0 27.875 0 
Q 17.828125 0 11.671875 7.65625 
Q 5.515625 15.328125 5.515625 27.984375 
Q 5.515625 40.671875 11.671875 48.328125 
Q 17.828125 56 27.875 56 
Q 33.9375 56 38.28125 53.609375 
Q 42.625 51.21875 45.40625 46.390625 
L 45.40625 54.6875 
L 54.390625 54.6875 
z
" id="DejaVuSans-103"/>
      <path d="M 9.421875 54.6875 
L 18.40625 54.6875 
L 18.40625 0 
L 9.421875 0 
z
M 9.421875 75.984375 
L 18.40625 75.984375 
L 18.40625 64.59375 
L 9.421875 64.59375 
z
" id="DejaVuSans-105"/>
      <path d="M 18.3125 70.21875 
L 18.3125 54.6875 
L 36.8125 54.6875 
L 36.8125 47.703125 
L 18.3125 47.703125 
L 18.3125 18.015625 
Q 18.3125 11.328125 20.140625 9.421875 
Q 21.96875 7.515625 27.59375 7.515625 
L 36.8125 7.515625 
L 36.8125 0 
L 27.59375 0 
Q 17.1875 0 13.234375 3.875 
Q 9.28125 7.765625 9.28125 18.015625 
L 9.28125 47.703125 
L 2.6875 47.703125 
L 2.6875 54.6875 
L 9.28125 54.6875 
L 9.28125 70.21875 
z
" id="DejaVuSans-116"/>
      <path d="M 54.890625 33.015625 
L 54.890625 0 
L 45.90625 0 
L 45.90625 32.71875 
Q 45.90625 40.484375 42.875 44.328125 
Q 39.84375 48.1875 33.796875 48.1875 
Q 26.515625 48.1875 22.3125 43.546875 
Q 18.109375 38.921875 18.109375 30.90625 
L 18.109375 0 
L 9.078125 0 
L 9.078125 54.6875 
L 18.109375 54.6875 
L 18.109375 46.1875 
Q 21.34375 51.125 25.703125 53.5625 
Q 30.078125 56 35.796875 56 
Q 45.21875 56 50.046875 50.171875 
Q 54.890625 44.34375 54.890625 33.015625 
z
" id="DejaVuSans-110"/>
      <path d="M 44.28125 53.078125 
L 44.28125 44.578125 
Q 40.484375 46.53125 36.375 47.5 
Q 32.28125 48.484375 27.875 48.484375 
Q 21.1875 48.484375 17.84375 46.4375 
Q 14.5 44.390625 14.5 40.28125 
Q 14.5 37.15625 16.890625 35.375 
Q 19.28125 33.59375 26.515625 31.984375 
L 29.59375 31.296875 
Q 39.15625 29.25 43.1875 25.515625 
Q 47.21875 21.78125 47.21875 15.09375 
Q 47.21875 7.46875 41.1875 3.015625 
Q 35.15625 -1.421875 24.609375 -1.421875 
Q 20.21875 -1.421875 15.453125 -0.5625 
Q 10.6875 0.296875 5.421875 2 
L 5.421875 11.28125 
Q 10.40625 8.6875 15.234375 7.390625 
Q 20.0625 6.109375 24.8125 6.109375 
Q 31.15625 6.109375 34.5625 8.28125 
Q 37.984375 10.453125 37.984375 14.40625 
Q 37.984375 18.0625 35.515625 20.015625 
Q 33.0625 21.96875 24.703125 23.78125 
L 21.578125 24.515625 
Q 13.234375 26.265625 9.515625 29.90625 
Q 5.8125 33.546875 5.8125 39.890625 
Q 5.8125 47.609375 11.28125 51.796875 
Q 16.75 56 26.8125 56 
Q 31.78125 56 36.171875 55.265625 
Q 40.578125 54.546875 44.28125 53.078125 
z
" id="DejaVuSans-115"/>
     </defs>
     <g transform="translate(60.185312 273.4425)rotate(-90)scale(0.14 -0.14)">
      <use xlink:href="#DejaVuSans-69"/>
      <use x="63.183594" xlink:href="#DejaVuSans-103"/>
      <use x="126.660156" xlink:href="#DejaVuSans-103"/>
      <use x="190.136719" xlink:href="#DejaVuSans-32"/>
      <use x="221.923828" xlink:href="#DejaVuSans-102"/>
      <use x="257.128906" xlink:href="#DejaVuSans-105"/>
      <use x="284.912109" xlink:href="#DejaVuSans-116"/>
      <use x="324.121094" xlink:href="#DejaVuSans-110"/>
      <use x="387.5" xlink:href="#DejaVuSans-101"/>
      <use x="449.023438" xlink:href="#DejaVuSans-115"/>
      <use x="501.123047" xlink:href="#DejaVuSans-115"/>
      <use x="553.222656" xlink:href="#DejaVuSans-32"/>
      <use x="585.009766" xlink:href="#DejaVuSans-32"/>
      <use x="616.796875" xlink:href="#DejaVuSans-32"/>
      <use x="648.583984" xlink:href="#DejaVuSans-32"/>
      <use x="680.371094" xlink:href="#DejaVuSans-32"/>
      <use x="712.158203" xlink:href="#DejaVuSans-32"/>
      <use x="743.945312" xlink:href="#DejaVuSans-32"/>
      <use x="775.732422" xlink:href="#DejaVuSans-32"/>
      <use x="807.519531" xlink:href="#DejaVuSans-32"/>
      <use x="839.306641" xlink:href="#DejaVuSans-32"/>
      <use x="871.09375" xlink:href="#DejaVuSans-32"/>
      <use x="902.880859" xlink:href="#DejaVuSans-32"/>
      <use x="934.667969" xlink:href="#DejaVuSans-32"/>
      <use x="966.455078" xlink:href="#DejaVuSans-32"/>
      <use x="998.242188" xlink:href="#DejaVuSans-32"/>
      <use x="1030.029297" xlink:href="#DejaVuSans-32"/>
      <use x="1061.816406" xlink:href="#DejaVuSans-32"/>
      <use x="1093.603516" xlink:href="#DejaVuSans-32"/>
      <use x="1125.390625" xlink:href="#DejaVuSans-32"/>
      <use x="1157.177734" xlink:href="#DejaVuSans-32"/>
      <use x="1188.964844" xlink:href="#DejaVuSans-32"/>
      <use x="1220.751953" xlink:href="#DejaVuSans-32"/>
      <use x="1252.539062" xlink:href="#DejaVuSans-32"/>
      <use x="1284.326172" xlink:href="#DejaVuSans-32"/>
      <use x="1316.113281" xlink:href="#DejaVuSans-32"/>
     </g>
    </g>
    <g id="text_13">
     <!-- 1e−5 -->
     <defs>
      <path d="M 10.59375 35.5 
L 73.1875 35.5 
L 73.1875 27.203125 
L 10.59375 27.203125 
z
" id="DejaVuSans-8722"/>
      <path d="M 10.796875 72.90625 
L 49.515625 72.90625 
L 49.515625 64.59375 
L 19.828125 64.59375 
L 19.828125 46.734375 
Q 21.96875 47.46875 24.109375 47.828125 
Q 26.265625 48.1875 28.421875 48.1875 
Q 40.625 48.1875 47.75 41.5 
Q 54.890625 34.8125 54.890625 23.390625 
Q 54.890625 11.625 47.5625 5.09375 
Q 40.234375 -1.421875 26.90625 -1.421875 
Q 22.3125 -1.421875 17.546875 -0.640625 
Q 12.796875 0.140625 7.71875 1.703125 
L 7.71875 11.625 
Q 12.109375 9.234375 16.796875 8.0625 
Q 21.484375 6.890625 26.703125 6.890625 
Q 35.15625 6.890625 40.078125 11.328125 
Q 45.015625 15.765625 45.015625 23.390625 
Q 45.015625 31 40.078125 35.4375 
Q 35.15625 39.890625 26.703125 39.890625 
Q 22.75 39.890625 18.8125 39.015625 
Q 14.890625 38.140625 10.796875 36.28125 
z
" id="DejaVuSans-53"/>
     </defs>
     <g transform="translate(90 40.2)scale(0.1 -0.1)">
      <use xlink:href="#DejaVuSans-49"/>
      <use x="63.623047" xlink:href="#DejaVuSans-101"/>
      <use x="125.146484" xlink:href="#DejaVuSans-8722"/>
      <use x="208.935547" xlink:href="#DejaVuSans-53"/>
     </g>
    </g>
   </g>
   <g id="line2d_11">
    <path clip-path="url(#p092c7dfd17)" d="M -1 315 
L 130.581818 314.903633 
L 145.8 314.650032 
L 161.018182 314.146029 
L 171.163636 313.382658 
L 181.309091 312.137478 
L 191.454545 310.493119 
L 196.527273 310.188633 
L 201.6 309.315786 
L 206.672727 308.029002 
L 211.745455 306.941684 
L 221.890909 303.148635 
L 226.963636 301.636263 
L 232.036364 299.27745 
L 237.109091 296.248097 
L 242.181818 294.295998 
L 247.254545 291.195873 
L 252.327273 289.001106 
L 257.4 285.503014 
L 262.472727 281.692606 
L 267.545455 278.439842 
L 282.763636 265.731994 
L 287.836364 262.977127 
L 292.909091 259.33982 
L 297.981818 255.874458 
L 303.054545 247.25576 
L 308.127273 243.837176 
L 313.2 242.860992 
L 318.272727 240.467 
L 323.345455 232.219719 
L 328.418182 230.435521 
L 333.490909 228.837752 
L 338.563636 230.728097 
L 343.636364 230.540962 
L 348.709091 224.261743 
L 353.781818 228.176528 
L 358.854545 229.53025 
L 363.927273 231.240149 
L 369 236.359847 
L 374.072727 239.155011 
L 379.145455 240.506118 
L 384.218182 244.963626 
L 389.290909 251.833004 
L 394.363636 258.089923 
L 399.436364 261.900975 
L 404.509091 267.565857 
L 409.581818 272.721947 
L 414.654545 277.403338 
L 419.727273 278.90822 
L 424.8 283.18193 
L 429.872727 286.91639 
L 434.945455 290.341028 
L 440.018182 293.466252 
L 445.090909 297.0967 
L 450.163636 300.172058 
L 465.381818 308.117742 
L 470.454545 315 
L 721 315 
L 721 315 
" style="fill:none;stroke:#9467bd;stroke-linecap:square;stroke-width:1.5;"/>
   </g>
   <g id="line2d_12">
    <path clip-path="url(#p092c7dfd17)" d="M -1 315 
L 125.509091 314.903578 
L 135.654545 314.697272 
L 150.872727 314.068082 
L 161.018182 313.358125 
L 171.163636 311.515838 
L 181.309091 308.790116 
L 186.381818 308.565445 
L 191.454545 307.130469 
L 196.527273 304.477362 
L 206.672727 298.647855 
L 211.745455 294.284072 
L 216.818182 290.532447 
L 221.890909 283.650807 
L 226.963636 275.642043 
L 232.036364 269.947352 
L 237.109091 268.183612 
L 242.181818 258.091252 
L 247.254545 249.454981 
L 252.327273 239.944604 
L 257.4 227.22129 
L 262.472727 221.475967 
L 267.545455 217.462374 
L 277.690909 207.785981 
L 282.763636 192.693439 
L 287.836364 191.240661 
L 292.909091 193.86071 
L 297.981818 193.818125 
L 303.054545 183.023886 
L 308.127273 184.303814 
L 313.2 189.403778 
L 318.272727 191.524954 
L 323.345455 197.113917 
L 328.418182 202.113687 
L 333.490909 211.76819 
L 338.563636 219.672912 
L 343.636364 223.747343 
L 348.709091 233.832203 
L 353.781818 240.686672 
L 358.854545 249.418987 
L 363.927273 250.065277 
L 369 256.788741 
L 374.072727 264.563469 
L 379.145455 268.479532 
L 384.218182 275.227552 
L 389.290909 282.592131 
L 394.363636 287.509106 
L 399.436364 291.427547 
L 404.509091 292.220605 
L 409.581818 295.779546 
L 414.654545 297.977436 
L 419.727273 300.396884 
L 424.8 302.364266 
L 429.872727 303.454983 
L 434.945455 304.852017 
L 440.018182 304.778056 
L 445.090909 305.972831 
L 450.163636 306.700622 
L 455.236364 307.674911 
L 460.309091 308.512242 
L 470.454545 309.967667 
L 475.527273 310.384975 
L 480.6 310.918431 
L 490.745455 310.868974 
L 495.818182 311.359034 
L 500.890909 312.883888 
L 505.963636 313.194752 
L 511.036364 315 
L 721 315 
L 721 315 
" style="fill:none;stroke:#ff0000;stroke-dasharray:5.55,2.4;stroke-dashoffset:0;stroke-width:1.5;"/>
   </g>
   <g id="line2d_13">
    <path clip-path="url(#p092c7dfd17)" d="M -1 315 
L 176.236364 314.894708 
L 191.454545 314.593259 
L 196.527273 314.381049 
L 206.672727 313.685738 
L 216.818182 312.581356 
L 226.963636 311.817524 
L 232.036364 310.959159 
L 237.109091 310.388132 
L 242.181818 309.264482 
L 247.254545 308.339405 
L 252.327273 307.767464 
L 262.472727 307.015848 
L 272.618182 304.862227 
L 287.836364 302.755612 
L 292.909091 302.515332 
L 297.981818 301.70527 
L 303.054545 300.745846 
L 308.127273 299.238803 
L 313.2 298.627487 
L 318.272727 297.584849 
L 323.345455 296.381131 
L 328.418182 295.689579 
L 338.563636 292.865606 
L 343.636364 291.155903 
L 348.709091 288.943823 
L 358.854545 287.087951 
L 369 283.019631 
L 374.072727 281.429998 
L 384.218182 279.05936 
L 389.290909 276.008489 
L 394.363636 276.314572 
L 399.436364 279.316785 
L 404.509091 280.329573 
L 409.581818 278.838635 
L 414.654545 278.247839 
L 424.8 284.219863 
L 429.872727 287.460127 
L 434.945455 289.395764 
L 440.018182 289.937934 
L 445.090909 292.546218 
L 455.236364 296.652526 
L 460.309091 298.775002 
L 465.381818 300.666725 
L 470.454545 301.030449 
L 480.6 303.864201 
L 490.745455 307.285742 
L 495.818182 309.833636 
L 500.890909 311.188024 
L 505.963636 312.059848 
L 511.036364 315 
L 721 315 
L 721 315 
" style="fill:none;stroke:#0000ff;stroke-dasharray:5.55,2.4;stroke-dashoffset:0;stroke-width:1.5;"/>
   </g>
   <g id="patch_3">
    <path d="M 90 315 
L 90 43.2 
" style="fill:none;stroke:#000000;stroke-linecap:square;stroke-linejoin:miter;stroke-width:0.8;"/>
   </g>
   <g id="patch_4">
    <path d="M 648 315 
L 648 43.2 
" style="fill:none;stroke:#000000;stroke-linecap:square;stroke-linejoin:miter;stroke-width:0.8;"/>
   </g>
   <g id="patch_5">
    <path d="M 90 315 
L 648 315 
" style="fill:none;stroke:#000000;stroke-linecap:square;stroke-linejoin:miter;stroke-width:0.8;"/>
   </g>
   <g id="patch_6">
    <path d="M 90 43.2 
L 648 43.2 
" style="fill:none;stroke:#000000;stroke-linecap:square;stroke-linejoin:miter;stroke-width:0.8;"/>
   </g>
  </g>
  <g id="axes_2">
   <g id="matplotlib.axis_3">
    <g id="ytick_5">
     <g id="line2d_14">
      <defs>
       <path d="M 0 0 
L 3.5 0 
" id="m3c364b676b" style="stroke:#000000;stroke-width:0.8;"/>
      </defs>
      <g>
       <use style="stroke:#000000;stroke-width:0.8;" x="648" xlink:href="#m3c364b676b" y="189.553846"/>
      </g>
     </g>
     <g id="text_14">
      <!-- 22 -->
      <g transform="translate(655 193.353065)scale(0.1 -0.1)">
       <use xlink:href="#DejaVuSans-50"/>
       <use x="63.623047" xlink:href="#DejaVuSans-50"/>
      </g>
     </g>
    </g>
    <g id="ytick_6">
     <g id="line2d_15">
      <g>
       <use style="stroke:#000000;stroke-width:0.8;" x="648" xlink:href="#m3c364b676b" y="147.738462"/>
      </g>
     </g>
     <g id="text_15">
      <!-- 24 -->
      <g transform="translate(655 151.53768)scale(0.1 -0.1)">
       <use xlink:href="#DejaVuSans-50"/>
       <use x="63.623047" xlink:href="#DejaVuSans-52"/>
      </g>
     </g>
    </g>
    <g id="ytick_7">
     <g id="line2d_16">
      <g>
       <use style="stroke:#000000;stroke-width:0.8;" x="648" xlink:href="#m3c364b676b" y="105.923077"/>
      </g>
     </g>
     <g id="text_16">
      <!-- 26 -->
      <g transform="translate(655 109.722296)scale(0.1 -0.1)">
       <use xlink:href="#DejaVuSans-50"/>
       <use x="63.623047" xlink:href="#DejaVuSans-54"/>
      </g>
     </g>
    </g>
    <g id="ytick_8">
     <g id="line2d_17">
      <g>
       <use style="stroke:#000000;stroke-width:0.8;" x="648" xlink:href="#m3c364b676b" y="64.107692"/>
      </g>
     </g>
     <g id="text_17">
      <!-- 28 -->
      <g transform="translate(655 67.906911)scale(0.1 -0.1)">
       <use xlink:href="#DejaVuSans-50"/>
       <use x="63.623047" xlink:href="#DejaVuSans-56"/>
      </g>
     </g>
    </g>
    <g id="text_18">
     <!--                  Temperature -->
     <defs>
      <path d="M -0.296875 72.90625 
L 61.375 72.90625 
L 61.375 64.59375 
L 35.5 64.59375 
L 35.5 0 
L 25.59375 0 
L 25.59375 64.59375 
L -0.296875 64.59375 
z
" id="DejaVuSans-84"/>
      <path d="M 52 44.1875 
Q 55.375 50.25 60.0625 53.125 
Q 64.75 56 71.09375 56 
Q 79.640625 56 84.28125 50.015625 
Q 88.921875 44.046875 88.921875 33.015625 
L 88.921875 0 
L 79.890625 0 
L 79.890625 32.71875 
Q 79.890625 40.578125 77.09375 44.375 
Q 74.3125 48.1875 68.609375 48.1875 
Q 61.625 48.1875 57.5625 43.546875 
Q 53.515625 38.921875 53.515625 30.90625 
L 53.515625 0 
L 44.484375 0 
L 44.484375 32.71875 
Q 44.484375 40.625 41.703125 44.40625 
Q 38.921875 48.1875 33.109375 48.1875 
Q 26.21875 48.1875 22.15625 43.53125 
Q 18.109375 38.875 18.109375 30.90625 
L 18.109375 0 
L 9.078125 0 
L 9.078125 54.6875 
L 18.109375 54.6875 
L 18.109375 46.1875 
Q 21.1875 51.21875 25.484375 53.609375 
Q 29.78125 56 35.6875 56 
Q 41.65625 56 45.828125 52.96875 
Q 50 49.953125 52 44.1875 
z
" id="DejaVuSans-109"/>
      <path d="M 18.109375 8.203125 
L 18.109375 -20.796875 
L 9.078125 -20.796875 
L 9.078125 54.6875 
L 18.109375 54.6875 
L 18.109375 46.390625 
Q 20.953125 51.265625 25.265625 53.625 
Q 29.59375 56 35.59375 56 
Q 45.5625 56 51.78125 48.09375 
Q 58.015625 40.1875 58.015625 27.296875 
Q 58.015625 14.40625 51.78125 6.484375 
Q 45.5625 -1.421875 35.59375 -1.421875 
Q 29.59375 -1.421875 25.265625 0.953125 
Q 20.953125 3.328125 18.109375 8.203125 
z
M 48.6875 27.296875 
Q 48.6875 37.203125 44.609375 42.84375 
Q 40.53125 48.484375 33.40625 48.484375 
Q 26.265625 48.484375 22.1875 42.84375 
Q 18.109375 37.203125 18.109375 27.296875 
Q 18.109375 17.390625 22.1875 11.75 
Q 26.265625 6.109375 33.40625 6.109375 
Q 40.53125 6.109375 44.609375 11.75 
Q 48.6875 17.390625 48.6875 27.296875 
z
" id="DejaVuSans-112"/>
      <path d="M 8.5 21.578125 
L 8.5 54.6875 
L 17.484375 54.6875 
L 17.484375 21.921875 
Q 17.484375 14.15625 20.5 10.265625 
Q 23.53125 6.390625 29.59375 6.390625 
Q 36.859375 6.390625 41.078125 11.03125 
Q 45.3125 15.671875 45.3125 23.6875 
L 45.3125 54.6875 
L 54.296875 54.6875 
L 54.296875 0 
L 45.3125 0 
L 45.3125 8.40625 
Q 42.046875 3.421875 37.71875 1 
Q 33.40625 -1.421875 27.6875 -1.421875 
Q 18.265625 -1.421875 13.375 4.4375 
Q 8.5 10.296875 8.5 21.578125 
z
M 31.109375 56 
z
" id="DejaVuSans-117"/>
     </defs>
     <g transform="translate(682.362813 262.58375)rotate(-90)scale(0.14 -0.14)">
      <use xlink:href="#DejaVuSans-32"/>
      <use x="31.787109" xlink:href="#DejaVuSans-32"/>
      <use x="63.574219" xlink:href="#DejaVuSans-32"/>
      <use x="95.361328" xlink:href="#DejaVuSans-32"/>
      <use x="127.148438" xlink:href="#DejaVuSans-32"/>
      <use x="158.935547" xlink:href="#DejaVuSans-32"/>
      <use x="190.722656" xlink:href="#DejaVuSans-32"/>
      <use x="222.509766" xlink:href="#DejaVuSans-32"/>
      <use x="254.296875" xlink:href="#DejaVuSans-32"/>
      <use x="286.083984" xlink:href="#DejaVuSans-32"/>
      <use x="317.871094" xlink:href="#DejaVuSans-32"/>
      <use x="349.658203" xlink:href="#DejaVuSans-32"/>
      <use x="381.445312" xlink:href="#DejaVuSans-32"/>
      <use x="413.232422" xlink:href="#DejaVuSans-32"/>
      <use x="445.019531" xlink:href="#DejaVuSans-32"/>
      <use x="476.806641" xlink:href="#DejaVuSans-32"/>
      <use x="508.59375" xlink:href="#DejaVuSans-32"/>
      <use x="540.380859" xlink:href="#DejaVuSans-84"/>
      <use x="601.199219" xlink:href="#DejaVuSans-101"/>
      <use x="662.722656" xlink:href="#DejaVuSans-109"/>
      <use x="760.134766" xlink:href="#DejaVuSans-112"/>
      <use x="823.611328" xlink:href="#DejaVuSans-101"/>
      <use x="885.134766" xlink:href="#DejaVuSans-114"/>
      <use x="926.248047" xlink:href="#DejaVuSans-97"/>
      <use x="987.527344" xlink:href="#DejaVuSans-116"/>
      <use x="1026.736328" xlink:href="#DejaVuSans-117"/>
      <use x="1090.115234" xlink:href="#DejaVuSans-114"/>
      <use x="1131.197266" xlink:href="#DejaVuSans-101"/>
     </g>
    </g>
   </g>
   <g id="line2d_18">
    <path clip-path="url(#p092c7dfd17)" d="M -1 280.572345 
L 13.909091 273.880842 
L 29.127273 266.803588 
L 44.345455 259.500531 
L 59.563636 251.99676 
L 79.854545 241.724811 
L 105.218182 228.559237 
L 145.8 207.107945 
L 181.309091 188.416468 
L 201.6 177.964712 
L 221.890909 167.791029 
L 237.109091 160.395978 
L 252.327273 153.243457 
L 267.545455 146.366917 
L 282.763636 139.79772 
L 297.981818 133.569318 
L 308.127273 129.619855 
L 318.272727 125.839745 
L 328.418182 122.23944 
L 338.563636 118.823123 
L 348.709091 115.597066 
L 358.854545 112.567542 
L 369 109.738731 
L 379.145455 107.114815 
L 389.290909 104.697886 
L 399.436364 102.492125 
L 409.581818 100.497531 
L 419.727273 98.718286 
L 429.872727 97.154391 
L 440.018182 95.803754 
L 450.163636 94.668466 
L 460.309091 93.746437 
L 470.454545 93.037666 
L 480.6 92.535882 
L 490.745455 92.243174 
L 500.890909 92.153271 
L 511.036364 92.266172 
L 521.181818 92.573515 
L 531.327273 93.0753 
L 541.472727 93.763163 
L 551.618182 94.637105 
L 561.763636 95.688762 
L 571.909091 96.916043 
L 582.054545 98.310586 
L 592.2 99.8703 
L 602.345455 101.591003 
L 617.563636 104.457448 
L 632.781818 107.658415 
L 648 111.17718 
L 663.218182 114.999106 
L 678.436364 119.11374 
L 693.654545 123.510628 
L 708.872727 128.181406 
L 721 132.095191 
L 721 132.095191 
" style="fill:none;stroke:#9467bd;stroke-linecap:square;stroke-width:1.5;"/>
   </g>
   <g id="line2d_19">
    <path clip-path="url(#p092c7dfd17)" d="M -1 272.826449 
L 3.763636 271.138304 
L 8.836364 268.433177 
L 13.909091 264.312664 
L 18.981818 262.241989 
L 24.054545 259.275636 
L 29.127273 256.891682 
L 34.2 254.140581 
L 39.272727 249.441164 
L 44.345455 249.941859 
L 49.418182 251.21626 
L 54.490909 251.360273 
L 59.563636 250.579027 
L 64.636364 248.727568 
L 69.709091 246.740306 
L 74.781818 245.191409 
L 79.854545 243.369436 
L 90 240.208182 
L 95.072727 238.376891 
L 100.145455 234.71947 
L 105.218182 231.251103 
L 110.290909 228.972697 
L 120.436364 223.269238 
L 125.509091 219.918233 
L 130.581818 215.674536 
L 135.654545 212.040066 
L 140.727273 209.122455 
L 145.8 207.394725 
L 150.872727 205.957338 
L 155.945455 203.762972 
L 161.018182 198.703693 
L 166.090909 192.410579 
L 171.163636 188.947017 
L 176.236364 185.301158 
L 181.309091 182.052475 
L 186.381818 180.629092 
L 191.454545 178.858514 
L 196.527273 176.060335 
L 201.6 173.975843 
L 206.672727 171.668625 
L 211.745455 168.870537 
L 216.818182 165.906484 
L 221.890909 162.37684 
L 226.963636 155.978802 
L 232.036364 153.813445 
L 237.109091 152.8029 
L 242.181818 146.914151 
L 247.254545 138.682327 
L 252.327273 133.926929 
L 257.4 131.751672 
L 267.545455 128.743439 
L 277.690909 125.030394 
L 282.763636 121.879212 
L 292.909091 119.87023 
L 297.981818 118.444698 
L 303.054545 115.880292 
L 313.2 112.660882 
L 318.272727 111.452164 
L 323.345455 109.98333 
L 328.418182 109.730329 
L 333.490909 109.355114 
L 338.563636 108.642844 
L 343.636364 107.127992 
L 348.709091 105.057564 
L 358.854545 102.114945 
L 363.927273 96.72432 
L 369 92.552995 
L 374.072727 90.561143 
L 379.145455 89.464187 
L 384.218182 87.571525 
L 394.363636 85.180517 
L 399.436364 82.518706 
L 404.509091 80.033791 
L 409.581818 78.918649 
L 414.654545 77.663925 
L 419.727273 76.261215 
L 424.8 74.516313 
L 429.872727 72.497845 
L 434.945455 70.922056 
L 440.018182 68.932744 
L 445.090909 67.368885 
L 450.163636 66.479885 
L 455.236364 65.955687 
L 460.309091 65.662956 
L 465.381818 65.108266 
L 470.454545 63.958963 
L 480.6 60.925772 
L 485.672727 59.849039 
L 495.818182 59.120381 
L 500.890909 60.001316 
L 505.963636 60.350433 
L 511.036364 60.036507 
L 516.109091 59.360456 
L 521.181818 60.622775 
L 526.254545 63.224891 
L 531.327273 65.132478 
L 536.4 65.644824 
L 541.472727 66.987992 
L 546.545455 70.941316 
L 551.618182 77.133349 
L 556.690909 81.114664 
L 561.763636 82.569813 
L 566.836364 84.43947 
L 571.909091 87.141435 
L 576.981818 91.332645 
L 582.054545 102.707572 
L 587.127273 107.757871 
L 592.2 108.979891 
L 597.272727 110.537886 
L 602.345455 112.23372 
L 607.418182 116.460179 
L 612.490909 122.195562 
L 617.563636 125.44119 
L 627.709091 127.681795 
L 632.781818 128.46049 
L 637.854545 128.523036 
L 642.927273 128.433171 
L 648 128.147226 
L 653.072727 128.715817 
L 663.218182 131.467789 
L 668.290909 132.166156 
L 673.363636 133.102795 
L 678.436364 133.331561 
L 683.509091 133.676522 
L 688.581818 134.418072 
L 693.654545 134.994106 
L 698.727273 135.410109 
L 703.8 137.120485 
L 708.872727 140.339415 
L 713.945455 147.100626 
L 719.018182 153.087286 
L 721 154.289671 
L 721 154.289671 
" style="fill:none;stroke:#ff0000;stroke-linecap:square;stroke-width:1.5;"/>
   </g>
   <g id="line2d_20">
    <path clip-path="url(#p092c7dfd17)" d="M -1 310.477433 
L 8.836364 305.407106 
L 13.909091 302.163708 
L 18.981818 300.170316 
L 24.054545 298.93914 
L 29.127273 296.789051 
L 34.2 294.245389 
L 39.272727 291.569892 
L 44.345455 290.297745 
L 49.418182 288.850286 
L 59.563636 285.427823 
L 64.636364 283.877845 
L 69.709091 282.705399 
L 74.781818 280.754953 
L 79.854545 278.259146 
L 84.927273 274.422247 
L 90 271.009372 
L 100.145455 266.101157 
L 105.218182 260.129908 
L 110.290909 250.664089 
L 115.363636 245.927085 
L 120.436364 242.624436 
L 125.509091 240.448888 
L 130.581818 238.608042 
L 135.654545 235.118258 
L 140.727273 231.030222 
L 145.8 229.126497 
L 150.872727 227.583441 
L 155.945455 225.530105 
L 161.018182 223.942572 
L 166.090909 223.004691 
L 171.163636 221.378792 
L 176.236364 219.946221 
L 181.309091 216.919179 
L 186.381818 214.898225 
L 191.454545 213.34915 
L 196.527273 209.730708 
L 201.6 204.461083 
L 206.672727 199.691704 
L 211.745455 195.386579 
L 216.818182 192.792184 
L 226.963636 189.88268 
L 232.036364 182.873047 
L 237.109091 175.470427 
L 242.181818 170.160567 
L 247.254545 168.473938 
L 252.327273 168.285533 
L 257.4 167.82456 
L 262.472727 165.257112 
L 272.618182 156.595806 
L 277.690909 155.419497 
L 282.763636 154.54918 
L 287.836364 153.989434 
L 292.909091 152.98776 
L 297.981818 152.166187 
L 308.127273 149.937338 
L 313.2 149.101579 
L 318.272727 148.513254 
L 323.345455 147.81077 
L 328.418182 146.435462 
L 338.563636 144.483515 
L 343.636364 143.154563 
L 353.781818 139.355526 
L 358.854545 137.976899 
L 363.927273 136.01722 
L 369 133.67724 
L 384.218182 126.144966 
L 389.290909 123.320945 
L 394.363636 121.559027 
L 399.436364 120.186605 
L 404.509091 118.401812 
L 409.581818 114.776116 
L 414.654545 110.215098 
L 419.727273 110.18007 
L 424.8 109.968733 
L 429.872727 109.462593 
L 434.945455 108.259353 
L 440.018182 106.41593 
L 445.090909 105.190004 
L 450.163636 102.494308 
L 455.236364 100.830186 
L 465.381818 99.860219 
L 470.454545 98.777948 
L 475.527273 97.818338 
L 480.6 97.00145 
L 485.672727 95.589984 
L 490.745455 97.57704 
L 495.818182 99.722197 
L 500.890909 100.07054 
L 505.963636 100.547235 
L 511.036364 101.922972 
L 516.109091 103.003117 
L 521.181818 103.433954 
L 526.254545 103.687157 
L 531.327273 103.676731 
L 536.4 103.108709 
L 541.472727 100.436496 
L 546.545455 100.758307 
L 551.618182 100.215129 
L 556.690909 101.403335 
L 561.763636 102.80778 
L 566.836364 104.03577 
L 571.909091 106.38253 
L 576.981818 109.576545 
L 582.054545 111.91091 
L 587.127273 113.820795 
L 592.2 115.050354 
L 597.272727 114.987364 
L 602.345455 115.058997 
L 607.418182 114.82504 
L 612.490909 116.872303 
L 617.563636 120.677563 
L 622.636364 123.147318 
L 627.709091 124.40095 
L 632.781818 124.774155 
L 642.927273 125.083111 
L 653.072727 125.715372 
L 658.145455 127.437044 
L 663.218182 134.592884 
L 668.290909 139.410603 
L 673.363636 141.644644 
L 678.436364 142.728262 
L 683.509091 143.980604 
L 688.581818 144.754484 
L 693.654545 145.146897 
L 698.727273 145.383903 
L 703.8 145.812698 
L 708.872727 146.035003 
L 713.945455 145.511924 
L 721 145.704641 
L 721 145.704641 
" style="fill:none;stroke:#0000ff;stroke-linecap:square;stroke-width:1.5;"/>
   </g>
   <g id="patch_7">
    <path d="M 90 315 
L 90 43.2 
" style="fill:none;stroke:#000000;stroke-linecap:square;stroke-linejoin:miter;stroke-width:0.8;"/>
   </g>
   <g id="patch_8">
    <path d="M 648 315 
L 648 43.2 
" style="fill:none;stroke:#000000;stroke-linecap:square;stroke-linejoin:miter;stroke-width:0.8;"/>
   </g>
   <g id="patch_9">
    <path d="M 90 315 
L 648 315 
" style="fill:none;stroke:#000000;stroke-linecap:square;stroke-linejoin:miter;stroke-width:0.8;"/>
   </g>
   <g id="patch_10">
    <path d="M 90 43.2 
L 648 43.2 
" style="fill:none;stroke:#000000;stroke-linecap:square;stroke-linejoin:miter;stroke-width:0.8;"/>
   </g>
   <g id="legend_1">
    <g id="patch_11">
     <path d="M 97 95.234375 
L 170.645312 95.234375 
Q 172.645312 95.234375 172.645312 93.234375 
L 172.645312 50.2 
Q 172.645312 48.2 170.645312 48.2 
L 97 48.2 
Q 95 48.2 95 50.2 
L 95 93.234375 
Q 95 95.234375 97 95.234375 
z
" style="fill:#ffffff;opacity:0.8;stroke:#cccccc;stroke-linejoin:miter;"/>
    </g>
    <g id="line2d_21">
     <path d="M 99 56.298437 
L 119 56.298437 
" style="fill:none;stroke:#9467bd;stroke-linecap:square;stroke-width:1.5;"/>
    </g>
    <g id="line2d_22"/>
    <g id="text_19">
     <!-- Average -->
     <defs>
      <path d="M 34.1875 63.1875 
L 20.796875 26.90625 
L 47.609375 26.90625 
z
M 28.609375 72.90625 
L 39.796875 72.90625 
L 67.578125 0 
L 57.328125 0 
L 50.6875 18.703125 
L 17.828125 18.703125 
L 11.1875 0 
L 0.78125 0 
z
" id="DejaVuSans-65"/>
      <path d="M 2.984375 54.6875 
L 12.5 54.6875 
L 29.59375 8.796875 
L 46.6875 54.6875 
L 56.203125 54.6875 
L 35.6875 0 
L 23.484375 0 
z
" id="DejaVuSans-118"/>
     </defs>
     <g transform="translate(127 59.798437)scale(0.1 -0.1)">
      <use xlink:href="#DejaVuSans-65"/>
      <use x="68.330078" xlink:href="#DejaVuSans-118"/>
      <use x="127.509766" xlink:href="#DejaVuSans-101"/>
      <use x="189.033203" xlink:href="#DejaVuSans-114"/>
      <use x="230.146484" xlink:href="#DejaVuSans-97"/>
      <use x="291.425781" xlink:href="#DejaVuSans-103"/>
      <use x="354.902344" xlink:href="#DejaVuSans-101"/>
     </g>
    </g>
    <g id="line2d_23">
     <path d="M 99 70.976562 
L 119 70.976562 
" style="fill:none;stroke:#ff0000;stroke-linecap:square;stroke-width:1.5;"/>
    </g>
    <g id="line2d_24"/>
    <g id="text_20">
     <!-- 2003 -->
     <defs>
      <path d="M 40.578125 39.3125 
Q 47.65625 37.796875 51.625 33 
Q 55.609375 28.21875 55.609375 21.1875 
Q 55.609375 10.40625 48.1875 4.484375 
Q 40.765625 -1.421875 27.09375 -1.421875 
Q 22.515625 -1.421875 17.65625 -0.515625 
Q 12.796875 0.390625 7.625 2.203125 
L 7.625 11.71875 
Q 11.71875 9.328125 16.59375 8.109375 
Q 21.484375 6.890625 26.8125 6.890625 
Q 36.078125 6.890625 40.9375 10.546875 
Q 45.796875 14.203125 45.796875 21.1875 
Q 45.796875 27.640625 41.28125 31.265625 
Q 36.765625 34.90625 28.71875 34.90625 
L 20.21875 34.90625 
L 20.21875 43.015625 
L 29.109375 43.015625 
Q 36.375 43.015625 40.234375 45.921875 
Q 44.09375 48.828125 44.09375 54.296875 
Q 44.09375 59.90625 40.109375 62.90625 
Q 36.140625 65.921875 28.71875 65.921875 
Q 24.65625 65.921875 20.015625 65.03125 
Q 15.375 64.15625 9.8125 62.3125 
L 9.8125 71.09375 
Q 15.4375 72.65625 20.34375 73.4375 
Q 25.25 74.21875 29.59375 74.21875 
Q 40.828125 74.21875 47.359375 69.109375 
Q 53.90625 64.015625 53.90625 55.328125 
Q 53.90625 49.265625 50.4375 45.09375 
Q 46.96875 40.921875 40.578125 39.3125 
z
" id="DejaVuSans-51"/>
     </defs>
     <g transform="translate(127 74.476562)scale(0.1 -0.1)">
      <use xlink:href="#DejaVuSans-50"/>
      <use x="63.623047" xlink:href="#DejaVuSans-48"/>
      <use x="127.246094" xlink:href="#DejaVuSans-48"/>
      <use x="190.869141" xlink:href="#DejaVuSans-51"/>
     </g>
    </g>
    <g id="line2d_25">
     <path d="M 99 85.654687 
L 119 85.654687 
" style="fill:none;stroke:#0000ff;stroke-linecap:square;stroke-width:1.5;"/>
    </g>
    <g id="line2d_26"/>
    <g id="text_21">
     <!-- 2004 -->
     <g transform="translate(127 89.154687)scale(0.1 -0.1)">
      <use xlink:href="#DejaVuSans-50"/>
      <use x="63.623047" xlink:href="#DejaVuSans-48"/>
      <use x="127.246094" xlink:href="#DejaVuSans-48"/>
      <use x="190.869141" xlink:href="#DejaVuSans-52"/>
     </g>
    </g>
   </g>
  </g>
 </g>
 <defs>
  <clipPath id="p092c7dfd17">
   <rect height="271.8" width="558" x="90" y="43.2"/>
  </clipPath>
 </defs>
</svg>
