<?xml version="1.0" encoding="utf-8" standalone="no"?>
<!DOCTYPE svg PUBLIC "-//W3C//DTD SVG 1.1//EN"
  "http://www.w3.org/Graphics/SVG/1.1/DTD/svg11.dtd">
<!-- Created with matplotlib (https://matplotlib.org/) -->
<svg height="288pt" version="1.1" viewBox="0 0 432 288" width="432pt" xmlns="http://www.w3.org/2000/svg" xmlns:xlink="http://www.w3.org/1999/xlink">
 <defs>
  <style type="text/css">
*{stroke-linecap:butt;stroke-linejoin:round;white-space:pre;}
  </style>
 </defs>
 <g id="figure_1">
  <g id="patch_1">
   <path d="M 0 288 
L 432 288 
L 432 0 
L 0 0 
z
" style="fill:#ffffff;"/>
  </g>
  <g id="axes_1">
   <g id="patch_2">
    <path d="M 42.765865 254.64351 
L 392.41851 254.64351 
L 392.41851 3.00024 
L 42.765865 3.00024 
z
" style="fill:#ffffff;"/>
   </g>
   <g id="matplotlib.axis_1">
    <g id="xtick_1">
     <g id="line2d_1">
      <defs>
       <path d="M 0 0 
L 0 3.5 
" id="m99284809d5" style="stroke:#000000;stroke-width:0.8;"/>
      </defs>
      <g>
       <use style="stroke:#000000;stroke-width:0.8;" x="58.659167" xlink:href="#m99284809d5" y="254.64351"/>
      </g>
     </g>
     <g id="text_1">
      <!-- 0 -->
      <defs>
       <path d="M 31.78125 66.40625 
Q 24.171875 66.40625 20.328125 58.90625 
Q 16.5 51.421875 16.5 36.375 
Q 16.5 21.390625 20.328125 13.890625 
Q 24.171875 6.390625 31.78125 6.390625 
Q 39.453125 6.390625 43.28125 13.890625 
Q 47.125 21.390625 47.125 36.375 
Q 47.125 51.421875 43.28125 58.90625 
Q 39.453125 66.40625 31.78125 66.40625 
z
M 31.78125 74.21875 
Q 44.046875 74.21875 50.515625 64.515625 
Q 56.984375 54.828125 56.984375 36.375 
Q 56.984375 17.96875 50.515625 8.265625 
Q 44.046875 -1.421875 31.78125 -1.421875 
Q 19.53125 -1.421875 13.0625 8.265625 
Q 6.59375 17.96875 6.59375 36.375 
Q 6.59375 54.828125 13.0625 64.515625 
Q 19.53125 74.21875 31.78125 74.21875 
z
" id="DejaVuSans-48"/>
      </defs>
      <g transform="translate(55.477917 269.241947)scale(0.1 -0.1)">
       <use xlink:href="#DejaVuSans-48"/>
      </g>
     </g>
    </g>
    <g id="xtick_2">
     <g id="line2d_2">
      <g>
       <use style="stroke:#000000;stroke-width:0.8;" x="102.20246" xlink:href="#m99284809d5" y="254.64351"/>
      </g>
     </g>
     <g id="text_2">
      <!-- 50 -->
      <defs>
       <path d="M 10.796875 72.90625 
L 49.515625 72.90625 
L 49.515625 64.59375 
L 19.828125 64.59375 
L 19.828125 46.734375 
Q 21.96875 47.46875 24.109375 47.828125 
Q 26.265625 48.1875 28.421875 48.1875 
Q 40.625 48.1875 47.75 41.5 
Q 54.890625 34.8125 54.890625 23.390625 
Q 54.890625 11.625 47.5625 5.09375 
Q 40.234375 -1.421875 26.90625 -1.421875 
Q 22.3125 -1.421875 17.546875 -0.640625 
Q 12.796875 0.140625 7.71875 1.703125 
L 7.71875 11.625 
Q 12.109375 9.234375 16.796875 8.0625 
Q 21.484375 6.890625 26.703125 6.890625 
Q 35.15625 6.890625 40.078125 11.328125 
Q 45.015625 15.765625 45.015625 23.390625 
Q 45.015625 31 40.078125 35.4375 
Q 35.15625 39.890625 26.703125 39.890625 
Q 22.75 39.890625 18.8125 39.015625 
Q 14.890625 38.140625 10.796875 36.28125 
z
" id="DejaVuSans-53"/>
      </defs>
      <g transform="translate(95.83996 269.241947)scale(0.1 -0.1)">
       <use xlink:href="#DejaVuSans-53"/>
       <use x="63.623047" xlink:href="#DejaVuSans-48"/>
      </g>
     </g>
    </g>
    <g id="xtick_3">
     <g id="line2d_3">
      <g>
       <use style="stroke:#000000;stroke-width:0.8;" x="145.745754" xlink:href="#m99284809d5" y="254.64351"/>
      </g>
     </g>
     <g id="text_3">
      <!-- 100 -->
      <defs>
       <path d="M 12.40625 8.296875 
L 28.515625 8.296875 
L 28.515625 63.921875 
L 10.984375 60.40625 
L 10.984375 69.390625 
L 28.421875 72.90625 
L 38.28125 72.90625 
L 38.28125 8.296875 
L 54.390625 8.296875 
L 54.390625 0 
L 12.40625 0 
z
" id="DejaVuSans-49"/>
      </defs>
      <g transform="translate(136.202004 269.241947)scale(0.1 -0.1)">
       <use xlink:href="#DejaVuSans-49"/>
       <use x="63.623047" xlink:href="#DejaVuSans-48"/>
       <use x="127.246094" xlink:href="#DejaVuSans-48"/>
      </g>
     </g>
    </g>
    <g id="xtick_4">
     <g id="line2d_4">
      <g>
       <use style="stroke:#000000;stroke-width:0.8;" x="189.289047" xlink:href="#m99284809d5" y="254.64351"/>
      </g>
     </g>
     <g id="text_4">
      <!-- 150 -->
      <g transform="translate(179.745297 269.241947)scale(0.1 -0.1)">
       <use xlink:href="#DejaVuSans-49"/>
       <use x="63.623047" xlink:href="#DejaVuSans-53"/>
       <use x="127.246094" xlink:href="#DejaVuSans-48"/>
      </g>
     </g>
    </g>
    <g id="xtick_5">
     <g id="line2d_5">
      <g>
       <use style="stroke:#000000;stroke-width:0.8;" x="232.83234" xlink:href="#m99284809d5" y="254.64351"/>
      </g>
     </g>
     <g id="text_5">
      <!-- 200 -->
      <defs>
       <path d="M 19.1875 8.296875 
L 53.609375 8.296875 
L 53.609375 0 
L 7.328125 0 
L 7.328125 8.296875 
Q 12.9375 14.109375 22.625 23.890625 
Q 32.328125 33.6875 34.8125 36.53125 
Q 39.546875 41.84375 41.421875 45.53125 
Q 43.3125 49.21875 43.3125 52.78125 
Q 43.3125 58.59375 39.234375 62.25 
Q 35.15625 65.921875 28.609375 65.921875 
Q 23.96875 65.921875 18.8125 64.3125 
Q 13.671875 62.703125 7.8125 59.421875 
L 7.8125 69.390625 
Q 13.765625 71.78125 18.9375 73 
Q 24.125 74.21875 28.421875 74.21875 
Q 39.75 74.21875 46.484375 68.546875 
Q 53.21875 62.890625 53.21875 53.421875 
Q 53.21875 48.921875 51.53125 44.890625 
Q 49.859375 40.875 45.40625 35.40625 
Q 44.1875 33.984375 37.640625 27.21875 
Q 31.109375 20.453125 19.1875 8.296875 
z
" id="DejaVuSans-50"/>
      </defs>
      <g transform="translate(223.28859 269.241947)scale(0.1 -0.1)">
       <use xlink:href="#DejaVuSans-50"/>
       <use x="63.623047" xlink:href="#DejaVuSans-48"/>
       <use x="127.246094" xlink:href="#DejaVuSans-48"/>
      </g>
     </g>
    </g>
    <g id="xtick_6">
     <g id="line2d_6">
      <g>
       <use style="stroke:#000000;stroke-width:0.8;" x="276.375633" xlink:href="#m99284809d5" y="254.64351"/>
      </g>
     </g>
     <g id="text_6">
      <!-- 250 -->
      <g transform="translate(266.831883 269.241947)scale(0.1 -0.1)">
       <use xlink:href="#DejaVuSans-50"/>
       <use x="63.623047" xlink:href="#DejaVuSans-53"/>
       <use x="127.246094" xlink:href="#DejaVuSans-48"/>
      </g>
     </g>
    </g>
    <g id="xtick_7">
     <g id="line2d_7">
      <g>
       <use style="stroke:#000000;stroke-width:0.8;" x="319.918927" xlink:href="#m99284809d5" y="254.64351"/>
      </g>
     </g>
     <g id="text_7">
      <!-- 300 -->
      <defs>
       <path d="M 40.578125 39.3125 
Q 47.65625 37.796875 51.625 33 
Q 55.609375 28.21875 55.609375 21.1875 
Q 55.609375 10.40625 48.1875 4.484375 
Q 40.765625 -1.421875 27.09375 -1.421875 
Q 22.515625 -1.421875 17.65625 -0.515625 
Q 12.796875 0.390625 7.625 2.203125 
L 7.625 11.71875 
Q 11.71875 9.328125 16.59375 8.109375 
Q 21.484375 6.890625 26.8125 6.890625 
Q 36.078125 6.890625 40.9375 10.546875 
Q 45.796875 14.203125 45.796875 21.1875 
Q 45.796875 27.640625 41.28125 31.265625 
Q 36.765625 34.90625 28.71875 34.90625 
L 20.21875 34.90625 
L 20.21875 43.015625 
L 29.109375 43.015625 
Q 36.375 43.015625 40.234375 45.921875 
Q 44.09375 48.828125 44.09375 54.296875 
Q 44.09375 59.90625 40.109375 62.90625 
Q 36.140625 65.921875 28.71875 65.921875 
Q 24.65625 65.921875 20.015625 65.03125 
Q 15.375 64.15625 9.8125 62.3125 
L 9.8125 71.09375 
Q 15.4375 72.65625 20.34375 73.4375 
Q 25.25 74.21875 29.59375 74.21875 
Q 40.828125 74.21875 47.359375 69.109375 
Q 53.90625 64.015625 53.90625 55.328125 
Q 53.90625 49.265625 50.4375 45.09375 
Q 46.96875 40.921875 40.578125 39.3125 
z
" id="DejaVuSans-51"/>
      </defs>
      <g transform="translate(310.375177 269.241947)scale(0.1 -0.1)">
       <use xlink:href="#DejaVuSans-51"/>
       <use x="63.623047" xlink:href="#DejaVuSans-48"/>
       <use x="127.246094" xlink:href="#DejaVuSans-48"/>
      </g>
     </g>
    </g>
    <g id="xtick_8">
     <g id="line2d_8">
      <g>
       <use style="stroke:#000000;stroke-width:0.8;" x="363.46222" xlink:href="#m99284809d5" y="254.64351"/>
      </g>
     </g>
     <g id="text_8">
      <!-- 350 -->
      <g transform="translate(353.91847 269.241947)scale(0.1 -0.1)">
       <use xlink:href="#DejaVuSans-51"/>
       <use x="63.623047" xlink:href="#DejaVuSans-53"/>
       <use x="127.246094" xlink:href="#DejaVuSans-48"/>
      </g>
     </g>
    </g>
    <g id="text_9">
     <!-- Day of year (spawning) -->
     <defs>
      <path d="M 19.671875 64.796875 
L 19.671875 8.109375 
L 31.59375 8.109375 
Q 46.6875 8.109375 53.6875 14.9375 
Q 60.6875 21.78125 60.6875 36.53125 
Q 60.6875 51.171875 53.6875 57.984375 
Q 46.6875 64.796875 31.59375 64.796875 
z
M 9.8125 72.90625 
L 30.078125 72.90625 
Q 51.265625 72.90625 61.171875 64.09375 
Q 71.09375 55.28125 71.09375 36.53125 
Q 71.09375 17.671875 61.125 8.828125 
Q 51.171875 0 30.078125 0 
L 9.8125 0 
z
" id="DejaVuSans-68"/>
      <path d="M 34.28125 27.484375 
Q 23.390625 27.484375 19.1875 25 
Q 14.984375 22.515625 14.984375 16.5 
Q 14.984375 11.71875 18.140625 8.90625 
Q 21.296875 6.109375 26.703125 6.109375 
Q 34.1875 6.109375 38.703125 11.40625 
Q 43.21875 16.703125 43.21875 25.484375 
L 43.21875 27.484375 
z
M 52.203125 31.203125 
L 52.203125 0 
L 43.21875 0 
L 43.21875 8.296875 
Q 40.140625 3.328125 35.546875 0.953125 
Q 30.953125 -1.421875 24.3125 -1.421875 
Q 15.921875 -1.421875 10.953125 3.296875 
Q 6 8.015625 6 15.921875 
Q 6 25.140625 12.171875 29.828125 
Q 18.359375 34.515625 30.609375 34.515625 
L 43.21875 34.515625 
L 43.21875 35.40625 
Q 43.21875 41.609375 39.140625 45 
Q 35.0625 48.390625 27.6875 48.390625 
Q 23 48.390625 18.546875 47.265625 
Q 14.109375 46.140625 10.015625 43.890625 
L 10.015625 52.203125 
Q 14.9375 54.109375 19.578125 55.046875 
Q 24.21875 56 28.609375 56 
Q 40.484375 56 46.34375 49.84375 
Q 52.203125 43.703125 52.203125 31.203125 
z
" id="DejaVuSans-97"/>
      <path d="M 32.171875 -5.078125 
Q 28.375 -14.84375 24.75 -17.8125 
Q 21.140625 -20.796875 15.09375 -20.796875 
L 7.90625 -20.796875 
L 7.90625 -13.28125 
L 13.1875 -13.28125 
Q 16.890625 -13.28125 18.9375 -11.515625 
Q 21 -9.765625 23.484375 -3.21875 
L 25.09375 0.875 
L 2.984375 54.6875 
L 12.5 54.6875 
L 29.59375 11.921875 
L 46.6875 54.6875 
L 56.203125 54.6875 
z
" id="DejaVuSans-121"/>
      <path id="DejaVuSans-32"/>
      <path d="M 30.609375 48.390625 
Q 23.390625 48.390625 19.1875 42.75 
Q 14.984375 37.109375 14.984375 27.296875 
Q 14.984375 17.484375 19.15625 11.84375 
Q 23.34375 6.203125 30.609375 6.203125 
Q 37.796875 6.203125 41.984375 11.859375 
Q 46.1875 17.53125 46.1875 27.296875 
Q 46.1875 37.015625 41.984375 42.703125 
Q 37.796875 48.390625 30.609375 48.390625 
z
M 30.609375 56 
Q 42.328125 56 49.015625 48.375 
Q 55.71875 40.765625 55.71875 27.296875 
Q 55.71875 13.875 49.015625 6.21875 
Q 42.328125 -1.421875 30.609375 -1.421875 
Q 18.84375 -1.421875 12.171875 6.21875 
Q 5.515625 13.875 5.515625 27.296875 
Q 5.515625 40.765625 12.171875 48.375 
Q 18.84375 56 30.609375 56 
z
" id="DejaVuSans-111"/>
      <path d="M 37.109375 75.984375 
L 37.109375 68.5 
L 28.515625 68.5 
Q 23.6875 68.5 21.796875 66.546875 
Q 19.921875 64.59375 19.921875 59.515625 
L 19.921875 54.6875 
L 34.71875 54.6875 
L 34.71875 47.703125 
L 19.921875 47.703125 
L 19.921875 0 
L 10.890625 0 
L 10.890625 47.703125 
L 2.296875 47.703125 
L 2.296875 54.6875 
L 10.890625 54.6875 
L 10.890625 58.5 
Q 10.890625 67.625 15.140625 71.796875 
Q 19.390625 75.984375 28.609375 75.984375 
z
" id="DejaVuSans-102"/>
      <path d="M 56.203125 29.59375 
L 56.203125 25.203125 
L 14.890625 25.203125 
Q 15.484375 15.921875 20.484375 11.0625 
Q 25.484375 6.203125 34.421875 6.203125 
Q 39.59375 6.203125 44.453125 7.46875 
Q 49.3125 8.734375 54.109375 11.28125 
L 54.109375 2.78125 
Q 49.265625 0.734375 44.1875 -0.34375 
Q 39.109375 -1.421875 33.890625 -1.421875 
Q 20.796875 -1.421875 13.15625 6.1875 
Q 5.515625 13.8125 5.515625 26.8125 
Q 5.515625 40.234375 12.765625 48.109375 
Q 20.015625 56 32.328125 56 
Q 43.359375 56 49.78125 48.890625 
Q 56.203125 41.796875 56.203125 29.59375 
z
M 47.21875 32.234375 
Q 47.125 39.59375 43.09375 43.984375 
Q 39.0625 48.390625 32.421875 48.390625 
Q 24.90625 48.390625 20.390625 44.140625 
Q 15.875 39.890625 15.1875 32.171875 
z
" id="DejaVuSans-101"/>
      <path d="M 41.109375 46.296875 
Q 39.59375 47.171875 37.8125 47.578125 
Q 36.03125 48 33.890625 48 
Q 26.265625 48 22.1875 43.046875 
Q 18.109375 38.09375 18.109375 28.8125 
L 18.109375 0 
L 9.078125 0 
L 9.078125 54.6875 
L 18.109375 54.6875 
L 18.109375 46.1875 
Q 20.953125 51.171875 25.484375 53.578125 
Q 30.03125 56 36.53125 56 
Q 37.453125 56 38.578125 55.875 
Q 39.703125 55.765625 41.0625 55.515625 
z
" id="DejaVuSans-114"/>
      <path d="M 31 75.875 
Q 24.46875 64.65625 21.28125 53.65625 
Q 18.109375 42.671875 18.109375 31.390625 
Q 18.109375 20.125 21.3125 9.0625 
Q 24.515625 -2 31 -13.1875 
L 23.1875 -13.1875 
Q 15.875 -1.703125 12.234375 9.375 
Q 8.59375 20.453125 8.59375 31.390625 
Q 8.59375 42.28125 12.203125 53.3125 
Q 15.828125 64.359375 23.1875 75.875 
z
" id="DejaVuSans-40"/>
      <path d="M 44.28125 53.078125 
L 44.28125 44.578125 
Q 40.484375 46.53125 36.375 47.5 
Q 32.28125 48.484375 27.875 48.484375 
Q 21.1875 48.484375 17.84375 46.4375 
Q 14.5 44.390625 14.5 40.28125 
Q 14.5 37.15625 16.890625 35.375 
Q 19.28125 33.59375 26.515625 31.984375 
L 29.59375 31.296875 
Q 39.15625 29.25 43.1875 25.515625 
Q 47.21875 21.78125 47.21875 15.09375 
Q 47.21875 7.46875 41.1875 3.015625 
Q 35.15625 -1.421875 24.609375 -1.421875 
Q 20.21875 -1.421875 15.453125 -0.5625 
Q 10.6875 0.296875 5.421875 2 
L 5.421875 11.28125 
Q 10.40625 8.6875 15.234375 7.390625 
Q 20.0625 6.109375 24.8125 6.109375 
Q 31.15625 6.109375 34.5625 8.28125 
Q 37.984375 10.453125 37.984375 14.40625 
Q 37.984375 18.0625 35.515625 20.015625 
Q 33.0625 21.96875 24.703125 23.78125 
L 21.578125 24.515625 
Q 13.234375 26.265625 9.515625 29.90625 
Q 5.8125 33.546875 5.8125 39.890625 
Q 5.8125 47.609375 11.28125 51.796875 
Q 16.75 56 26.8125 56 
Q 31.78125 56 36.171875 55.265625 
Q 40.578125 54.546875 44.28125 53.078125 
z
" id="DejaVuSans-115"/>
      <path d="M 18.109375 8.203125 
L 18.109375 -20.796875 
L 9.078125 -20.796875 
L 9.078125 54.6875 
L 18.109375 54.6875 
L 18.109375 46.390625 
Q 20.953125 51.265625 25.265625 53.625 
Q 29.59375 56 35.59375 56 
Q 45.5625 56 51.78125 48.09375 
Q 58.015625 40.1875 58.015625 27.296875 
Q 58.015625 14.40625 51.78125 6.484375 
Q 45.5625 -1.421875 35.59375 -1.421875 
Q 29.59375 -1.421875 25.265625 0.953125 
Q 20.953125 3.328125 18.109375 8.203125 
z
M 48.6875 27.296875 
Q 48.6875 37.203125 44.609375 42.84375 
Q 40.53125 48.484375 33.40625 48.484375 
Q 26.265625 48.484375 22.1875 42.84375 
Q 18.109375 37.203125 18.109375 27.296875 
Q 18.109375 17.390625 22.1875 11.75 
Q 26.265625 6.109375 33.40625 6.109375 
Q 40.53125 6.109375 44.609375 11.75 
Q 48.6875 17.390625 48.6875 27.296875 
z
" id="DejaVuSans-112"/>
      <path d="M 4.203125 54.6875 
L 13.1875 54.6875 
L 24.421875 12.015625 
L 35.59375 54.6875 
L 46.1875 54.6875 
L 57.421875 12.015625 
L 68.609375 54.6875 
L 77.59375 54.6875 
L 63.28125 0 
L 52.6875 0 
L 40.921875 44.828125 
L 29.109375 0 
L 18.5 0 
z
" id="DejaVuSans-119"/>
      <path d="M 54.890625 33.015625 
L 54.890625 0 
L 45.90625 0 
L 45.90625 32.71875 
Q 45.90625 40.484375 42.875 44.328125 
Q 39.84375 48.1875 33.796875 48.1875 
Q 26.515625 48.1875 22.3125 43.546875 
Q 18.109375 38.921875 18.109375 30.90625 
L 18.109375 0 
L 9.078125 0 
L 9.078125 54.6875 
L 18.109375 54.6875 
L 18.109375 46.1875 
Q 21.34375 51.125 25.703125 53.5625 
Q 30.078125 56 35.796875 56 
Q 45.21875 56 50.046875 50.171875 
Q 54.890625 44.34375 54.890625 33.015625 
z
" id="DejaVuSans-110"/>
      <path d="M 9.421875 54.6875 
L 18.40625 54.6875 
L 18.40625 0 
L 9.421875 0 
z
M 9.421875 75.984375 
L 18.40625 75.984375 
L 18.40625 64.59375 
L 9.421875 64.59375 
z
" id="DejaVuSans-105"/>
      <path d="M 45.40625 27.984375 
Q 45.40625 37.75 41.375 43.109375 
Q 37.359375 48.484375 30.078125 48.484375 
Q 22.859375 48.484375 18.828125 43.109375 
Q 14.796875 37.75 14.796875 27.984375 
Q 14.796875 18.265625 18.828125 12.890625 
Q 22.859375 7.515625 30.078125 7.515625 
Q 37.359375 7.515625 41.375 12.890625 
Q 45.40625 18.265625 45.40625 27.984375 
z
M 54.390625 6.78125 
Q 54.390625 -7.171875 48.1875 -13.984375 
Q 42 -20.796875 29.203125 -20.796875 
Q 24.46875 -20.796875 20.265625 -20.09375 
Q 16.0625 -19.390625 12.109375 -17.921875 
L 12.109375 -9.1875 
Q 16.0625 -11.328125 19.921875 -12.34375 
Q 23.78125 -13.375 27.78125 -13.375 
Q 36.625 -13.375 41.015625 -8.765625 
Q 45.40625 -4.15625 45.40625 5.171875 
L 45.40625 9.625 
Q 42.625 4.78125 38.28125 2.390625 
Q 33.9375 0 27.875 0 
Q 17.828125 0 11.671875 7.65625 
Q 5.515625 15.328125 5.515625 27.984375 
Q 5.515625 40.671875 11.671875 48.328125 
Q 17.828125 56 27.875 56 
Q 33.9375 56 38.28125 53.609375 
Q 42.625 51.21875 45.40625 46.390625 
L 45.40625 54.6875 
L 54.390625 54.6875 
z
" id="DejaVuSans-103"/>
      <path d="M 8.015625 75.875 
L 15.828125 75.875 
Q 23.140625 64.359375 26.78125 53.3125 
Q 30.421875 42.28125 30.421875 31.390625 
Q 30.421875 20.453125 26.78125 9.375 
Q 23.140625 -1.703125 15.828125 -13.1875 
L 8.015625 -13.1875 
Q 14.5 -2 17.703125 9.0625 
Q 20.90625 20.125 20.90625 31.390625 
Q 20.90625 42.671875 17.703125 53.65625 
Q 14.5 64.65625 8.015625 75.875 
z
" id="DejaVuSans-41"/>
     </defs>
     <g transform="translate(159.242188 282.920073)scale(0.1 -0.1)">
      <use xlink:href="#DejaVuSans-68"/>
      <use x="77.001953" xlink:href="#DejaVuSans-97"/>
      <use x="138.28125" xlink:href="#DejaVuSans-121"/>
      <use x="197.460938" xlink:href="#DejaVuSans-32"/>
      <use x="229.248047" xlink:href="#DejaVuSans-111"/>
      <use x="290.429688" xlink:href="#DejaVuSans-102"/>
      <use x="325.634766" xlink:href="#DejaVuSans-32"/>
      <use x="357.421875" xlink:href="#DejaVuSans-121"/>
      <use x="416.601562" xlink:href="#DejaVuSans-101"/>
      <use x="478.125" xlink:href="#DejaVuSans-97"/>
      <use x="539.404297" xlink:href="#DejaVuSans-114"/>
      <use x="580.517578" xlink:href="#DejaVuSans-32"/>
      <use x="612.304688" xlink:href="#DejaVuSans-40"/>
      <use x="651.318359" xlink:href="#DejaVuSans-115"/>
      <use x="703.417969" xlink:href="#DejaVuSans-112"/>
      <use x="766.894531" xlink:href="#DejaVuSans-97"/>
      <use x="828.173828" xlink:href="#DejaVuSans-119"/>
      <use x="909.960938" xlink:href="#DejaVuSans-110"/>
      <use x="973.339844" xlink:href="#DejaVuSans-105"/>
      <use x="1001.123047" xlink:href="#DejaVuSans-110"/>
      <use x="1064.501953" xlink:href="#DejaVuSans-103"/>
      <use x="1127.978516" xlink:href="#DejaVuSans-41"/>
     </g>
    </g>
   </g>
   <g id="matplotlib.axis_2">
    <g id="ytick_1">
     <g id="line2d_9">
      <defs>
       <path d="M 0 0 
L -3.5 0 
" id="m36376c636a" style="stroke:#000000;stroke-width:0.8;"/>
      </defs>
      <g>
       <use style="stroke:#000000;stroke-width:0.8;" x="42.765865" xlink:href="#m36376c636a" y="254.64351"/>
      </g>
     </g>
     <g id="text_10">
      <!-- 0 -->
      <g transform="translate(29.403365 258.442729)scale(0.1 -0.1)">
       <use xlink:href="#DejaVuSans-48"/>
      </g>
     </g>
    </g>
    <g id="ytick_2">
     <g id="line2d_10">
      <g>
       <use style="stroke:#000000;stroke-width:0.8;" x="42.765865" xlink:href="#m36376c636a" y="215.929161"/>
      </g>
     </g>
     <g id="text_11">
      <!-- 20 -->
      <g transform="translate(23.040865 219.72838)scale(0.1 -0.1)">
       <use xlink:href="#DejaVuSans-50"/>
       <use x="63.623047" xlink:href="#DejaVuSans-48"/>
      </g>
     </g>
    </g>
    <g id="ytick_3">
     <g id="line2d_11">
      <g>
       <use style="stroke:#000000;stroke-width:0.8;" x="42.765865" xlink:href="#m36376c636a" y="177.214812"/>
      </g>
     </g>
     <g id="text_12">
      <!-- 40 -->
      <defs>
       <path d="M 37.796875 64.3125 
L 12.890625 25.390625 
L 37.796875 25.390625 
z
M 35.203125 72.90625 
L 47.609375 72.90625 
L 47.609375 25.390625 
L 58.015625 25.390625 
L 58.015625 17.1875 
L 47.609375 17.1875 
L 47.609375 0 
L 37.796875 0 
L 37.796875 17.1875 
L 4.890625 17.1875 
L 4.890625 26.703125 
z
" id="DejaVuSans-52"/>
      </defs>
      <g transform="translate(23.040865 181.01403)scale(0.1 -0.1)">
       <use xlink:href="#DejaVuSans-52"/>
       <use x="63.623047" xlink:href="#DejaVuSans-48"/>
      </g>
     </g>
    </g>
    <g id="ytick_4">
     <g id="line2d_12">
      <g>
       <use style="stroke:#000000;stroke-width:0.8;" x="42.765865" xlink:href="#m36376c636a" y="138.500462"/>
      </g>
     </g>
     <g id="text_13">
      <!-- 60 -->
      <defs>
       <path d="M 33.015625 40.375 
Q 26.375 40.375 22.484375 35.828125 
Q 18.609375 31.296875 18.609375 23.390625 
Q 18.609375 15.53125 22.484375 10.953125 
Q 26.375 6.390625 33.015625 6.390625 
Q 39.65625 6.390625 43.53125 10.953125 
Q 47.40625 15.53125 47.40625 23.390625 
Q 47.40625 31.296875 43.53125 35.828125 
Q 39.65625 40.375 33.015625 40.375 
z
M 52.59375 71.296875 
L 52.59375 62.3125 
Q 48.875 64.0625 45.09375 64.984375 
Q 41.3125 65.921875 37.59375 65.921875 
Q 27.828125 65.921875 22.671875 59.328125 
Q 17.53125 52.734375 16.796875 39.40625 
Q 19.671875 43.65625 24.015625 45.921875 
Q 28.375 48.1875 33.59375 48.1875 
Q 44.578125 48.1875 50.953125 41.515625 
Q 57.328125 34.859375 57.328125 23.390625 
Q 57.328125 12.15625 50.6875 5.359375 
Q 44.046875 -1.421875 33.015625 -1.421875 
Q 20.359375 -1.421875 13.671875 8.265625 
Q 6.984375 17.96875 6.984375 36.375 
Q 6.984375 53.65625 15.1875 63.9375 
Q 23.390625 74.21875 37.203125 74.21875 
Q 40.921875 74.21875 44.703125 73.484375 
Q 48.484375 72.75 52.59375 71.296875 
z
" id="DejaVuSans-54"/>
      </defs>
      <g transform="translate(23.040865 142.299681)scale(0.1 -0.1)">
       <use xlink:href="#DejaVuSans-54"/>
       <use x="63.623047" xlink:href="#DejaVuSans-48"/>
      </g>
     </g>
    </g>
    <g id="ytick_5">
     <g id="line2d_13">
      <g>
       <use style="stroke:#000000;stroke-width:0.8;" x="42.765865" xlink:href="#m36376c636a" y="99.786113"/>
      </g>
     </g>
     <g id="text_14">
      <!-- 80 -->
      <defs>
       <path d="M 31.78125 34.625 
Q 24.75 34.625 20.71875 30.859375 
Q 16.703125 27.09375 16.703125 20.515625 
Q 16.703125 13.921875 20.71875 10.15625 
Q 24.75 6.390625 31.78125 6.390625 
Q 38.8125 6.390625 42.859375 10.171875 
Q 46.921875 13.96875 46.921875 20.515625 
Q 46.921875 27.09375 42.890625 30.859375 
Q 38.875 34.625 31.78125 34.625 
z
M 21.921875 38.8125 
Q 15.578125 40.375 12.03125 44.71875 
Q 8.5 49.078125 8.5 55.328125 
Q 8.5 64.0625 14.71875 69.140625 
Q 20.953125 74.21875 31.78125 74.21875 
Q 42.671875 74.21875 48.875 69.140625 
Q 55.078125 64.0625 55.078125 55.328125 
Q 55.078125 49.078125 51.53125 44.71875 
Q 48 40.375 41.703125 38.8125 
Q 48.828125 37.15625 52.796875 32.3125 
Q 56.78125 27.484375 56.78125 20.515625 
Q 56.78125 9.90625 50.3125 4.234375 
Q 43.84375 -1.421875 31.78125 -1.421875 
Q 19.734375 -1.421875 13.25 4.234375 
Q 6.78125 9.90625 6.78125 20.515625 
Q 6.78125 27.484375 10.78125 32.3125 
Q 14.796875 37.15625 21.921875 38.8125 
z
M 18.3125 54.390625 
Q 18.3125 48.734375 21.84375 45.5625 
Q 25.390625 42.390625 31.78125 42.390625 
Q 38.140625 42.390625 41.71875 45.5625 
Q 45.3125 48.734375 45.3125 54.390625 
Q 45.3125 60.0625 41.71875 63.234375 
Q 38.140625 66.40625 31.78125 66.40625 
Q 25.390625 66.40625 21.84375 63.234375 
Q 18.3125 60.0625 18.3125 54.390625 
z
" id="DejaVuSans-56"/>
      </defs>
      <g transform="translate(23.040865 103.585332)scale(0.1 -0.1)">
       <use xlink:href="#DejaVuSans-56"/>
       <use x="63.623047" xlink:href="#DejaVuSans-48"/>
      </g>
     </g>
    </g>
    <g id="ytick_6">
     <g id="line2d_14">
      <g>
       <use style="stroke:#000000;stroke-width:0.8;" x="42.765865" xlink:href="#m36376c636a" y="61.071764"/>
      </g>
     </g>
     <g id="text_15">
      <!-- 100 -->
      <g transform="translate(16.678365 64.870983)scale(0.1 -0.1)">
       <use xlink:href="#DejaVuSans-49"/>
       <use x="63.623047" xlink:href="#DejaVuSans-48"/>
       <use x="127.246094" xlink:href="#DejaVuSans-48"/>
      </g>
     </g>
    </g>
    <g id="ytick_7">
     <g id="line2d_15">
      <g>
       <use style="stroke:#000000;stroke-width:0.8;" x="42.765865" xlink:href="#m36376c636a" y="22.357415"/>
      </g>
     </g>
     <g id="text_16">
      <!-- 120 -->
      <g transform="translate(16.678365 26.156633)scale(0.1 -0.1)">
       <use xlink:href="#DejaVuSans-49"/>
       <use x="63.623047" xlink:href="#DejaVuSans-50"/>
       <use x="127.246094" xlink:href="#DejaVuSans-48"/>
      </g>
     </g>
    </g>
    <g id="text_17">
     <!-- Stage duration (hours) -->
     <defs>
      <path d="M 53.515625 70.515625 
L 53.515625 60.890625 
Q 47.90625 63.578125 42.921875 64.890625 
Q 37.9375 66.21875 33.296875 66.21875 
Q 25.25 66.21875 20.875 63.09375 
Q 16.5 59.96875 16.5 54.203125 
Q 16.5 49.359375 19.40625 46.890625 
Q 22.3125 44.4375 30.421875 42.921875 
L 36.375 41.703125 
Q 47.40625 39.59375 52.65625 34.296875 
Q 57.90625 29 57.90625 20.125 
Q 57.90625 9.515625 50.796875 4.046875 
Q 43.703125 -1.421875 29.984375 -1.421875 
Q 24.8125 -1.421875 18.96875 -0.25 
Q 13.140625 0.921875 6.890625 3.21875 
L 6.890625 13.375 
Q 12.890625 10.015625 18.65625 8.296875 
Q 24.421875 6.59375 29.984375 6.59375 
Q 38.421875 6.59375 43.015625 9.90625 
Q 47.609375 13.234375 47.609375 19.390625 
Q 47.609375 24.75 44.3125 27.78125 
Q 41.015625 30.8125 33.5 32.328125 
L 27.484375 33.5 
Q 16.453125 35.6875 11.515625 40.375 
Q 6.59375 45.0625 6.59375 53.421875 
Q 6.59375 63.09375 13.40625 68.65625 
Q 20.21875 74.21875 32.171875 74.21875 
Q 37.3125 74.21875 42.625 73.28125 
Q 47.953125 72.359375 53.515625 70.515625 
z
" id="DejaVuSans-83"/>
      <path d="M 18.3125 70.21875 
L 18.3125 54.6875 
L 36.8125 54.6875 
L 36.8125 47.703125 
L 18.3125 47.703125 
L 18.3125 18.015625 
Q 18.3125 11.328125 20.140625 9.421875 
Q 21.96875 7.515625 27.59375 7.515625 
L 36.8125 7.515625 
L 36.8125 0 
L 27.59375 0 
Q 17.1875 0 13.234375 3.875 
Q 9.28125 7.765625 9.28125 18.015625 
L 9.28125 47.703125 
L 2.6875 47.703125 
L 2.6875 54.6875 
L 9.28125 54.6875 
L 9.28125 70.21875 
z
" id="DejaVuSans-116"/>
      <path d="M 45.40625 46.390625 
L 45.40625 75.984375 
L 54.390625 75.984375 
L 54.390625 0 
L 45.40625 0 
L 45.40625 8.203125 
Q 42.578125 3.328125 38.25 0.953125 
Q 33.9375 -1.421875 27.875 -1.421875 
Q 17.96875 -1.421875 11.734375 6.484375 
Q 5.515625 14.40625 5.515625 27.296875 
Q 5.515625 40.1875 11.734375 48.09375 
Q 17.96875 56 27.875 56 
Q 33.9375 56 38.25 53.625 
Q 42.578125 51.265625 45.40625 46.390625 
z
M 14.796875 27.296875 
Q 14.796875 17.390625 18.875 11.75 
Q 22.953125 6.109375 30.078125 6.109375 
Q 37.203125 6.109375 41.296875 11.75 
Q 45.40625 17.390625 45.40625 27.296875 
Q 45.40625 37.203125 41.296875 42.84375 
Q 37.203125 48.484375 30.078125 48.484375 
Q 22.953125 48.484375 18.875 42.84375 
Q 14.796875 37.203125 14.796875 27.296875 
z
" id="DejaVuSans-100"/>
      <path d="M 8.5 21.578125 
L 8.5 54.6875 
L 17.484375 54.6875 
L 17.484375 21.921875 
Q 17.484375 14.15625 20.5 10.265625 
Q 23.53125 6.390625 29.59375 6.390625 
Q 36.859375 6.390625 41.078125 11.03125 
Q 45.3125 15.671875 45.3125 23.6875 
L 45.3125 54.6875 
L 54.296875 54.6875 
L 54.296875 0 
L 45.3125 0 
L 45.3125 8.40625 
Q 42.046875 3.421875 37.71875 1 
Q 33.40625 -1.421875 27.6875 -1.421875 
Q 18.265625 -1.421875 13.375 4.4375 
Q 8.5 10.296875 8.5 21.578125 
z
M 31.109375 56 
z
" id="DejaVuSans-117"/>
      <path d="M 54.890625 33.015625 
L 54.890625 0 
L 45.90625 0 
L 45.90625 32.71875 
Q 45.90625 40.484375 42.875 44.328125 
Q 39.84375 48.1875 33.796875 48.1875 
Q 26.515625 48.1875 22.3125 43.546875 
Q 18.109375 38.921875 18.109375 30.90625 
L 18.109375 0 
L 9.078125 0 
L 9.078125 75.984375 
L 18.109375 75.984375 
L 18.109375 46.1875 
Q 21.34375 51.125 25.703125 53.5625 
Q 30.078125 56 35.796875 56 
Q 45.21875 56 50.046875 50.171875 
Q 54.890625 44.34375 54.890625 33.015625 
z
" id="DejaVuSans-104"/>
     </defs>
     <g transform="translate(10.598677 185.447656)rotate(-90)scale(0.1 -0.1)">
      <use xlink:href="#DejaVuSans-83"/>
      <use x="63.476562" xlink:href="#DejaVuSans-116"/>
      <use x="102.685547" xlink:href="#DejaVuSans-97"/>
      <use x="163.964844" xlink:href="#DejaVuSans-103"/>
      <use x="227.441406" xlink:href="#DejaVuSans-101"/>
      <use x="288.964844" xlink:href="#DejaVuSans-32"/>
      <use x="320.751953" xlink:href="#DejaVuSans-100"/>
      <use x="384.228516" xlink:href="#DejaVuSans-117"/>
      <use x="447.607422" xlink:href="#DejaVuSans-114"/>
      <use x="488.720703" xlink:href="#DejaVuSans-97"/>
      <use x="550" xlink:href="#DejaVuSans-116"/>
      <use x="589.208984" xlink:href="#DejaVuSans-105"/>
      <use x="616.992188" xlink:href="#DejaVuSans-111"/>
      <use x="678.173828" xlink:href="#DejaVuSans-110"/>
      <use x="741.552734" xlink:href="#DejaVuSans-32"/>
      <use x="773.339844" xlink:href="#DejaVuSans-40"/>
      <use x="812.353516" xlink:href="#DejaVuSans-104"/>
      <use x="875.732422" xlink:href="#DejaVuSans-111"/>
      <use x="936.914062" xlink:href="#DejaVuSans-117"/>
      <use x="1000.292969" xlink:href="#DejaVuSans-114"/>
      <use x="1041.40625" xlink:href="#DejaVuSans-115"/>
      <use x="1093.505859" xlink:href="#DejaVuSans-41"/>
     </g>
    </g>
   </g>
   <g id="line2d_16">
    <path clip-path="url(#pa0e45e8995)" d="M 58.659167 92.724863 
L 59.530033 92.187957 
L 68.238692 83.277943 
L 71.722155 80.17135 
L 75.205618 77.337828 
L 78.689082 74.781196 
L 82.172545 72.501694 
L 85.656009 70.502654 
L 89.139472 68.782267 
L 92.622936 67.342526 
L 96.106399 66.180665 
L 99.589863 65.305172 
L 103.073326 64.717916 
L 106.55679 64.430119 
L 109.169387 64.418593 
L 111.781985 64.586767 
L 114.394582 64.940771 
L 117.00718 65.490383 
L 119.619778 66.23971 
L 122.232375 67.200731 
L 124.844973 68.37494 
L 127.45757 69.769084 
L 130.070168 71.392499 
L 132.682766 73.241661 
L 135.295363 75.321958 
L 137.907961 77.628159 
L 141.391424 81.054062 
L 144.874888 84.860039 
L 148.358351 89.021095 
L 151.841815 93.50193 
L 156.196144 99.489252 
L 161.421339 107.105779 
L 169.259132 119.026355 
L 178.838656 133.564707 
L 184.063852 141.135473 
L 188.418181 147.128601 
L 192.77251 152.773971 
L 197.12684 158.032778 
L 201.481169 162.879751 
L 204.964632 166.452993 
L 208.448096 169.752016 
L 211.931559 172.778982 
L 215.415023 175.538028 
L 218.898486 178.03549 
L 222.38195 180.278432 
L 225.865413 182.275982 
L 229.348877 184.037012 
L 232.83234 185.571125 
L 236.315804 186.8877 
L 239.799267 187.996913 
L 243.282731 188.906865 
L 246.766194 189.626577 
L 251.120523 190.27119 
L 255.474853 190.646152 
L 259.829182 190.764527 
L 264.183511 190.637975 
L 268.537841 190.277378 
L 272.89217 189.689824 
L 277.246499 188.88169 
L 281.600829 187.855415 
L 285.955158 186.611106 
L 290.309487 185.143575 
L 294.663817 183.443916 
L 299.018146 181.498223 
L 303.372475 179.285317 
L 307.726805 176.78034 
L 311.210268 174.544946 
L 314.693732 172.083535 
L 318.177195 169.378097 
L 321.660658 166.408763 
L 325.144122 163.158 
L 328.627585 159.611851 
L 332.111049 155.764913 
L 335.594512 151.619423 
L 339.948842 146.046744 
L 345.174037 138.894291 
L 359.107891 119.382588 
L 363.46222 113.876996 
L 367.816549 108.766215 
L 373.041744 102.638565 
L 375.654342 99.134987 
L 376.525208 98.773554 
L 376.525208 98.773554 
" style="fill:none;stroke:#ff0000;stroke-linecap:square;stroke-width:1.5;"/>
   </g>
   <g id="line2d_17">
    <path clip-path="url(#pa0e45e8995)" d="M 58.659167 29.178619 
L 59.530033 28.70929 
L 66.49696 22.507104 
L 69.980423 19.823916 
L 73.463887 17.404247 
L 76.94735 15.243569 
L 80.430814 13.332658 
L 83.914277 11.662629 
L 87.397741 10.228515 
L 90.881204 9.019295 
L 94.364668 8.033254 
L 97.848131 7.264551 
L 101.331594 6.715238 
L 104.815058 6.386785 
L 108.298521 6.28696 
L 111.781985 6.42464 
L 115.265448 6.809738 
L 118.748912 7.459949 
L 122.232375 8.391961 
L 124.844973 9.284747 
L 128.328436 10.749758 
L 130.941034 12.063142 
L 133.553631 13.570056 
L 136.166229 15.275095 
L 139.649693 17.865878 
L 143.133156 20.827649 
L 146.616619 24.163313 
L 150.100083 27.869894 
L 153.583546 31.940231 
L 157.06701 36.357027 
L 160.550473 41.099594 
L 164.904803 47.437938 
L 169.259132 54.167057 
L 174.484327 62.638654 
L 183.192986 77.290625 
L 192.77251 93.347271 
L 197.997706 101.729266 
L 203.222901 109.666635 
L 207.57723 115.857438 
L 211.931559 121.60787 
L 215.415023 125.864024 
L 218.898486 129.798099 
L 222.38195 133.398716 
L 225.865413 136.660199 
L 229.348877 139.57901 
L 232.83234 142.155378 
L 236.315804 144.391665 
L 239.799267 146.293987 
L 243.282731 147.867111 
L 246.766194 149.11939 
L 250.249657 150.059463 
L 253.733121 150.696894 
L 257.216584 151.041442 
L 260.700048 151.103182 
L 264.183511 150.891248 
L 267.666975 150.416962 
L 271.150438 149.687644 
L 274.633902 148.711926 
L 278.117365 147.497896 
L 281.600829 146.050383 
L 285.084292 144.374087 
L 288.567756 142.470717 
L 292.051219 140.339755 
L 295.534682 137.979239 
L 299.018146 135.384125 
L 302.501609 132.545237 
L 305.985073 129.454944 
L 309.468536 126.100354 
L 312.952 122.470941 
L 316.435463 118.556176 
L 319.918927 114.34567 
L 323.40239 109.836364 
L 327.756719 103.785343 
L 332.111049 97.301622 
L 337.336244 89.0412 
L 345.174037 76.097883 
L 351.270098 66.154188 
L 355.624427 59.474662 
L 359.107891 54.534962 
L 362.591354 50.009946 
L 366.074818 45.879532 
L 375.654342 34.899659 
L 376.525208 34.571175 
L 376.525208 34.571175 
" style="fill:none;stroke:#000000;stroke-dasharray:9.6,2.4,1.5,2.4;stroke-dashoffset:0;stroke-width:1.5;"/>
   </g>
   <g id="patch_3">
    <path d="M 42.765865 254.64351 
L 42.765865 3.00024 
" style="fill:none;stroke:#000000;stroke-linecap:square;stroke-linejoin:miter;stroke-width:0.8;"/>
   </g>
   <g id="patch_4">
    <path d="M 392.41851 254.64351 
L 392.41851 3.00024 
" style="fill:none;stroke:#000000;stroke-linecap:square;stroke-linejoin:miter;stroke-width:0.8;"/>
   </g>
   <g id="patch_5">
    <path d="M 42.765865 254.64351 
L 392.41851 254.64351 
" style="fill:none;stroke:#000000;stroke-linecap:square;stroke-linejoin:miter;stroke-width:0.8;"/>
   </g>
   <g id="patch_6">
    <path d="M 42.765865 3.00024 
L 392.41851 3.00024 
" style="fill:none;stroke:#000000;stroke-linecap:square;stroke-linejoin:miter;stroke-width:0.8;"/>
   </g>
  </g>
  <g id="axes_2">
   <g id="matplotlib.axis_3">
    <g id="ytick_8">
     <g id="line2d_18">
      <defs>
       <path d="M 0 0 
L 3.5 0 
" id="me9ff756746" style="stroke:#000000;stroke-width:0.8;"/>
      </defs>
      <g>
       <use style="stroke:#000000;stroke-width:0.8;" x="392.41851" xlink:href="#me9ff756746" y="243.20518"/>
      </g>
     </g>
     <g id="text_18">
      <!-- 0.0 -->
      <defs>
       <path d="M 10.6875 12.40625 
L 21 12.40625 
L 21 0 
L 10.6875 0 
z
" id="DejaVuSans-46"/>
      </defs>
      <g transform="translate(399.41851 247.004398)scale(0.1 -0.1)">
       <use xlink:href="#DejaVuSans-48"/>
       <use x="63.623047" xlink:href="#DejaVuSans-46"/>
       <use x="95.410156" xlink:href="#DejaVuSans-48"/>
      </g>
     </g>
    </g>
    <g id="ytick_9">
     <g id="line2d_19">
      <g>
       <use style="stroke:#000000;stroke-width:0.8;" x="392.41851" xlink:href="#me9ff756746" y="211.77458"/>
      </g>
     </g>
     <g id="text_19">
      <!-- 0.1 -->
      <g transform="translate(399.41851 215.573799)scale(0.1 -0.1)">
       <use xlink:href="#DejaVuSans-48"/>
       <use x="63.623047" xlink:href="#DejaVuSans-46"/>
       <use x="95.410156" xlink:href="#DejaVuSans-49"/>
      </g>
     </g>
    </g>
    <g id="ytick_10">
     <g id="line2d_20">
      <g>
       <use style="stroke:#000000;stroke-width:0.8;" x="392.41851" xlink:href="#me9ff756746" y="180.343981"/>
      </g>
     </g>
     <g id="text_20">
      <!-- 0.2 -->
      <g transform="translate(399.41851 184.1432)scale(0.1 -0.1)">
       <use xlink:href="#DejaVuSans-48"/>
       <use x="63.623047" xlink:href="#DejaVuSans-46"/>
       <use x="95.410156" xlink:href="#DejaVuSans-50"/>
      </g>
     </g>
    </g>
    <g id="ytick_11">
     <g id="line2d_21">
      <g>
       <use style="stroke:#000000;stroke-width:0.8;" x="392.41851" xlink:href="#me9ff756746" y="148.913381"/>
      </g>
     </g>
     <g id="text_21">
      <!-- 0.3 -->
      <g transform="translate(399.41851 152.7126)scale(0.1 -0.1)">
       <use xlink:href="#DejaVuSans-48"/>
       <use x="63.623047" xlink:href="#DejaVuSans-46"/>
       <use x="95.410156" xlink:href="#DejaVuSans-51"/>
      </g>
     </g>
    </g>
    <g id="ytick_12">
     <g id="line2d_22">
      <g>
       <use style="stroke:#000000;stroke-width:0.8;" x="392.41851" xlink:href="#me9ff756746" y="117.482782"/>
      </g>
     </g>
     <g id="text_22">
      <!-- 0.4 -->
      <g transform="translate(399.41851 121.282001)scale(0.1 -0.1)">
       <use xlink:href="#DejaVuSans-48"/>
       <use x="63.623047" xlink:href="#DejaVuSans-46"/>
       <use x="95.410156" xlink:href="#DejaVuSans-52"/>
      </g>
     </g>
    </g>
    <g id="ytick_13">
     <g id="line2d_23">
      <g>
       <use style="stroke:#000000;stroke-width:0.8;" x="392.41851" xlink:href="#me9ff756746" y="86.052183"/>
      </g>
     </g>
     <g id="text_23">
      <!-- 0.5 -->
      <g transform="translate(399.41851 89.851402)scale(0.1 -0.1)">
       <use xlink:href="#DejaVuSans-48"/>
       <use x="63.623047" xlink:href="#DejaVuSans-46"/>
       <use x="95.410156" xlink:href="#DejaVuSans-53"/>
      </g>
     </g>
    </g>
    <g id="ytick_14">
     <g id="line2d_24">
      <g>
       <use style="stroke:#000000;stroke-width:0.8;" x="392.41851" xlink:href="#me9ff756746" y="54.621583"/>
      </g>
     </g>
     <g id="text_24">
      <!-- 0.6 -->
      <g transform="translate(399.41851 58.420802)scale(0.1 -0.1)">
       <use xlink:href="#DejaVuSans-48"/>
       <use x="63.623047" xlink:href="#DejaVuSans-46"/>
       <use x="95.410156" xlink:href="#DejaVuSans-54"/>
      </g>
     </g>
    </g>
    <g id="ytick_15">
     <g id="line2d_25">
      <g>
       <use style="stroke:#000000;stroke-width:0.8;" x="392.41851" xlink:href="#me9ff756746" y="23.190984"/>
      </g>
     </g>
     <g id="text_25">
      <!-- 0.7 -->
      <defs>
       <path d="M 8.203125 72.90625 
L 55.078125 72.90625 
L 55.078125 68.703125 
L 28.609375 0 
L 18.3125 0 
L 43.21875 64.59375 
L 8.203125 64.59375 
z
" id="DejaVuSans-55"/>
      </defs>
      <g transform="translate(399.41851 26.990203)scale(0.1 -0.1)">
       <use xlink:href="#DejaVuSans-48"/>
       <use x="63.623047" xlink:href="#DejaVuSans-46"/>
       <use x="95.410156" xlink:href="#DejaVuSans-55"/>
      </g>
     </g>
    </g>
    <g id="text_26">
     <!-- Survival probability -->
     <defs>
      <path d="M 2.984375 54.6875 
L 12.5 54.6875 
L 29.59375 8.796875 
L 46.6875 54.6875 
L 56.203125 54.6875 
L 35.6875 0 
L 23.484375 0 
z
" id="DejaVuSans-118"/>
      <path d="M 9.421875 75.984375 
L 18.40625 75.984375 
L 18.40625 0 
L 9.421875 0 
z
" id="DejaVuSans-108"/>
      <path d="M 48.6875 27.296875 
Q 48.6875 37.203125 44.609375 42.84375 
Q 40.53125 48.484375 33.40625 48.484375 
Q 26.265625 48.484375 22.1875 42.84375 
Q 18.109375 37.203125 18.109375 27.296875 
Q 18.109375 17.390625 22.1875 11.75 
Q 26.265625 6.109375 33.40625 6.109375 
Q 40.53125 6.109375 44.609375 11.75 
Q 48.6875 17.390625 48.6875 27.296875 
z
M 18.109375 46.390625 
Q 20.953125 51.265625 25.265625 53.625 
Q 29.59375 56 35.59375 56 
Q 45.5625 56 51.78125 48.09375 
Q 58.015625 40.1875 58.015625 27.296875 
Q 58.015625 14.40625 51.78125 6.484375 
Q 45.5625 -1.421875 35.59375 -1.421875 
Q 29.59375 -1.421875 25.265625 0.953125 
Q 20.953125 3.328125 18.109375 8.203125 
L 18.109375 0 
L 9.078125 0 
L 9.078125 75.984375 
L 18.109375 75.984375 
z
" id="DejaVuSans-98"/>
     </defs>
     <g transform="translate(426.920073 177.357031)rotate(-90)scale(0.1 -0.1)">
      <use xlink:href="#DejaVuSans-83"/>
      <use x="63.476562" xlink:href="#DejaVuSans-117"/>
      <use x="126.855469" xlink:href="#DejaVuSans-114"/>
      <use x="167.96875" xlink:href="#DejaVuSans-118"/>
      <use x="227.148438" xlink:href="#DejaVuSans-105"/>
      <use x="254.931641" xlink:href="#DejaVuSans-118"/>
      <use x="314.111328" xlink:href="#DejaVuSans-97"/>
      <use x="375.390625" xlink:href="#DejaVuSans-108"/>
      <use x="403.173828" xlink:href="#DejaVuSans-32"/>
      <use x="434.960938" xlink:href="#DejaVuSans-112"/>
      <use x="498.4375" xlink:href="#DejaVuSans-114"/>
      <use x="539.519531" xlink:href="#DejaVuSans-111"/>
      <use x="600.701172" xlink:href="#DejaVuSans-98"/>
      <use x="664.177734" xlink:href="#DejaVuSans-97"/>
      <use x="725.457031" xlink:href="#DejaVuSans-98"/>
      <use x="788.933594" xlink:href="#DejaVuSans-105"/>
      <use x="816.716797" xlink:href="#DejaVuSans-108"/>
      <use x="844.5" xlink:href="#DejaVuSans-105"/>
      <use x="872.283203" xlink:href="#DejaVuSans-116"/>
      <use x="911.492188" xlink:href="#DejaVuSans-121"/>
     </g>
    </g>
   </g>
   <g id="line2d_26">
    <path clip-path="url(#pa0e45e8995)" d="M 58.659167 238.184022 
L 61.271765 238.476268 
L 68.238692 239.260728 
L 76.076484 239.873288 
L 84.785143 240.324462 
L 95.235533 240.639329 
L 106.55679 240.768138 
L 117.878046 240.686724 
L 127.45757 240.411988 
L 135.295363 239.986246 
L 142.26229 239.390236 
L 148.358351 238.637358 
L 153.583546 237.766706 
L 157.937876 236.843997 
L 162.292205 235.709044 
L 166.646534 234.329986 
L 171.000864 232.678214 
L 174.484327 231.145003 
L 177.967791 229.414909 
L 182.32212 226.972374 
L 186.676449 224.22643 
L 191.030779 221.200936 
L 196.255974 217.256909 
L 202.352035 212.345027 
L 218.898486 198.807771 
L 224.123681 194.937159 
L 228.478011 192.001414 
L 231.961474 189.87873 
L 235.444938 187.978704 
L 238.928401 186.317836 
L 242.411865 184.907051 
L 245.895328 183.753843 
L 249.378792 182.862496 
L 252.862255 182.233002 
L 256.345719 181.8625 
L 259.829182 181.745384 
L 263.312645 181.874019 
L 266.796109 182.238121 
L 270.279572 182.827317 
L 273.763036 183.629191 
L 277.246499 184.631796 
L 281.600829 186.147591 
L 285.955158 187.932906 
L 290.309487 189.966838 
L 294.663817 192.229133 
L 299.889012 195.219904 
L 305.114207 198.483651 
L 310.339402 201.990108 
L 316.435463 206.335836 
L 326.014988 213.504918 
L 334.723646 219.974846 
L 339.948842 223.597313 
L 344.303171 226.355111 
L 347.786634 228.345209 
L 351.270098 230.118948 
L 354.753561 231.66558 
L 358.237025 232.987105 
L 361.720488 234.098979 
L 366.074818 235.242126 
L 372.170879 236.557313 
L 376.525208 237.344927 
L 376.525208 237.344927 
" style="fill:none;stroke:#0000ff;stroke-linecap:square;stroke-width:1.5;"/>
   </g>
   <g id="line2d_27">
    <path clip-path="url(#pa0e45e8995)" d="M 58.659167 243.20518 
L 172.742595 243.20518 
L 175.355193 224.465509 
L 181.451254 180.795828 
L 185.805583 151.174171 
L 189.289047 128.916266 
L 192.77251 108.266228 
L 195.385108 93.984566 
L 197.997706 80.832479 
L 200.610303 68.87393 
L 203.222901 58.154617 
L 205.835498 48.700596 
L 207.57723 43.102583 
L 209.318962 38.061762 
L 211.060694 33.572619 
L 212.802425 29.618265 
L 214.544157 26.18536 
L 216.285889 23.252242 
L 218.02762 20.796924 
L 219.769352 18.792188 
L 221.511084 17.20889 
L 223.252816 16.016662 
L 224.994547 15.182996 
L 226.736279 14.673142 
L 228.478011 14.451962 
L 230.219743 14.483943 
L 231.961474 14.733183 
L 233.703206 15.164219 
L 236.315804 16.0751 
L 239.799267 17.611272 
L 247.63706 21.277591 
L 250.249657 22.284108 
L 252.862255 23.087247 
L 255.474853 23.650874 
L 258.08745 23.952911 
L 260.700048 23.987458 
L 263.312645 23.759144 
L 265.925243 23.284633 
L 268.537841 22.593821 
L 272.021304 21.397257 
L 276.375633 19.615279 
L 283.34256 16.6957 
L 286.826024 15.507944 
L 289.438621 14.860327 
L 292.051219 14.493742 
L 293.792951 14.438585 
L 295.534682 14.558218 
L 297.276414 14.872837 
L 299.018146 15.403373 
L 300.759878 16.170957 
L 302.501609 17.196926 
L 304.243341 18.50277 
L 305.985073 20.110092 
L 307.726805 22.042775 
L 309.468536 24.322193 
L 311.210268 26.970544 
L 312.952 30.01315 
L 314.693732 33.469627 
L 316.435463 37.361995 
L 318.177195 41.714219 
L 319.918927 46.544002 
L 321.660658 51.869847 
L 323.40239 57.709251 
L 326.014988 67.456348 
L 328.627585 78.416153 
L 331.240183 90.593049 
L 333.852781 103.966096 
L 336.465378 118.477336 
L 339.948842 139.433865 
L 343.432305 161.91372 
L 348.6575 197.415734 
L 354.753561 239.108449 
L 355.624427 243.20518 
L 376.525208 243.20518 
L 376.525208 243.20518 
" style="fill:none;stroke:#008000;stroke-linecap:square;stroke-width:1.5;"/>
   </g>
   <g id="line2d_28">
    <path clip-path="url(#pa0e45e8995)" d="M 58.659167 242.214954 
L 97.848131 242.639476 
L 125.715839 242.604369 
L 144.004022 242.388701 
L 156.196144 242.049622 
L 165.775669 241.572344 
L 173.613461 240.961026 
L 180.580388 240.182392 
L 186.676449 239.269763 
L 191.901644 238.286785 
L 197.12684 237.10251 
L 202.352035 235.714862 
L 208.448096 233.858947 
L 215.415023 231.496837 
L 232.83234 225.452899 
L 238.057535 223.926289 
L 242.411865 222.853637 
L 246.766194 221.996066 
L 251.120523 221.376155 
L 255.474853 221.005765 
L 259.829182 220.887303 
L 264.183511 221.01392 
L 268.537841 221.370101 
L 272.89217 221.936167 
L 278.117365 222.856725 
L 283.34256 223.996706 
L 289.438621 225.541514 
L 297.276414 227.757808 
L 325.144122 235.886839 
L 332.111049 237.561209 
L 338.20711 238.797342 
L 344.303171 239.798145 
L 350.399232 240.566404 
L 357.366159 241.191836 
L 365.203952 241.648723 
L 376.525208 242.068687 
L 376.525208 242.068687 
" style="fill:none;stroke:#000000;stroke-linecap:square;stroke-width:1.5;"/>
   </g>
   <g id="line2d_29">
    <path clip-path="url(#pa0e45e8995)" d="M 58.659167 243.20518 
L 172.742595 243.20518 
L 175.355193 242.46144 
L 178.838656 241.213377 
L 182.32212 239.669167 
L 185.805583 237.815757 
L 189.289047 235.655346 
L 192.77251 233.208491 
L 196.255974 230.513283 
L 200.610303 226.880631 
L 215.415023 214.242416 
L 218.898486 211.639444 
L 222.38195 209.303096 
L 225.865413 207.264167 
L 229.348877 205.535949 
L 232.83234 204.11408 
L 236.315804 202.979978 
L 239.799267 202.10364 
L 243.282731 201.450231 
L 247.63706 200.889662 
L 251.991389 200.550748 
L 257.216584 200.363462 
L 263.312645 200.384233 
L 268.537841 200.600116 
L 273.763036 201.032069 
L 278.117365 201.597327 
L 282.471694 202.388981 
L 286.826024 203.444504 
L 290.309487 204.50073 
L 293.792951 205.76028 
L 297.276414 207.232775 
L 300.759878 208.923244 
L 304.243341 210.831542 
L 307.726805 212.950686 
L 312.081134 215.87456 
L 316.435463 219.058955 
L 322.531524 223.816281 
L 332.111049 231.347229 
L 336.465378 234.478045 
L 339.948842 236.731443 
L 343.432305 238.710364 
L 346.915769 240.386352 
L 350.399232 241.753685 
L 353.882695 242.828239 
L 355.624427 243.20518 
L 376.525208 243.20518 
L 376.525208 243.20518 
" style="fill:none;stroke:#bfbf00;stroke-linecap:square;stroke-width:1.5;"/>
   </g>
   <g id="patch_7">
    <path d="M 42.765865 254.64351 
L 42.765865 3.00024 
" style="fill:none;stroke:#000000;stroke-linecap:square;stroke-linejoin:miter;stroke-width:0.8;"/>
   </g>
   <g id="patch_8">
    <path d="M 392.41851 254.64351 
L 392.41851 3.00024 
" style="fill:none;stroke:#000000;stroke-linecap:square;stroke-linejoin:miter;stroke-width:0.8;"/>
   </g>
   <g id="patch_9">
    <path d="M 42.765865 254.64351 
L 392.41851 254.64351 
" style="fill:none;stroke:#000000;stroke-linecap:square;stroke-linejoin:miter;stroke-width:0.8;"/>
   </g>
   <g id="patch_10">
    <path d="M 42.765865 3.00024 
L 392.41851 3.00024 
" style="fill:none;stroke:#000000;stroke-linecap:square;stroke-linejoin:miter;stroke-width:0.8;"/>
   </g>
  </g>
  <g id="legend_1">
   <g id="patch_11">
    <path d="M 49.52 -5.76 
L 391.12 -5.76 
Q 393.12 -5.76 393.12 -7.76 
L 393.12 -50.794375 
Q 393.12 -52.794375 391.12 -52.794375 
L 49.52 -52.794375 
Q 47.52 -52.794375 47.52 -50.794375 
L 47.52 -7.76 
Q 47.52 -5.76 49.52 -5.76 
z
" style="fill:#ffffff;opacity:0.8;stroke:#cccccc;stroke-linejoin:miter;"/>
   </g>
   <g id="line2d_30">
    <path style="fill:none;stroke:#ff0000;stroke-linecap:square;stroke-width:1.5;"/>
   </g>
   <g id="line2d_31"/>
   <g id="text_27">
    <!-- Age at hatching (hours) -->
    <defs>
     <path d="M 34.1875 63.1875 
L 20.796875 26.90625 
L 47.609375 26.90625 
z
M 28.609375 72.90625 
L 39.796875 72.90625 
L 67.578125 0 
L 57.328125 0 
L 50.6875 18.703125 
L 17.828125 18.703125 
L 11.1875 0 
L 0.78125 0 
z
" id="DejaVuSans-65"/>
     <path d="M 48.78125 52.59375 
L 48.78125 44.1875 
Q 44.96875 46.296875 41.140625 47.34375 
Q 37.3125 48.390625 33.40625 48.390625 
Q 24.65625 48.390625 19.8125 42.84375 
Q 14.984375 37.3125 14.984375 27.296875 
Q 14.984375 17.28125 19.8125 11.734375 
Q 24.65625 6.203125 33.40625 6.203125 
Q 37.3125 6.203125 41.140625 7.25 
Q 44.96875 8.296875 48.78125 10.40625 
L 48.78125 2.09375 
Q 45.015625 0.34375 40.984375 -0.53125 
Q 36.96875 -1.421875 32.421875 -1.421875 
Q 20.0625 -1.421875 12.78125 6.34375 
Q 5.515625 14.109375 5.515625 27.296875 
Q 5.515625 40.671875 12.859375 48.328125 
Q 20.21875 56 33.015625 56 
Q 37.15625 56 41.109375 55.140625 
Q 45.0625 54.296875 48.78125 52.59375 
z
" id="DejaVuSans-99"/>
    </defs>
    <g transform="translate(79.52 -41.195938)scale(0.1 -0.1)">
     <use xlink:href="#DejaVuSans-65"/>
     <use x="68.408203" xlink:href="#DejaVuSans-103"/>
     <use x="131.884766" xlink:href="#DejaVuSans-101"/>
     <use x="193.408203" xlink:href="#DejaVuSans-32"/>
     <use x="225.195312" xlink:href="#DejaVuSans-97"/>
     <use x="286.474609" xlink:href="#DejaVuSans-116"/>
     <use x="325.683594" xlink:href="#DejaVuSans-32"/>
     <use x="357.470703" xlink:href="#DejaVuSans-104"/>
     <use x="420.849609" xlink:href="#DejaVuSans-97"/>
     <use x="482.128906" xlink:href="#DejaVuSans-116"/>
     <use x="521.337891" xlink:href="#DejaVuSans-99"/>
     <use x="576.318359" xlink:href="#DejaVuSans-104"/>
     <use x="639.697266" xlink:href="#DejaVuSans-105"/>
     <use x="667.480469" xlink:href="#DejaVuSans-110"/>
     <use x="730.859375" xlink:href="#DejaVuSans-103"/>
     <use x="794.335938" xlink:href="#DejaVuSans-32"/>
     <use x="826.123047" xlink:href="#DejaVuSans-40"/>
     <use x="865.136719" xlink:href="#DejaVuSans-104"/>
     <use x="928.515625" xlink:href="#DejaVuSans-111"/>
     <use x="989.697266" xlink:href="#DejaVuSans-117"/>
     <use x="1053.076172" xlink:href="#DejaVuSans-114"/>
     <use x="1094.189453" xlink:href="#DejaVuSans-115"/>
     <use x="1146.289062" xlink:href="#DejaVuSans-41"/>
    </g>
   </g>
   <g id="line2d_32">
    <path style="fill:none;stroke:#000000;stroke-dasharray:9.6,2.4,1.5,2.4;stroke-dashoffset:0;stroke-width:1.5;"/>
   </g>
   <g id="line2d_33"/>
   <g id="text_28">
    <!-- Yolk stage (hours) -->
    <defs>
     <path d="M -0.203125 72.90625 
L 10.40625 72.90625 
L 30.609375 42.921875 
L 50.6875 72.90625 
L 61.28125 72.90625 
L 35.5 34.71875 
L 35.5 0 
L 25.59375 0 
L 25.59375 34.71875 
z
" id="DejaVuSans-89"/>
     <path d="M 9.078125 75.984375 
L 18.109375 75.984375 
L 18.109375 31.109375 
L 44.921875 54.6875 
L 56.390625 54.6875 
L 27.390625 29.109375 
L 57.625 0 
L 45.90625 0 
L 18.109375 26.703125 
L 18.109375 0 
L 9.078125 0 
z
" id="DejaVuSans-107"/>
    </defs>
    <g transform="translate(79.52 -26.517812)scale(0.1 -0.1)">
     <use xlink:href="#DejaVuSans-89"/>
     <use x="60.880859" xlink:href="#DejaVuSans-111"/>
     <use x="122.0625" xlink:href="#DejaVuSans-108"/>
     <use x="149.845703" xlink:href="#DejaVuSans-107"/>
     <use x="207.755859" xlink:href="#DejaVuSans-32"/>
     <use x="239.542969" xlink:href="#DejaVuSans-115"/>
     <use x="291.642578" xlink:href="#DejaVuSans-116"/>
     <use x="330.851562" xlink:href="#DejaVuSans-97"/>
     <use x="392.130859" xlink:href="#DejaVuSans-103"/>
     <use x="455.607422" xlink:href="#DejaVuSans-101"/>
     <use x="517.130859" xlink:href="#DejaVuSans-32"/>
     <use x="548.917969" xlink:href="#DejaVuSans-40"/>
     <use x="587.931641" xlink:href="#DejaVuSans-104"/>
     <use x="651.310547" xlink:href="#DejaVuSans-111"/>
     <use x="712.492188" xlink:href="#DejaVuSans-117"/>
     <use x="775.871094" xlink:href="#DejaVuSans-114"/>
     <use x="816.984375" xlink:href="#DejaVuSans-115"/>
     <use x="869.083984" xlink:href="#DejaVuSans-41"/>
    </g>
   </g>
   <g id="line2d_34">
    <path style="fill:none;stroke:#0000ff;stroke-linecap:square;stroke-width:1.5;"/>
   </g>
   <g id="line2d_35"/>
   <g id="text_29">
    <!-- Egg predation survival -->
    <defs>
     <path d="M 9.8125 72.90625 
L 55.90625 72.90625 
L 55.90625 64.59375 
L 19.671875 64.59375 
L 19.671875 43.015625 
L 54.390625 43.015625 
L 54.390625 34.71875 
L 19.671875 34.71875 
L 19.671875 8.296875 
L 56.78125 8.296875 
L 56.78125 0 
L 9.8125 0 
z
" id="DejaVuSans-69"/>
    </defs>
    <g transform="translate(79.52 -11.839688)scale(0.1 -0.1)">
     <use xlink:href="#DejaVuSans-69"/>
     <use x="63.183594" xlink:href="#DejaVuSans-103"/>
     <use x="126.660156" xlink:href="#DejaVuSans-103"/>
     <use x="190.136719" xlink:href="#DejaVuSans-32"/>
     <use x="221.923828" xlink:href="#DejaVuSans-112"/>
     <use x="285.400391" xlink:href="#DejaVuSans-114"/>
     <use x="326.482422" xlink:href="#DejaVuSans-101"/>
     <use x="388.005859" xlink:href="#DejaVuSans-100"/>
     <use x="451.482422" xlink:href="#DejaVuSans-97"/>
     <use x="512.761719" xlink:href="#DejaVuSans-116"/>
     <use x="551.970703" xlink:href="#DejaVuSans-105"/>
     <use x="579.753906" xlink:href="#DejaVuSans-111"/>
     <use x="640.935547" xlink:href="#DejaVuSans-110"/>
     <use x="704.314453" xlink:href="#DejaVuSans-32"/>
     <use x="736.101562" xlink:href="#DejaVuSans-115"/>
     <use x="788.201172" xlink:href="#DejaVuSans-117"/>
     <use x="851.580078" xlink:href="#DejaVuSans-114"/>
     <use x="892.693359" xlink:href="#DejaVuSans-118"/>
     <use x="951.873047" xlink:href="#DejaVuSans-105"/>
     <use x="979.65625" xlink:href="#DejaVuSans-118"/>
     <use x="1038.835938" xlink:href="#DejaVuSans-97"/>
     <use x="1100.115234" xlink:href="#DejaVuSans-108"/>
    </g>
   </g>
   <g id="line2d_36">
    <path style="fill:none;stroke:#008000;stroke-linecap:square;stroke-width:1.5;"/>
   </g>
   <g id="line2d_37"/>
   <g id="text_30">
    <!-- Hatching probability -->
    <defs>
     <path d="M 9.8125 72.90625 
L 19.671875 72.90625 
L 19.671875 43.015625 
L 55.515625 43.015625 
L 55.515625 72.90625 
L 65.375 72.90625 
L 65.375 0 
L 55.515625 0 
L 55.515625 34.71875 
L 19.671875 34.71875 
L 19.671875 0 
L 9.8125 0 
z
" id="DejaVuSans-72"/>
    </defs>
    <g transform="translate(287.499687 -41.195938)scale(0.1 -0.1)">
     <use xlink:href="#DejaVuSans-72"/>
     <use x="75.195312" xlink:href="#DejaVuSans-97"/>
     <use x="136.474609" xlink:href="#DejaVuSans-116"/>
     <use x="175.683594" xlink:href="#DejaVuSans-99"/>
     <use x="230.664062" xlink:href="#DejaVuSans-104"/>
     <use x="294.042969" xlink:href="#DejaVuSans-105"/>
     <use x="321.826172" xlink:href="#DejaVuSans-110"/>
     <use x="385.205078" xlink:href="#DejaVuSans-103"/>
     <use x="448.681641" xlink:href="#DejaVuSans-32"/>
     <use x="480.46875" xlink:href="#DejaVuSans-112"/>
     <use x="543.945312" xlink:href="#DejaVuSans-114"/>
     <use x="585.027344" xlink:href="#DejaVuSans-111"/>
     <use x="646.208984" xlink:href="#DejaVuSans-98"/>
     <use x="709.685547" xlink:href="#DejaVuSans-97"/>
     <use x="770.964844" xlink:href="#DejaVuSans-98"/>
     <use x="834.441406" xlink:href="#DejaVuSans-105"/>
     <use x="862.224609" xlink:href="#DejaVuSans-108"/>
     <use x="890.007812" xlink:href="#DejaVuSans-105"/>
     <use x="917.791016" xlink:href="#DejaVuSans-116"/>
     <use x="957" xlink:href="#DejaVuSans-121"/>
    </g>
   </g>
   <g id="line2d_38">
    <path style="fill:none;stroke:#000000;stroke-linecap:square;stroke-width:1.5;"/>
   </g>
   <g id="line2d_39"/>
   <g id="text_31">
    <!-- Survival yolk stage -->
    <g transform="translate(287.499687 -26.517812)scale(0.1 -0.1)">
     <use xlink:href="#DejaVuSans-83"/>
     <use x="63.476562" xlink:href="#DejaVuSans-117"/>
     <use x="126.855469" xlink:href="#DejaVuSans-114"/>
     <use x="167.96875" xlink:href="#DejaVuSans-118"/>
     <use x="227.148438" xlink:href="#DejaVuSans-105"/>
     <use x="254.931641" xlink:href="#DejaVuSans-118"/>
     <use x="314.111328" xlink:href="#DejaVuSans-97"/>
     <use x="375.390625" xlink:href="#DejaVuSans-108"/>
     <use x="403.173828" xlink:href="#DejaVuSans-32"/>
     <use x="434.960938" xlink:href="#DejaVuSans-121"/>
     <use x="494.140625" xlink:href="#DejaVuSans-111"/>
     <use x="555.322266" xlink:href="#DejaVuSans-108"/>
     <use x="583.105469" xlink:href="#DejaVuSans-107"/>
     <use x="641.015625" xlink:href="#DejaVuSans-32"/>
     <use x="672.802734" xlink:href="#DejaVuSans-115"/>
     <use x="724.902344" xlink:href="#DejaVuSans-116"/>
     <use x="764.111328" xlink:href="#DejaVuSans-97"/>
     <use x="825.390625" xlink:href="#DejaVuSans-103"/>
     <use x="888.867188" xlink:href="#DejaVuSans-101"/>
    </g>
   </g>
   <g id="line2d_40">
    <path style="fill:none;stroke:#bfbf00;stroke-linecap:square;stroke-width:1.5;"/>
   </g>
   <g id="line2d_41"/>
   <g id="text_32">
    <!-- Total egg survival -->
    <defs>
     <path d="M -0.296875 72.90625 
L 61.375 72.90625 
L 61.375 64.59375 
L 35.5 64.59375 
L 35.5 0 
L 25.59375 0 
L 25.59375 64.59375 
L -0.296875 64.59375 
z
" id="DejaVuSans-84"/>
    </defs>
    <g transform="translate(287.499687 -11.839688)scale(0.1 -0.1)">
     <use xlink:href="#DejaVuSans-84"/>
     <use x="60.818359" xlink:href="#DejaVuSans-111"/>
     <use x="122" xlink:href="#DejaVuSans-116"/>
     <use x="161.208984" xlink:href="#DejaVuSans-97"/>
     <use x="222.488281" xlink:href="#DejaVuSans-108"/>
     <use x="250.271484" xlink:href="#DejaVuSans-32"/>
     <use x="282.058594" xlink:href="#DejaVuSans-101"/>
     <use x="343.582031" xlink:href="#DejaVuSans-103"/>
     <use x="407.058594" xlink:href="#DejaVuSans-103"/>
     <use x="470.535156" xlink:href="#DejaVuSans-32"/>
     <use x="502.322266" xlink:href="#DejaVuSans-115"/>
     <use x="554.421875" xlink:href="#DejaVuSans-117"/>
     <use x="617.800781" xlink:href="#DejaVuSans-114"/>
     <use x="658.914062" xlink:href="#DejaVuSans-118"/>
     <use x="718.09375" xlink:href="#DejaVuSans-105"/>
     <use x="745.876953" xlink:href="#DejaVuSans-118"/>
     <use x="805.056641" xlink:href="#DejaVuSans-97"/>
     <use x="866.335938" xlink:href="#DejaVuSans-108"/>
    </g>
   </g>
  </g>
 </g>
 <defs>
  <clipPath id="pa0e45e8995">
   <rect height="251.64327" width="349.652645" x="42.765865" y="3.00024"/>
  </clipPath>
 </defs>
</svg>
