<?xml version="1.0" encoding="utf-8" standalone="no"?>
<!DOCTYPE svg PUBLIC "-//W3C//DTD SVG 1.1//EN"
  "http://www.w3.org/Graphics/SVG/1.1/DTD/svg11.dtd">
<!-- Created with matplotlib (https://matplotlib.org/) -->
<svg height="360pt" version="1.1" viewBox="0 0 720 360" width="720pt" xmlns="http://www.w3.org/2000/svg" xmlns:xlink="http://www.w3.org/1999/xlink">
 <defs>
  <style type="text/css">
*{stroke-linecap:butt;stroke-linejoin:round;white-space:pre;}
  </style>
 </defs>
 <g id="figure_1">
  <g id="patch_1">
   <path d="M 0 360 
L 720 360 
L 720 0 
L 0 0 
z
" style="fill:#ffffff;"/>
  </g>
  <g id="axes_1">
   <g id="patch_2">
    <path d="M 90 315 
L 648 315 
L 648 43.2 
L 90 43.2 
z
" style="fill:#ffffff;"/>
   </g>
   <g id="matplotlib.axis_1">
    <g id="xtick_1">
     <g id="line2d_1">
      <defs>
       <path d="M 0 0 
L 0 3.5 
" id="m125f476e61" style="stroke:#000000;stroke-width:0.8;"/>
      </defs>
      <g>
       <use style="stroke:#000000;stroke-width:0.8;" x="140.727273" xlink:href="#m125f476e61" y="315"/>
      </g>
     </g>
     <g id="text_1">
      <!-- 160 -->
      <defs>
       <path d="M 12.40625 8.296875 
L 28.515625 8.296875 
L 28.515625 63.921875 
L 10.984375 60.40625 
L 10.984375 69.390625 
L 28.421875 72.90625 
L 38.28125 72.90625 
L 38.28125 8.296875 
L 54.390625 8.296875 
L 54.390625 0 
L 12.40625 0 
z
" id="DejaVuSans-49"/>
       <path d="M 33.015625 40.375 
Q 26.375 40.375 22.484375 35.828125 
Q 18.609375 31.296875 18.609375 23.390625 
Q 18.609375 15.53125 22.484375 10.953125 
Q 26.375 6.390625 33.015625 6.390625 
Q 39.65625 6.390625 43.53125 10.953125 
Q 47.40625 15.53125 47.40625 23.390625 
Q 47.40625 31.296875 43.53125 35.828125 
Q 39.65625 40.375 33.015625 40.375 
z
M 52.59375 71.296875 
L 52.59375 62.3125 
Q 48.875 64.0625 45.09375 64.984375 
Q 41.3125 65.921875 37.59375 65.921875 
Q 27.828125 65.921875 22.671875 59.328125 
Q 17.53125 52.734375 16.796875 39.40625 
Q 19.671875 43.65625 24.015625 45.921875 
Q 28.375 48.1875 33.59375 48.1875 
Q 44.578125 48.1875 50.953125 41.515625 
Q 57.328125 34.859375 57.328125 23.390625 
Q 57.328125 12.15625 50.6875 5.359375 
Q 44.046875 -1.421875 33.015625 -1.421875 
Q 20.359375 -1.421875 13.671875 8.265625 
Q 6.984375 17.96875 6.984375 36.375 
Q 6.984375 53.65625 15.1875 63.9375 
Q 23.390625 74.21875 37.203125 74.21875 
Q 40.921875 74.21875 44.703125 73.484375 
Q 48.484375 72.75 52.59375 71.296875 
z
" id="DejaVuSans-54"/>
       <path d="M 31.78125 66.40625 
Q 24.171875 66.40625 20.328125 58.90625 
Q 16.5 51.421875 16.5 36.375 
Q 16.5 21.390625 20.328125 13.890625 
Q 24.171875 6.390625 31.78125 6.390625 
Q 39.453125 6.390625 43.28125 13.890625 
Q 47.125 21.390625 47.125 36.375 
Q 47.125 51.421875 43.28125 58.90625 
Q 39.453125 66.40625 31.78125 66.40625 
z
M 31.78125 74.21875 
Q 44.046875 74.21875 50.515625 64.515625 
Q 56.984375 54.828125 56.984375 36.375 
Q 56.984375 17.96875 50.515625 8.265625 
Q 44.046875 -1.421875 31.78125 -1.421875 
Q 19.53125 -1.421875 13.0625 8.265625 
Q 6.59375 17.96875 6.59375 36.375 
Q 6.59375 54.828125 13.0625 64.515625 
Q 19.53125 74.21875 31.78125 74.21875 
z
" id="DejaVuSans-48"/>
      </defs>
      <g transform="translate(127.366023 332.637812)scale(0.14 -0.14)">
       <use xlink:href="#DejaVuSans-49"/>
       <use x="63.623047" xlink:href="#DejaVuSans-54"/>
       <use x="127.246094" xlink:href="#DejaVuSans-48"/>
      </g>
     </g>
    </g>
    <g id="xtick_2">
     <g id="line2d_2">
      <g>
       <use style="stroke:#000000;stroke-width:0.8;" x="242.181818" xlink:href="#m125f476e61" y="315"/>
      </g>
     </g>
     <g id="text_2">
      <!-- 180 -->
      <defs>
       <path d="M 31.78125 34.625 
Q 24.75 34.625 20.71875 30.859375 
Q 16.703125 27.09375 16.703125 20.515625 
Q 16.703125 13.921875 20.71875 10.15625 
Q 24.75 6.390625 31.78125 6.390625 
Q 38.8125 6.390625 42.859375 10.171875 
Q 46.921875 13.96875 46.921875 20.515625 
Q 46.921875 27.09375 42.890625 30.859375 
Q 38.875 34.625 31.78125 34.625 
z
M 21.921875 38.8125 
Q 15.578125 40.375 12.03125 44.71875 
Q 8.5 49.078125 8.5 55.328125 
Q 8.5 64.0625 14.71875 69.140625 
Q 20.953125 74.21875 31.78125 74.21875 
Q 42.671875 74.21875 48.875 69.140625 
Q 55.078125 64.0625 55.078125 55.328125 
Q 55.078125 49.078125 51.53125 44.71875 
Q 48 40.375 41.703125 38.8125 
Q 48.828125 37.15625 52.796875 32.3125 
Q 56.78125 27.484375 56.78125 20.515625 
Q 56.78125 9.90625 50.3125 4.234375 
Q 43.84375 -1.421875 31.78125 -1.421875 
Q 19.734375 -1.421875 13.25 4.234375 
Q 6.78125 9.90625 6.78125 20.515625 
Q 6.78125 27.484375 10.78125 32.3125 
Q 14.796875 37.15625 21.921875 38.8125 
z
M 18.3125 54.390625 
Q 18.3125 48.734375 21.84375 45.5625 
Q 25.390625 42.390625 31.78125 42.390625 
Q 38.140625 42.390625 41.71875 45.5625 
Q 45.3125 48.734375 45.3125 54.390625 
Q 45.3125 60.0625 41.71875 63.234375 
Q 38.140625 66.40625 31.78125 66.40625 
Q 25.390625 66.40625 21.84375 63.234375 
Q 18.3125 60.0625 18.3125 54.390625 
z
" id="DejaVuSans-56"/>
      </defs>
      <g transform="translate(228.820568 332.637812)scale(0.14 -0.14)">
       <use xlink:href="#DejaVuSans-49"/>
       <use x="63.623047" xlink:href="#DejaVuSans-56"/>
       <use x="127.246094" xlink:href="#DejaVuSans-48"/>
      </g>
     </g>
    </g>
    <g id="xtick_3">
     <g id="line2d_3">
      <g>
       <use style="stroke:#000000;stroke-width:0.8;" x="343.636364" xlink:href="#m125f476e61" y="315"/>
      </g>
     </g>
     <g id="text_3">
      <!-- 200 -->
      <defs>
       <path d="M 19.1875 8.296875 
L 53.609375 8.296875 
L 53.609375 0 
L 7.328125 0 
L 7.328125 8.296875 
Q 12.9375 14.109375 22.625 23.890625 
Q 32.328125 33.6875 34.8125 36.53125 
Q 39.546875 41.84375 41.421875 45.53125 
Q 43.3125 49.21875 43.3125 52.78125 
Q 43.3125 58.59375 39.234375 62.25 
Q 35.15625 65.921875 28.609375 65.921875 
Q 23.96875 65.921875 18.8125 64.3125 
Q 13.671875 62.703125 7.8125 59.421875 
L 7.8125 69.390625 
Q 13.765625 71.78125 18.9375 73 
Q 24.125 74.21875 28.421875 74.21875 
Q 39.75 74.21875 46.484375 68.546875 
Q 53.21875 62.890625 53.21875 53.421875 
Q 53.21875 48.921875 51.53125 44.890625 
Q 49.859375 40.875 45.40625 35.40625 
Q 44.1875 33.984375 37.640625 27.21875 
Q 31.109375 20.453125 19.1875 8.296875 
z
" id="DejaVuSans-50"/>
      </defs>
      <g transform="translate(330.275114 332.637812)scale(0.14 -0.14)">
       <use xlink:href="#DejaVuSans-50"/>
       <use x="63.623047" xlink:href="#DejaVuSans-48"/>
       <use x="127.246094" xlink:href="#DejaVuSans-48"/>
      </g>
     </g>
    </g>
    <g id="xtick_4">
     <g id="line2d_4">
      <g>
       <use style="stroke:#000000;stroke-width:0.8;" x="445.090909" xlink:href="#m125f476e61" y="315"/>
      </g>
     </g>
     <g id="text_4">
      <!-- 220 -->
      <g transform="translate(431.729659 332.637812)scale(0.14 -0.14)">
       <use xlink:href="#DejaVuSans-50"/>
       <use x="63.623047" xlink:href="#DejaVuSans-50"/>
       <use x="127.246094" xlink:href="#DejaVuSans-48"/>
      </g>
     </g>
    </g>
    <g id="xtick_5">
     <g id="line2d_5">
      <g>
       <use style="stroke:#000000;stroke-width:0.8;" x="546.545455" xlink:href="#m125f476e61" y="315"/>
      </g>
     </g>
     <g id="text_5">
      <!-- 240 -->
      <defs>
       <path d="M 37.796875 64.3125 
L 12.890625 25.390625 
L 37.796875 25.390625 
z
M 35.203125 72.90625 
L 47.609375 72.90625 
L 47.609375 25.390625 
L 58.015625 25.390625 
L 58.015625 17.1875 
L 47.609375 17.1875 
L 47.609375 0 
L 37.796875 0 
L 37.796875 17.1875 
L 4.890625 17.1875 
L 4.890625 26.703125 
z
" id="DejaVuSans-52"/>
      </defs>
      <g transform="translate(533.184205 332.637812)scale(0.14 -0.14)">
       <use xlink:href="#DejaVuSans-50"/>
       <use x="63.623047" xlink:href="#DejaVuSans-52"/>
       <use x="127.246094" xlink:href="#DejaVuSans-48"/>
      </g>
     </g>
    </g>
    <g id="xtick_6">
     <g id="line2d_6">
      <g>
       <use style="stroke:#000000;stroke-width:0.8;" x="648" xlink:href="#m125f476e61" y="315"/>
      </g>
     </g>
     <g id="text_6">
      <!-- 260 -->
      <g transform="translate(634.63875 332.637812)scale(0.14 -0.14)">
       <use xlink:href="#DejaVuSans-50"/>
       <use x="63.623047" xlink:href="#DejaVuSans-54"/>
       <use x="127.246094" xlink:href="#DejaVuSans-48"/>
      </g>
     </g>
    </g>
    <g id="text_7">
     <!-- Day of the year -->
     <defs>
      <path d="M 19.671875 64.796875 
L 19.671875 8.109375 
L 31.59375 8.109375 
Q 46.6875 8.109375 53.6875 14.9375 
Q 60.6875 21.78125 60.6875 36.53125 
Q 60.6875 51.171875 53.6875 57.984375 
Q 46.6875 64.796875 31.59375 64.796875 
z
M 9.8125 72.90625 
L 30.078125 72.90625 
Q 51.265625 72.90625 61.171875 64.09375 
Q 71.09375 55.28125 71.09375 36.53125 
Q 71.09375 17.671875 61.125 8.828125 
Q 51.171875 0 30.078125 0 
L 9.8125 0 
z
" id="DejaVuSans-68"/>
      <path d="M 34.28125 27.484375 
Q 23.390625 27.484375 19.1875 25 
Q 14.984375 22.515625 14.984375 16.5 
Q 14.984375 11.71875 18.140625 8.90625 
Q 21.296875 6.109375 26.703125 6.109375 
Q 34.1875 6.109375 38.703125 11.40625 
Q 43.21875 16.703125 43.21875 25.484375 
L 43.21875 27.484375 
z
M 52.203125 31.203125 
L 52.203125 0 
L 43.21875 0 
L 43.21875 8.296875 
Q 40.140625 3.328125 35.546875 0.953125 
Q 30.953125 -1.421875 24.3125 -1.421875 
Q 15.921875 -1.421875 10.953125 3.296875 
Q 6 8.015625 6 15.921875 
Q 6 25.140625 12.171875 29.828125 
Q 18.359375 34.515625 30.609375 34.515625 
L 43.21875 34.515625 
L 43.21875 35.40625 
Q 43.21875 41.609375 39.140625 45 
Q 35.0625 48.390625 27.6875 48.390625 
Q 23 48.390625 18.546875 47.265625 
Q 14.109375 46.140625 10.015625 43.890625 
L 10.015625 52.203125 
Q 14.9375 54.109375 19.578125 55.046875 
Q 24.21875 56 28.609375 56 
Q 40.484375 56 46.34375 49.84375 
Q 52.203125 43.703125 52.203125 31.203125 
z
" id="DejaVuSans-97"/>
      <path d="M 32.171875 -5.078125 
Q 28.375 -14.84375 24.75 -17.8125 
Q 21.140625 -20.796875 15.09375 -20.796875 
L 7.90625 -20.796875 
L 7.90625 -13.28125 
L 13.1875 -13.28125 
Q 16.890625 -13.28125 18.9375 -11.515625 
Q 21 -9.765625 23.484375 -3.21875 
L 25.09375 0.875 
L 2.984375 54.6875 
L 12.5 54.6875 
L 29.59375 11.921875 
L 46.6875 54.6875 
L 56.203125 54.6875 
z
" id="DejaVuSans-121"/>
      <path id="DejaVuSans-32"/>
      <path d="M 30.609375 48.390625 
Q 23.390625 48.390625 19.1875 42.75 
Q 14.984375 37.109375 14.984375 27.296875 
Q 14.984375 17.484375 19.15625 11.84375 
Q 23.34375 6.203125 30.609375 6.203125 
Q 37.796875 6.203125 41.984375 11.859375 
Q 46.1875 17.53125 46.1875 27.296875 
Q 46.1875 37.015625 41.984375 42.703125 
Q 37.796875 48.390625 30.609375 48.390625 
z
M 30.609375 56 
Q 42.328125 56 49.015625 48.375 
Q 55.71875 40.765625 55.71875 27.296875 
Q 55.71875 13.875 49.015625 6.21875 
Q 42.328125 -1.421875 30.609375 -1.421875 
Q 18.84375 -1.421875 12.171875 6.21875 
Q 5.515625 13.875 5.515625 27.296875 
Q 5.515625 40.765625 12.171875 48.375 
Q 18.84375 56 30.609375 56 
z
" id="DejaVuSans-111"/>
      <path d="M 37.109375 75.984375 
L 37.109375 68.5 
L 28.515625 68.5 
Q 23.6875 68.5 21.796875 66.546875 
Q 19.921875 64.59375 19.921875 59.515625 
L 19.921875 54.6875 
L 34.71875 54.6875 
L 34.71875 47.703125 
L 19.921875 47.703125 
L 19.921875 0 
L 10.890625 0 
L 10.890625 47.703125 
L 2.296875 47.703125 
L 2.296875 54.6875 
L 10.890625 54.6875 
L 10.890625 58.5 
Q 10.890625 67.625 15.140625 71.796875 
Q 19.390625 75.984375 28.609375 75.984375 
z
" id="DejaVuSans-102"/>
      <path d="M 18.3125 70.21875 
L 18.3125 54.6875 
L 36.8125 54.6875 
L 36.8125 47.703125 
L 18.3125 47.703125 
L 18.3125 18.015625 
Q 18.3125 11.328125 20.140625 9.421875 
Q 21.96875 7.515625 27.59375 7.515625 
L 36.8125 7.515625 
L 36.8125 0 
L 27.59375 0 
Q 17.1875 0 13.234375 3.875 
Q 9.28125 7.765625 9.28125 18.015625 
L 9.28125 47.703125 
L 2.6875 47.703125 
L 2.6875 54.6875 
L 9.28125 54.6875 
L 9.28125 70.21875 
z
" id="DejaVuSans-116"/>
      <path d="M 54.890625 33.015625 
L 54.890625 0 
L 45.90625 0 
L 45.90625 32.71875 
Q 45.90625 40.484375 42.875 44.328125 
Q 39.84375 48.1875 33.796875 48.1875 
Q 26.515625 48.1875 22.3125 43.546875 
Q 18.109375 38.921875 18.109375 30.90625 
L 18.109375 0 
L 9.078125 0 
L 9.078125 75.984375 
L 18.109375 75.984375 
L 18.109375 46.1875 
Q 21.34375 51.125 25.703125 53.5625 
Q 30.078125 56 35.796875 56 
Q 45.21875 56 50.046875 50.171875 
Q 54.890625 44.34375 54.890625 33.015625 
z
" id="DejaVuSans-104"/>
      <path d="M 56.203125 29.59375 
L 56.203125 25.203125 
L 14.890625 25.203125 
Q 15.484375 15.921875 20.484375 11.0625 
Q 25.484375 6.203125 34.421875 6.203125 
Q 39.59375 6.203125 44.453125 7.46875 
Q 49.3125 8.734375 54.109375 11.28125 
L 54.109375 2.78125 
Q 49.265625 0.734375 44.1875 -0.34375 
Q 39.109375 -1.421875 33.890625 -1.421875 
Q 20.796875 -1.421875 13.15625 6.1875 
Q 5.515625 13.8125 5.515625 26.8125 
Q 5.515625 40.234375 12.765625 48.109375 
Q 20.015625 56 32.328125 56 
Q 43.359375 56 49.78125 48.890625 
Q 56.203125 41.796875 56.203125 29.59375 
z
M 47.21875 32.234375 
Q 47.125 39.59375 43.09375 43.984375 
Q 39.0625 48.390625 32.421875 48.390625 
Q 24.90625 48.390625 20.390625 44.140625 
Q 15.875 39.890625 15.1875 32.171875 
z
" id="DejaVuSans-101"/>
      <path d="M 41.109375 46.296875 
Q 39.59375 47.171875 37.8125 47.578125 
Q 36.03125 48 33.890625 48 
Q 26.265625 48 22.1875 43.046875 
Q 18.109375 38.09375 18.109375 28.8125 
L 18.109375 0 
L 9.078125 0 
L 9.078125 54.6875 
L 18.109375 54.6875 
L 18.109375 46.1875 
Q 20.953125 51.171875 25.484375 53.578125 
Q 30.03125 56 36.53125 56 
Q 37.453125 56 38.578125 55.875 
Q 39.703125 55.765625 41.0625 55.515625 
z
" id="DejaVuSans-114"/>
     </defs>
     <g transform="translate(306.88625 351.706875)scale(0.16 -0.16)">
      <use xlink:href="#DejaVuSans-68"/>
      <use x="77.001953" xlink:href="#DejaVuSans-97"/>
      <use x="138.28125" xlink:href="#DejaVuSans-121"/>
      <use x="197.460938" xlink:href="#DejaVuSans-32"/>
      <use x="229.248047" xlink:href="#DejaVuSans-111"/>
      <use x="290.429688" xlink:href="#DejaVuSans-102"/>
      <use x="325.634766" xlink:href="#DejaVuSans-32"/>
      <use x="357.421875" xlink:href="#DejaVuSans-116"/>
      <use x="396.630859" xlink:href="#DejaVuSans-104"/>
      <use x="460.009766" xlink:href="#DejaVuSans-101"/>
      <use x="521.533203" xlink:href="#DejaVuSans-32"/>
      <use x="553.320312" xlink:href="#DejaVuSans-121"/>
      <use x="612.5" xlink:href="#DejaVuSans-101"/>
      <use x="674.023438" xlink:href="#DejaVuSans-97"/>
      <use x="735.302734" xlink:href="#DejaVuSans-114"/>
     </g>
    </g>
   </g>
   <g id="matplotlib.axis_2">
    <g id="ytick_1">
     <g id="line2d_7">
      <defs>
       <path d="M 0 0 
L -3.5 0 
" id="m944b821de7" style="stroke:#000000;stroke-width:0.8;"/>
      </defs>
      <g>
       <use style="stroke:#000000;stroke-width:0.8;" x="90" xlink:href="#m944b821de7" y="269.333803"/>
      </g>
     </g>
     <g id="text_8">
      <!-- 4 -->
      <g transform="translate(74.0925 274.652709)scale(0.14 -0.14)">
       <use xlink:href="#DejaVuSans-52"/>
      </g>
     </g>
    </g>
    <g id="ytick_2">
     <g id="line2d_8">
      <g>
       <use style="stroke:#000000;stroke-width:0.8;" x="90" xlink:href="#m944b821de7" y="209.892413"/>
      </g>
     </g>
     <g id="text_9">
      <!-- 5 -->
      <defs>
       <path d="M 10.796875 72.90625 
L 49.515625 72.90625 
L 49.515625 64.59375 
L 19.828125 64.59375 
L 19.828125 46.734375 
Q 21.96875 47.46875 24.109375 47.828125 
Q 26.265625 48.1875 28.421875 48.1875 
Q 40.625 48.1875 47.75 41.5 
Q 54.890625 34.8125 54.890625 23.390625 
Q 54.890625 11.625 47.5625 5.09375 
Q 40.234375 -1.421875 26.90625 -1.421875 
Q 22.3125 -1.421875 17.546875 -0.640625 
Q 12.796875 0.140625 7.71875 1.703125 
L 7.71875 11.625 
Q 12.109375 9.234375 16.796875 8.0625 
Q 21.484375 6.890625 26.703125 6.890625 
Q 35.15625 6.890625 40.078125 11.328125 
Q 45.015625 15.765625 45.015625 23.390625 
Q 45.015625 31 40.078125 35.4375 
Q 35.15625 39.890625 26.703125 39.890625 
Q 22.75 39.890625 18.8125 39.015625 
Q 14.890625 38.140625 10.796875 36.28125 
z
" id="DejaVuSans-53"/>
      </defs>
      <g transform="translate(74.0925 215.21132)scale(0.14 -0.14)">
       <use xlink:href="#DejaVuSans-53"/>
      </g>
     </g>
    </g>
    <g id="ytick_3">
     <g id="line2d_9">
      <g>
       <use style="stroke:#000000;stroke-width:0.8;" x="90" xlink:href="#m944b821de7" y="150.451024"/>
      </g>
     </g>
     <g id="text_10">
      <!-- 6 -->
      <g transform="translate(74.0925 155.76993)scale(0.14 -0.14)">
       <use xlink:href="#DejaVuSans-54"/>
      </g>
     </g>
    </g>
    <g id="ytick_4">
     <g id="line2d_10">
      <g>
       <use style="stroke:#000000;stroke-width:0.8;" x="90" xlink:href="#m944b821de7" y="91.009634"/>
      </g>
     </g>
     <g id="text_11">
      <!-- 7 -->
      <defs>
       <path d="M 8.203125 72.90625 
L 55.078125 72.90625 
L 55.078125 68.703125 
L 28.609375 0 
L 18.3125 0 
L 43.21875 64.59375 
L 8.203125 64.59375 
z
" id="DejaVuSans-55"/>
      </defs>
      <g transform="translate(74.0925 96.32854)scale(0.14 -0.14)">
       <use xlink:href="#DejaVuSans-55"/>
      </g>
     </g>
    </g>
    <g id="text_12">
     <!-- Body length [mm] -->
     <defs>
      <path d="M 19.671875 34.8125 
L 19.671875 8.109375 
L 35.5 8.109375 
Q 43.453125 8.109375 47.28125 11.40625 
Q 51.125 14.703125 51.125 21.484375 
Q 51.125 28.328125 47.28125 31.5625 
Q 43.453125 34.8125 35.5 34.8125 
z
M 19.671875 64.796875 
L 19.671875 42.828125 
L 34.28125 42.828125 
Q 41.5 42.828125 45.03125 45.53125 
Q 48.578125 48.25 48.578125 53.8125 
Q 48.578125 59.328125 45.03125 62.0625 
Q 41.5 64.796875 34.28125 64.796875 
z
M 9.8125 72.90625 
L 35.015625 72.90625 
Q 46.296875 72.90625 52.390625 68.21875 
Q 58.5 63.53125 58.5 54.890625 
Q 58.5 48.1875 55.375 44.234375 
Q 52.25 40.28125 46.1875 39.3125 
Q 53.46875 37.75 57.5 32.78125 
Q 61.53125 27.828125 61.53125 20.40625 
Q 61.53125 10.640625 54.890625 5.3125 
Q 48.25 0 35.984375 0 
L 9.8125 0 
z
" id="DejaVuSans-66"/>
      <path d="M 45.40625 46.390625 
L 45.40625 75.984375 
L 54.390625 75.984375 
L 54.390625 0 
L 45.40625 0 
L 45.40625 8.203125 
Q 42.578125 3.328125 38.25 0.953125 
Q 33.9375 -1.421875 27.875 -1.421875 
Q 17.96875 -1.421875 11.734375 6.484375 
Q 5.515625 14.40625 5.515625 27.296875 
Q 5.515625 40.1875 11.734375 48.09375 
Q 17.96875 56 27.875 56 
Q 33.9375 56 38.25 53.625 
Q 42.578125 51.265625 45.40625 46.390625 
z
M 14.796875 27.296875 
Q 14.796875 17.390625 18.875 11.75 
Q 22.953125 6.109375 30.078125 6.109375 
Q 37.203125 6.109375 41.296875 11.75 
Q 45.40625 17.390625 45.40625 27.296875 
Q 45.40625 37.203125 41.296875 42.84375 
Q 37.203125 48.484375 30.078125 48.484375 
Q 22.953125 48.484375 18.875 42.84375 
Q 14.796875 37.203125 14.796875 27.296875 
z
" id="DejaVuSans-100"/>
      <path d="M 9.421875 75.984375 
L 18.40625 75.984375 
L 18.40625 0 
L 9.421875 0 
z
" id="DejaVuSans-108"/>
      <path d="M 54.890625 33.015625 
L 54.890625 0 
L 45.90625 0 
L 45.90625 32.71875 
Q 45.90625 40.484375 42.875 44.328125 
Q 39.84375 48.1875 33.796875 48.1875 
Q 26.515625 48.1875 22.3125 43.546875 
Q 18.109375 38.921875 18.109375 30.90625 
L 18.109375 0 
L 9.078125 0 
L 9.078125 54.6875 
L 18.109375 54.6875 
L 18.109375 46.1875 
Q 21.34375 51.125 25.703125 53.5625 
Q 30.078125 56 35.796875 56 
Q 45.21875 56 50.046875 50.171875 
Q 54.890625 44.34375 54.890625 33.015625 
z
" id="DejaVuSans-110"/>
      <path d="M 45.40625 27.984375 
Q 45.40625 37.75 41.375 43.109375 
Q 37.359375 48.484375 30.078125 48.484375 
Q 22.859375 48.484375 18.828125 43.109375 
Q 14.796875 37.75 14.796875 27.984375 
Q 14.796875 18.265625 18.828125 12.890625 
Q 22.859375 7.515625 30.078125 7.515625 
Q 37.359375 7.515625 41.375 12.890625 
Q 45.40625 18.265625 45.40625 27.984375 
z
M 54.390625 6.78125 
Q 54.390625 -7.171875 48.1875 -13.984375 
Q 42 -20.796875 29.203125 -20.796875 
Q 24.46875 -20.796875 20.265625 -20.09375 
Q 16.0625 -19.390625 12.109375 -17.921875 
L 12.109375 -9.1875 
Q 16.0625 -11.328125 19.921875 -12.34375 
Q 23.78125 -13.375 27.78125 -13.375 
Q 36.625 -13.375 41.015625 -8.765625 
Q 45.40625 -4.15625 45.40625 5.171875 
L 45.40625 9.625 
Q 42.625 4.78125 38.28125 2.390625 
Q 33.9375 0 27.875 0 
Q 17.828125 0 11.671875 7.65625 
Q 5.515625 15.328125 5.515625 27.984375 
Q 5.515625 40.671875 11.671875 48.328125 
Q 17.828125 56 27.875 56 
Q 33.9375 56 38.28125 53.609375 
Q 42.625 51.21875 45.40625 46.390625 
L 45.40625 54.6875 
L 54.390625 54.6875 
z
" id="DejaVuSans-103"/>
      <path d="M 8.59375 75.984375 
L 29.296875 75.984375 
L 29.296875 69 
L 17.578125 69 
L 17.578125 -6.203125 
L 29.296875 -6.203125 
L 29.296875 -13.1875 
L 8.59375 -13.1875 
z
" id="DejaVuSans-91"/>
      <path d="M 52 44.1875 
Q 55.375 50.25 60.0625 53.125 
Q 64.75 56 71.09375 56 
Q 79.640625 56 84.28125 50.015625 
Q 88.921875 44.046875 88.921875 33.015625 
L 88.921875 0 
L 79.890625 0 
L 79.890625 32.71875 
Q 79.890625 40.578125 77.09375 44.375 
Q 74.3125 48.1875 68.609375 48.1875 
Q 61.625 48.1875 57.5625 43.546875 
Q 53.515625 38.921875 53.515625 30.90625 
L 53.515625 0 
L 44.484375 0 
L 44.484375 32.71875 
Q 44.484375 40.625 41.703125 44.40625 
Q 38.921875 48.1875 33.109375 48.1875 
Q 26.21875 48.1875 22.15625 43.53125 
Q 18.109375 38.875 18.109375 30.90625 
L 18.109375 0 
L 9.078125 0 
L 9.078125 54.6875 
L 18.109375 54.6875 
L 18.109375 46.1875 
Q 21.1875 51.21875 25.484375 53.609375 
Q 29.78125 56 35.6875 56 
Q 41.65625 56 45.828125 52.96875 
Q 50 49.953125 52 44.1875 
z
" id="DejaVuSans-109"/>
      <path d="M 30.421875 75.984375 
L 30.421875 -13.1875 
L 9.71875 -13.1875 
L 9.71875 -6.203125 
L 21.390625 -6.203125 
L 21.390625 69 
L 9.71875 69 
L 9.71875 75.984375 
z
" id="DejaVuSans-93"/>
     </defs>
     <g transform="translate(66.765 251.71)rotate(-90)scale(0.16 -0.16)">
      <use xlink:href="#DejaVuSans-66"/>
      <use x="68.603516" xlink:href="#DejaVuSans-111"/>
      <use x="129.785156" xlink:href="#DejaVuSans-100"/>
      <use x="193.261719" xlink:href="#DejaVuSans-121"/>
      <use x="252.441406" xlink:href="#DejaVuSans-32"/>
      <use x="284.228516" xlink:href="#DejaVuSans-108"/>
      <use x="312.011719" xlink:href="#DejaVuSans-101"/>
      <use x="373.535156" xlink:href="#DejaVuSans-110"/>
      <use x="436.914062" xlink:href="#DejaVuSans-103"/>
      <use x="500.390625" xlink:href="#DejaVuSans-116"/>
      <use x="539.599609" xlink:href="#DejaVuSans-104"/>
      <use x="602.978516" xlink:href="#DejaVuSans-32"/>
      <use x="634.765625" xlink:href="#DejaVuSans-91"/>
      <use x="673.779297" xlink:href="#DejaVuSans-109"/>
      <use x="771.191406" xlink:href="#DejaVuSans-109"/>
      <use x="868.603516" xlink:href="#DejaVuSans-93"/>
     </g>
    </g>
   </g>
   <g id="line2d_11">
    <path clip-path="url(#p2a185b0559)" d="M 168.075126 302.645455 
L 172.725126 295.807156 
L 173.147853 296.652283 
L 177.797853 289.437548 
L 178.22058 290.344836 
L 182.659217 282.864702 
L 182.87058 282.819053 
L 183.293308 283.733811 
L 187.731944 275.770112 
L 187.943308 275.91955 
L 188.366035 276.841777 
L 190.691035 272.464289 
L 192.804671 268.419101 
L 193.227399 269.229425 
L 193.438762 269.69428 
L 194.706944 267.199059 
L 197.877399 260.877986 
L 198.511489 262.283683 
L 199.356944 260.572312 
L 202.950126 253.213281 
L 203.584217 254.630151 
L 204.218308 253.327132 
L 207.811489 245.349938 
L 208.022853 245.310706 
L 208.656944 246.738726 
L 209.079671 245.890688 
L 212.884217 237.043228 
L 213.09558 237.174922 
L 213.729671 238.614051 
L 214.152399 237.76253 
L 217.956944 228.516122 
L 218.379671 229.309605 
L 218.802399 230.276429 
L 219.013762 229.948899 
L 223.029671 219.772167 
L 223.875126 221.713846 
L 224.086489 221.398508 
L 228.102399 210.965631 
L 228.947853 212.928526 
L 229.159217 212.633522 
L 233.175126 201.961028 
L 234.02058 203.938458 
L 234.231944 203.655862 
L 238.036489 192.868968 
L 238.247853 192.738829 
L 239.093308 194.730695 
L 239.304671 194.46774 
L 243.109217 183.300009 
L 243.32058 183.315448 
L 244.166035 185.321638 
L 244.377399 185.077357 
L 248.181944 173.533152 
L 248.393308 173.691584 
L 249.238762 175.711982 
L 249.450126 175.485036 
L 253.254671 163.640242 
L 254.311489 166.18332 
L 254.522853 165.971846 
L 258.116035 154.370829 
L 258.327399 154.284945 
L 259.384217 156.845581 
L 259.59558 156.6475 
L 263.188762 144.704186 
L 263.611489 145.578252 
L 264.456944 147.640762 
L 264.668308 147.453946 
L 268.261489 135.395215 
L 269.529671 138.505672 
L 269.741035 138.327942 
L 273.122853 126.456755 
L 273.334217 126.243804 
L 274.602399 129.374826 
L 274.813762 129.203959 
L 278.19558 117.024504 
L 278.406944 117.029032 
L 279.675126 120.180354 
L 279.886489 120.02159 
L 283.268308 107.539165 
L 283.479671 107.693491 
L 284.747853 110.864831 
L 284.959217 110.708306 
L 288.341035 97.927916 
L 288.552399 98.145543 
L 289.82058 101.336571 
L 290.031944 101.187541 
L 293.413762 88.114476 
L 293.625126 88.317455 
L 294.893308 91.527789 
L 295.104671 91.383936 
L 298.486489 78.023769 
L 298.697853 78.121617 
L 299.966035 81.350839 
L 300.177399 81.210563 
L 303.559217 67.568864 
L 303.77058 67.489186 
L 305.038762 70.736846 
L 305.250126 70.592279 
L 308.631944 56.674613 
L 308.843308 56.398301 
L 310.111489 59.6639 
L 310.322853 59.520963 
L 311.168308 55.974089 
L 311.168308 55.974089 
" style="fill:none;stroke:#0000ff;stroke-linecap:square;stroke-width:1.5;"/>
   </g>
   <g id="line2d_12">
    <path clip-path="url(#p2a185b0559)" d="M 265.092426 302.645455 
L 265.303789 302.368551 
L 265.515153 302.645455 
L 266.994698 302.645455 
L 267.206062 302.404774 
L 271.010608 289.540497 
L 272.067426 292.172684 
L 272.278789 291.92716 
L 276.083335 278.830708 
L 277.140153 281.479874 
L 277.351517 281.240742 
L 281.156062 267.91946 
L 282.21288 270.585333 
L 282.424244 270.364894 
L 286.017426 257.102317 
L 286.228789 256.833984 
L 287.285608 259.516308 
L 287.496971 259.309543 
L 291.090153 245.730379 
L 291.301517 245.897715 
L 292.358335 248.596291 
L 292.569698 248.413867 
L 296.16288 234.675295 
L 297.431062 237.929032 
L 297.642426 237.77232 
L 301.024244 224.412153 
L 301.235608 224.280721 
L 302.503789 227.553543 
L 302.715153 227.423271 
L 306.096971 213.781572 
L 306.731062 215.299555 
L 307.576517 217.496544 
L 307.78788 217.385309 
L 311.169698 203.907385 
L 312.649244 207.766286 
L 312.860608 207.681965 
L 316.031062 194.381189 
L 316.242426 194.498773 
L 317.721971 198.379109 
L 317.933335 198.321119 
L 321.103789 184.868997 
L 322.794698 189.325229 
L 323.006062 189.300514 
L 325.965153 176.429596 
L 326.176517 176.120016 
L 327.867426 180.600042 
L 328.078789 180.599875 
L 331.03788 167.651676 
L 331.249244 167.668801 
L 332.940153 172.172182 
L 333.151517 172.195624 
L 336.110608 159.475265 
L 336.321971 159.514299 
L 338.01288 164.040587 
L 338.224244 164.086696 
L 341.183335 151.57073 
L 341.394698 151.630786 
L 343.085608 156.179515 
L 343.296971 156.254846 
L 346.256062 143.919229 
L 346.467426 144.006743 
L 348.158335 148.577413 
L 348.369698 148.673611 
L 351.328789 136.495147 
L 351.540153 136.602064 
L 353.231062 141.194139 
L 353.442426 141.3178 
L 356.401517 129.27385 
L 356.61288 129.406699 
L 358.303789 134.019609 
L 358.515153 134.169959 
L 361.474244 122.239003 
L 361.685608 122.397138 
L 363.376517 127.030304 
L 363.58788 127.199349 
L 366.546971 115.361124 
L 366.758335 115.536803 
L 368.449244 120.18959 
L 368.660608 120.38406 
L 371.619698 108.618836 
L 371.831062 108.81876 
L 373.521971 113.490542 
L 373.733335 113.709913 
L 376.692426 101.999191 
L 376.903789 102.222952 
L 378.594698 106.913067 
L 378.806062 107.156883 
L 381.765153 95.482862 
L 381.976517 95.730111 
L 383.878789 100.705729 
L 386.83788 89.051268 
L 387.049244 89.321715 
L 388.951517 94.337998 
L 391.910608 82.686505 
L 392.121971 82.979922 
L 394.024244 88.035853 
L 396.983335 76.370947 
L 397.194698 76.687149 
L 399.096971 81.781747 
L 402.056062 70.087239 
L 402.267426 70.426093 
L 404.169698 75.558424 
L 407.128789 63.818075 
L 407.340153 64.179495 
L 409.242426 69.348657 
L 412.201517 57.545978 
L 412.624244 58.528329 
L 414.315153 63.142441 
L 416.217426 55.554545 
L 416.217426 55.554545 
" style="fill:none;stroke:#0000ff;stroke-linecap:square;stroke-width:1.5;"/>
   </g>
   <g id="line2d_13">
    <path clip-path="url(#p2a185b0559)" d="M 363.672568 302.645455 
L 364.729386 297.599752 
L 364.94075 297.67272 
L 366.631659 302.403954 
L 366.843023 302.559886 
L 369.802114 288.391369 
L 370.013477 288.551452 
L 371.704386 293.300954 
L 371.91575 293.479407 
L 374.874841 279.17061 
L 375.086205 279.355672 
L 376.777114 284.122675 
L 376.988477 284.32599 
L 379.947568 269.977776 
L 380.158932 270.189531 
L 381.849841 274.97328 
L 382.061205 275.203293 
L 385.020296 260.905695 
L 385.231659 261.145341 
L 387.133932 266.203151 
L 390.093023 252.03205 
L 390.304386 252.300302 
L 392.206659 257.402243 
L 395.16575 243.417855 
L 395.377114 243.714994 
L 397.279386 248.860725 
L 400.238477 235.108081 
L 400.449841 235.434049 
L 402.352114 240.622891 
L 405.099841 228.081857 
L 405.311205 227.13322 
L 405.522568 227.487699 
L 407.424841 232.718706 
L 410.172568 220.439093 
L 410.383932 219.511494 
L 410.806659 220.501356 
L 412.497568 225.173952 
L 415.245296 213.164983 
L 415.456659 212.258709 
L 415.879386 213.285161 
L 417.570296 217.995792 
L 420.106659 207.147421 
L 420.529386 205.375015 
L 420.952114 206.429545 
L 422.643023 211.176938 
L 425.179386 200.578762 
L 425.602114 198.847867 
L 426.024841 199.929683 
L 427.71575 204.720175 
L 430.252114 194.366464 
L 430.674841 192.675778 
L 431.308932 194.404583 
L 432.788477 198.615926 
L 435.324841 188.499015 
L 435.747568 186.846974 
L 436.593023 189.217001 
L 437.861205 192.852891 
L 440.397568 182.963489 
L 440.820296 181.3484 
L 442.088477 184.986557 
L 442.933932 187.417658 
L 445.470296 177.74599 
L 445.893023 176.166101 
L 448.006659 182.296715 
L 450.543023 172.83247 
L 450.96575 171.286038 
L 453.079386 177.461299 
L 456.038477 166.721074 
L 458.152114 172.911267 
L 461.111205 162.429381 
L 463.224841 168.626539 
L 465.761205 159.794247 
L 466.183932 158.404815 
L 468.297568 164.607991 
L 469.56575 160.295018 
L 471.256659 154.634955 
L 473.370296 160.843202 
L 474.427114 157.344159 
L 476.329386 151.095179 
L 478.443023 157.307576 
L 479.077114 155.303765 
L 481.402114 147.78812 
L 483.51575 154.003712 
L 484.149841 152.062408 
L 486.474841 144.703434 
L 488.588477 150.921249 
L 489.011205 149.720686 
L 491.547568 141.831457 
L 493.661205 148.05056 
L 494.083932 146.897032 
L 496.620296 139.163206 
L 498.733932 145.382648 
L 499.156659 144.274742 
L 501.693023 136.690145 
L 503.806659 142.909006 
L 504.018023 142.499159 
L 506.554386 134.784207 
L 506.76575 134.404347 
L 508.879386 140.621687 
L 509.09075 140.245448 
L 511.627114 132.645782 
L 511.838477 132.298152 
L 513.952114 138.513016 
L 514.163477 138.169625 
L 516.699841 130.680368 
L 516.911205 130.36429 
L 519.024841 136.575766 
L 519.236205 136.264504 
L 521.772568 128.881058 
L 521.983932 128.59589 
L 524.097568 134.803079 
L 524.308932 134.523259 
L 526.845296 127.241214 
L 527.056659 126.986339 
L 529.170296 133.188314 
L 529.381659 132.939274 
L 531.918023 125.754322 
L 532.129386 125.529141 
L 534.243023 131.72501 
L 534.454386 131.506121 
L 536.99075 124.414176 
L 537.202114 124.218118 
L 539.31575 130.406996 
L 539.527114 130.217649 
L 542.063477 123.214666 
L 542.274841 123.047173 
L 544.388477 129.228208 
L 544.599841 129.067822 
L 547.136205 122.149923 
L 547.347568 122.010461 
L 549.461205 128.182785 
L 549.672568 128.050791 
L 552.208932 121.214042 
L 552.420296 121.102084 
L 554.533932 127.264821 
L 554.745296 127.16067 
L 557.281659 120.401219 
L 557.493023 120.316255 
L 559.606659 126.468571 
L 559.818023 126.397708 
L 562.354386 119.711535 
L 562.56575 119.658876 
L 564.679386 125.799963 
L 564.89075 125.755858 
L 567.427114 119.139135 
L 567.638477 119.112454 
L 569.752114 125.241498 
L 569.963477 125.223658 
L 572.499841 118.672598 
L 572.711205 118.671427 
L 574.824841 124.787618 
L 575.036205 124.795564 
L 577.572568 118.306374 
L 577.783932 118.330259 
L 579.897568 124.432811 
L 580.108932 124.466086 
L 582.645296 118.035012 
L 582.856659 118.083516 
L 584.970296 124.17169 
L 585.181659 124.235671 
L 587.718023 117.858766 
L 587.929386 117.937122 
L 590.043023 124.010154 
L 590.254386 124.098551 
L 592.79075 117.771934 
L 593.002114 117.874034 
L 595.11575 123.931197 
L 595.327114 124.043607 
L 597.863477 117.763605 
L 598.074841 117.889059 
L 600.188477 123.929632 
L 600.399841 124.065659 
L 602.936205 117.828506 
L 603.147568 117.97693 
L 605.261205 124.000184 
L 605.472568 124.165171 
L 608.008932 117.966923 
L 608.220296 118.14351 
L 610.333932 124.148768 
L 610.545296 124.336609 
L 613.081659 118.173553 
L 613.293023 118.372366 
L 615.406659 124.358967 
L 615.618023 124.569324 
L 616.886205 121.475375 
L 616.886205 121.475375 
" style="fill:none;stroke:#0000ff;stroke-linecap:square;stroke-width:1.5;"/>
   </g>
   <g id="line2d_14">
    <path clip-path="url(#p2a185b0559)" d="M 463.762533 302.645455 
L 465.453443 294.861367 
L 467.567079 301.134629 
L 469.046624 294.408735 
L 470.52617 287.658268 
L 472.639806 293.942817 
L 473.696624 289.142954 
L 475.598897 280.421031 
L 477.712533 286.707647 
L 478.557988 282.901441 
L 480.671624 273.222912 
L 482.785261 279.510513 
L 483.419352 276.719183 
L 485.744352 266.123209 
L 487.857988 272.41074 
L 488.492079 269.662246 
L 490.817079 259.173249 
L 492.930715 265.459729 
L 493.353443 263.736682 
L 495.889806 252.415551 
L 498.003443 258.700013 
L 498.42617 257.02772 
L 500.962533 245.883518 
L 503.07617 252.165051 
L 503.498897 250.547407 
L 506.035261 239.602111 
L 508.148897 245.879803 
L 508.571624 244.319461 
L 511.107988 233.588395 
L 513.221624 239.861336 
L 513.432988 239.289284 
L 515.969352 228.376842 
L 516.180715 227.85277 
L 518.294352 234.120103 
L 518.505715 233.592012 
L 521.042079 222.8812 
L 521.253443 222.400132 
L 523.367079 228.66102 
L 523.578443 228.176466 
L 526.114806 217.669677 
L 526.32617 217.230859 
L 528.439806 223.484445 
L 528.65117 223.042749 
L 531.187533 212.739177 
L 531.398897 212.341696 
L 533.512533 218.587156 
L 533.723897 218.187472 
L 536.260261 208.08399 
L 536.471624 207.726841 
L 538.585261 213.96336 
L 538.796624 213.604719 
L 541.332988 203.696345 
L 541.544352 203.378459 
L 543.657988 209.605258 
L 543.869352 209.286626 
L 546.405715 199.56718 
L 546.617079 199.287472 
L 548.730715 205.503752 
L 548.942079 205.224053 
L 551.478443 195.686365 
L 551.689806 195.443742 
L 553.803443 201.648693 
L 554.014806 201.406844 
L 556.55117 192.043231 
L 556.762533 191.836621 
L 558.87617 198.029474 
L 559.087533 197.831519 
L 561.623897 188.633611 
L 561.835261 188.46878 
L 563.948897 194.648792 
L 564.160261 194.486474 
L 566.696624 185.446033 
L 566.907988 185.315081 
L 569.021624 191.481497 
L 569.232988 191.353809 
L 571.769352 182.462777 
L 571.980715 182.364748 
L 574.094352 188.516814 
L 574.305715 188.422791 
L 576.842079 179.673215 
L 577.053443 179.607199 
L 579.167079 185.744183 
L 579.378443 185.682907 
L 581.914806 177.067057 
L 582.12617 177.032191 
L 584.239806 183.153408 
L 584.45117 183.130783 
L 586.987533 174.640802 
L 587.198897 174.642774 
L 589.312533 180.747508 
L 589.523897 180.755842 
L 592.060261 172.384265 
L 592.271624 172.415722 
L 594.385261 178.503296 
L 594.596624 178.541812 
L 597.132988 170.28177 
L 597.344352 170.341993 
L 599.457988 176.411728 
L 599.669352 176.479687 
L 602.205715 168.324482 
L 602.417079 168.412784 
L 604.530715 174.463994 
L 604.742079 174.567263 
L 607.278443 166.510141 
L 607.489806 166.632178 
L 609.603443 172.664231 
L 609.814806 172.795527 
L 612.35117 164.830276 
L 612.562533 164.97908 
L 614.67617 170.991353 
L 614.887533 171.150063 
L 617.423897 163.270916 
L 617.635261 163.445917 
L 619.748897 169.437789 
L 619.960261 169.629762 
L 622.496624 161.83083 
L 622.707988 162.037669 
L 624.821624 168.00853 
L 625.032988 168.226738 
L 627.569352 160.50259 
L 627.780715 160.734527 
L 629.894352 166.683763 
L 630.105715 166.927694 
L 632.642079 159.27332 
L 632.853443 159.529879 
L 635.178443 165.732417 
L 637.714806 158.142755 
L 637.92617 158.429563 
L 640.25117 164.63412 
L 642.787533 157.104476 
L 642.998897 157.414994 
L 645.323897 163.620584 
L 647.860261 156.146655 
L 648.071624 156.480485 
L 648.071624 156.480485 
" style="fill:none;stroke:#0000ff;stroke-linecap:square;stroke-width:1.5;"/>
   </g>
   <g id="line2d_15">
    <defs>
     <path d="M 0 3 
C 0.795609 3 1.55874 2.683901 2.12132 2.12132 
C 2.683901 1.55874 3 0.795609 3 0 
C 3 -0.795609 2.683901 -1.55874 2.12132 -2.12132 
C 1.55874 -2.683901 0.795609 -3 0 -3 
C -0.795609 -3 -1.55874 -2.683901 -2.12132 -2.12132 
C -2.683901 -1.55874 -3 -0.795609 -3 0 
C -3 0.795609 -2.683901 1.55874 -2.12132 2.12132 
C -1.55874 2.683901 -0.795609 3 0 3 
z
" id="m7a49114810" style="stroke:#0000ff;"/>
    </defs>
    <g clip-path="url(#p2a185b0559)">
     <use style="fill:#0000ff;stroke:#0000ff;" x="140.727273" xlink:href="#m7a49114810" y="302.645455"/>
     <use style="fill:#0000ff;stroke:#0000ff;" x="242.181818" xlink:href="#m7a49114810" y="302.645455"/>
     <use style="fill:#0000ff;stroke:#0000ff;" x="343.636364" xlink:href="#m7a49114810" y="302.645455"/>
     <use style="fill:#0000ff;stroke:#0000ff;" x="445.090909" xlink:href="#m7a49114810" y="302.645455"/>
    </g>
   </g>
   <g id="patch_3">
    <path d="M 90 315 
L 90 43.2 
" style="fill:none;stroke:#000000;stroke-linecap:square;stroke-linejoin:miter;stroke-width:0.8;"/>
   </g>
   <g id="patch_4">
    <path d="M 648 315 
L 648 43.2 
" style="fill:none;stroke:#000000;stroke-linecap:square;stroke-linejoin:miter;stroke-width:0.8;"/>
   </g>
   <g id="patch_5">
    <path d="M 90 315 
L 648 315 
" style="fill:none;stroke:#000000;stroke-linecap:square;stroke-linejoin:miter;stroke-width:0.8;"/>
   </g>
   <g id="patch_6">
    <path d="M 90 43.2 
L 648 43.2 
" style="fill:none;stroke:#000000;stroke-linecap:square;stroke-linejoin:miter;stroke-width:0.8;"/>
   </g>
  </g>
  <g id="axes_2">
   <g id="patch_7">
    <path clip-path="url(#p2a185b0559)" d="M 128.552727 69497.136516 
L 132.610909 69497.136516 
L 132.610909 230.158327 
L 128.552727 230.158327 
z
" style="fill:#d3d3d3;"/>
   </g>
   <g id="patch_8">
    <path clip-path="url(#p2a185b0559)" d="M 133.625455 69497.136516 
L 137.683636 69497.136516 
L 137.683636 69497.136516 
L 133.625455 69497.136516 
z
" style="fill:#d3d3d3;"/>
   </g>
   <g id="patch_9">
    <path clip-path="url(#p2a185b0559)" d="M 138.698182 69497.136516 
L 142.756364 69497.136516 
L 142.756364 69497.136516 
L 138.698182 69497.136516 
z
" style="fill:#d3d3d3;"/>
   </g>
   <g id="patch_10">
    <path clip-path="url(#p2a185b0559)" d="M 143.770909 69497.136516 
L 147.829091 69497.136516 
L 147.829091 69497.136516 
L 143.770909 69497.136516 
z
" style="fill:#d3d3d3;"/>
   </g>
   <g id="patch_11">
    <path clip-path="url(#p2a185b0559)" d="M 148.843636 69497.136516 
L 152.901818 69497.136516 
L 152.901818 69497.136516 
L 148.843636 69497.136516 
z
" style="fill:#d3d3d3;"/>
   </g>
   <g id="patch_12">
    <path clip-path="url(#p2a185b0559)" d="M 153.916364 69497.136516 
L 157.974545 69497.136516 
L 157.974545 69497.136516 
L 153.916364 69497.136516 
z
" style="fill:#d3d3d3;"/>
   </g>
   <g id="patch_13">
    <path clip-path="url(#p2a185b0559)" d="M 158.989091 69497.136516 
L 163.047273 69497.136516 
L 163.047273 69497.136516 
L 158.989091 69497.136516 
z
" style="fill:#d3d3d3;"/>
   </g>
   <g id="patch_14">
    <path clip-path="url(#p2a185b0559)" d="M 164.061818 69497.136516 
L 168.12 69497.136516 
L 168.12 278.607732 
L 164.061818 278.607732 
z
" style="fill:#d3d3d3;"/>
   </g>
   <g id="patch_15">
    <path clip-path="url(#p2a185b0559)" d="M 169.134545 69497.136516 
L 173.192727 69497.136516 
L 173.192727 69497.136516 
L 169.134545 69497.136516 
z
" style="fill:#d3d3d3;"/>
   </g>
   <g id="patch_16">
    <path clip-path="url(#p2a185b0559)" d="M 174.207273 69497.136516 
L 178.265455 69497.136516 
L 178.265455 69497.136516 
L 174.207273 69497.136516 
z
" style="fill:#d3d3d3;"/>
   </g>
   <g id="patch_17">
    <path clip-path="url(#p2a185b0559)" d="M 179.28 69497.136516 
L 183.338182 69497.136516 
L 183.338182 214.184661 
L 179.28 214.184661 
z
" style="fill:#d3d3d3;"/>
   </g>
   <g id="patch_18">
    <path clip-path="url(#p2a185b0559)" d="M 184.352727 69497.136516 
L 188.410909 69497.136516 
L 188.410909 117.857904 
L 184.352727 117.857904 
z
" style="fill:#d3d3d3;"/>
   </g>
   <g id="patch_19">
    <path clip-path="url(#p2a185b0559)" d="M 189.425455 69497.136516 
L 193.483636 69497.136516 
L 193.483636 266.401891 
L 189.425455 266.401891 
z
" style="fill:#d3d3d3;"/>
   </g>
   <g id="patch_20">
    <path clip-path="url(#p2a185b0559)" d="M 194.498182 69497.136516 
L 198.556364 69497.136516 
L 198.556364 181.409384 
L 194.498182 181.409384 
z
" style="fill:#d3d3d3;"/>
   </g>
   <g id="patch_21">
    <path clip-path="url(#p2a185b0559)" d="M 199.570909 69497.136516 
L 203.629091 69497.136516 
L 203.629091 162.705554 
L 199.570909 162.705554 
z
" style="fill:#d3d3d3;"/>
   </g>
   <g id="patch_22">
    <path clip-path="url(#p2a185b0559)" d="M 204.643636 69497.136516 
L 208.701818 69497.136516 
L 208.701818 133.745065 
L 204.643636 133.745065 
z
" style="fill:#d3d3d3;"/>
   </g>
   <g id="patch_23">
    <path clip-path="url(#p2a185b0559)" d="M 209.716364 69497.136516 
L 213.774545 69497.136516 
L 213.774545 149.657607 
L 209.716364 149.657607 
z
" style="fill:#d3d3d3;"/>
   </g>
   <g id="patch_24">
    <path clip-path="url(#p2a185b0559)" d="M 214.789091 69497.136516 
L 218.847273 69497.136516 
L 218.847273 68.393485 
L 214.789091 68.393485 
z
" style="fill:#d3d3d3;"/>
   </g>
   <g id="patch_25">
    <path clip-path="url(#p2a185b0559)" d="M 219.861818 69497.136516 
L 223.92 69497.136516 
L 223.92 121.295471 
L 219.861818 121.295471 
z
" style="fill:#d3d3d3;"/>
   </g>
   <g id="patch_26">
    <path clip-path="url(#p2a185b0559)" d="M 224.934545 69497.136516 
L 228.992727 69497.136516 
L 228.992727 63.859918 
L 224.934545 63.859918 
z
" style="fill:#d3d3d3;"/>
   </g>
   <g id="patch_27">
    <path clip-path="url(#p2a185b0559)" d="M 230.007273 69497.136516 
L 234.065455 69497.136516 
L 234.065455 92.803422 
L 230.007273 92.803422 
z
" style="fill:#d3d3d3;"/>
   </g>
   <g id="patch_28">
    <path clip-path="url(#p2a185b0559)" d="M 235.08 69497.136516 
L 239.138182 69497.136516 
L 239.138182 109.008816 
L 235.08 109.008816 
z
" style="fill:#d3d3d3;"/>
   </g>
   <g id="patch_29">
    <path clip-path="url(#p2a185b0559)" d="M 240.152727 69497.136516 
L 244.210909 69497.136516 
L 244.210909 116.933762 
L 240.152727 116.933762 
z
" style="fill:#d3d3d3;"/>
   </g>
   <g id="patch_30">
    <path clip-path="url(#p2a185b0559)" d="M 245.225455 69497.136516 
L 249.283636 69497.136516 
L 249.283636 144.869234 
L 245.225455 144.869234 
z
" style="fill:#d3d3d3;"/>
   </g>
   <g id="patch_31">
    <path clip-path="url(#p2a185b0559)" d="M 250.298182 69497.136516 
L 254.356364 69497.136516 
L 254.356364 132.486833 
L 250.298182 132.486833 
z
" style="fill:#d3d3d3;"/>
   </g>
   <g id="patch_32">
    <path clip-path="url(#p2a185b0559)" d="M 255.370909 69497.136516 
L 259.429091 69497.136516 
L 259.429091 77.042036 
L 255.370909 77.042036 
z
" style="fill:#d3d3d3;"/>
   </g>
   <g id="patch_33">
    <path clip-path="url(#p2a185b0559)" d="M 260.443636 69497.136516 
L 264.501818 69497.136516 
L 264.501818 123.087616 
L 260.443636 123.087616 
z
" style="fill:#d3d3d3;"/>
   </g>
   <g id="patch_34">
    <path clip-path="url(#p2a185b0559)" d="M 265.516364 69497.136516 
L 269.574545 69497.136516 
L 269.574545 75.035906 
L 265.516364 75.035906 
z
" style="fill:#d3d3d3;"/>
   </g>
   <g id="patch_35">
    <path clip-path="url(#p2a185b0559)" d="M 270.589091 69497.136516 
L 274.647273 69497.136516 
L 274.647273 140.739026 
L 270.589091 140.739026 
z
" style="fill:#d3d3d3;"/>
   </g>
   <g id="patch_36">
    <path clip-path="url(#p2a185b0559)" d="M 275.661818 69497.136516 
L 279.72 69497.136516 
L 279.72 139.602918 
L 275.661818 139.602918 
z
" style="fill:#d3d3d3;"/>
   </g>
   <g id="patch_37">
    <path clip-path="url(#p2a185b0559)" d="M 280.734545 69497.136516 
L 284.792727 69497.136516 
L 284.792727 55.554545 
L 280.734545 55.554545 
z
" style="fill:#d3d3d3;"/>
   </g>
   <g id="patch_38">
    <path clip-path="url(#p2a185b0559)" d="M 285.807273 69497.136516 
L 289.865455 69497.136516 
L 289.865455 119.29959 
L 285.807273 119.29959 
z
" style="fill:#d3d3d3;"/>
   </g>
   <g id="patch_39">
    <path clip-path="url(#p2a185b0559)" d="M 290.88 69497.136516 
L 294.938182 69497.136516 
L 294.938182 107.081129 
L 290.88 107.081129 
z
" style="fill:#d3d3d3;"/>
   </g>
   <g id="patch_40">
    <path clip-path="url(#p2a185b0559)" d="M 295.952727 69497.136516 
L 300.010909 69497.136516 
L 300.010909 192.019013 
L 295.952727 192.019013 
z
" style="fill:#d3d3d3;"/>
   </g>
   <g id="patch_41">
    <path clip-path="url(#p2a185b0559)" d="M 301.025455 69497.136516 
L 305.083636 69497.136516 
L 305.083636 100.612078 
L 301.025455 100.612078 
z
" style="fill:#d3d3d3;"/>
   </g>
   <g id="patch_42">
    <path clip-path="url(#p2a185b0559)" d="M 306.098182 69497.136516 
L 310.156364 69497.136516 
L 310.156364 120.496928 
L 306.098182 120.496928 
z
" style="fill:#d3d3d3;"/>
   </g>
   <g id="patch_43">
    <path clip-path="url(#p2a185b0559)" d="M 311.170909 69497.136516 
L 315.229091 69497.136516 
L 315.229091 120.973508 
L 311.170909 120.973508 
z
" style="fill:#d3d3d3;"/>
   </g>
   <g id="patch_44">
    <path clip-path="url(#p2a185b0559)" d="M 316.243636 69497.136516 
L 320.301818 69497.136516 
L 320.301818 299.473755 
L 316.243636 299.473755 
z
" style="fill:#d3d3d3;"/>
   </g>
   <g id="patch_45">
    <path clip-path="url(#p2a185b0559)" d="M 321.316364 69497.136516 
L 325.374545 69497.136516 
L 325.374545 167.001048 
L 321.316364 167.001048 
z
" style="fill:#d3d3d3;"/>
   </g>
   <g id="patch_46">
    <path clip-path="url(#p2a185b0559)" d="M 326.389091 69497.136516 
L 330.447273 69497.136516 
L 330.447273 251.02435 
L 326.389091 251.02435 
z
" style="fill:#d3d3d3;"/>
   </g>
   <g id="patch_47">
    <path clip-path="url(#p2a185b0559)" d="M 331.461818 69497.136516 
L 335.52 69497.136516 
L 335.52 233.330027 
L 331.461818 233.330027 
z
" style="fill:#d3d3d3;"/>
   </g>
   <g id="patch_48">
    <path clip-path="url(#p2a185b0559)" d="M 336.534545 69497.136516 
L 340.592727 69497.136516 
L 340.592727 266.401891 
L 336.534545 266.401891 
z
" style="fill:#d3d3d3;"/>
   </g>
   <g id="patch_49">
    <path clip-path="url(#p2a185b0559)" d="M 341.607273 69497.136516 
L 345.665455 69497.136516 
L 345.665455 191.597981 
L 341.607273 191.597981 
z
" style="fill:#d3d3d3;"/>
   </g>
   <g id="patch_50">
    <path clip-path="url(#p2a185b0559)" d="M 346.68 69497.136516 
L 350.738182 69497.136516 
L 350.738182 224.669845 
L 346.68 224.669845 
z
" style="fill:#d3d3d3;"/>
   </g>
   <g id="patch_51">
    <path clip-path="url(#p2a185b0559)" d="M 351.752727 69497.136516 
L 355.810909 69497.136516 
L 355.810909 164.014599 
L 351.752727 164.014599 
z
" style="fill:#d3d3d3;"/>
   </g>
   <g id="patch_52">
    <path clip-path="url(#p2a185b0559)" d="M 356.825455 69497.136516 
L 360.883636 69497.136516 
L 360.883636 69497.136516 
L 356.825455 69497.136516 
z
" style="fill:#d3d3d3;"/>
   </g>
   <g id="patch_53">
    <path clip-path="url(#p2a185b0559)" d="M 361.898182 69497.136516 
L 365.956364 69497.136516 
L 365.956364 218.973035 
L 361.898182 218.973035 
z
" style="fill:#d3d3d3;"/>
   </g>
   <g id="patch_54">
    <path clip-path="url(#p2a185b0559)" d="M 366.970909 69497.136516 
L 371.029091 69497.136516 
L 371.029091 69497.136516 
L 366.970909 69497.136516 
z
" style="fill:#d3d3d3;"/>
   </g>
   <g id="patch_55">
    <path clip-path="url(#p2a185b0559)" d="M 372.043636 69497.136516 
L 376.101818 69497.136516 
L 376.101818 69497.136516 
L 372.043636 69497.136516 
z
" style="fill:#d3d3d3;"/>
   </g>
   <g id="patch_56">
    <path clip-path="url(#p2a185b0559)" d="M 377.116364 69497.136516 
L 381.174545 69497.136516 
L 381.174545 160.394703 
L 377.116364 160.394703 
z
" style="fill:#d3d3d3;"/>
   </g>
   <g id="patch_57">
    <path clip-path="url(#p2a185b0559)" d="M 382.189091 69497.136516 
L 386.247273 69497.136516 
L 386.247273 69497.136516 
L 382.189091 69497.136516 
z
" style="fill:#d3d3d3;"/>
   </g>
   <g id="patch_58">
    <path clip-path="url(#p2a185b0559)" d="M 387.261818 69497.136516 
L 391.32 69497.136516 
L 391.32 69497.136516 
L 387.261818 69497.136516 
z
" style="fill:#d3d3d3;"/>
   </g>
   <g id="patch_59">
    <path clip-path="url(#p2a185b0559)" d="M 392.334545 69497.136516 
L 396.392727 69497.136516 
L 396.392727 254.19605 
L 392.334545 254.19605 
z
" style="fill:#d3d3d3;"/>
   </g>
   <g id="patch_60">
    <path clip-path="url(#p2a185b0559)" d="M 397.407273 69497.136516 
L 401.465455 69497.136516 
L 401.465455 69497.136516 
L 397.407273 69497.136516 
z
" style="fill:#d3d3d3;"/>
   </g>
   <g id="patch_61">
    <path clip-path="url(#p2a185b0559)" d="M 402.48 69497.136516 
L 406.538182 69497.136516 
L 406.538182 245.535868 
L 402.48 245.535868 
z
" style="fill:#d3d3d3;"/>
   </g>
   <g id="patch_62">
    <path clip-path="url(#p2a185b0559)" d="M 407.552727 69497.136516 
L 411.610909 69497.136516 
L 411.610909 231.702425 
L 407.552727 231.702425 
z
" style="fill:#d3d3d3;"/>
   </g>
   <g id="patch_63">
    <path clip-path="url(#p2a185b0559)" d="M 412.625455 69497.136516 
L 416.683636 69497.136516 
L 416.683636 248.155198 
L 412.625455 248.155198 
z
" style="fill:#d3d3d3;"/>
   </g>
   <g id="patch_64">
    <path clip-path="url(#p2a185b0559)" d="M 417.698182 69497.136516 
L 421.756364 69497.136516 
L 421.756364 261.761445 
L 417.698182 261.761445 
z
" style="fill:#d3d3d3;"/>
   </g>
   <g id="patch_65">
    <path clip-path="url(#p2a185b0559)" d="M 422.770909 69497.136516 
L 426.829091 69497.136516 
L 426.829091 213.312041 
L 422.770909 213.312041 
z
" style="fill:#d3d3d3;"/>
   </g>
   <g id="matplotlib.axis_3">
    <g id="ytick_5">
     <g id="line2d_16">
      <defs>
       <path d="M 0 0 
L 3.5 0 
" id="m24908aad6c" style="stroke:#000000;stroke-width:0.8;"/>
      </defs>
      <g>
       <use style="stroke:#000000;stroke-width:0.8;" x="714.96" xlink:href="#m24908aad6c" y="251.02435"/>
      </g>
     </g>
     <g id="text_13">
      <!-- $\mathdefault{10^{-1}}$ -->
      <defs>
       <path d="M 10.59375 35.5 
L 73.1875 35.5 
L 73.1875 27.203125 
L 10.59375 27.203125 
z
" id="DejaVuSans-8722"/>
      </defs>
      <g transform="translate(721.96 256.343256)scale(0.14 -0.14)">
       <use transform="translate(0 0.684375)" xlink:href="#DejaVuSans-49"/>
       <use transform="translate(63.623047 0.684375)" xlink:href="#DejaVuSans-48"/>
       <use transform="translate(128.203125 38.965625)scale(0.7)" xlink:href="#DejaVuSans-8722"/>
       <use transform="translate(186.855469 38.965625)scale(0.7)" xlink:href="#DejaVuSans-49"/>
      </g>
     </g>
    </g>
    <g id="ytick_6">
     <g id="line2d_17">
      <g>
       <use style="stroke:#000000;stroke-width:0.8;" x="714.96" xlink:href="#m24908aad6c" y="181.708922"/>
      </g>
     </g>
     <g id="text_14">
      <!-- $\mathdefault{10^{0}}$ -->
      <g transform="translate(721.96 187.027828)scale(0.14 -0.14)">
       <use transform="translate(0 0.765625)" xlink:href="#DejaVuSans-49"/>
       <use transform="translate(63.623047 0.765625)" xlink:href="#DejaVuSans-48"/>
       <use transform="translate(128.203125 39.046875)scale(0.7)" xlink:href="#DejaVuSans-48"/>
      </g>
     </g>
    </g>
    <g id="ytick_7">
     <g id="line2d_18">
      <g>
       <use style="stroke:#000000;stroke-width:0.8;" x="714.96" xlink:href="#m24908aad6c" y="112.393495"/>
      </g>
     </g>
     <g id="text_15">
      <!-- $\mathdefault{10^{1}}$ -->
      <g transform="translate(721.96 117.712401)scale(0.14 -0.14)">
       <use transform="translate(0 0.684375)" xlink:href="#DejaVuSans-49"/>
       <use transform="translate(63.623047 0.684375)" xlink:href="#DejaVuSans-48"/>
       <use transform="translate(128.203125 38.965625)scale(0.7)" xlink:href="#DejaVuSans-49"/>
      </g>
     </g>
    </g>
    <g id="ytick_8">
     <g id="line2d_19">
      <defs>
       <path d="M 0 0 
L 2 0 
" id="m8446078490" style="stroke:#000000;stroke-width:0.6;"/>
      </defs>
      <g>
       <use style="stroke:#000000;stroke-width:0.6;" x="714.96" xlink:href="#m8446078490" y="299.473755"/>
      </g>
     </g>
    </g>
    <g id="ytick_9">
     <g id="line2d_20">
      <g>
       <use style="stroke:#000000;stroke-width:0.6;" x="714.96" xlink:href="#m8446078490" y="287.267914"/>
      </g>
     </g>
    </g>
    <g id="ytick_10">
     <g id="line2d_21">
      <g>
       <use style="stroke:#000000;stroke-width:0.6;" x="714.96" xlink:href="#m8446078490" y="278.607732"/>
      </g>
     </g>
    </g>
    <g id="ytick_11">
     <g id="line2d_22">
      <g>
       <use style="stroke:#000000;stroke-width:0.6;" x="714.96" xlink:href="#m8446078490" y="271.890373"/>
      </g>
     </g>
    </g>
    <g id="ytick_12">
     <g id="line2d_23">
      <g>
       <use style="stroke:#000000;stroke-width:0.6;" x="714.96" xlink:href="#m8446078490" y="266.401891"/>
      </g>
     </g>
    </g>
    <g id="ytick_13">
     <g id="line2d_24">
      <g>
       <use style="stroke:#000000;stroke-width:0.6;" x="714.96" xlink:href="#m8446078490" y="261.761445"/>
      </g>
     </g>
    </g>
    <g id="ytick_14">
     <g id="line2d_25">
      <g>
       <use style="stroke:#000000;stroke-width:0.6;" x="714.96" xlink:href="#m8446078490" y="257.741709"/>
      </g>
     </g>
    </g>
    <g id="ytick_15">
     <g id="line2d_26">
      <g>
       <use style="stroke:#000000;stroke-width:0.6;" x="714.96" xlink:href="#m8446078490" y="254.19605"/>
      </g>
     </g>
    </g>
    <g id="ytick_16">
     <g id="line2d_27">
      <g>
       <use style="stroke:#000000;stroke-width:0.6;" x="714.96" xlink:href="#m8446078490" y="230.158327"/>
      </g>
     </g>
    </g>
    <g id="ytick_17">
     <g id="line2d_28">
      <g>
       <use style="stroke:#000000;stroke-width:0.6;" x="714.96" xlink:href="#m8446078490" y="217.952486"/>
      </g>
     </g>
    </g>
    <g id="ytick_18">
     <g id="line2d_29">
      <g>
       <use style="stroke:#000000;stroke-width:0.6;" x="714.96" xlink:href="#m8446078490" y="209.292304"/>
      </g>
     </g>
    </g>
    <g id="ytick_19">
     <g id="line2d_30">
      <g>
       <use style="stroke:#000000;stroke-width:0.6;" x="714.96" xlink:href="#m8446078490" y="202.574945"/>
      </g>
     </g>
    </g>
    <g id="ytick_20">
     <g id="line2d_31">
      <g>
       <use style="stroke:#000000;stroke-width:0.6;" x="714.96" xlink:href="#m8446078490" y="197.086463"/>
      </g>
     </g>
    </g>
    <g id="ytick_21">
     <g id="line2d_32">
      <g>
       <use style="stroke:#000000;stroke-width:0.6;" x="714.96" xlink:href="#m8446078490" y="192.446018"/>
      </g>
     </g>
    </g>
    <g id="ytick_22">
     <g id="line2d_33">
      <g>
       <use style="stroke:#000000;stroke-width:0.6;" x="714.96" xlink:href="#m8446078490" y="188.426281"/>
      </g>
     </g>
    </g>
    <g id="ytick_23">
     <g id="line2d_34">
      <g>
       <use style="stroke:#000000;stroke-width:0.6;" x="714.96" xlink:href="#m8446078490" y="184.880622"/>
      </g>
     </g>
    </g>
    <g id="ytick_24">
     <g id="line2d_35">
      <g>
       <use style="stroke:#000000;stroke-width:0.6;" x="714.96" xlink:href="#m8446078490" y="160.842899"/>
      </g>
     </g>
    </g>
    <g id="ytick_25">
     <g id="line2d_36">
      <g>
       <use style="stroke:#000000;stroke-width:0.6;" x="714.96" xlink:href="#m8446078490" y="148.637058"/>
      </g>
     </g>
    </g>
    <g id="ytick_26">
     <g id="line2d_37">
      <g>
       <use style="stroke:#000000;stroke-width:0.6;" x="714.96" xlink:href="#m8446078490" y="139.976876"/>
      </g>
     </g>
    </g>
    <g id="ytick_27">
     <g id="line2d_38">
      <g>
       <use style="stroke:#000000;stroke-width:0.6;" x="714.96" xlink:href="#m8446078490" y="133.259517"/>
      </g>
     </g>
    </g>
    <g id="ytick_28">
     <g id="line2d_39">
      <g>
       <use style="stroke:#000000;stroke-width:0.6;" x="714.96" xlink:href="#m8446078490" y="127.771036"/>
      </g>
     </g>
    </g>
    <g id="ytick_29">
     <g id="line2d_40">
      <g>
       <use style="stroke:#000000;stroke-width:0.6;" x="714.96" xlink:href="#m8446078490" y="123.13059"/>
      </g>
     </g>
    </g>
    <g id="ytick_30">
     <g id="line2d_41">
      <g>
       <use style="stroke:#000000;stroke-width:0.6;" x="714.96" xlink:href="#m8446078490" y="119.110854"/>
      </g>
     </g>
    </g>
    <g id="ytick_31">
     <g id="line2d_42">
      <g>
       <use style="stroke:#000000;stroke-width:0.6;" x="714.96" xlink:href="#m8446078490" y="115.565195"/>
      </g>
     </g>
    </g>
    <g id="ytick_32">
     <g id="line2d_43">
      <g>
       <use style="stroke:#000000;stroke-width:0.6;" x="714.96" xlink:href="#m8446078490" y="91.527472"/>
      </g>
     </g>
    </g>
    <g id="ytick_33">
     <g id="line2d_44">
      <g>
       <use style="stroke:#000000;stroke-width:0.6;" x="714.96" xlink:href="#m8446078490" y="79.321631"/>
      </g>
     </g>
    </g>
    <g id="ytick_34">
     <g id="line2d_45">
      <g>
       <use style="stroke:#000000;stroke-width:0.6;" x="714.96" xlink:href="#m8446078490" y="70.661449"/>
      </g>
     </g>
    </g>
    <g id="ytick_35">
     <g id="line2d_46">
      <g>
       <use style="stroke:#000000;stroke-width:0.6;" x="714.96" xlink:href="#m8446078490" y="63.94409"/>
      </g>
     </g>
    </g>
    <g id="ytick_36">
     <g id="line2d_47">
      <g>
       <use style="stroke:#000000;stroke-width:0.6;" x="714.96" xlink:href="#m8446078490" y="58.455608"/>
      </g>
     </g>
    </g>
    <g id="ytick_37">
     <g id="line2d_48">
      <g>
       <use style="stroke:#000000;stroke-width:0.6;" x="714.96" xlink:href="#m8446078490" y="53.815163"/>
      </g>
     </g>
    </g>
    <g id="ytick_38">
     <g id="line2d_49">
      <g>
       <use style="stroke:#000000;stroke-width:0.6;" x="714.96" xlink:href="#m8446078490" y="49.795426"/>
      </g>
     </g>
    </g>
    <g id="ytick_39">
     <g id="line2d_50">
      <g>
       <use style="stroke:#000000;stroke-width:0.6;" x="714.96" xlink:href="#m8446078490" y="46.249767"/>
      </g>
     </g>
    </g>
    <g id="text_16">
     <!-- Larval density field (m$^{-3}$) -->
     <defs>
      <path d="M 9.8125 72.90625 
L 19.671875 72.90625 
L 19.671875 8.296875 
L 55.171875 8.296875 
L 55.171875 0 
L 9.8125 0 
z
" id="DejaVuSans-76"/>
      <path d="M 2.984375 54.6875 
L 12.5 54.6875 
L 29.59375 8.796875 
L 46.6875 54.6875 
L 56.203125 54.6875 
L 35.6875 0 
L 23.484375 0 
z
" id="DejaVuSans-118"/>
      <path d="M 44.28125 53.078125 
L 44.28125 44.578125 
Q 40.484375 46.53125 36.375 47.5 
Q 32.28125 48.484375 27.875 48.484375 
Q 21.1875 48.484375 17.84375 46.4375 
Q 14.5 44.390625 14.5 40.28125 
Q 14.5 37.15625 16.890625 35.375 
Q 19.28125 33.59375 26.515625 31.984375 
L 29.59375 31.296875 
Q 39.15625 29.25 43.1875 25.515625 
Q 47.21875 21.78125 47.21875 15.09375 
Q 47.21875 7.46875 41.1875 3.015625 
Q 35.15625 -1.421875 24.609375 -1.421875 
Q 20.21875 -1.421875 15.453125 -0.5625 
Q 10.6875 0.296875 5.421875 2 
L 5.421875 11.28125 
Q 10.40625 8.6875 15.234375 7.390625 
Q 20.0625 6.109375 24.8125 6.109375 
Q 31.15625 6.109375 34.5625 8.28125 
Q 37.984375 10.453125 37.984375 14.40625 
Q 37.984375 18.0625 35.515625 20.015625 
Q 33.0625 21.96875 24.703125 23.78125 
L 21.578125 24.515625 
Q 13.234375 26.265625 9.515625 29.90625 
Q 5.8125 33.546875 5.8125 39.890625 
Q 5.8125 47.609375 11.28125 51.796875 
Q 16.75 56 26.8125 56 
Q 31.78125 56 36.171875 55.265625 
Q 40.578125 54.546875 44.28125 53.078125 
z
" id="DejaVuSans-115"/>
      <path d="M 9.421875 54.6875 
L 18.40625 54.6875 
L 18.40625 0 
L 9.421875 0 
z
M 9.421875 75.984375 
L 18.40625 75.984375 
L 18.40625 64.59375 
L 9.421875 64.59375 
z
" id="DejaVuSans-105"/>
      <path d="M 31 75.875 
Q 24.46875 64.65625 21.28125 53.65625 
Q 18.109375 42.671875 18.109375 31.390625 
Q 18.109375 20.125 21.3125 9.0625 
Q 24.515625 -2 31 -13.1875 
L 23.1875 -13.1875 
Q 15.875 -1.703125 12.234375 9.375 
Q 8.59375 20.453125 8.59375 31.390625 
Q 8.59375 42.28125 12.203125 53.3125 
Q 15.828125 64.359375 23.1875 75.875 
z
" id="DejaVuSans-40"/>
      <path d="M 40.578125 39.3125 
Q 47.65625 37.796875 51.625 33 
Q 55.609375 28.21875 55.609375 21.1875 
Q 55.609375 10.40625 48.1875 4.484375 
Q 40.765625 -1.421875 27.09375 -1.421875 
Q 22.515625 -1.421875 17.65625 -0.515625 
Q 12.796875 0.390625 7.625 2.203125 
L 7.625 11.71875 
Q 11.71875 9.328125 16.59375 8.109375 
Q 21.484375 6.890625 26.8125 6.890625 
Q 36.078125 6.890625 40.9375 10.546875 
Q 45.796875 14.203125 45.796875 21.1875 
Q 45.796875 27.640625 41.28125 31.265625 
Q 36.765625 34.90625 28.71875 34.90625 
L 20.21875 34.90625 
L 20.21875 43.015625 
L 29.109375 43.015625 
Q 36.375 43.015625 40.234375 45.921875 
Q 44.09375 48.828125 44.09375 54.296875 
Q 44.09375 59.90625 40.109375 62.90625 
Q 36.140625 65.921875 28.71875 65.921875 
Q 24.65625 65.921875 20.015625 65.03125 
Q 15.375 64.15625 9.8125 62.3125 
L 9.8125 71.09375 
Q 15.4375 72.65625 20.34375 73.4375 
Q 25.25 74.21875 29.59375 74.21875 
Q 40.828125 74.21875 47.359375 69.109375 
Q 53.90625 64.015625 53.90625 55.328125 
Q 53.90625 49.265625 50.4375 45.09375 
Q 46.96875 40.921875 40.578125 39.3125 
z
" id="DejaVuSans-51"/>
      <path d="M 8.015625 75.875 
L 15.828125 75.875 
Q 23.140625 64.359375 26.78125 53.3125 
Q 30.421875 42.28125 30.421875 31.390625 
Q 30.421875 20.453125 26.78125 9.375 
Q 23.140625 -1.703125 15.828125 -13.1875 
L 8.015625 -13.1875 
Q 14.5 -2 17.703125 9.0625 
Q 20.90625 20.125 20.90625 31.390625 
Q 20.90625 42.671875 17.703125 53.65625 
Q 14.5 64.65625 8.015625 75.875 
z
" id="DejaVuSans-41"/>
     </defs>
     <g style="fill:#808080;" transform="translate(773.42 280.46)rotate(-90)scale(0.16 -0.16)">
      <use transform="translate(0 0.765625)" xlink:href="#DejaVuSans-76"/>
      <use transform="translate(55.712891 0.765625)" xlink:href="#DejaVuSans-97"/>
      <use transform="translate(116.992188 0.765625)" xlink:href="#DejaVuSans-114"/>
      <use transform="translate(158.105469 0.765625)" xlink:href="#DejaVuSans-118"/>
      <use transform="translate(217.285156 0.765625)" xlink:href="#DejaVuSans-97"/>
      <use transform="translate(278.564453 0.765625)" xlink:href="#DejaVuSans-108"/>
      <use transform="translate(306.347656 0.765625)" xlink:href="#DejaVuSans-32"/>
      <use transform="translate(338.134766 0.765625)" xlink:href="#DejaVuSans-100"/>
      <use transform="translate(401.611328 0.765625)" xlink:href="#DejaVuSans-101"/>
      <use transform="translate(463.134766 0.765625)" xlink:href="#DejaVuSans-110"/>
      <use transform="translate(526.513672 0.765625)" xlink:href="#DejaVuSans-115"/>
      <use transform="translate(578.613281 0.765625)" xlink:href="#DejaVuSans-105"/>
      <use transform="translate(606.396484 0.765625)" xlink:href="#DejaVuSans-116"/>
      <use transform="translate(645.605469 0.765625)" xlink:href="#DejaVuSans-121"/>
      <use transform="translate(704.785156 0.765625)" xlink:href="#DejaVuSans-32"/>
      <use transform="translate(736.572266 0.765625)" xlink:href="#DejaVuSans-102"/>
      <use transform="translate(771.777344 0.765625)" xlink:href="#DejaVuSans-105"/>
      <use transform="translate(799.560547 0.765625)" xlink:href="#DejaVuSans-101"/>
      <use transform="translate(861.083984 0.765625)" xlink:href="#DejaVuSans-108"/>
      <use transform="translate(888.867188 0.765625)" xlink:href="#DejaVuSans-100"/>
      <use transform="translate(952.34375 0.765625)" xlink:href="#DejaVuSans-32"/>
      <use transform="translate(984.130859 0.765625)" xlink:href="#DejaVuSans-40"/>
      <use transform="translate(1023.144531 0.765625)" xlink:href="#DejaVuSans-109"/>
      <use transform="translate(1121.513672 39.046875)scale(0.7)" xlink:href="#DejaVuSans-8722"/>
      <use transform="translate(1180.166016 39.046875)scale(0.7)" xlink:href="#DejaVuSans-51"/>
      <use transform="translate(1227.436523 0.765625)" xlink:href="#DejaVuSans-41"/>
     </g>
    </g>
   </g>
   <g id="patch_66">
    <path d="M 90 315 
L 90 43.2 
" style="fill:none;stroke:#000000;stroke-linecap:square;stroke-linejoin:miter;stroke-width:0.8;"/>
   </g>
   <g id="patch_67">
    <path d="M 714.96 315 
L 714.96 43.2 
" style="fill:none;stroke:#000000;stroke-linecap:square;stroke-linejoin:miter;stroke-width:0.8;"/>
   </g>
   <g id="patch_68">
    <path d="M 90 315 
L 648 315 
" style="fill:none;stroke:#000000;stroke-linecap:square;stroke-linejoin:miter;stroke-width:0.8;"/>
   </g>
   <g id="patch_69">
    <path d="M 90 43.2 
L 648 43.2 
" style="fill:none;stroke:#000000;stroke-linecap:square;stroke-linejoin:miter;stroke-width:0.8;"/>
   </g>
  </g>
  <g id="axes_3">
   <g id="matplotlib.axis_4">
    <g id="ytick_40">
     <g id="line2d_51">
      <g>
       <use style="stroke:#000000;stroke-width:0.8;" x="648" xlink:href="#m24908aad6c" y="315"/>
      </g>
     </g>
     <g id="text_17">
      <!-- $\mathdefault{10^{-8}}$ -->
      <g transform="translate(655 320.318906)scale(0.14 -0.14)">
       <use transform="translate(0 0.765625)" xlink:href="#DejaVuSans-49"/>
       <use transform="translate(63.623047 0.765625)" xlink:href="#DejaVuSans-48"/>
       <use transform="translate(128.203125 39.046875)scale(0.7)" xlink:href="#DejaVuSans-8722"/>
       <use transform="translate(186.855469 39.046875)scale(0.7)" xlink:href="#DejaVuSans-56"/>
      </g>
     </g>
    </g>
    <g id="ytick_41">
     <g id="line2d_52">
      <g>
       <use style="stroke:#000000;stroke-width:0.8;" x="648" xlink:href="#m24908aad6c" y="247.05"/>
      </g>
     </g>
     <g id="text_18">
      <!-- $\mathdefault{10^{-6}}$ -->
      <g transform="translate(655 252.368906)scale(0.14 -0.14)">
       <use transform="translate(0 0.765625)" xlink:href="#DejaVuSans-49"/>
       <use transform="translate(63.623047 0.765625)" xlink:href="#DejaVuSans-48"/>
       <use transform="translate(128.203125 39.046875)scale(0.7)" xlink:href="#DejaVuSans-8722"/>
       <use transform="translate(186.855469 39.046875)scale(0.7)" xlink:href="#DejaVuSans-54"/>
      </g>
     </g>
    </g>
    <g id="ytick_42">
     <g id="line2d_53">
      <g>
       <use style="stroke:#000000;stroke-width:0.8;" x="648" xlink:href="#m24908aad6c" y="179.1"/>
      </g>
     </g>
     <g id="text_19">
      <!-- $\mathdefault{10^{-4}}$ -->
      <g transform="translate(655 184.418906)scale(0.14 -0.14)">
       <use transform="translate(0 0.684375)" xlink:href="#DejaVuSans-49"/>
       <use transform="translate(63.623047 0.684375)" xlink:href="#DejaVuSans-48"/>
       <use transform="translate(128.203125 38.965625)scale(0.7)" xlink:href="#DejaVuSans-8722"/>
       <use transform="translate(186.855469 38.965625)scale(0.7)" xlink:href="#DejaVuSans-52"/>
      </g>
     </g>
    </g>
    <g id="ytick_43">
     <g id="line2d_54">
      <g>
       <use style="stroke:#000000;stroke-width:0.8;" x="648" xlink:href="#m24908aad6c" y="111.15"/>
      </g>
     </g>
     <g id="text_20">
      <!-- $\mathdefault{10^{-2}}$ -->
      <g transform="translate(655 116.468906)scale(0.14 -0.14)">
       <use transform="translate(0 0.765625)" xlink:href="#DejaVuSans-49"/>
       <use transform="translate(63.623047 0.765625)" xlink:href="#DejaVuSans-48"/>
       <use transform="translate(128.203125 39.046875)scale(0.7)" xlink:href="#DejaVuSans-8722"/>
       <use transform="translate(186.855469 39.046875)scale(0.7)" xlink:href="#DejaVuSans-50"/>
      </g>
     </g>
    </g>
    <g id="ytick_44">
     <g id="line2d_55">
      <g>
       <use style="stroke:#000000;stroke-width:0.8;" x="648" xlink:href="#m24908aad6c" y="43.2"/>
      </g>
     </g>
     <g id="text_21">
      <!-- $\mathdefault{10^{0}}$ -->
      <g transform="translate(655 48.518906)scale(0.14 -0.14)">
       <use transform="translate(0 0.765625)" xlink:href="#DejaVuSans-49"/>
       <use transform="translate(63.623047 0.765625)" xlink:href="#DejaVuSans-48"/>
       <use transform="translate(128.203125 39.046875)scale(0.7)" xlink:href="#DejaVuSans-48"/>
      </g>
     </g>
    </g>
    <g id="text_22">
     <!-- Survival with age -->
     <defs>
      <path d="M 53.515625 70.515625 
L 53.515625 60.890625 
Q 47.90625 63.578125 42.921875 64.890625 
Q 37.9375 66.21875 33.296875 66.21875 
Q 25.25 66.21875 20.875 63.09375 
Q 16.5 59.96875 16.5 54.203125 
Q 16.5 49.359375 19.40625 46.890625 
Q 22.3125 44.4375 30.421875 42.921875 
L 36.375 41.703125 
Q 47.40625 39.59375 52.65625 34.296875 
Q 57.90625 29 57.90625 20.125 
Q 57.90625 9.515625 50.796875 4.046875 
Q 43.703125 -1.421875 29.984375 -1.421875 
Q 24.8125 -1.421875 18.96875 -0.25 
Q 13.140625 0.921875 6.890625 3.21875 
L 6.890625 13.375 
Q 12.890625 10.015625 18.65625 8.296875 
Q 24.421875 6.59375 29.984375 6.59375 
Q 38.421875 6.59375 43.015625 9.90625 
Q 47.609375 13.234375 47.609375 19.390625 
Q 47.609375 24.75 44.3125 27.78125 
Q 41.015625 30.8125 33.5 32.328125 
L 27.484375 33.5 
Q 16.453125 35.6875 11.515625 40.375 
Q 6.59375 45.0625 6.59375 53.421875 
Q 6.59375 63.09375 13.40625 68.65625 
Q 20.21875 74.21875 32.171875 74.21875 
Q 37.3125 74.21875 42.625 73.28125 
Q 47.953125 72.359375 53.515625 70.515625 
z
" id="DejaVuSans-83"/>
      <path d="M 8.5 21.578125 
L 8.5 54.6875 
L 17.484375 54.6875 
L 17.484375 21.921875 
Q 17.484375 14.15625 20.5 10.265625 
Q 23.53125 6.390625 29.59375 6.390625 
Q 36.859375 6.390625 41.078125 11.03125 
Q 45.3125 15.671875 45.3125 23.6875 
L 45.3125 54.6875 
L 54.296875 54.6875 
L 54.296875 0 
L 45.3125 0 
L 45.3125 8.40625 
Q 42.046875 3.421875 37.71875 1 
Q 33.40625 -1.421875 27.6875 -1.421875 
Q 18.265625 -1.421875 13.375 4.4375 
Q 8.5 10.296875 8.5 21.578125 
z
M 31.109375 56 
z
" id="DejaVuSans-117"/>
      <path d="M 4.203125 54.6875 
L 13.1875 54.6875 
L 24.421875 12.015625 
L 35.59375 54.6875 
L 46.1875 54.6875 
L 57.421875 12.015625 
L 68.609375 54.6875 
L 77.59375 54.6875 
L 63.28125 0 
L 52.6875 0 
L 40.921875 44.828125 
L 29.109375 0 
L 18.5 0 
z
" id="DejaVuSans-119"/>
     </defs>
     <g style="fill:#274858;" transform="translate(704.0575 248.315)rotate(-90)scale(0.16 -0.16)">
      <use xlink:href="#DejaVuSans-83"/>
      <use x="63.476562" xlink:href="#DejaVuSans-117"/>
      <use x="126.855469" xlink:href="#DejaVuSans-114"/>
      <use x="167.96875" xlink:href="#DejaVuSans-118"/>
      <use x="227.148438" xlink:href="#DejaVuSans-105"/>
      <use x="254.931641" xlink:href="#DejaVuSans-118"/>
      <use x="314.111328" xlink:href="#DejaVuSans-97"/>
      <use x="375.390625" xlink:href="#DejaVuSans-108"/>
      <use x="403.173828" xlink:href="#DejaVuSans-32"/>
      <use x="434.960938" xlink:href="#DejaVuSans-119"/>
      <use x="516.748047" xlink:href="#DejaVuSans-105"/>
      <use x="544.53125" xlink:href="#DejaVuSans-116"/>
      <use x="583.740234" xlink:href="#DejaVuSans-104"/>
      <use x="647.119141" xlink:href="#DejaVuSans-32"/>
      <use x="678.90625" xlink:href="#DejaVuSans-97"/>
      <use x="740.185547" xlink:href="#DejaVuSans-103"/>
      <use x="803.662109" xlink:href="#DejaVuSans-101"/>
     </g>
    </g>
   </g>
   <g id="line2d_56">
    <path clip-path="url(#p2a185b0559)" d="M 168.075126 147.359412 
L 171.668308 159.329822 
L 175.89558 172.564203 
L 179.911489 184.308631 
L 183.504671 194.133815 
L 186.675126 202.336233 
L 190.902399 212.562563 
L 194.706944 221.095872 
L 197.877399 227.71923 
L 201.893308 235.611003 
L 206.12058 243.250357 
L 209.925126 249.574431 
L 212.884217 254.131198 
L 217.322853 260.509405 
L 221.972853 266.558181 
L 226.411489 271.779408 
L 230.427399 276.067093 
L 233.597853 279.153571 
L 237.191035 282.439154 
L 241.841035 286.272863 
L 246.279671 289.549794 
L 250.506944 292.349353 
L 254.100126 294.491528 
L 257.481944 296.371665 
L 262.977399 299.092632 
L 269.741035 301.996993 
L 273.54558 303.430106 
L 279.675126 305.499697 
L 283.691035 306.694573 
L 290.454671 308.47771 
L 295.738762 309.671158 
L 301.656944 310.829295 
L 308.42058 311.938309 
L 311.168308 312.337162 
L 311.168308 312.337162 
" style="fill:none;stroke:#274858;stroke-dasharray:3,3;stroke-dashoffset:0;stroke-width:1.5;"/>
   </g>
   <g id="line2d_57">
    <path clip-path="url(#p2a185b0559)" d="M 265.092426 127.656667 
L 269.319698 141.860895 
L 272.490153 151.351951 
L 274.815153 157.887563 
L 278.619698 167.669948 
L 280.944698 173.078335 
L 285.594698 183.054859 
L 290.033335 191.422172 
L 294.049244 198.131583 
L 296.585608 201.914024 
L 300.178789 207.006061 
L 304.617426 212.59958 
L 308.421971 216.884197 
L 310.746971 219.291356 
L 316.453789 224.662371 
L 321.103789 228.55336 
L 327.233335 233.05832 
L 330.826517 235.454776 
L 338.858335 240.162702 
L 342.240153 241.890812 
L 346.890153 244.128007 
L 353.231062 246.881765 
L 356.61288 248.215034 
L 365.278789 251.3073 
L 372.253789 253.445489 
L 380.496971 255.704044 
L 388.740153 257.64953 
L 394.235608 258.81964 
L 400.78788 260.08554 
L 410.933335 261.796279 
L 416.217426 262.583228 
L 416.217426 262.583228 
" style="fill:none;stroke:#274858;stroke-dasharray:3,3;stroke-dashoffset:0;stroke-width:1.5;"/>
   </g>
   <g id="line2d_58">
    <path clip-path="url(#p2a185b0559)" d="M 363.672568 117.090556 
L 368.111205 131.857378 
L 370.224841 138.163495 
L 374.874841 151.462477 
L 380.793023 166.294519 
L 384.597568 174.95417 
L 390.51575 186.771715 
L 395.377114 195.452921 
L 401.083932 204.506875 
L 405.099841 210.332795 
L 413.343023 220.866287 
L 415.668023 223.483744 
L 422.854386 231.125911 
L 425.39075 233.58645 
L 435.113477 242.198166 
L 443.99075 249.052212 
L 448.852114 252.465615 
L 453.29075 255.396153 
L 456.249841 257.256203 
L 466.183932 263.136481 
L 479.499841 270.173998 
L 486.052114 273.326938 
L 502.538477 280.623709 
L 512.683932 284.761807 
L 525.154386 289.584358 
L 536.356659 293.684572 
L 566.581659 304.116814 
L 616.886205 320.720526 
L 616.886205 320.720526 
" style="fill:none;stroke:#274858;stroke-dasharray:3,3;stroke-dashoffset:0;stroke-width:1.5;"/>
   </g>
   <g id="line2d_59">
    <path clip-path="url(#p2a185b0559)" d="M 463.762533 112.86286 
L 465.87617 119.716552 
L 471.160261 136.250276 
L 475.810261 149.576783 
L 481.939806 165.405746 
L 485.110261 173.071039 
L 491.45117 186.782517 
L 496.10117 196.018535 
L 503.287533 208.951545 
L 505.40117 212.472407 
L 513.221624 224.448057 
L 515.546624 227.781736 
L 524.423897 239.460492 
L 527.171624 242.709623 
L 532.032988 248.335925 
L 539.007988 255.899902 
L 541.544352 258.454257 
L 552.323897 268.685231 
L 560.567079 275.885981 
L 568.598897 282.334727 
L 571.980715 284.954345 
L 586.987533 295.8344 
L 594.596624 300.976932 
L 597.978443 303.167512 
L 610.660261 311.187326 
L 618.057988 315.610119 
L 636.657988 326.331756 
L 648.071624 332.58433 
L 648.071624 332.58433 
" style="fill:none;stroke:#274858;stroke-dasharray:3,3;stroke-dashoffset:0;stroke-width:1.5;"/>
   </g>
   <g id="patch_70">
    <path d="M 90 315 
L 90 43.2 
" style="fill:none;stroke:#000000;stroke-linecap:square;stroke-linejoin:miter;stroke-width:0.8;"/>
   </g>
   <g id="patch_71">
    <path d="M 648 315 
L 648 43.2 
" style="fill:none;stroke:#000000;stroke-linecap:square;stroke-linejoin:miter;stroke-width:0.8;"/>
   </g>
   <g id="patch_72">
    <path d="M 90 315 
L 648 315 
" style="fill:none;stroke:#000000;stroke-linecap:square;stroke-linejoin:miter;stroke-width:0.8;"/>
   </g>
   <g id="patch_73">
    <path d="M 90 43.2 
L 648 43.2 
" style="fill:none;stroke:#000000;stroke-linecap:square;stroke-linejoin:miter;stroke-width:0.8;"/>
   </g>
  </g>
 </g>
 <defs>
  <clipPath id="p2a185b0559">
   <rect height="271.8" width="558" x="90" y="43.2"/>
  </clipPath>
 </defs>
</svg>
